<svg id="图层_1" data-name="图层 1" xmlns="http://www.w3.org/2000/svg" viewBox="0 0 44 44"><defs><style>.cls-1{fill:#ffc107;}</style></defs><circle class="cls-1" cx="22" cy="22" r="22"/><path d="M244.75,1085.52l-7.58-5.09a1,1,0,0,0-1.09,0l-7,4.73-7-4.73a1,1,0,0,0-1.09,0l-7.61,5.09a1.24,1.24,0,0,0-.53,1v20.36a1.24,1.24,0,0,0,.56,1,1,1,0,0,0,1.08,0l7-4.73,7,4.73a1,1,0,0,0,1.09,0l7-4.73,7,4.73a1,1,0,0,0,.55.17,1,1,0,0,0,.51-.15,1.2,1.2,0,0,0,.52-1v-20.36A1.2,1.2,0,0,0,244.75,1085.52Zm-24.51,15.7-5.15,3.58v-17.52l5.15-3.58Zm2.32,0v-8.89l.25.17.68-.94a6.81,6.81,0,0,0-.92-.56v-7.3l5.29,3.55v7.87a5.63,5.63,0,0,1-1.15-.56l-.61,1a6.73,6.73,0,0,0,1.5.71l.27-.82v9.34Zm7.61,3.55v-8.22h.08l.62-.07-.18-1.15-.51.06v-8.14l5.29-3.55v8.61l-.35-.32-.62.7-.39.44.87.77.39-.45.1-.11v7.88Zm12.76,0-5.15-3.51v-9.92a3.93,3.93,0,0,1,.84-.27l-.23-1.14a5,5,0,0,0-.61.17v-6.35l5.15,3.51v17.52Z" transform="translate(-206.91 -1073.14)"/><path d="M219.83,1091.65c.16-.09-.1-.08.07-.13l-.36-1.1a4.18,4.18,0,0,0-.69.3,4.09,4.09,0,0,0-.82.6l.79.85A6.49,6.49,0,0,1,219.83,1091.65Z" transform="translate(-206.91 -1073.14)"/><path d="M232,1094.91l.51,1a6.1,6.1,0,0,0,1.38-.94l-.77-.87A5,5,0,0,1,232,1094.91Z" transform="translate(-206.91 -1073.14)"/><path d="M217.66,1094.18a4.2,4.2,0,0,1,.52-1.18l-1-.65a5.26,5.26,0,0,0-.66,1.48l0,.05,1.1.35Z" transform="translate(-206.91 -1073.14)"/><path d="M224.83,1092.85l-.22-.26-.88.75.21.25a10.67,10.67,0,0,0,.84.93l.8-.84A9.64,9.64,0,0,1,224.83,1092.85Z" transform="translate(-206.91 -1073.14)"/><polygon points="33.14 19.12 33.89 18.37 34.64 19.12 35.46 18.3 34.71 17.55 35.46 16.8 34.64 15.98 33.89 16.73 33.14 15.98 32.32 16.8 33.07 17.55 32.32 18.3 33.14 19.12"/></svg>