<svg id="图层_1" data-name="图层 1" xmlns="http://www.w3.org/2000/svg" viewBox="0 0 34 34"><defs><style>.cls-1{fill:#ffc107;}.cls-2{fill:#fff;}</style></defs><rect class="cls-1" width="34" height="34"/><circle class="cls-2" cx="17" cy="17" r="17"/><path class="cls-1" d="M-276.35,1186.64c-.32-.1-.54-.16-.37-.59a2.46,2.46,0,0,0,0-2.31c-.74-1.07-2.76-1-5.08,0,0,0-.73.32-.54-.27a2.69,2.69,0,0,0-.25-2.71c-1.26-1.28-4.6.05-7.46,3-2.15,2.18-3.39,4.5-3.39,6.5,0,3.83,4.82,6.39,9.54,6.39,6.19,0,10.3-3.89,10.3-6.8a3.49,3.49,0,0,0-2.76-3.16Zm-7.53,8.24c-3.77.37-7-1.34-7.26-3.82s2.61-4.8,6.38-5.18,7,1.34,7.26,3.82-2.61,4.81-6.38,5.18Zm13.68-11.36a7,7,0,0,0-7-7,.82.82,0,0,0-.82.82.82.82,0,0,0,.82.82,5.37,5.37,0,0,1,5.37,5.37.82.82,0,0,0,.82.82.82.82,0,0,0,.82-.82h0Zm-3.25-.12a4.68,4.68,0,0,0-3.63-3.63.82.82,0,0,0-1,.64.82.82,0,0,0,.64,1,3,3,0,0,1,2.36,2.36.82.82,0,0,0,1,.64.82.82,0,0,0,.64-1Zm-12.36,4.91a2.6,2.6,0,0,0-2.29,2.84,2.6,2.6,0,0,0,3.21,1.74,2.6,2.6,0,0,0,2.29-2.84A2.6,2.6,0,0,0-285.82,1188.32Z" transform="translate(298.82 -1169.56)"/></svg>