<svg id="图层_1" data-name="图层 1" xmlns="http://www.w3.org/2000/svg" viewBox="0 0 87.35 72"><defs><style>.cls-1{fill:#ffc107;}.cls-2{fill:#03a9f4;}</style></defs><path class="cls-1" d="M137.29,1085.08a4.94,4.94,0,1,0,4.94,4.94A5,5,0,0,0,137.29,1085.08Z" transform="translate(-58.06 -1061.38)"/><path class="cls-1" d="M66.2,1085.08a4.94,4.94,0,1,0,4.94,4.94A5,5,0,0,0,66.2,1085.08Z" transform="translate(-58.06 -1061.38)"/><circle class="cls-2" cx="64.07" cy="22.52" r="7.36"/><path class="cls-1" d="M145.42,1120.84H137v-15.43a14.37,14.37,0,0,0-2-7.26,8,8,0,0,1,10.42,7.77Z" transform="translate(-58.06 -1061.38)"/><path class="cls-2" d="M80.45,1076.54a7.36,7.36,0,1,0,7.35,7.36A7.37,7.37,0,0,0,80.45,1076.54Z" transform="translate(-58.06 -1061.38)"/><path class="cls-1" d="M66.2,1097.79a8.07,8.07,0,0,1,2.28.37,14.22,14.22,0,0,0-2,7.26v15.43H58.06v-14.93A8.15,8.15,0,0,1,66.2,1097.79Z" transform="translate(-58.06 -1061.38)"/><path class="cls-1" d="M101.73,1061.38a10.88,10.88,0,1,0,10.89,10.88A10.9,10.9,0,0,0,101.73,1061.38Z" transform="translate(-58.06 -1061.38)"/><path class="cls-2" d="M133.89,1127H121v-23.48a19.48,19.48,0,0,0-2.23-8.93,11.59,11.59,0,0,1,3.31-.53,11.78,11.78,0,0,1,11.76,11.76Z" transform="translate(-58.06 -1061.38)"/><path class="cls-2" d="M81.52,1103.56V1127H68.69v-21.17a11.78,11.78,0,0,1,11.76-11.76,11.51,11.51,0,0,1,3.3.53A19.49,19.49,0,0,0,81.52,1103.56Z" transform="translate(-58.06 -1061.38)"/><path class="cls-1" d="M84.67,1133.38H118.8v-30.28a17.06,17.06,0,0,0-34.13,0Z" transform="translate(-58.06 -1061.38)"/></svg>