<svg id="图层_1" data-name="图层 1" xmlns="http://www.w3.org/2000/svg" viewBox="0 0 190 190"><defs><style>.cls-1{fill:#fff;}</style></defs><rect width="190" height="190"/><path class="cls-1" d="M270.66,1038.84a7.45,7.45,0,0,0,3.14-2.46h-3.55a14.43,14.43,0,0,1-3.75,1.14l-.52-.77a8.94,8.94,0,0,0,5.79-2.39l.74.41a8.57,8.57,0,0,1-.92.82h3.29v.68c-1.7,2.83-4.87,4.29-9.52,4.4l-.35-.83a15.59,15.59,0,0,0,4.85-.7,12.79,12.79,0,0,0-1.27-1.46l.77-.36A16,16,0,0,1,270.66,1038.84Zm-.08-8.6a9.12,9.12,0,0,1-.68.68h3.44v.68c-1.29,2.3-3.71,3.6-7.21,3.87l-.37-.78a13.58,13.58,0,0,0,2.9-.48,11.77,11.77,0,0,0-1.18-1.25l.76-.36a12.68,12.68,0,0,1,1.22,1.32,6.23,6.23,0,0,0,2.89-2.24h-3.5a11.39,11.39,0,0,1-3.32,1.26l-.5-.79a8.42,8.42,0,0,0,4.79-2.33Z" transform="translate(-258.61 -923.1)"/><path class="cls-1" d="M277.39,1034.18l-.58-.72a6.65,6.65,0,0,0,2.45-3.71l.9.17a12.43,12.43,0,0,1-.46,1.28h7.45v.84h-3.77V1034h3.35v.83h-3.35v2.59h4.15v.84h-4.15v2.67h-.88v-2.67H277v-.84h2V1034h3.56V1032h-3.23A7.21,7.21,0,0,1,277.39,1034.18Zm5.12,3.2v-2.59h-2.7v2.59Z" transform="translate(-258.61 -923.1)"/><path class="cls-1" d="M290.57,1031.1v8.56h-1v-8.56Z" transform="translate(-258.61 -923.1)"/><path class="cls-1" d="M299.13,1031.1v.85h-3v7.71h-1V1032h-3v-.85Z" transform="translate(-258.61 -923.1)"/><path class="cls-1" d="M303.69,1029.95a35.74,35.74,0,0,1-.29,4.86,22.08,22.08,0,0,1,2.36,3l-.65.66a18.94,18.94,0,0,0-1.88-2.64,9.14,9.14,0,0,1-2.49,5l-.6-.73a8.64,8.64,0,0,0,2.24-4.39,30.83,30.83,0,0,0,.43-5.69Zm4.68,0c0,1.2,0,2.31-.13,3.32a14.14,14.14,0,0,0,3.07,6.74l-.62.74a15.24,15.24,0,0,1-2.7-5.36c0,.12,0,.24-.06.36a9.26,9.26,0,0,1-2.64,5.08l-.6-.73a8.64,8.64,0,0,0,2.36-4.43,32.12,32.12,0,0,0,.46-5.73Z" transform="translate(-258.61 -923.1)"/><path class="cls-1" d="M317.28,1030v9.54H319V1030h.88v9.54h3.6v.84H312.83v-.84h3.57V1030Zm-1.74,7.74-.79.2a44.85,44.85,0,0,0-1.62-5.54l.73-.24A42.59,42.59,0,0,1,315.54,1037.72Zm7.59-5.34a27.67,27.67,0,0,1-1.81,5.48l-.78-.28a25.89,25.89,0,0,0,1.82-5.42Z" transform="translate(-258.61 -923.1)"/><path class="cls-1" d="M329.06,1039a18.43,18.43,0,0,1-3.83,1.4l-.12-.83a17.26,17.26,0,0,0,3.95-1.39Zm-1.08-8.84a19.14,19.14,0,0,1-1.81,3.66c.55,0,1.1-.12,1.67-.22.23-.42.47-.86.71-1.33l.79.3a27.43,27.43,0,0,1-2.76,4.33,19.84,19.84,0,0,0,2.51-.72v.79a18.37,18.37,0,0,1-3.56.88l-.23-.79a1.38,1.38,0,0,0,.38-.24,12.71,12.71,0,0,0,1.73-2.45l-2.05.3-.22-.79a.91.91,0,0,0,.36-.32,19.7,19.7,0,0,0,1.66-3.72Zm1.62,5.34-.54-.71a8.48,8.48,0,0,0,4.67-3.57h-4.1v-.83h5.13v.68a6.77,6.77,0,0,1-1.3,2,18.36,18.36,0,0,1,2.57,1.91l-.64.64a15.77,15.77,0,0,0-2.5-2A11.08,11.08,0,0,1,329.6,1035.51Zm.12,1.45v-.84h5.6v.84H333v2.65h2.91v.84h-6.69v-.84h2.89V1037Z" transform="translate(-258.61 -923.1)"/><path class="cls-1" d="M348.1,1031.29h-8.74v3.55a13.22,13.22,0,0,1-1.28,6l-.67-.6a12.18,12.18,0,0,0,1.08-5.41v-4.39h9.62Zm-1,8.48a1.64,1.64,0,0,1-1.58.95l-1.42,0-.23-.82,1.44.06a1.07,1.07,0,0,0,1.12-.85,23.52,23.52,0,0,0,.29-4.28H344a9.49,9.49,0,0,1-.9,3.31,6.27,6.27,0,0,1-3,2.74l-.48-.76a5.92,5.92,0,0,0,2.84-2.61,9.17,9.17,0,0,0,.68-2.67h-2.82V1034h2.89l0-.95v-1.16h.88v1.16l0,.95h3.57C347.57,1037.22,347.42,1039.14,347.12,1039.77Z" transform="translate(-258.61 -923.1)"/><path class="cls-1" d="M352.8,1039.18a10.3,10.3,0,0,1,1,1.24l-.6.5a11.35,11.35,0,0,0-1-1.22,10.15,10.15,0,0,0-1.33-1.21l.54-.5A9.42,9.42,0,0,1,352.8,1039.18Z" transform="translate(-258.61 -923.1)"/><path class="cls-1" d="M367.43,1031.62a2.35,2.35,0,0,1,.77,1.81,2.92,2.92,0,0,1-.84,2,12.11,12.11,0,0,1-1.78,1.38,4.23,4.23,0,0,0-1.87,2h4.5v.88H362.5a3.08,3.08,0,0,1,.85-2.12,10.41,10.41,0,0,1,1.86-1.52,10.55,10.55,0,0,0,1.34-1.07,2.24,2.24,0,0,0,.66-1.54,1.55,1.55,0,0,0-.47-1.21,1.87,1.87,0,0,0-1.31-.43,1.6,1.6,0,0,0-1.36.6,2.61,2.61,0,0,0-.53,1.71h-1a3.23,3.23,0,0,1,.8-2.29,2.72,2.72,0,0,1,2.1-.86A2.84,2.84,0,0,1,367.43,1031.62Z" transform="translate(-258.61 -923.1)"/><path class="cls-1" d="M370.48,1034.18l-.58-.72a6.65,6.65,0,0,0,2.45-3.71l.9.17a12.43,12.43,0,0,1-.46,1.28h7.45v.84h-3.77V1034h3.35v.83h-3.35v2.59h4.15v.84h-4.15v2.67h-.88v-2.67h-5.54v-.84h2V1034h3.56V1032h-3.23A7.21,7.21,0,0,1,370.48,1034.18Zm5.12,3.2v-2.59h-2.7v2.59Z" transform="translate(-258.61 -923.1)"/><path class="cls-1" d="M382.65,1040.73l-.18-.82a7.87,7.87,0,0,0,.9.06c.32,0,.49-.18.49-.54v-2.87c-.48.19-1,.37-1.46.54l-.22-.85a15.87,15.87,0,0,0,1.68-.53v-2.83H382.4v-.83h1.45v-2.2h.84v2.2H386v.83H384.7v2.48c.44-.22.88-.43,1.3-.67v.84c-.43.24-.86.46-1.3.66v3.44a.94.94,0,0,1-1,1.08Zm6.63-9.13v-1.7h.84v1.7H393v.83h-2.89v2h2.42v.77a8,8,0,0,1-2.09,3.38,12.51,12.51,0,0,0,2.9,1.62l-.46.72a13,13,0,0,1-3-1.81,11.85,11.85,0,0,1-3.42,1.83l-.41-.72a10.61,10.61,0,0,0,3.23-1.66,7.24,7.24,0,0,1-2-3.32h-.64v-.82h2.65v-2H386.4v-.83Zm.56,6.42a7.44,7.44,0,0,0,1.83-2.82h-3.61A6.39,6.39,0,0,0,389.84,1038Z" transform="translate(-258.61 -923.1)"/><path class="cls-1" d="M399.72,1032.71v-2.87h.86v2.87h4.67v.83h-3.8a12.84,12.84,0,0,0,4.15,5.33l-.58.73a14.54,14.54,0,0,1-4.39-6.06h0v7.3h-.86v-7.3h0a12.85,12.85,0,0,1-4.55,6.13l-.47-.77a11.72,11.72,0,0,0,4.2-5.36h-3.79v-.83Zm4.45-.9-.68.49a15.3,15.3,0,0,0-1.64-2l.67-.42A16.42,16.42,0,0,1,404.17,1031.81Z" transform="translate(-258.61 -923.1)"/><path class="cls-1" d="M407.33,1037.31l-.26-.91a11.19,11.19,0,0,0,3.32-4h-3v-.83h1.85a12.3,12.3,0,0,0-.66-1.51l.83-.23a15.61,15.61,0,0,1,.64,1.64l-.25.1h1.51v.73a9.57,9.57,0,0,1-1.49,2.59,11,11,0,0,1,1.93,1.4l-.48.74a10.28,10.28,0,0,0-1.45-1.26v5.07h-.85v-5C408.44,1036.33,407.92,1036.82,407.33,1037.31Zm7.66-7.39v3.57h2.73v.85H415v5.25h3v.85h-7v-.85h3.09v-5.25h-2.67v-.85h2.67v-3.57Z" transform="translate(-258.61 -923.1)"/><path class="cls-1" d="M429.9,1030.36v.83h-8.7v8.35h9v.83h-9.87v-10Zm-3.91,4.45a14.21,14.21,0,0,0,1.77-3l.78.42a14.7,14.7,0,0,1-1.88,3.2q1.4,1.29,2.55,2.55l-.67.67a28.29,28.29,0,0,0-2.46-2.55,10.91,10.91,0,0,1-3.65,2.59l-.5-.78a9.85,9.85,0,0,0,3.49-2.42c-.95-.84-2-1.7-3.14-2.58l.62-.6C424,1033.13,425,1034,426,1034.81Z" transform="translate(-258.61 -923.1)"/><path class="cls-1" d="M437.75,1040.62a7.62,7.62,0,0,1-1.86-.22,2.77,2.77,0,0,1-1.25-.87.62.62,0,0,0-.46-.3q-.43,0-1.44,1.66l-.65-.59a4.72,4.72,0,0,1,1.72-1.83v-3.65H432.1V1034h2.52v4.5a1.89,1.89,0,0,1,.28.26,2.67,2.67,0,0,0,.92.76,4.31,4.31,0,0,0,1.6.29l2.31,0,1.76,0c.58,0,1,0,1.35,0l-.22.86h-2.78Zm-2.83-8.75-.61.61a14.38,14.38,0,0,0-2.06-1.93l.6-.56A16.35,16.35,0,0,1,434.92,1031.87Zm7.72,1.4v.83H438.9a17,17,0,0,1-1.77,3.63,32.11,32.11,0,0,0,3.86-.62,20.74,20.74,0,0,0-1-1.94l.71-.23a22.06,22.06,0,0,1,1.73,3.78l-.77.2c-.12-.37-.25-.73-.4-1.07a40,40,0,0,1-5.18.77l-.22-.76c.5-.14,1.21-1.4,2.15-3.77h-2.52v-.83Zm-.88-2.72v.79h-5.5v-.79Z" transform="translate(-258.61 -923.1)"/><path class="cls-1" d="M267.4,1045.09v-.8h.86v.8h3.19v-.8h.86v.8H275v.75h-2.7v.71h-.86v-.71h-3.19v.71h-.86v-.71h-2.7v-.75Zm7.28,4.21h-.83v-1.51h-8v1.57H265v-2.3h9.64Zm-.67,6h-.83v-.49h-6.51v.49h-.84v-3.38H274Zm-.83-1.22v-1.44h-6.51v1.44Zm-.31-5.41v2.43h-6v-2.43Zm-.8.67H267.7v1.1h4.37Z" transform="translate(-258.61 -923.1)"/><path class="cls-1" d="M281.87,1044.26v4.28H281V1048a20.78,20.78,0,0,1-3.5.65l-.12-.83a18.58,18.58,0,0,0,3.62-.55v-1.16H277.8v-.79H281v-1.06Zm-1.9,11h-.85v-6.12h7.4v5.11c0,.66-.36,1-1.07,1H284l-.22-.79,1.39,0c.31,0,.48-.14.48-.43v-.77H280Zm5.7-5.38H280v1h5.7Zm-5.7,2.71h5.7v-1H280Zm7.59-7.22a20.43,20.43,0,0,1-3.36,1v1a.37.37,0,0,0,.42.41h1.88a.81.81,0,0,0,.54-.14,1.93,1.93,0,0,0,.26-1.05l.76.25a2.45,2.45,0,0,1-.46,1.49,1.68,1.68,0,0,1-1,.23h-2.27a.89.89,0,0,1-1-1v-3.3h.84v1.33a17.71,17.71,0,0,0,2.88-.86Z" transform="translate(-258.61 -923.1)"/><path class="cls-1" d="M293.73,1053.44a9.27,9.27,0,0,1-3.06,1.68l-.48-.71a8.6,8.6,0,0,0,3-1.52Zm5.85-8.83V1048h-3.72c.11.22.2.46.3.7h4.74v.72H290.35v-.72h4.92a7.36,7.36,0,0,0-.38-.7h-3.2v-3.42Zm-.12,5.48v2.42h-3.27v1.7c0,.66-.31,1-.92,1h-1.43l-.18-.8c.46,0,.9.06,1.32.06.24,0,.36-.16.36-.46v-1.5h-3.45v-2.42Zm-.72-4.1v-.7h-6.22v.7Zm0,.64h-6.22v.72h6.22Zm-.12,4.15h-5.9v1.06h5.9Zm2.43,3.55-.3.79a16,16,0,0,0-3.39-1.49l.36-.68A14.6,14.6,0,0,1,301.06,1054.33Z" transform="translate(-258.61 -923.1)"/><path class="cls-1" d="M305.56,1053.81a2.45,2.45,0,0,1-1.36,2.29l-.32-.52a2,2,0,0,0,1-1.55l-.19,0a.79.79,0,0,1-.53-.19.75.75,0,0,1,0-1,.73.73,0,0,1,.53-.19C305.27,1052.65,305.56,1053,305.56,1053.81Z" transform="translate(-258.61 -923.1)"/><path class="cls-1" d="M316.1,1050.51v-.79h10.61v.79H322v1.36h3.45v.77H322v1.59c.58,0,1.27.08,2.06.08,1,0,1.91,0,2.61,0l-.24.82-2.31,0a11.88,11.88,0,0,1-4-.46,3.85,3.85,0,0,1-1.64-1.59,7.07,7.07,0,0,1-1.79,2.21l-.56-.71a6.64,6.64,0,0,0,2.25-3.59l.82.14a11.89,11.89,0,0,1-.41,1.26,3.5,3.5,0,0,0,1.7,1.6,5.88,5.88,0,0,0,.66.17v-3.59Zm9-5.84v4.16H317.8v-4.16Zm-.85,1.74v-1h-5.59v1Zm0,.71h-5.59v1h5.59Z" transform="translate(-258.61 -923.1)"/><path class="cls-1" d="M337.22,1044.47a9.62,9.62,0,0,1-.82,1.29h3.24v.84H328.91v-.84h3.29a9.13,9.13,0,0,0-.78-1.35l.91-.16q.4.67.79,1.51h2.34a11.54,11.54,0,0,0,.92-1.58Zm-5.1,10.72-.23-.85.9,0c.31,0,.47-.2.47-.6v-1.12h-2.67v2.63h-.84v-7.71h4.35V1054c0,.82-.35,1.22-1,1.22Zm1.14-5.43v-1.38h-2.67v1.38Zm0,2.13v-1.37h-2.67v1.37Zm3-3.75v5.17h-.84v-5.17Zm-.14,7-.18-.83c.5,0,1,.06,1.48.06s.5-.19.5-.55v-6.6h.86v6.81a1,1,0,0,1-1.07,1.1Z" transform="translate(-258.61 -923.1)"/><path class="cls-1" d="M344.19,1050.56a6.18,6.18,0,0,1-1.73,2.64l-.65-.56a5.44,5.44,0,0,0,1.61-2.37Zm.47-5v-1.22h.88v1.22h3.14v-1.22h.88v1.22h2.83v.83h-2.83v1.09h-.88v-1.09h-3.14v1.08h-.88v-1.08H342v-.83Zm2.41,1.79v1.14h3.32c0,1.61-.11,2.91-.2,3.92a5.51,5.51,0,0,1-.54,2.06,1.5,1.5,0,0,1-1.21.61h-1.7l-.23-.82,1.51,0a1.11,1.11,0,0,0,1.12-.92,20.66,20.66,0,0,0,.36-4H347a8.33,8.33,0,0,1-1,3.59,6.28,6.28,0,0,1-3.14,2.41l-.48-.77a5.78,5.78,0,0,0,3-2.25,7.62,7.62,0,0,0,.78-3h-3.25v-.84h3.3v-1.14Zm5.65,5.59-.66.48a23.28,23.28,0,0,0-1.61-2.83l.67-.42A22.77,22.77,0,0,1,352.72,1052.91Z" transform="translate(-258.61 -923.1)"/><path class="cls-1" d="M356.48,1047.36a15.2,15.2,0,0,1-.88,3.53l-.78-.26a14.16,14.16,0,0,0,.91-3.47Zm1.63-2.94v3.66c0,3.29-.79,5.68-2.28,7.2l-.64-.56q2.05-2.07,2.09-6.63v-3.66Zm2.11,6-.71.36a19.41,19.41,0,0,0-1.31-3l.7-.3A21.24,21.24,0,0,1,360.22,1050.4Zm1.27-5.7v10.16h-.84v-10.16Zm2,5.58-.7.35a19,19,0,0,0-1.3-3l.7-.3A19.15,19.15,0,0,1,363.53,1050.28Zm1.26-6v10.95H364v-10.95Z" transform="translate(-258.61 -923.1)"/><path class="cls-1" d="M373.2,1046.73a12.31,12.31,0,0,0,5.18,3.39l-.48.73a12.25,12.25,0,0,1-4.94-3.27,13.07,13.07,0,0,1-5,3.27l-.48-.73a13.29,13.29,0,0,0,5.24-3.39Zm-1.27-1.69a13.32,13.32,0,0,1-3.48,2.63l-.53-.68a13.72,13.72,0,0,0,3.38-2.48Zm4.49,10.18h-.84v-.53h-5.27v.53h-.84v-4.87h6.94Zm-.84-1.33v-2.73h-5.27v2.73Zm2.23-6.7-.61.62a21,21,0,0,0-3.48-2.76l.59-.56A24,24,0,0,1,377.81,1047.19Z" transform="translate(-258.61 -923.1)"/><path class="cls-1" d="M383.23,1055.23l-.17-.77c.36,0,.7,0,1,0a.45.45,0,0,0,.52-.5v-3.68h-4.1v-.78h5.71v.78h-.83v3.87a.91.91,0,0,1-1,1Zm-2.54-9.68v-.79H386v.79h-.6V1049h-.79v-3.48Zm3.11.85v2.25h-2.85v-2.25Zm0,4.76v2.34H381v-2.34Zm-.73-4.2h-1.43v1.14h1.43Zm0,4.77h-1.45v1.2h1.45Zm5.58-3.8a21.52,21.52,0,0,1-.11,2.24,9,9,0,0,0,2.75,4.4l-.58.67a9.72,9.72,0,0,1-2.41-3.57l0,.17a6,6,0,0,1-2.31,3.44l-.54-.66a5.53,5.53,0,0,0,2-2.93,16.82,16.82,0,0,0,.38-3.77Zm-1-3.51c-.06.55-.13,1.06-.23,1.52h3.35v.56c-.17,1.08-.38,2.13-.65,3.18l-.8-.23a19.6,19.6,0,0,0,.62-2.67h-2.7a8.2,8.2,0,0,1-1,2.55l-.68-.48a10.71,10.71,0,0,0,1.32-4.57Z" transform="translate(-258.61 -923.1)"/><path class="cls-1" d="M393.48,1051.71l-.26-.91a11.18,11.18,0,0,0,3.32-4h-3V1046h1.85a12.24,12.24,0,0,0-.66-1.51l.83-.23a15.61,15.61,0,0,1,.64,1.64l-.25.1h1.51v.73a9.58,9.58,0,0,1-1.49,2.59,11,11,0,0,1,1.93,1.4l-.48.74a10.28,10.28,0,0,0-1.45-1.26v5.07h-.85v-5C394.59,1050.73,394.07,1051.22,393.48,1051.71Zm7.66-7.39v3.57h2.73v.85h-2.73V1054h3v.85h-7V1054h3.09v-5.25h-2.67v-.85h2.67v-3.57Z" transform="translate(-258.61 -923.1)"/><path class="cls-1" d="M416.53,1044.76v.83h-8.7v8.35h9v.83H407v-10Zm-3.91,4.45a14.21,14.21,0,0,0,1.77-3l.78.42a14.7,14.7,0,0,1-1.88,3.2q1.4,1.29,2.55,2.55l-.67.67a28.29,28.29,0,0,0-2.46-2.55,10.91,10.91,0,0,1-3.65,2.59l-.5-.78a9.85,9.85,0,0,0,3.49-2.42c-.95-.84-2-1.7-3.14-2.58l.62-.6C410.65,1047.53,411.68,1048.37,412.63,1049.21Z" transform="translate(-258.61 -923.1)"/><path class="cls-1" d="M422.14,1044.6a18.31,18.31,0,0,1-2,3.56c.58,0,1.14-.13,1.71-.23q.38-.67.79-1.44l.78.3a28.42,28.42,0,0,1-2.85,4.4,18.72,18.72,0,0,0,2.66-.79v.79a19,19,0,0,1-3.75,1l-.23-.8a1.58,1.58,0,0,0,.4-.25,13,13,0,0,0,1.74-2.37l-2.11.3-.22-.8a.84.84,0,0,0,.37-.32,18.24,18.24,0,0,0,1.85-3.62Zm1.07,8.79a18,18,0,0,1-3.89,1.27l-.11-.85a18.46,18.46,0,0,0,4-1.24Zm5.71.61h1v.84H423V1054h1v-9.18h4.87Zm-.85-6.18v-2.17H424.9v2.17Zm0,3.08v-2.27H424.9v2.27Zm0,3.09v-2.28H424.9V1054Z" transform="translate(-258.61 -923.1)"/><path class="cls-1" d="M435,1044.59a19.45,19.45,0,0,1-2,3.79c.58-.07,1.15-.16,1.75-.26.26-.48.55-1,.84-1.52l.77.3a27.69,27.69,0,0,1-2.84,4.4,19.6,19.6,0,0,0,2.63-.74v.74a17.63,17.63,0,0,1-3.75,1l-.24-.8a1.5,1.5,0,0,0,.41-.25,12.19,12.19,0,0,0,1.73-2.33l-2.12.35-.23-.79a1,1,0,0,0,.37-.34,19.59,19.59,0,0,0,1.86-3.86Zm1.12,9.09a24.17,24.17,0,0,1-4.05,1.08l-.11-.86a22.81,22.81,0,0,0,4.16-1.07Zm2.53-2.05a15.52,15.52,0,0,1-2.09,3.63l-.73-.53a13.9,13.9,0,0,0,2.06-3.47Zm3.54-6.67v5.64h-5.37V1045Zm-.86.83h-3.66v4h3.66Zm1.66,9-.73.52a27.78,27.78,0,0,0-2-3.57l.7-.43A32.14,32.14,0,0,1,442.94,1054.76Z" transform="translate(-258.61 -923.1)"/><path class="cls-1" d="M268.9,1059.91v-1.27h.89v1.27h2.83v.8h-2.83v1.43h1.51a16.15,16.15,0,0,0,3-2.72l.66.48a16.62,16.62,0,0,1-2.27,2.24h2.57v.82h-3.66l-.54.35a19.28,19.28,0,0,1-1.88,1h4.53v5.4h-.86v-.54h-5.19v.54h-.88v-4.41c-.65.24-1.32.47-2,.7l-.36-.8A20.55,20.55,0,0,0,270,1063h-5.46v-.82h4.35v-1.43h-3.29v-.8Zm3.92,5.13h-5.19v1.26h5.19Zm-5.19,3.33h5.19v-1.31h-5.19Z" transform="translate(-258.61 -923.1)"/><path class="cls-1" d="M280.33,1066.75A2.45,2.45,0,0,1,279,1069l-.32-.52a2,2,0,0,0,1-1.55l-.2,0a.74.74,0,0,1-.52-.19.75.75,0,0,1,0-1,.69.69,0,0,1,.52-.19C280,1065.58,280.33,1066,280.33,1066.75Zm-.34-5.36a.69.69,0,0,1,.2.5.69.69,0,0,1-.2.52.76.76,0,0,1-.53.2.74.74,0,0,1-.52-.2.69.69,0,0,1-.2-.52.64.64,0,0,1,.2-.5.69.69,0,0,1,.52-.2A.71.71,0,0,1,280,1061.39Z" transform="translate(-258.61 -923.1)"/><path class="cls-1" d="M293.36,1060.54a12.3,12.3,0,0,0-1.13-1.55l.76-.36a13.91,13.91,0,0,1,1.14,1.62l-.55.29h2.48a12.29,12.29,0,0,0,.95-2l.83.3a10.61,10.61,0,0,1-.9,1.66h2.16v5h-3.57v1.09h4.89v.83h-4.89v2.25h-.88v-2.25h-4.91v-.83h4.91v-1.09h-3.57v-5Zm1.28,2.12v-1.33h-2.72v1.33Zm0,.76h-2.72v1.34h2.72Zm.88-.76h2.71v-1.33h-2.71Zm2.71.76h-2.71v1.34h2.71Z" transform="translate(-258.61 -923.1)"/><path class="cls-1" d="M305.55,1060.21c.23-.5.46-1,.67-1.61l.86.19c-.19.49-.4,1-.6,1.42h6.12v.84h-6.54a16.31,16.31,0,0,1-1.77,2.71h3.09V1062h.88v1.76H312v.79h-3.69v1.76h4.55v.84h-4.55v2.58h-.88v-2.58h-4.83v-.84h4.83v-1.76h-4l-.19-.79a12.48,12.48,0,0,0,1.93-2.71h-2.4v-.84Z" transform="translate(-258.61 -923.1)"/><path class="cls-1" d="M319.37,1062.8c0,.29-.11.55-.17.82h5.15v.79H319c-.11.34-.22.67-.34,1h5.28v.65a8.64,8.64,0,0,1-2.05,2,13.88,13.88,0,0,0,3.44.84l-.38.78a12.44,12.44,0,0,1-3.84-1.14,11.2,11.2,0,0,1-3.41,1.2l-.38-.77a10.8,10.8,0,0,0,3-.88,11,11,0,0,1-2.09-1.59,8.19,8.19,0,0,1-2.71,3.08l-.42-.74a8.27,8.27,0,0,0,3.07-4.38h-1.86v-.79h2.08c.07-.31.13-.61.19-.92Zm5.89.79h-.89v-1.2h-8.16v1.2h-.89v-2h1.82a11.12,11.12,0,0,0-.4-1.13l.85-.13q.2.56.4,1.26h2a10.28,10.28,0,0,0-.43-1.22l.84-.13a12.14,12.14,0,0,1,.43,1.35h1.54a9.48,9.48,0,0,0,.79-1.61l.83.3a7.88,7.88,0,0,1-.72,1.31h2Zm-.22-4a63.7,63.7,0,0,1-9.33.55l-.26-.8a73,73,0,0,0,9.16-.5Zm-4,8a9.51,9.51,0,0,0,1.87-1.49h-4.08A11.07,11.07,0,0,0,321,1067.62Z" transform="translate(-258.61 -923.1)"/><path class="cls-1" d="M330.3,1058.6c-.14.84-.29,1.63-.43,2.35h2.07v.49a13.15,13.15,0,0,1-1.18,5,20.26,20.26,0,0,1,1.7,1.46l-.59.68a18.57,18.57,0,0,0-1.52-1.39,9.13,9.13,0,0,1-2.29,2.55l-.59-.72a8,8,0,0,0,2.21-2.39c-.55-.44-1.18-.91-1.85-1.4a33.08,33.08,0,0,0,1-3.42h-1.27V1061H329c.17-.79.31-1.59.44-2.42Zm.79,3.18h-1.4a25.36,25.36,0,0,1-.9,3.17l1.28.92A11.09,11.09,0,0,0,331.09,1061.78Zm4,1.92v-1.51a12,12,0,0,0,1.85-2.06H332.7v-.84h5.19v.84a17.19,17.19,0,0,1-2,2.33v1.25h2.45v.84h-2.45v3.84c0,.77-.32,1.15-.95,1.15h-1.73l-.23-.82h1.61c.28,0,.42-.2.42-.61v-3.57h-2.71v-.84Z" transform="translate(-258.61 -923.1)"/><path class="cls-1" d="M344.54,1059.91v-1.27h.89v1.27h2.83v.8h-2.83v1.43h1.51a16.15,16.15,0,0,0,3-2.72l.66.48a16.62,16.62,0,0,1-2.27,2.24h2.57v.82h-3.66l-.54.35a19.28,19.28,0,0,1-1.88,1h4.53v5.4h-.86v-.54h-5.19v.54h-.88v-4.41c-.65.24-1.32.47-2,.7l-.36-.8a20.55,20.55,0,0,0,5.63-2.21h-5.46v-.82h4.35v-1.43h-3.29v-.8Zm3.92,5.13h-5.19v1.26h5.19Zm-5.19,3.33h5.19v-1.31h-5.19Z" transform="translate(-258.61 -923.1)"/><path class="cls-1" d="M355.15,1068.21a2.45,2.45,0,0,1-1.36,2.29l-.32-.52a2,2,0,0,0,1-1.55l-.19,0a.79.79,0,0,1-.53-.19.75.75,0,0,1,0-1,.73.73,0,0,1,.53-.19C354.86,1067,355.15,1067.43,355.15,1068.21Z" transform="translate(-258.61 -923.1)"/><path class="cls-1" d="M370.38,1060.42a2.35,2.35,0,0,1,.77,1.81,2.92,2.92,0,0,1-.84,2,12.11,12.11,0,0,1-1.78,1.38,4.24,4.24,0,0,0-1.87,2h4.5v.88h-5.71a3.08,3.08,0,0,1,.85-2.12,10.38,10.38,0,0,1,1.86-1.52,10.66,10.66,0,0,0,1.34-1.07,2.24,2.24,0,0,0,.66-1.54,1.55,1.55,0,0,0-.47-1.21,1.87,1.87,0,0,0-1.31-.43,1.6,1.6,0,0,0-1.36.6,2.61,2.61,0,0,0-.53,1.71h-1a3.23,3.23,0,0,1,.8-2.29,2.72,2.72,0,0,1,2.1-.86A2.84,2.84,0,0,1,370.38,1060.42Z" transform="translate(-258.61 -923.1)"/><path class="cls-1" d="M378.43,1061.09a7.34,7.34,0,0,1,0,6.19,2.65,2.65,0,0,1-4.63,0,7.34,7.34,0,0,1,0-6.19,2.65,2.65,0,0,1,4.63,0Zm-4,.72a6.33,6.33,0,0,0-.36,2.38,6.42,6.42,0,0,0,.36,2.37,1.73,1.73,0,0,0,3.31,0,6.38,6.38,0,0,0,.37-2.37,6.3,6.3,0,0,0-.37-2.37,1.73,1.73,0,0,0-3.31,0Z" transform="translate(-258.61 -923.1)"/><path class="cls-1" d="M383.85,1059.9v8.56h-1v-7.36a4.59,4.59,0,0,1-2,1.18v-1a5.14,5.14,0,0,0,1.2-.52,4.94,4.94,0,0,0,1-.88Z" transform="translate(-258.61 -923.1)"/><path class="cls-1" d="M391.65,1061.09a7.34,7.34,0,0,1,0,6.19,2.65,2.65,0,0,1-4.63,0,7.34,7.34,0,0,1,0-6.19,2.65,2.65,0,0,1,4.63,0Zm-4,.72a6.33,6.33,0,0,0-.36,2.38,6.42,6.42,0,0,0,.36,2.37,1.73,1.73,0,0,0,3.31,0,6.38,6.38,0,0,0,.37-2.37,6.3,6.3,0,0,0-.37-2.37,1.73,1.73,0,0,0-3.31,0Z" transform="translate(-258.61 -923.1)"/><path class="cls-1" d="M394.67,1063l-.58-.72a6.65,6.65,0,0,0,2.45-3.71l.9.17A12.43,12.43,0,0,1,397,1060h7.45v.84h-3.77v1.92H404v.83h-3.35v2.59h4.15v.84h-4.15v2.67h-.88V1067h-5.54v-.84h2v-3.42h3.56v-1.92h-3.23A7.21,7.21,0,0,1,394.67,1063Zm5.12,3.2v-2.59h-2.7v2.59Z" transform="translate(-258.61 -923.1)"/><path class="cls-1" d="M410.87,1060.18h2.6a7.08,7.08,0,0,0,.59-1.62l.84.12a6.55,6.55,0,0,1-.6,1.5h2.17v4.11h-8.59v-4.11h2.17a8.61,8.61,0,0,0-.64-1.33l.86-.14A10.71,10.71,0,0,1,410.87,1060.18Zm4.83,9.5h-.83v-.47h-5.34v.47h-.84v-4.56h7Zm-4-8.73h-3v2.59h3Zm-.78,2.15-.68.19a9.63,9.63,0,0,0-.92-1.82l.66-.22A9.52,9.52,0,0,1,411,1063.09Zm3.92,3.74v-1h-5.34v1Zm0,1.64v-1h-5.34v1Zm.76-7.53h-3.09v2.59h3.09Zm-.71.54a7,7,0,0,1-1,1.83l-.67-.25a6.72,6.72,0,0,0,1-1.76Z" transform="translate(-258.61 -923.1)"/><path class="cls-1" d="M423,1060.54a12.3,12.3,0,0,0-1.13-1.55l.76-.36a13.91,13.91,0,0,1,1.14,1.62l-.55.29h2.48a12.29,12.29,0,0,0,.95-2l.83.3a10.61,10.61,0,0,1-.9,1.66h2.16v5H425.2v1.09h4.89v.83H425.2v2.25h-.88v-2.25h-4.91v-.83h4.91v-1.09h-3.57v-5Zm1.28,2.12v-1.33H421.6v1.33Zm0,.76H421.6v1.34h2.72Zm.88-.76h2.71v-1.33H425.2Zm2.71.76H425.2v1.34h2.71Z" transform="translate(-258.61 -923.1)"/><path class="cls-1" d="M435.24,1060.21c.23-.5.46-1,.67-1.61l.86.19c-.19.49-.4,1-.6,1.42h6.12v.84h-6.54a16.31,16.31,0,0,1-1.77,2.71h3.09V1062H438v1.76h3.69v.79H438v1.76h4.55v.84H438v2.58h-.88v-2.58h-4.83v-.84h4.83v-1.76h-4l-.19-.79a12.48,12.48,0,0,0,1.93-2.71h-2.4v-.84Z" transform="translate(-258.61 -923.1)"/><path class="cls-1" d="M266,1077.43v-2.59h-1.51V1074h3.89v.84h-1.54v2.59h1.37v.83h-1.37v2.84c.55-.17,1.08-.36,1.61-.56v.83a27.45,27.45,0,0,1-3.9,1.16l-.22-.83c.56-.1,1.12-.22,1.67-.36v-3.08h-1.33v-.83Zm8.95-3.78v.84h-2.16a14,14,0,0,1-.54,1.51v8h-.84v-6.39a13.43,13.43,0,0,1-2.59,3.13l-.53-.68a12.32,12.32,0,0,0,3.66-5.61h-3.09v-.84Zm.5,6.5-.72.5a25.25,25.25,0,0,0-2.33-3.32l.66-.42A26.6,26.6,0,0,1,275.47,1080.15Z" transform="translate(-258.61 -923.1)"/><path class="cls-1" d="M278.9,1077.71l-.61.61a11.46,11.46,0,0,0-1.85-1.54l.62-.6A13.71,13.71,0,0,1,278.9,1077.71ZM279,1080a34.45,34.45,0,0,1-1.7,3.92l-.8-.35a33.78,33.78,0,0,0,1.76-3.86Zm0-5.24-.61.62a10.31,10.31,0,0,0-1.85-1.51l.62-.59A12,12,0,0,1,279.09,1074.74Zm1.27,1.05h6.09c0,1.06-.07,2-.1,2.81h1v.8h-1.06c0,.88-.08,1.58-.12,2.13h1v.74h-1a5.37,5.37,0,0,1-.1.64,1.46,1.46,0,0,1-.68.86,3.34,3.34,0,0,1-1.46.25h-1l-.25-.79c.43,0,.83,0,1.19,0a3.88,3.88,0,0,0,.88-.1.92.92,0,0,0,.58-.54,2,2,0,0,0,.07-.38H279.6c.19-1,.36-1.92.48-2.88h-1.2v-.8h1.28c.1-.92.16-1.86.18-2.79a9.71,9.71,0,0,1-.79.9L279,1076a8.66,8.66,0,0,0,2-3.07l.86.18c-.12.3-.25.59-.38.85H287v.8h-6A11.78,11.78,0,0,1,280.36,1075.8Zm.2,5.75h4.82c0-.54.07-1.25.12-2.13H280.9C280.8,1080.18,280.69,1080.9,280.56,1081.54Zm5-5h-4.49c0,.72-.08,1.4-.14,2h4.56C285.56,1078,285.59,1077.3,285.61,1076.57Zm-1.49,4.28-.56.55a9.88,9.88,0,0,0-1.48-1.32l.54-.53A10.45,10.45,0,0,1,284.13,1080.85Zm.12-2.9-.55.55a8.43,8.43,0,0,0-1.5-1.2l.54-.53A9.55,9.55,0,0,1,284.24,1077.95Z" transform="translate(-258.61 -923.1)"/><path class="cls-1" d="M293.49,1074.19l.14-1.2.88.12c0,.37-.07.73-.12,1.08h4.81v.82h-4.94c-.07.43-.16.83-.24,1.21h4.55v6.62c0,.76-.36,1.14-1.07,1.14h-1.18l-.23-.84,1.12,0a.45.45,0,0,0,.5-.52V1077H290v7h-.85v-7.83h3.95c.08-.41.17-.82.24-1.21h-4.85v-.82Zm-.26,4.72h1.26a14.19,14.19,0,0,0,.72-1.56l.79.29a11.32,11.32,0,0,1-.68,1.27h1.37v.76h-2.4v1.26H297v.77h-2.76v2.17h-.84v-2.17h-2.75v-.77h2.75v-1.26h-2.36v-.76h1.32a6.9,6.9,0,0,0-.65-1.21l.77-.29A9.24,9.24,0,0,1,293.22,1078.92Z" transform="translate(-258.61 -923.1)"/><path class="cls-1" d="M306.89,1080.72h.84v2.52h.72a1,1,0,0,0,.89-.41,10.21,10.21,0,0,0,.3-3.43h-7.47v-5.24h2.37a5.92,5.92,0,0,0,.43-1.25l.86.12a4.84,4.84,0,0,1-.42,1.13h3.8a10,10,0,0,1-.42,3.09,1.17,1.17,0,0,1-1.09.49h-.77l-.26-.79,1,0a.45.45,0,0,0,.42-.24,8.42,8.42,0,0,0,.18-1.79H303v3.66h7.46c0,2.76-.19,4.37-.5,4.81a1.82,1.82,0,0,1-1.57.64h-.76l-.2-.72h-6.18v-2.61h.83v1.81h2v-2.45h.84v2.45h2Zm-.61-3.6-.5.59a11.12,11.12,0,0,0-1.92-1.64l.55-.5A10.4,10.4,0,0,1,306.28,1077.12Z" transform="translate(-258.61 -923.1)"/><path class="cls-1" d="M314.91,1082.61a2.45,2.45,0,0,1-1.36,2.29l-.32-.52a2,2,0,0,0,1-1.55l-.19,0a.79.79,0,0,1-.53-.19.75.75,0,0,1,0-1,.73.73,0,0,1,.53-.19C314.62,1081.45,314.91,1081.83,314.91,1082.61Z" transform="translate(-258.61 -923.1)"/><path class="cls-1" d="M328.14,1074.93a12.28,12.28,0,0,0-1.13-1.55l.76-.36a14,14,0,0,1,1.14,1.62l-.55.29h2.48a12.29,12.29,0,0,0,.95-2l.83.3a10.61,10.61,0,0,1-.9,1.66h2.16v5H330.3V1081h4.89v.83H330.3v2.25h-.88v-2.25h-4.91V1081h4.91v-1.09h-3.57v-5Zm1.28,2.12v-1.33H326.7v1.33Zm0,.76H326.7v1.34h2.72Zm.88-.76H333v-1.33H330.3Zm2.71.76H330.3v1.34H333Z" transform="translate(-258.61 -923.1)"/><path class="cls-1" d="M339.74,1074.61c.23-.5.46-1,.67-1.61l.86.19c-.19.49-.4,1-.6,1.42h6.12v.84h-6.54a16.31,16.31,0,0,1-1.77,2.71h3.09v-1.76h.88v1.76h3.69v.79h-3.69v1.76H347v.84h-4.55v2.58h-.88v-2.58h-4.83v-.84h4.83V1079h-4l-.19-.79a12.46,12.46,0,0,0,1.93-2.71h-2.4v-.84Z" transform="translate(-258.61 -923.1)"/><path class="cls-1" d="M351.21,1081.18a17.79,17.79,0,0,1-2.84.67l-.11-.82a19.52,19.52,0,0,0,3-.64Zm-2.69-6.78v-.79h3.78l-.58,4.94h.92c0,2.73-.12,4.31-.36,4.73a1.66,1.66,0,0,1-1.55.62q-.43,0-.9,0l-.22-.77q.67.07.94.07c.6,0,1-.19,1.09-.55a16.07,16.07,0,0,0,.19-3.3h-3.17l.59-4.21.79,0-.5,3.41h1.36l.52-4.15Zm7.08-.32,0-.41v-.6h.82v.6c0,.14,0,.28,0,.41H359v.77h-2.76a2.51,2.51,0,0,0-.1.28,17.4,17.4,0,0,1,2.91,1.47l-.43.68a14.41,14.41,0,0,0-2.79-1.55,3.16,3.16,0,0,1-.22.29,4.92,4.92,0,0,1-2.4,1.27l-.44-.68a4.43,4.43,0,0,0,2.19-1.09,2.54,2.54,0,0,0,.4-.67h-2.33v-.77Zm3.75,3.53v.8h-.92v4.64a.85.85,0,0,1-.95,1h-1.24l-.18-.79c.4,0,.77.06,1.13.06s.41-.16.41-.46v-4.42h-4.69v-.8Zm-2.77,1.75v2.89h-3.12v-2.89Zm-.8.7h-1.5v1.49h1.5Z" transform="translate(-258.61 -923.1)"/><path class="cls-1" d="M363.84,1073.53a9.55,9.55,0,0,1-3.24,3.53l-.25-.86a8.32,8.32,0,0,0,2.71-3Zm.56,2.73a9.51,9.51,0,0,1-1.31,1.92v5.88h-.85v-5a15.29,15.29,0,0,1-1.57,1.25l-.25-.86a9.76,9.76,0,0,0,3.2-3.54Zm6.82.61v.85h-1.94V1083c0,.7-.4,1-1.16,1h-1.76l-.18-.85c.58,0,1.12.06,1.64.06s.59-.16.59-.47v-5h-3.78v-.85Zm-.53-3v.85H365v-.85Z" transform="translate(-258.61 -923.1)"/><path class="cls-1" d="M375,1073.17v4.64q0,4.28-2,6.26l-.66-.59c1.18-1.18,1.78-3.06,1.8-5.67v-4.64Zm3.56.43v9.56h-.88v-9.56Zm3.59-.48V1084h-.88v-10.9Z" transform="translate(-258.61 -923.1)"/><path class="cls-1" d="M387.44,1073.83v-.77h.89v.77h3.08v-.76h.89v.76h2.79v.76h-2.79v.66h.61v.67h1a7.9,7.9,0,0,0-.4-.9l.73-.12c.12.3.25.64.37,1h.6v.73h-2.25a26.42,26.42,0,0,0,.29,3.51q0,.22.07.4a12.29,12.29,0,0,0,.68-3.11l.73.16a11.87,11.87,0,0,1-1.13,4.16,3.87,3.87,0,0,0,.23.61c.22.46.4.7.52.7s.29-.55.41-1.63l.62.35c-.2,1.49-.5,2.23-.89,2.23s-.66-.3-1-.87a4,4,0,0,1-.31-.64,5.41,5.41,0,0,1-1.58,1.47l-.41-.65.2-.13h-3.14v-5.85h3.42v.7h-1.06v1h1v2.28h-1v1.14h1.06v.49a5.52,5.52,0,0,0,1.19-1.42,9.2,9.2,0,0,1-.28-1.13,24.57,24.57,0,0,1-.36-3.81h-4.64v3.66a8,8,0,0,1-.83,3.75l-.62-.56a6.79,6.79,0,0,0,.67-3.19v-.13h-1a5.62,5.62,0,0,1-.88,3.36l-.6-.47a4.6,4.6,0,0,0,.79-2.89h-.68v-.72h2.33v-1.21H384.9v-2.73h.74v2h1.09v-1.61h5.41v-.49h-.74v-.84h-3.08v.83h-.89v-.83h-2.79v-.76Zm1.46,4.22v1h1v-1Zm0,2.67h2v-1h-2Zm0,1.79h1v-1.14h-1Z" transform="translate(-258.61 -923.1)"/><path class="cls-1" d="M399.33,1073.33a20,20,0,0,1-1.86,3.74c.54,0,1.08-.12,1.62-.2l.7-1.37.77.29a27.07,27.07,0,0,1-2.64,4.32,20.63,20.63,0,0,0,2.59-.68v.78a20.91,20.91,0,0,1-3.61.85l-.24-.79a1.62,1.62,0,0,0,.4-.25,12,12,0,0,0,1.61-2.36l-2,.26-.2-.79a.79.79,0,0,0,.36-.31,20.28,20.28,0,0,0,1.69-3.8Zm1.31,9.18a22.2,22.2,0,0,1-4,1.1l-.11-.84a21,21,0,0,0,4.14-1.09Zm5.94-6.52-3.08.43c0,.58.06,1.12.11,1.63l3.18-.5.13.82-3.21.5c0,.22.06.43.1.62a11.53,11.53,0,0,0,.43,1.64,11,11,0,0,0,1.73-2l.68.47a12.51,12.51,0,0,1-2.06,2.36c0,.07.08.16.13.23.4.59.74.89,1.06.89s.59-.65.8-1.93l.73.48c-.34,1.58-.82,2.39-1.44,2.39a2.2,2.2,0,0,1-1.63-1.1,2.47,2.47,0,0,1-.28-.44,9.41,9.41,0,0,1-2.87,1.46l-.5-.7a10.35,10.35,0,0,0,3-1.52,9.68,9.68,0,0,1-.55-1.75c-.07-.31-.12-.61-.17-.92l-2.16.35-.12-.82,2.17-.35c-.06-.52-.1-1.07-.11-1.64l-1.73.25-.13-.79,1.83-.26v-2.66h.86v2.54l3-.42Zm-.35-1.46-.67.47a10.53,10.53,0,0,0-1.42-1.54l.67-.42A15.13,15.13,0,0,1,406.22,1074.51Z" transform="translate(-258.61 -923.1)"/><path class="cls-1" d="M412,1081.59a1.49,1.49,0,0,1,0,2.15,1.56,1.56,0,0,1-1.1.43,1.58,1.58,0,0,1-1.1-.42,1.51,1.51,0,0,1,0-2.16,1.54,1.54,0,0,1,1.1-.43A1.56,1.56,0,0,1,412,1081.59Zm-1.74.46a.83.83,0,0,0,0,1.24.88.88,0,0,0,.64.26.92.92,0,0,0,.64-.26.83.83,0,0,0,0-1.24.87.87,0,0,0-.64-.26A.83.83,0,0,0,410.22,1082Z" transform="translate(-258.61 -923.1)"/><path class="cls-1" d="M283.93,932.44v2.13h-5.16V939h5.33v2.13H266.27V939h5.49v-4.43h-5.41v-2.13Zm-17.5,2.75h2.75l.18.55a.61.61,0,0,0,.61.39h1.15v2h-2.27a1.9,1.9,0,0,1-1.84-1.41Zm.41,6.88H283.4v6.56q0,1.56-1.43,1.56H266.84Zm2.79,3h10.94v-1H269.63Zm10.7,3q.23,0,.23-.59v-.43H269.63v1ZM274.39,939H276v-4.43h-1.64Zm6.8-3.81h2.73a6.31,6.31,0,0,1-1.05,2.42,1.6,1.6,0,0,1-1.19.53h-2.13v-2h1Q281,936.14,281.19,935.2Z" transform="translate(-258.61 -923.1)"/><path class="cls-1" d="M288.53,932.37h7l.68,1.89q.14.37.72.37h.64v2.44h-1.8q-1.29,0-1.52-.68l-.61-1.6h-3.2l-.51,1.54q-.23.66-1.37.66h-2.34v-2.42h1.19a.54.54,0,0,0,.59-.39Zm8.52,15.49v2.34H286.68v-2.34Zm0-10.16v2.25H286.76V937.7Zm-10.29,3.2H289l.31,3.67c0,.2.07.29.21.29h.25V947h-1.19q-1.45,0-1.56-1.56Zm3.2,0h2.17l.33,4q0,.25.23.25h.47V947h-1.41a1.33,1.33,0,0,1-1.5-1.35Zm7.09.08-.57,4.86q-.2,1.37-1.07,1.37h-1.93V945h.45q.23,0,.31-.57l.31-3.48Zm1.11-7.68h2.58v13.36h-2.58Zm3.26-.94H304v16.43q0,1.41-1.48,1.41h-3.85v-2.34h2.42q.31,0,.31-.41Z" transform="translate(-258.61 -923.1)"/><path class="cls-1" d="M276.65,964.7a5.27,5.27,0,0,1-5.55,5.64c-3.22,0-5.53-1.93-5.53-5.49h2.34c0,2.16,1,3.26,3.19,3.26s3.17-1.49,3.17-3.4v-5h-3.8v-2.21h6.18Z" transform="translate(-258.61 -923.1)"/><path class="cls-1" d="M285.38,961.2h2.11v8.88h-2.07l-.11-1.3a3.37,3.37,0,0,1-2.88,1.57c-2.63,0-4.57-1.6-4.57-4.72a4.32,4.32,0,0,1,4.63-4.65,3.26,3.26,0,0,1,2.83,1.44ZM280,965.63a2.54,2.54,0,0,0,2.63,2.7c3.46,0,3.46-5.38,0-5.38A2.53,2.53,0,0,0,280,965.63Z" transform="translate(-258.61 -923.1)"/><path class="cls-1" d="M297.15,968.94a4.57,4.57,0,0,1-3.42,1.41,4.7,4.7,0,1,1,0-9.4,4.22,4.22,0,0,1,3.21,1.31l-1.39,1.46a2.69,2.69,0,0,0-1.78-.7,2.5,2.5,0,0,0-2.56,2.63,2.42,2.42,0,0,0,2.52,2.59,2.66,2.66,0,0,0,1.94-.74Z" transform="translate(-258.61 -923.1)"/><path class="cls-1" d="M300.26,957.49v7.27l3-3.57h2.63v.13l-3.62,4.05,4.12,4.54v.16h-2.65l-3.48-4v4h-2.2V957.49Z" transform="translate(-258.61 -923.1)"/><path class="cls-1" d="M321.75,964.7a5.27,5.27,0,0,1-5.55,5.64c-3.22,0-5.53-1.93-5.53-5.49H313c0,2.16,1,3.26,3.19,3.26s3.17-1.49,3.17-3.4v-5h-3.8v-2.21h6.18Z" transform="translate(-258.61 -923.1)"/><path class="cls-1" d="M326.21,958.7a1.3,1.3,0,0,1-2.59,0A1.3,1.3,0,0,1,326.21,958.7Zm-2.39,2.47v8.91H326v-8.91Z" transform="translate(-258.61 -923.1)"/><path class="cls-1" d="M334.53,970.08v-4.65a2.12,2.12,0,0,0-2.14-2.38,2.34,2.34,0,0,0-2.27,2.49v4.54h-2.18v-8.89h2l.14,1.21a4,4,0,0,1,2.92-1.33c2.09,0,3.76,1.57,3.76,4.36v4.66Z" transform="translate(-258.61 -923.1)"/><path class="cls-1" d="M267.78,977.25h5.5l1,1.78q.28.63.6.63h.33v2H274a1.11,1.11,0,0,1-.93-.51l-1.25-1.81h-2.55l-1,1.81a.84.84,0,0,1-.74.51h-1.41v-2h.51q.21,0,.4-.63Zm1.07,7.19v6.31q0,.37.4.37h6v2.11h-7.22q-1.55,0-1.55-1.62v-9.37h7.86v5.64a1.31,1.31,0,0,1-1.48,1.48H270v-2.11h1.63q.4,0,.4-.37v-2.44Zm7-6h2.39v11.25h-2.39Zm3.59-1.21h2.46V992q0,1.28-1.48,1.28h-3.73v-2.11h2.41q.33,0,.33-.37Z" transform="translate(-258.61 -923.1)"/><path class="cls-1" d="M284.6,977.32h2.18v1.48h1.62v-1.55h2.18v1.55h.77v2.11h-.77v6.89a1.22,1.22,0,0,1-.14.54l-1.28,1.81.7.86a.81.81,0,0,0,.51.23H291v2h-1.62a1.14,1.14,0,0,1-.93-.4l-.63-.76-.53.76a.91.91,0,0,1-.79.4h-2.39v-2h1.35a.91.91,0,0,0,.4-.25l.46-.69-1.56-1.92a1.22,1.22,0,0,1-.14-.54V980.9h-.51v-2.11h.51Zm3.8,3.59h-1.62v6a1.17,1.17,0,0,0,.21.49l.65.81.56-.81a1.31,1.31,0,0,0,.19-.49Zm5.4-3.8h2.83l-2.46,4.57h3.43a.19.19,0,0,0,.21-.21l-.4-2.25h2.44l.44,2a2.18,2.18,0,0,1,.07.44v1.2q0,1.13-1.41,1.13h-7.59v-2.18Zm-2.25,7.75h8.37v6.75q0,1.46-1.74,1.46h-6.63ZM297,991q.56,0,.56-.51v-3.66h-3.59V991Z" transform="translate(-258.61 -923.1)"/><path class="cls-1" d="M309,977h3l-1.32,4.31h2.16l2.67,8.86q.12.62.58.62h2.25v2.32h-3.59a1.49,1.49,0,0,1-1.55-1.32l-2.83-9.56-2.83,9.12q-.47,1.76-1.74,1.76h-3.66v-2.39h2.18q.37,0,.58-.58Z" transform="translate(-258.61 -923.1)"/><path class="cls-1" d="M321.64,977.11h2.81l.81,1.62h5.59l.7-1.62h2.81l-.72,1.62h2.57v1.92h-5.06v1h4.13v2.62h1V986h-1v1.14q0,1.55-2.16,1.55h-2v.7h2.3l.49,1.23q.09.25.28.25h1.83v1.76h-2.72a1.31,1.31,0,0,1-1.37-.79l-.81-2.07v3.5h-2.39v-4.57h-2.25v4.5h-2.39v-3.57l-.69,2.16a1.33,1.33,0,0,1-1.42.84h-1.85v-1.76h1q.14,0,.23-.26l.32-1.21h2.41v-.7h-3.66V987h3.66V986h-3.88V984.3h3.88v-.84h-3.66v-1.78h3.66v-1h-3.88v-1.92h2.21Zm7.12,4.57v-1h-2.25v1Zm-2.25,1.78v.84h2.25v-.84Zm0,2.58V987h2.25V986Zm4.64-2.58v.84h1.67v-.84Zm0,2.58V987h1.11q.56,0,.56-.33V986Z" transform="translate(-258.61 -923.1)"/><path class="cls-1" d="M349.19,990.09A6.64,6.64,0,0,1,344.4,992c-4.68,0-6.66-3.22-6.68-6.5a6.34,6.34,0,0,1,6.68-6.64,6.5,6.5,0,0,1,4.63,1.93l-1.58,1.53a4.33,4.33,0,0,0-3-1.19,4.13,4.13,0,0,0-4.34,4.38,4,4,0,0,0,4.34,4.27,4.64,4.64,0,0,0,3.17-1.28Z" transform="translate(-258.61 -923.1)"/><path class="cls-1" d="M359.91,991.68h-9.44v-12.6h9.44v2.3h-7.08v2.9h6.82v2.21h-6.82v2.84h7.08Z" transform="translate(-258.61 -923.1)"/><path class="cls-1" d="M374.13,985.45c0,3.26-2,6.52-6.46,6.52s-6.48-3.19-6.48-6.5,2.12-6.64,6.48-6.64A6.26,6.26,0,0,1,374.13,985.45Zm-10.6.05c.05,2.07,1.17,4.29,4.14,4.29s4.09-2.23,4.12-4.3-1.15-4.5-4.12-4.5S363.48,983.38,363.53,985.5Z" transform="translate(-258.61 -923.1)"/></svg>