<svg id="图层_1" data-name="图层 1" xmlns="http://www.w3.org/2000/svg" viewBox="0 0 34 33.16"><path d="M-329,1124.57a16.91,16.91,0,0,0-17,16.82,16.86,16.86,0,0,0,12.94,16.33c0-2.08,0-6,0-6.18s-3.22,1.83-4.85-1.4a5.9,5.9,0,0,0-1.58-2.48s-.77-.4-.83-.76a.21.21,0,0,1,.12-.18c.07,0,1.28-.52,2.62,1.17.4.56,1.32,2.72,4.51,1.39a3.73,3.73,0,0,1,1.09-1.72c-4.76-.56-6.74-2-7.42-6a7,7,0,0,1,1.6-6.15,5.59,5.59,0,0,1,.15-4.36c1-.2,2.9.52,4.54,1.7,2.32-.83,6.1-1,8.25,0,.74-.61,3.39-2,4.53-1.7a6.36,6.36,0,0,1,.15,4.37c1.48,1.51,1.9,3.46,1.63,5.85-.33,3.63-2.41,5.85-7.45,6.27a4,4,0,0,1,2,3c0,1.47,0,5,0,7a16.74,16.74,0,0,0,12-16.16A16.91,16.91,0,0,0-329,1124.57Z" transform="translate(346 -1124.57)"/></svg>