<svg id="图层_1" data-name="图层 1" xmlns="http://www.w3.org/2000/svg" viewBox="0 0 119.16 64.34"><defs><style>.cls-1{fill:#555;}</style></defs><path class="cls-1" d="M468.54,744.21h11.09v1.72H481v-3h-5.72l-.06-.14a11.64,11.64,0,0,0-.89-1.55.84.84,0,0,0-.17-.3l-.13-.13-1.17.49.16.27c.12.2.27.49.46.87l.26.5h-6.57v3h1.37Z" transform="translate(-466.46 -691.31)"/><path class="cls-1" d="M476.13,744.89v-.27h-1.37v.27a18.3,18.3,0,0,1-.52,5.13h-7.37v1.31h6.72c-.94,1.26-3.16,2.24-6.62,2.9l-.51.09.36.36a.59.59,0,0,1,.06.14l0,.09a1.38,1.38,0,0,1,.3.49l.06.26.26-.06c3.24-.73,5.49-1.75,6.71-3l2,.93c1.65.71,3,1.32,4,1.83l.22.11.77-1.24-.28-.13c-1-.46-2.45-1.06-4.33-1.84l-1.54-.69.08-.16,0-.05h6.16V750h-5.66A21.79,21.79,0,0,0,476.13,744.89Z" transform="translate(-466.46 -691.31)"/><path class="cls-1" d="M469.05,746.92l-.71,1.11.28.13a24,24,0,0,1,2.82,1.53l.22.14.78-1.18-.26-.14c-1.07-.59-2.05-1.09-2.93-1.49Z" transform="translate(-466.46 -691.31)"/><path class="cls-1" d="M473,747.63l.81-1.22-.34-.11a2.46,2.46,0,0,1-.43-.22l-2.37-1.24-.21-.11-.73,1,.26.15q1.48.83,2.78,1.6Z" transform="translate(-466.46 -691.31)"/><path class="cls-1" d="M493,754.65h1.31v-1.36h2.6v1.19h1.37V742.25H493Zm1.31-7.54V743.5h2.6v3.61Zm2.6,1.25V752h-2.6v-3.61Z" transform="translate(-466.46 -691.31)"/><path class="cls-1" d="M505.18,740.82h-1.31v3.32h-5.34v1.25h5.34V753a.88.88,0,0,1-.18.67,1.07,1.07,0,0,1-.79.24h-2.63l.12.36a4.1,4.1,0,0,1,.17.78l0,.24H503a2.41,2.41,0,0,0,1.75-.63,2,2,0,0,0,.47-1.48v-7.8h2.08v-1.25h-2.08Z" transform="translate(-466.46 -691.31)"/><path class="cls-1" d="M501,751l1.18-.69-.1-.22a25.7,25.7,0,0,0-1.38-2.58c-.15-.27-.27-.48-.35-.64l-.12-.25-1.14.62.13.24c.71,1.29,1.26,2.39,1.65,3.25Z" transform="translate(-466.46 -691.31)"/><path class="cls-1" d="M523,755.42h1.37v-.95h6.4v.95h1.37v-6.71H523Zm7.77-5.4v3.25h-6.4V750Z" transform="translate(-466.46 -691.31)"/><path class="cls-1" d="M521.92,743.49c3.35-.16,6.9-.44,10.55-.82l.36,0-.58-1.36-.2,0a106.74,106.74,0,0,1-11.24.83h-.26v4.6a22.57,22.57,0,0,1-.35,4.57,9.21,9.21,0,0,1-1.38,3.17l-.12.19.16.16a3.76,3.76,0,0,0,.51.39l.19.14.25.26.18-.31a13,13,0,0,0,1.57-3.76,24.38,24.38,0,0,0,.36-4.8v-.14h11.63v-1.31H521.92Z" transform="translate(-466.46 -691.31)"/><path class="cls-1" d="M550.11,743.79h-1.93l.45-.15-.08-.25a24.66,24.66,0,0,0-.9-2.34l-.1-.23-1.23.41.13.27a22.5,22.5,0,0,1,.88,2.29h-2.39V745h5.17Z" transform="translate(-466.46 -691.31)"/><polygon class="cls-1" points="92.19 50.4 90.88 50.4 90.88 52.72 88.93 52.72 88.93 49.51 87.62 49.51 87.62 52.72 85.67 52.72 85.67 50.4 84.35 50.4 84.35 53.97 92.19 53.97 92.19 50.4"/><path class="cls-1" d="M548.54,752.06c.54-2.36,1-4.34,1.27-5.87l.05-.27-1.25-.21,0,.26c-.27,1.44-.63,3.22-1.09,5.3l0-.2c-.27-1.48-.63-3.16-1.07-5l-.06-.25-1.18.21.05.27c0,.2.1.53.18,1,.34,1.55.62,2.89.83,4l0,.26,1.21-.2-.21,1q-1.31.27-2.25.44l-.27,0,.22,1.18.26,0c1.55-.24,3.15-.54,4.76-.89l.21,0v-.22a3.23,3.23,0,0,1,.06-.42v-.68l-1.24.25Z" transform="translate(-466.46 -691.31)"/><path class="cls-1" d="M550.1,747.65h3.71l-.32,1.12h-3v6.77h1.31V750h1.12v4.69h1.25V750h1.18v4.33h.45l0,.12a2.1,2.1,0,0,1,.16.68v.27h1.56a1.5,1.5,0,0,0,1.13-.41,1.78,1.78,0,0,0,.4-1.34v-4.9h-4.2l.28-1.12h4.51V746.4H550.1Zm6.47,2.37h1.18v3.6a.62.62,0,0,1-.09.44.48.48,0,0,1-.36.11h-.11l-.62,0Z" transform="translate(-466.46 -691.31)"/><rect class="cls-1" x="105.87" y="50.58" width="11.93" height="1.37"/><path class="cls-1" d="M578.13,747.83h7.5v-1.37H570.91v1.37h5.42a27.12,27.12,0,0,1-3.05,3.95,4.88,4.88,0,0,1-1.24,1.07l-.22.13.7,1.3.21-.05a8.16,8.16,0,0,1,1-.12.72.72,0,0,1,.22,0c2.69-.12,5.6-.2,8.65-.24.31.35.62.73.91,1.13l.16.21,1.23-.85-.18-.23c-1.89-2.34-3.21-3.95-4-4.93l-.16-.19-1.15.77.17.23a3.64,3.64,0,0,0,.32.4l1.72,2.16c-2.16.1-4.64.19-7.38.26a49.18,49.18,0,0,0,3.83-4.84Z" transform="translate(-466.46 -691.31)"/><path class="cls-1" d="M487.3,724.15h9.23v-4.73H487.3v-3.74h9.47V691.31H468.19v24.36h9.52v3.74h-9.29v4.73h9.29v4.93H467v5.24h30.91v-5.24H487.3ZM486.35,695h2v6.54h-2Zm-7.76,16.89h-2v-6.14h2Zm0-10.34h-2V695h2Zm7.76,4.21h2v6.14h-2Z" transform="translate(-466.46 -691.31)"/><polygon class="cls-1" points="106.46 37.77 106.46 13.47 84.49 13.47 84.49 37.77 95.94 37.77 97.7 33.68 93.2 33.68 93.2 17.56 97.7 17.56 97.7 37.77 106.46 37.77"/><polygon class="cls-1" points="75.7 2.75 74.24 0.99 63.43 0.99 70.21 9.76 61.85 12.39 61.85 20.22 72.08 17.12 72.08 23.37 61.85 26.41 61.85 34.41 72.08 31.32 72.08 37.76 65.59 37.76 67.75 43 81.66 43 81.66 10.4 86.45 0 76.98 0 75.7 2.75"/><polygon class="cls-1" points="54.45 15.66 58.46 4.26 58.46 0 31.99 0 31.99 4.73 49.83 4.73 46.04 15.66 43.88 15.66 41.5 8.18 33.08 8.18 35.44 15.66 31.99 15.66 31.99 20.39 38.65 20.39 38.65 33.48 38.65 38.91 34.8 38.91 36.49 43 48.23 43 48.23 33.48 48.23 20.39 49.93 20.39 49.93 29.91 58.46 29.91 58.46 15.66 54.45 15.66"/><polygon class="cls-1" points="118.88 33.48 118.88 3.1 98.33 3.1 99.78 0 88.86 0 85.11 8.01 83.32 8.01 84.49 12.33 93.99 12.33 95.86 8.33 109.3 8.33 109.3 38.91 106.37 38.91 105.44 38.91 107.13 43 108.3 43 118.88 43 118.88 43 118.88 33.48 118.88 33.48"/></svg>