<svg id="图层_1" data-name="图层 1" xmlns="http://www.w3.org/2000/svg" viewBox="0 0 144 143.58"><defs><style>.cls-1{fill:#d94f21;}</style></defs><path class="cls-1" d="M378.55,682.85a72,72,0,0,0-7.84,143.58,44.78,44.78,0,0,0,12.89-14.74s2.32-4.27,2.32-11.58a17.15,17.15,0,0,0-13.55-16.77,44.53,44.53,0,0,0-14.15-.77l-22.3,2.34a17.34,17.34,0,0,1-1.79.09,17.08,17.08,0,0,1-11.48-4.41,27.41,27.41,0,0,1-8.32-14l28.54-13a6.84,6.84,0,0,0,3.17-4.76l.84-5.3a10.25,10.25,0,0,1,3.55-6.28l12.75-10.69a27.38,27.38,0,0,1-8.48-22.32l1-11.47a44.44,44.44,0,0,0,9.95,19.47,27.33,27.33,0,0,1,7.65-16.92,17.17,17.17,0,0,0,9.36,12.57A17.19,17.19,0,0,1,392,718.61,71.7,71.7,0,0,1,433.15,736l-11.81,2.18a44.59,44.59,0,0,1,29.16,18.91h0q0-1.12,0-2.26A72,72,0,0,0,378.55,682.85Z" transform="translate(-306.55 -682.85)"/></svg>