<svg id="图层_1" data-name="图层 1" xmlns="http://www.w3.org/2000/svg" viewBox="0 0 407.28 336.52"><defs><style>.cls-1{fill:#ffe98d;}.cls-2{fill:#ffe783;}.cls-3{fill:#ffc937;}.cls-4{fill:#ffd966;}.cls-5{fill:#ffe57b;}.cls-6{fill:#ffd968;}.cls-7{fill:#ffdc74;}.cls-8{fill:#ffc935;}.cls-9{fill:#ffe88b;}.cls-10{fill:#ffe38d;}.cls-11{fill:#ffe88a;}.cls-12{fill:#ffeda5;}.cls-13{fill:#ffdf5e;}.cls-14{fill:#ffea94;}.cls-15{fill:#fc0;}.cls-16{fill:#ffce48;}.cls-17{fill:#ffe786;}.cls-18{fill:#ffec9c;}.cls-19{fill:#ffe990;}.cls-20{fill:#ffc423;}.cls-21{fill:#ffe88c;}.cls-22{fill:#ffdb6e;}.cls-23{fill:#ffd863;}.cls-24{fill:#ffcf4d;}.cls-25{fill:#ffea95;}.cls-26{fill:#ffea93;}.cls-27{fill:#ffeea7;}.cls-28{fill:#03a9f4;}</style></defs><path class="cls-1" d="M187.44,697l-.7-2.2-1.8-3.1-1.5-.8-1.5.8-.9,1.8-.1.2h-.3l-2.8.5a2.4,2.4,0,0,0-.8.6l-.6.7-1.5,1.2-.4.2-1.3.2a7.5,7.5,0,0,1-2.7-1.5l-.1-.1q-3-3-3-4.2v-2.8l.3-.5-2.9-1-.1,1a1.43,1.43,0,0,1-.8,1l-1,.4-.4-.1v-.1l-1.5-.3.3,1.1-2.6-1.7h-.1l-.1-.1h0a9.74,9.74,0,0,1-.6-3.4,2.68,2.68,0,0,1,.5-2l.6-1.1-.2-.9-2.6.4a3,3,0,0,0-2.7,2.4v.1h0L152,686l1.5-.1h.1l.1-.1.1.2,1.2.5h.2l.2.1v.3l.2,2.1.6,2v.3l-3.3,6.5c-.6.9-.9,3.3-1.1,6.9v.3l-1.3,2.5.9,1v.2c.1,1.5,0,2.4-.4,2.6l-.3.1c-.7.4-3,2.8-6.7,7.3l-.3.3-.2-.1-.3-.2a18.79,18.79,0,0,1-3.2-2.5c-.6-.4-2.1-.7-4.6-.7l-.1,4.6-.1.1-1.8,8.7c-.4,1.1-.5,3.1-.5,6.1l.7.9.6-1.2h.1l.1-.2,2.3-1.2,6.4,1,.7-.8.9-1.6.2-.1h0l.1-.1,2.5-.5,3.3-.2c1,.2,2.2,1.5,3.7,3.5,4,2,6.2,3.8,6.7,5.4a2.56,2.56,0,0,1,0,2.1,2.22,2.22,0,0,1-2,1.2h-.1c-4.9-.2-7.7-.2-8.7.1l-2.4,1.6c-3,2.2-5,3.3-6.1,3.3l-2,.3-1.2,5a5,5,0,0,1-1.7,3.2,6.7,6.7,0,0,1-3.6,1.6,13.69,13.69,0,0,0-5,1.9l-1.7,3.6-.1.1h-.2l-4.6,1.9h-.3l-2.3-.5a10.81,10.81,0,0,1-4.1-1.4,5.23,5.23,0,0,0-3.9-.3,9.71,9.71,0,0,0-1.7,6.1,3.4,3.4,0,0,0,.7,2.2l.7-.1.8-.5.2,3.2a2.91,2.91,0,0,1-1.2,2.5,8.71,8.71,0,0,1-2.7,1.2l-.8.2c-1,.4-3.1,3.1-6.2,8v.1h-.1l-3,1.8c.5,0,.8.2.7.6s-.4.5-1.2.6l-8.5-.2c-9.5-.3-16.9,2.3-22.2,7.7l-.1.1-.2.1h-.1l-3.5.4-.2.1h-.2l-1-2.4-3.6.9a14.84,14.84,0,0,1-7.2-1.8,31.61,31.61,0,0,1-7.2-4.4,12.41,12.41,0,0,0-5.6-2.4l-3.2-.3-3.6.5a32.5,32.5,0,0,1-7.6.2,48.67,48.67,0,0,1-10.6-2.3l-.3.6h.2l.1.1v.1l.1,1,.9,1.9,2.1,2.6.1.3-.4,1.9v.1h-.1l-1.2,1.6,1.3,1.3c.5.5.8.9.8,1.3l.3,1.9,1.5,1.5v.2l.2,1.3v1l.9.7.6-.2.1-.3a1.8,1.8,0,0,1,1.5-1.3l.8-.3,5.3-.5,2.1-.8.2-.1.3-.2,1.1,2.4h.1a2.22,2.22,0,0,1-.3,1.6l-2.9,4.1.2.7,1.3,1.3,1.3.8h.1a3.83,3.83,0,0,0,1.7,1.5,4.19,4.19,0,0,1,2,1.6l.1.3,1,.4.3.1h.1l.3,1.1h0l.1,1.1.4,1.6,2.5.4h.2l.1.1v.1l.1.2.7,1.4,2,.7,1.4-.7-.2-.8-1.3-1.2.2-.2v-.2l1.1-2.1h2.4l.1.1,3.4,1.2,1.9-.3,1.5-1.4c1.7-2.1,2.8-3,3.5-2.5l.8-.1a5.44,5.44,0,0,1,1.7.2,1.42,1.42,0,0,1,.2.6,7.27,7.27,0,0,0,1,2.3v.2l.3,1.4v.3l-.4,1.6h0v.1l-.1.1-1.7,2-.1.1h0l-3.6,1.6-.5,1-.5,2.9.3,1.4L55,832l.4.3,1.2.8h4.2l3.5-.5.5-.5a1.89,1.89,0,0,1,1.3-.8l2.4.4.2-.4a2.12,2.12,0,0,1,.2-1.9l1-1.7v-3.3l1.8-5.2.1-.1V819h.1v-.1l3.1-2.5.2-.2,2.7,1.2h0c1.4,1,2.1,1.8,2.1,2.3l-.2,2.2-.9,1.4-.7,2v2.2l.7,1,.9-.1.2-.1,1.5.1a3.65,3.65,0,0,1,1.7,2.1l.9.3h.2l3.4,1.6,1.5.5,2.1-.3.9-1.2,1.2-4.9.1-2.7v-.2l.2-.1.1-.1,1.9-1.6,1.1-1.4.1-.1,2-.9,1.2-.7,1.5-.6-.8-3,3.4.4h0v.1h0l1.8.7h0v-.1l.5-1.9V814l.3.1h.2l1.6.4h.8l1.5-1.7h.1l.1-.1h.1l2-.4,1.7-1.6.9-1.3v-1.6a1.38,1.38,0,0,1,.9-1.3h.3l1.9.2.8-.5.3-1.4,2-.6h.2l2.5.3,2-.5,1.2-1.2.8-1.6-1.5-1.6v-.1h0l-.3-1.2h0l-.4-1.8v-.1l.9-1.6a3.09,3.09,0,0,1,1.1-2l1.1-2.2v-.1h.1l1-1.6,1.5-3,1.4,2,.1.1v.1l.5,2v.1l.3,2,1.4.6h.1l.4.2.1-.1,1.2-2.1.7-2,.3.1.3.1,2.9,1,1.4-1.1.1-.1h.2l1.4-.1,1-1.7v-2.1l.7-3.2.2.1h.3l2.2.5,1-1.8h.3l2-.2h.3v.1l.2.1,1,1.4v.1l.1.1v.2l.2,2,1,.9,1.4-1.3.3.4a2.13,2.13,0,0,1,.7,1.6v1.8l-.7,1.8.5.8,1,1.1,4.2.6.1.1h0l.2.1h0l.3.3,1.2-1.7h.1l1-1-.4-1.5-1.1-6.4,2.9,1.4h.2l1.3,1.6.8.8,1.2-.8,4.2-4.6h.1l1.5-1.1,1.7-2.4.1-.2,2.3.6h1.1a6.77,6.77,0,0,1,.3-1.9l1.7-2,.5-.3,2,.7,2.4-.3,1.6-1.7.8-1.5-.5-.8-1.4.7-.1-.1-.1-.1-1.8-1.6-.1-.1.7-2.7.2-2-.5-1.7-1.4-.5v-.1l-.1-.1-.1-.1-1.2-2.4-.2-.3-1.7,2-1.7,1.1-.4.2-.1-.1-.1-.2-1.8-1.7v-.1l-1.3-2.8v-.1l-.6-2v-.1h0v-3l-.2-1.8-1.4-.5H175v-.1l-3.2-2.5.2-.3,1.5-1.6v-.2h.2l1.7-.2h.1a1.87,1.87,0,0,1,1.4.8l1.4,1.1,1.5-1.2,1.1-1.5v-1.3l-.4-3.2-.3-1.3-2.2-.4V736l-2-2.5-.1-.1-1-1.8-.2-.2v-.2h0l2.2-2.9v-.1l.1-.1V728h.2l.9-.1,1.1-.9,1.3-4h.1v-.1l1.6-1.8V721h.2l1.8-.5v.2l1.2,1,.4.1.7-3.1-.7-2.2-.1-.1v-.2l.3-2.5v-.2l1.2-1.3.8-1.4.1-1.2a10.13,10.13,0,0,0-.9-3.1h0V704l.5-2.1a6.32,6.32,0,0,1-.7-2.1Z" transform="translate(158.36 -677.05)"/><path class="cls-2" d="M46.14,818.78h-1.6l-.5,1.1.9.9v.2l.4,1.3.1.1v.3l-.2.1-2.2,1.1-.1.1h-.2c-1.7-.2-2.6-.7-2.9-1.4l-.6-1.2-3-.6-.8-3.8a2.19,2.19,0,0,1-1.4-.8l-.1-.2c-.5-.7-.9-1.1-1.5-1.2a4.45,4.45,0,0,1-2.1-1.8l-1.2-.7H29l-1.6-1.6h0l-.4-1.4v-.1l3.2-4.4c.1-.3.2-.5.1-.6l-.6-1.4-1.7.7h-.1v.1h-.1l-4.4.3-1.7.4-.6.6-.3.6a1.76,1.76,0,0,1-1.9.6h0l-.1-.1-1.5-1.1-.1-2.5a4.42,4.42,0,0,1-1.5-1.7l-.4-2.2-1-1.2-1.1-.9-.5-.3,1.8-2.3.4-1.3-2-2.5h-.1v-.1l-.9-2v-.1h0l-.2-1-1.3-1v-.1h0L9,784.18l-1.8-.3-2,.6-.3.4-.3,2.8v3.1l-.3.1-1.9.7h0v.1h0l-1.8.1a20.84,20.84,0,0,1-3,1.4l-.2.1h-.1l-3.4-.8-1.4,1.5a3.38,3.38,0,0,1-1.9,1l-2.1,1.7-1.1,1.7v.1l-.1.1a8.83,8.83,0,0,1-1.5,1.9l-1.2,1.5v.1l-.1.1-.7.5a3.93,3.93,0,0,1-1.4.3l-2.5-.2-.6.9-.9,1.6.4,1.6-.2,3.9.7,1.2v.1l.3.9H-19l2.4.5,3.1.2,1.4-.2h.3l2.7,1H-9l1.4,1.1,3,1.1h.1l2,1.2,4.9,4.5,2.2,1,.9-.4.9-1.7-.5-2.7c0-.8.6-1.3,1.8-1.8l.2-.1,6.1,3.6.7-.2,1.4-.8h.2l.8.1,1.2-1,.2-.1.3.2,3.6,2.5.1.1,2.3,1.9a8.25,8.25,0,0,1,2.1,2.1l1.1,1.2.9-.1,1-1.9,2.1,1.5h.2l1.7,2.1,4.5,3.4h0l1.3,1.5,3.9-1.1.2,2.9,1.7,1.7h0v.1l1.4,2.1v.3l1.5,6.9,1.5,2.8-2,5.1v.3l-1.7.4v1.5l-.1.1-1.7,2.8h-.2l-2.4.2-2.4,2a4.3,4.3,0,0,0,1.4.8c1,.3,1.1,1.1.6,2.5v.1l-1.7,1.7h-.1l-.1.2h-.2l-4.8-.7-.1,1.7.5,3.6,4,1.7v.2h0l1.5-.5.1-.1.2-.1.1.2h.1l1.1.6h1.7l.6-.1-.6-1.9h0l-.4-2v-.3l.1-.1v-.1l.6-.7.2-.2h0l.1-.1,1.1-1.5.1-.1,1.8-1.4h.1v-.1h.1l2.2-.3v.6a4.88,4.88,0,0,0,.2,1.5l.4.9.6,1.3,2,1.1,5.5.5h.5v.5l-.2,1.8,1.6,1.7,1.2.5.2.1v.1l.1.2v1.7l-.5,2,.7.5a2.86,2.86,0,0,1,2.2.4l2.3,1.1,1.4-1.1,1.5-1.6.1-.7.1-.2.2-.1.2-.2v-.2l-.5-2.1-.1-1.1-.1-.1v-.1l.1-.1v-.1l.8-1.3.1-.1h0l1.6-1.1h3.4l.5-.2-.1-1.7-.5-1.5-1.1-1.8-.1-.1v-2.7h0l.6-1.5h0l.1-.1h0l2.7-3.9.1-.1h.1l.2-.1h.6l1,.1,2.3,1.3,1.5.4.2-.7-.3-.2v-.3a2.06,2.06,0,0,1,.9-1.6l1.8-1.3.1-.1h0V854a9.23,9.23,0,0,1,2-.5l1.6-.2h.2l1,.2.7-2.5v-1.7c0-1.1,0-1.8.3-2l.7-1.3-.9-1.2-1.2-.8-2.5-.7c-.5,0-1.4-.5-2.9-1.8l-1.5-.7h-.1l-.1-.1-1.8-2.2h-1.7l-.1-.1h-.1l-1.5-.8-.9,1.2-.2,4.7.3,1.8h.7l.1.1,1.4.4v.2l.7,1.7h.1v.1h0v.1l-.4,3.1v.3l-.1.1c-.5.3-.9.5-1.4.8l-.2.1-.1-.1h-.1l-.7-.2-1.6.6h-.1l.1.3.1.1.3,2.7a.66.66,0,0,1-.6.7h-1.2a2,2,0,0,1-1.2-.6l-1.2-.9-.1-.1h-.1v-.1l-.7-1.7a4.32,4.32,0,0,0-1.7-.8H69l-1.4-1h-.2V851h0l-.4-1.7.2-1.3h.1v-.1h0l.6-.7v-.5l-.6-1.8-1.4-1.3v-.2l-.4-4.1-1-1h-.1l-.1-.1h0l-.8-1.9-3.6-.4a3.2,3.2,0,0,1-1.9-1.7h-1.6a5,5,0,0,1-1.9-1.3l-.2-.2a7,7,0,0,1-1.2-1.8h0l-.1-.1-.3-1.6h0V829h0l.6-3.1v-.1l.6-1.3v-.2H54l3.8-1.6,1.5-1.8.3-1.5-.2-1.1a8.92,8.92,0,0,1-1-2.6l-.8.1-1.4-.1A12,12,0,0,0,54,818l-1.7,1.6h-.1l-.1.1a5.77,5.77,0,0,1-2.7.3Z" transform="translate(158.36 -677.05)"/><path class="cls-3" d="M72.74,819.68l-1.8,5v3.4l-1,1.7-.2,1.2a1.42,1.42,0,0,1-.8,1.7l-.2.1h-.1l-.1-.1-2.5-.3-1.3,1.2-3.8.6h-1.6l1,.7,3.6.4h.4l.1.1v.1l.9,2.2,1,.7a3.36,3.36,0,0,1,.5,2.1l.1,2.7,1.2,1.1h.1v.1h.1l.6,2v1.1l-.7,1-.2.9.3,1,1.2.8c1.3.5,2,.8,2.3,1.3l.7,1.5a2.88,2.88,0,0,1,1.4,1.2l.9.3h.1l-.4-2.2a1.51,1.51,0,0,1,.1-1.2,1.24,1.24,0,0,1,.8-.6l1.5-.5h0l.1-.1h.1l.1.1.7.2.9-.5v-.2l.3-2.5-.6-1.2-.8-.4-1-.1h-.2l-.2-.1-.4-2.6.1-5.1.2-.2,1.5-2.1,2.2,1.2h1.3l1-6.5a2.63,2.63,0,0,0-1.2-1.5l-.6-.1v.1h-.3l-1.6.3-.1-.2-.1-.1-1.1-1.4v-.1l-.1-.1v-2.5l.4-1.4.4-.6a2,2,0,0,1,.5-1.3l.4-.5.1-1.7-1.5-1.4-2-1Z" transform="translate(158.36 -677.05)"/><path class="cls-4" d="M4.44,783.68l.1-.1h.1v-.1l-3.2-9.1-2-1.6v-.2l-.5-3.7-4.2-.6h-.3v-.1l-.1-.2v-.1a11.34,11.34,0,0,0-3.8-4.5,8,8,0,0,0-3.1-1.7,16,16,0,0,1-1.9-1.1c-1.3-.9-5.8-1.6-13.7-1.8h-.3l-.9-1.4a8.64,8.64,0,0,1-.8-2.6c0-1.1,1.3-4.7,4.1-10.6l-1.4-4.4h0l-1.5-7c-.2-1-1.9-1.9-4.9-2.8a7.09,7.09,0,0,1-1.8-.8,4.35,4.35,0,0,1-2.3-2.5,5.86,5.86,0,0,0-3-3l-.1-.1-.1-.1-1.2-6.2-4.8.5-.5,1.3c-.6,2.1-1.2,3.1-1.9,3.1l-3.1,1a7.37,7.37,0,0,0-3.7,2.4,8.8,8.8,0,0,0-.8,3.2,15.26,15.26,0,0,1-1,3.9,5,5,0,0,1-2.9,2.8c-2.6,1-7-.7-13.1-5l-8.2,10.5,1,4.3h.1l.1.2-.2.1v.1a2.45,2.45,0,0,1-1.7,1.1,3.14,3.14,0,0,1-2.5-.7c-.8-.6-3.1-1.1-6.8-1.3l-1.7-.1h0l-2.5-.2-2.7.5,1.2,1.7c1,1.3,1.4,2.1,1.3,2.6l-1.1,6.5.5,3.5h.1v.1l-.1.1h0l-2,6.5c-.1.6-.3.9-.5.8h-.2v-.1l-.3-.6c-.4-.8-.6-1.1-.9-1s-.5.5-.6,1.4a9.71,9.71,0,0,1-3.2,4.9l-1.8,1.4-.9.5h-.1l-6.5.1-2.5,2.4h-.4l-6.9-1a3.53,3.53,0,0,1-3.3,1.4c-1-.3-2.7.1-5.1,1l-2.8,3.3-.1.2-4.4.1v-3.7h-2.8l-.5,1.6-2.1.5h-.2l-.1-.1h-.1a11.54,11.54,0,0,0-4.5-1.6c-.9-.1-2,.5-3.6,1.9a13.27,13.27,0,0,0-3.5,3.9,1.36,1.36,0,0,1,.5,1.2,7.1,7.1,0,0,1,.3,2.1,2.73,2.73,0,0,1-.8,1.7c-.5.3-.8,1.2-1.1,2.8l1.6,1.1,2.2-2.3,2.8,3.1v.2l.6,5.5v.1h-.1l-1.6,7.6h-.4c-2.3,0-3.8.1-4.4.5.1.5,1.1,1.3,2.8,2.4l1.4-.2h.3l.1.1,3.3,3.2c1.3,1.1,1.2,3-.5,5.8l.5,3.1,1.3.3h5.1L-146,824l1.5.8h0l2,1.1,5.4,2.3.1.1h.2l.5,8.2c.1,1.6,1.3,2.8,3.7,3.6l.4-.2h.2l5.6.8h.4v-.1l.1-.2a10.29,10.29,0,0,0,1-2.1v-.2a2.48,2.48,0,0,1,1.1-2.3,4.66,4.66,0,0,0,1.6-1.9l.1-.1c.3-.8,1.3-1,3-.5h.1l1.9,1.1,6.3,1.2,3.9-.3,2.8-1.2a4.35,4.35,0,0,1,1.2-1.2,2.48,2.48,0,0,1,2,.8l.4.2a4.35,4.35,0,0,1,1.1,2l2,1.5h1.9l2.1.9,3.9-.3,2.2-.7,5.7.5,2.5-.7,2.9-1.2a8.32,8.32,0,0,1,2.3-1h5.5l2-.7a4.26,4.26,0,0,1,2.1-.8h3.2l1.5,1.1,4.3.9c.6,0,1.2.5,2.2,1.4l1.8,1.2.2.2,4.1.1h.1l1.9,1,2.5.5h.1l2.1.3.6-1.2-.9-2-.4-2v-.1h-.1l.3-.3,1.4-1.9v-.1h.1v-.1l1.4-1h0l-.3-.6-.6-2c0-.3-.3-.5-.9-.9h0l-1.5-1.6-1.9-1.6-.1-.2-.2-.1.1-.1v-.2l.3-1.9v-1.4l-.9-2.4,2.3-.5,1.1-1.1h2.8l2.8-.4h.1l1.9.2,2.2-.8,2.5-.3,1.6-.7h.1l4.3-.8.7-.7-.2-.8-.8-1.4V811l-.1-.1v-.1l.2-1.5.1-.1v-2.1l-.4-1.8h0v-.1l1-2c.4-.9.9-1.4,1.5-1.4l2.6.2a2.38,2.38,0,0,0,1.4-.6l3.9-5.3V796l.1-.1,2.1-1.7.2-.2a4.92,4.92,0,0,0,1.6-.7l.5-.5c.7-.9,1.3-1.3,1.7-1.3l3.4.7,2.9-1.4h.2l1.7-.2,1.4-.6v-2.3l.4-2.9v-.1h0v-.1l.5-.8Z" transform="translate(158.36 -677.05)"/><path class="cls-5" d="M7.84,817.88l-.9.7a17.48,17.48,0,0,0,.5,2.6v.1l.1.1h-.1l-1.1,2.5-1.5.6-.3.1h-.1l-2.6-1.2h-.1v-.1l-4.9-4.5-1.9-1.1-3-1.1v-.1h-.1l-1.4-1-2.5-.8-1.4.1h-.1l-3.2-.2h-.1l-2.3-.5h-1.4l-1.1.8a10.4,10.4,0,0,1-2.4.6l-2.1.4-1.8.6-.1.1v0l-2.2.2-2.3.9h-.3l-1.9-.2-2.9.4h-2.4l-1,1h-.1l-1.2.3.5,1.2v1.9l-.3,1.7,1.7,1.4h.1L-39,827c.9.7,1.3,1.2,1.3,1.8l.5,1.5.7,1.5c-.1,0-.1.1-.2.1l-1.9,1.4-1.3,1.7.3,1.5.9,2.1.1.2h0v.1l-.2.8a2.33,2.33,0,0,1-.7,1.1c-.6.5-1.6.5-3.2,0l-2.5-.5h-.2l-1.8-.9-2.9-.1.1.1-.3,5c-.1.7-.6,1-1.3,1.1-.3.1-.5.5-.4,1.3v.1h-.1l-.2,1.3a6,6,0,0,1,1.4,1.5l.5,2.4v.9a5,5,0,0,1-.4,1.3l-.7,2-1.3,2.5v.5l.2,1.2,1.3,1.7a3.77,3.77,0,0,1,.7,1.1l1.2,1.7,1.8,2c.7.7,1.2,1,1.4,1l1.9-1.2a1.84,1.84,0,0,1,1.2-.5,4.27,4.27,0,0,1,1.9.9h.1v.1l1,1.2.5,1.2.4.5.3.2,1.3.9.7.1a2.1,2.1,0,0,1,1.1.8c.2.3,1.3.7,3.2,1.2h.1l3,1.1h.2l2.1,1,3.6.9.1.1,4.7.2,2.1-.8h1.9v.1l.1.1,1.6,2h0v.1l1,1.6.8.9,1.1.5.1.1h0l.1.1.9,2v.1H-9v.1l.5,2.2,1.4.5h.2l1.1.7,1.5-.3.4-1.5v-.1l.1-.1,1.7-1.7,1.9.5v.2l.9,2,1.9-.7.2-1.9v-.2l.1-.1,1.3-.7-.3-2.8v-.3h0l1.5-3.1,1.5-.6-.6-2.8h1.5l-.1-1.3-.8-2.7h0v-.2l.2-1.9v-.3l.2-.1,1-1.3.2-.2h.3l2.7.5h.1l2.2.6,1.9-.6,1.1,2.2.1.1v1.6l.3,1.5a1.59,1.59,0,0,0,1,1.1h.2q1.35.3,1.5,1.2a4.94,4.94,0,0,0,1.2,2l.9,1.3h0v.1l.6,1.1.9-.1,1.7-1.5,1.1,2.3,2.2.7h.1l.1.1,1.1,2,.5.3.1-1.9V879l4.4-.1.1-.4a1,1,0,0,0-.1-.9,5.33,5.33,0,0,1-.5-1.8,2.25,2.25,0,0,1,.2-1.6c.3-.4.5-.4,1-.3l1.8.6.2-1.3-3.3-1.5H34l-.1-.2v-.2l-.5-4,.1-2.5v-.5l5.5.7,1.4-1.3c.3-.5.2-.9,0-1-1.4-.5-2.1-1.1-2.1-1.7a.9.9,0,0,1,.6-.9l2.3-2.3,2.5-.1,1.3-2.2v-2.1l1.9-.4a15.36,15.36,0,0,1,1-2.6l.8-1.7-1.4-2.5v-.1h0V846l-.9-3.4v-.1l-.6-3.5-1.2-2-1.8-1.8V835l-.1-.1-.1-1.9-3.3,1-.1-.1-1.5-1.7-4.5-3.4h-.1l-1.7-2.2-1.1-.7-.7,1.1v.2l-.1.1h-.3l-1.4.1-.2.1h-.1l-3.3-3.6a9.22,9.22,0,0,1-2.4-2l-1.5-1.1-.1-.1-1.7-1-1,.8-.1.2-.1-.1h-.1l-.9-.2-1,.5-.1.1-.1.1H15l-1.4.2C11.74,820.18,9.84,819.08,7.84,817.88Z" transform="translate(158.36 -677.05)"/><path class="cls-6" d="M13.74,867l-2.3-.7L9,866l-.8.9-.2,1.7.1.1.7,2.6.1,2v.6H7.74l.5,2.4-1.9.7-.8,1.5,1,.8.2.1h0l3.5,2.8.1.1h.1v.2l.5,2.5,1.6,2.3a10,10,0,0,0,1.8,2h.1l.1.1v.1l-.1.2v2.2a10.6,10.6,0,0,1,.4,3.8,5.83,5.83,0,0,1,1.3,2.8,7.68,7.68,0,0,0,.8,2.3h0v.1h0a8.36,8.36,0,0,1-.2,3.6c-.3.7.1,2,1.2,3.8l.1.1.1.2-.1.2-1.6,3.5a5.35,5.35,0,0,1,.4,1.8l-.4,3.3c-.2,1.1-.2,1.7.3,1.9l.6.4c.9.4,1.2.9,1.2,1.4l-.1,1.7.5.2.1.1.3-.3a2.4,2.4,0,0,0,.7-1.2l.2-.3.1-.2a2.59,2.59,0,0,0,.9-.9,4.14,4.14,0,0,0-.1-1.9l-.2-.5.5-.1c1.6-.4,2.5-.3,2.8.4l.8,2v.2l.4,3.3,1.3.7h.2l.8.7.8-.9.9-.7h.3a1.85,1.85,0,0,1,1.3,1.4l.4,2.6.1.4,2.7,5.8,1.1,1.1.1.1v.1l.5,2.4h0l.2,2.3.1.2c.7-1,1.3-1.5,1.7-1.3s.5.3.5.7v2.9c.5.1.9,0,1-.3l1-1.4,1.1-1.1a3.85,3.85,0,0,1,2.2-.9h.1l2.1.5.6-.3,1.1-1.4-.2-2.2a4.12,4.12,0,0,1-.8-2.9l.3-1.8v-.2l.1-.2h0l1.9-1.1H49l1.4-.9,1.6-2.3.2-1.7-1.8-4.2,4,1.8v-1.7h0v-.1l1.5-1.3,2.9-.8H59l1.7,3.7v.2l-.2,1.4.2,1.3c.2.6.6.9.9.9a1.71,1.71,0,0,0,1.2-.8l.1-.2H63l2.4-.8h.1c1.3,0,1.9.3,2.2.9l.2,2.7v.1l.5.1,1,.3,1.5-.1,2.5-.7,1.5-1.3.1-1.1-.7-.8-2.6-.9h0l-.2-.1h0v-.1l-3-3,.3-.2,1.5-1.3.1-.1h0l1.5-.6h.3l2,.4h.1l.1.1v-.8l-.9-1.5-1.4-.7-1.9-2.8h0l-.1-.1v-.1l-.9-3.3v-2.5l1.6-1.5h2.4l5.6.5,2.6-3.7v-.2h.2l2.1-1.1,1.1-2.2.1-.1,2.5-2.1,1.2-2.2v-.1h.1V893h0l1-1,1.2-2,.4-3.1v-.3l.1-.1,1.6-1.1.4-.4-2.4-.4-4,.2-.1-.1-1.5-1.2h-.2v-.1h0l-.8-1.2-.2.1-.1.2c-.2.3-.7.4-1.3.4l-.6.3a.61.61,0,0,1-.6.1c-.2,0-.3-.3-.5-.8a2.43,2.43,0,0,0-.9-1.5l-.1-.1v-.1H80l-.5-1.3h-.4l-1.5,1-.1.1h-.1l-3.5.7h-.2l-.2-.1-2.3-1.6h0l-.1-.1v-.1H71l-.6-1.2-1.7,1.8c-1.2,1.4-2.1,1.8-2.7,1.4l-2.3-1.2-1.6-.2-.2.1-1.5-1.1-.1-.1-.3-.1.7-2.7v-.9l-.9-.4h-.1l-2.1-2.3.1-1.7-5.2-.5-2-1.1a3.13,3.13,0,0,1-1.2-1.9l-.3-.7-.4-1.5-.7.1-1.6,1.3-1.9,2.3.4,1.7.6,2.2v.1h.1l-.1.1v.1c-.2.6-.8.9-1.7.9h-2l-1.2-.6-1.5.6-.3.1-.2-.1-.2,1.4-.1.2v.3h-.3l-2.5-.8a3.85,3.85,0,0,0,.5,2.1,1.93,1.93,0,0,1,.1,1.8l-.3.8a3.88,3.88,0,0,1-2.5.3h-1.7l-.1,2.8-2.2-.8h-.1l-.1-.1-1.1-2.1-2.4-.8-.6-1.3-.9.7h-.1l-1.5.3H22l-.8-1.8-.8-1.1-.1-.1a9.34,9.34,0,0,1-1.4-2.4c0-.1-.2-.3-.7-.4l-.4-.1a2.77,2.77,0,0,1-1.5-1.8l-.4-1.7v-1.4l-.7-1.3L14,867h-.3Z" transform="translate(158.36 -677.05)"/><path class="cls-7" d="M-121.06,834.28v.1a6.58,6.58,0,0,1-1.9,2.2,1.42,1.42,0,0,0-.8,1.4v.3a5.23,5.23,0,0,1-1.1,2.5l-.1.5a1.45,1.45,0,0,1-1.3.5l-5.7-.7v.1l-.4,1.3v.1l-.1.1h0c-1.5,2.1-2.5,3.6-2.6,4.6q-.15.75,1.8,5.4l.9,2.1c.4,1,.1,2.2-.8,3.5l-1.8,1.8h-3l-.6-3.3-.8,4.1,1.3,2q.15.45,0,.6l-.2.2a7.4,7.4,0,0,0-1.6,3,4.5,4.5,0,0,0,.9,4.6h2.4c.8.2,2,1.5,3.7,3.8l.1.2h0a1.94,1.94,0,0,0,.8,1.6l5.3,4.9v.1l2.4,3h1.4l1.5-2.7.2-.2.1-.1,3.7.9v.3l.5,2.5,4.4,5.1,1.5.6.1.1.7.4.1.1,3.3,4.9,2.7-.4h.3l.2.2.1.2,2.3,4.8,2.8,1.7,2.3.6L-95,907h1.7l.1.1h0l3.6,2v.1h0l.1.1,2.6,3.2,3.8-.7h.2l1.4.6h.1l2.4,2.1,4.3.3,2.6-.4h0c3.5-.6,5.7-.3,6.5.6.5.8.2,1.6-1,2.6l-1,1c-.3.5.1,1.3,1.4,2.5l.1.2h-.1l.8.6.3-.3c2.5-4.7,4.5-7.3,5.9-7.8s4.6.8,9.5,3.8l6,1.1-.1.2v.2l-.3,2.8,3,.4-.1,3.8a11,11,0,0,0,2,3c.6.4,3.6.4,8.9,0l3.1-1.6,3-4.2,3.5-.1,1.7-.5,6.6-3.8h.1l.1-.1h0c3.8-.4,6-.5,6.6,0l4.3,3.6,1.3.5.2.2,1.7.7.1.1v-.6l.7-3a2.77,2.77,0,0,1,0-2.2c.2-.5.7-.8,1.5-1,1.5-.3,2.9,1,4.3,3.8l.2.1h.1l2.5-1.1a1,1,0,0,0,.7-1.1l-.5-1.8v-.1a1.37,1.37,0,0,1,.8-1.8l.9-.7,2.2-2.4,1.5-3.3c-1.3-2.1-1.7-3.6-1.3-4.6l.3-2.8a6.45,6.45,0,0,1-.9-2.7,6.93,6.93,0,0,0-1.2-2.4h-.1v-.3l-.3-3.6a6.37,6.37,0,0,1,0-2.4,7.22,7.22,0,0,1-1.9-2.1l-1.5-2-.1-.1v-.3l-.5-2.5-1.5-1.2v.1L5,879.48v.2l.4,3.1v.4l-1.5.7-.2,1.9v.3l-3.5,1.4-1.2-2.8-.7-.2-1.1,1.1-.7,2-2.5.7-1.4-1-2-.6-.6-2.8-.8-1.7-1.2-.5-.1-.2-.9-1.1h0l-.9-1.6-1.4-1.8h-1.2l-2,.7-.1.1-5.1-.3-3.9-.8c-.3-.2-1-.5-2.1-1.2l-3-1c-2.3-.6-3.6-1.1-3.9-1.7l-.5-.3-.7-.2-1.8-1-.2-.1a7.63,7.63,0,0,1-.8-1.1l-.4-.9-.8-1.2-1.3-.6-.5.3-.5.4-.3.2a3.66,3.66,0,0,1-1.4.7c-.8.2-1.6-.2-2.5-1.2l-1.9-2a10.63,10.63,0,0,1-1.4-2.1l-.5-.8a8,8,0,0,1-1.5-2,3.61,3.61,0,0,1-.1-2.5v-.1h0l1.3-2.2.7-2.3.3-1.5-.5-2.3-1.5-1.3.3-1.9c0-1.4.5-2.1,1.5-2.3a.53.53,0,0,0,.4-.7v-.1l.1-2v-.1h0v-2.3h-.2l-.1-.1h0l-.4-.2v-.1h-.1l-1.8-1.2h-.1l-1.4-1.2-4.7-.9h0l-1.5-1.1h-2.8a4,4,0,0,0-1.6.7h-.1l-2.2.8h-5.5a4.19,4.19,0,0,0-1.9.8,11,11,0,0,1-3.2,1.4l-2.6.6v.1h-.2l-3.7-.4-.3-.1.1.1-.1-.1-1.3-.1-2.2.7-4.4.4h-.1l-.1-.1-2.2-.8h-1.8a5.47,5.47,0,0,1-2.7-2l-.1-.2a4.7,4.7,0,0,0-.6-1.5l-.5-.3-.9-.5-.8.8-.1.2-3.2,1.3h-.3l-3.9.4a17.2,17.2,0,0,1-3.2-.7l-3.4-.6h-.1l-2-1.1Z" transform="translate(158.36 -677.05)"/><path class="cls-8" d="M3.34,958.78l-.4,1.3a4.21,4.21,0,0,0,2.2-1l.1-.1h.2l4-.5,2.6-1.3,1,1.4.2.1-1.2,1.9,1.4,1.4v.4l-1,4.2,2.6,1.9,4.7.2-.7.9c-3,3.7-4.4,5.9-4.3,6.6l1.8.4c2.4.2,3.8.9,4.3,1.8a33.51,33.51,0,0,1,1.7,3.8l2.7,1.5,1.7.3,3.5-3,1.8,2.7v.1h0l.1.1.6,2.5,1.5.3h0l2.3.8.6-.2v-.1l-.4-2.6-.1-.1-1.3-5.9v-.2l.8-4.1.2.1h.3l2.7.2,3.4-2.5.3.2a20.82,20.82,0,0,1,3.6,3.3c.6-.2,1.7-1.3,3.2-3l.1-.1.2-.2,5,1.3,2.2-1.8.1-.1.1-.1h.1l.1.1,2.1.4,6.8-6,2.1.6h0l.1.1.1.1.1.1.5.9.5-.6h.1v-.1h.1l2-1.1,1.5-1.4-.4-3.1-.3-.4-1.9.8h0a5.26,5.26,0,0,1-1.8.4h-2.2a1.89,1.89,0,0,1-1.4-.7l-.2-3.2c-.7-.4-1-.6-1.3-.6l-.5.2-.7.4-1.4.3h-.4l-.1-.2-.8-1.4-.1-1.3h0l.8-3.8h.1V952l.9-1.9-2.8-2.5-.1-.1-.1-.1v-2.9l.1-.1,1.6-4.6-1-2.5-.9-.2-1.1.1-1.1,1.7-1.4-1-1.4-.8-1.1-2.8h0l-.4-2v-.2l-.1-.1.3-.2L54,930l.3-.2h.1l1-.2,1.1-.3,5.2-.2h.1l.7.3.2.1.8.3,1.4-.6,1.2-.9.6-1,.1-.5-.1-2.2-1.1-.2-2.1.7a2.88,2.88,0,0,1-2,1.2c-.7,0-1.3-.6-1.9-1.7h-.1v-.1l-.1-1.4v-.2l.1-1.3-1.1-2.7-2.1.6-.9.8.3,3-3.3-1.5.8,1.8.1.1v.2l-.3,2v.2h-.1l-1.9,2.7h0l-3.1,1.9-.3,1.8a5,5,0,0,0,.8,2.1l.1.1v.1l.2,2.6v.3l-.1.1-1.2,1.6h0l-.1.1h-.1l-.9.6h-.4l-2.3-.5a2.38,2.38,0,0,0-1.4.6l-1,1.1-.8,1a1.87,1.87,0,0,1-2.3.9c-.7-.1-.9-.8-.7-1.7v-.7l-.1-.7-.4.5a1.11,1.11,0,0,1-1,.5q-.6-.15-.9-1.2v-.1l-.2-2.3-.5-2.2-1-1h0l-.1-.1-2.1-4.8-.1-.1-.6-1.4v-.1h-.1v-.1l-.4-2.6-.3-.4-.4.3c-.7.8-1.2,1.3-1.4,1.3s-.8-.4-1.6-1l-1.5-.7-.2-.1-.1-.1v-.1l-.1-.2-.1-2h0l-.3-1.5-.8-2h-.8a4.13,4.13,0,0,1-.2,2,3.34,3.34,0,0,1-1.2,1.5,3.54,3.54,0,0,1-.9,1.6,1.17,1.17,0,0,1-1.7.2l-.3-.1c-.6-.2-.7-.9-.6-2.2v-.5l-1.3-.8c-.5-.2-.8-.8-.9-1.7l.5-4.5-.2-.7-1.6,1.8-1.1.8-.3.7a5.68,5.68,0,0,1,.6,2.1,2.08,2.08,0,0,1-1.4,2.1l-1.8.7-.5.3-.1.7v2.8c.1.9.2,1.4.5,1.4a1.68,1.68,0,0,0,1.9-.2l.6-.3,1.9,4.4v.1h0v.2c-.7,7.9-1.4,12.4-2.3,13.6a2.09,2.09,0,0,1-1.3.7,3.39,3.39,0,0,1-1.9-.5c-2.6,5.2-4.3,7.9-5.1,8.3h.1c-.4.1-.6,1.4-.5,3.7l.6.5.2.2.2.2Z" transform="translate(158.36 -677.05)"/><path class="cls-9" d="M91.44,913.08l-.7-.3-.8.5-.5.9c-.4.9-.8,1.4-1.5,1.4a2,2,0,0,1-1.2-.6l-.1-.1-.1-.1h0l-.3-1v-.1l-.1-1.3-.6-.1-.1.1-.3,1v1.4l-.1.1-.1.1-1.2,1.6-.2.2h-.2l-2.4-.2h-.2v.1h0v.1l-.8,1.1.3.7h.1l-.7,1.1h-2.2v-.4l-.2-.2-.3-.2-.4.7-.1.3h-1.5l-.1-.1-.9-.7-.1-.2v-.1h-.1v-.2l-1.6-.3-1.2.5-.7.5,2,2.3,2.6.8.1.1h0l.1.1,1.3,1.2-.5,2h0v.3h-.1l-1.7,1.4v.1h-.1l-2.8.8H71l-1.6.2h-.2l-1.1-.4-.6-.1-.6,1h-.1v.1l-1.3.9h-.1l-1.8.8h-.1l-2.1-.7-4.6.2-1,.3-.1.1h-.9l-1.1,1.5.2,1.7,1,2.3,1.1.6h.1v.1l.4.3.7-1,.1-.1.1-.1h.1l1.5-.2h.2v.1l1.5.4,1.5,3.4h-.1v.1l-.6,1.9h0L61,943v.1l-.7,1.7v2.1l1.2,1.2h.1l1.6,1.4.2.1.1.1-1.2,2.8-.3,1.3.4-.2h.1l1-.4,1.8-1h.1l2,.3h.1l3,1.2h3.3l.9-1.2.1-.1.1-.1,1.7-.8,1.6-1.4.2-.1h0l1.2-.4,1.3-1,1.5-2,2.1.8.3.1v.1l.1.1c.3.8.6,1.2.9,1.3l1.3-.2h.3l.7.2h.1v.1l1.7.6h.5l.1-.4.2-.6v-.1l.1-.1.1-.1v-.1l.6-.4.1-.1,1.1-.9h.1l.1-.1h.2l1,.1a2.59,2.59,0,0,1,.9-1.8c.7-.5,1.2-.8,1.5-.7l.6-.4h.1v-.1l.5-.5v-.1h.1l.1-.1H98l1.6-.4h.9l.4-.3.3-.6h0l.5-1-.2-.1a5.23,5.23,0,0,1-1.2-2.6l-.1-.1h.1V938l.4-2.2a2.19,2.19,0,0,1,.7-1.7l-.2-1.8a1,1,0,0,0-.8-.5l-3.2,1.3.2-3.3c.1-.5,1.1-1.4,3-2.5l-.9-3.5a3.06,3.06,0,0,1,.9-2.9l-.2-.6h-1l-.3.1-.5,1.4a1.71,1.71,0,0,1-1.2.8H97l-1-.7h-.2v-.3l-.3-.7-.1-1v-.1l-.1.2-.1.3h-1.8l-.2-.4-.3-1.1v-1.5l-1.1-1.9v-1.6Z" transform="translate(158.36 -677.05)"/><path class="cls-10" d="M111.74,939l.1.1.2.2-1.3,2a2.61,2.61,0,0,1-2,1h-.2l-1-.6-1,.1-2,1.5c-.5.2-1.1-.3-2-1.5l-.6,1.3h-.1l-.1.1h0l-.7.7h-1.3l-1.3.4-1.6,1.2h-.5l-.6.4c-.5.5-.7.9-.4,1.3l.7,1-2.8-.3-1.5,1.2-.2.5v.1l-.3.8-.1.1-.1.1h-1.4l-1.8-.7-.6-.1-1.4.2c-.6,0-1.3-.7-1.9-1.8l-1.2-.5-1,1.5h-.1l-1.4,1.2h-.1v.1h-.2l-1.1.3-1.6,1.4h0l-1.7.8-1.2,1.6h-4l-3.1-1.2-1.7-.2-1.5.8h-.1l-1,.4c-.5.2-.9.5-1.2.6l-.2.5v1.2l.5.8,2.4-.8a5.07,5.07,0,0,1,2.1.8l.2.1.1.1.1,3.4.5.1h2.1l1.3-.3.2-.2a6.8,6.8,0,0,1,2.4-.8l.4-.1.2.3.6,1.2v.1l.3,3.3v.3l-1.8,1.9H73v.1l-2.1,1-.7.8.3.6,4.3.4.1.1h0l.1.1,1.7,1,3.8-.1v.5l.2,1.9v.2h.1l-1.7,1.7c-.2,2.2.2,3.5,1.1,3.8l3.2,1.7,2.5,1.7,2.1-1,.2-.1.2-.1.1.1,3.2,2.4.5.2.8-1,.2-.2.1-.1h.2l1.9.3.4-3.3,2.4,4.3,2,.1.3.1h.2v1.5l.8-.2,3.3-4.4,1.4,2.1v-.7h0v-.2l1-2,.9-1.5h2.5l.4-2.8h.3l.2.1,1.9.3.2-1-.7-1.6v-.2l.4-1.1v-.2l.1-.1h.1v-.1l5.2-2.8-.2-2.7h0v-.1l1-2,.2-.4h0l1.6-3.7.1-.1h0l1.3-1.3.8-1.5v-.2h0l.7-1.2-.6-1.5v-.1h-.1v-1.6h-.8l-1.5.7c-.7.5-1.7.3-3-.5-.5-.4-.5-1.4-.2-2.9l-.8-.1-.4.5a6,6,0,0,1-1.8,1.6.9.9,0,0,1-.5-.1,4.45,4.45,0,0,1-.3-1.6c0-.9,0-1.5.3-1.7s.4-.4.6-.2l1.9-3.5.5-1.3.3-1.5-1.1-.9c-.3-.3-.4-1-.2-2v-.6a1.36,1.36,0,0,0-.6-1h-.2l-.1.3a1.55,1.55,0,0,1-2.1.9,2.76,2.76,0,0,0-1.8,0Z" transform="translate(158.36 -677.05)"/><path class="cls-4" d="M105.74,892.58,105,891l-1.1-1.6-1.2-.3h-.1V889h-.1l-1-.5h-.2l-.4.1-1.3.2h-.1l-.2-.1-1.3-.5v-.1h-.1V888h0l-1-1-1.1-1.1-1-.6-1.1,1-1.4,1-.4,3v.1h0l-1.3,2.2v.2h-.1l-1,1-1.2,2.3h0l-.1.2c-.9.7-1.7,1.4-2.5,2l-1,1.8c-.2.5-1,1.1-2.5,1.7l-1,1.7h0l-1.7,2.3h-.1v.1h-.2l-8-.5-.9.9V908l.8,3.3,1.7,2.4,1.4.8v.1h.1a4.35,4.35,0,0,1,1.2,2.2v1.3l-.5.5.3.2h.4l.6-1.2h.2l1.6.5.1.5H79l-.2-.6-.1-.2,1.1-1.7c.2-.5.7-.7,1.4-.5l1.8.1,1-1.3v-1.2l.4-1.3v-.1l.1-.1.1-.1.7-.4v-.1h.1l.1.1,1.5.2v.2l.3,1.2v.6l.2.9.4.1.5-.7v-.1l.8-1.1.1-.2,1.1-.5h.1l.1-.1,1.3.4H92l.2.1.7,1.4V915l1,1.9h0v1.6l.3.6h.3l.4-.5.1-.2,1.2.7h.2v.3l.4,1.7.5.3.1-.2.5-1.3v-.1l.1-.2h.2l.7-.4H99v-.1h.9l-.2-.5v-.2l-.5-4.7-1.9-3.1-3.6-4.2-.1-.1-.2-2.7-1.2-2.1v-.1l-.1-.1h0l.1-.2.6-2.6h.4l6.3-.4,3.4-1.8h0l.1-.1c1.2-.4,2-.9,2.2-1.4A4.21,4.21,0,0,0,105.74,892.58Z" transform="translate(158.36 -677.05)"/><path class="cls-11" d="M83.84,831.78l-.6-.1-1,6.1,1.7,2,1.6.7h.1l.1.1,2.1,1.7,2.9.7h.1l1.5,1h.1v.2l1.1,1.6.2.2-.1.2-1,1.6c-.2.2-.2.7-.2,1.5h.1v1.9l-.1.1h0l-.9,3-.1.5h-.2l-.3-.1-1.3-.3-1.7.1-1.5.5-1.7,1.4-.4.4,2.2,1.1-.2.4a2,2,0,0,1-1.4,1.3l-1.4.1-2.3-.9h0l-2.1-1.2h-.9l-2.5,3.6-.5,1.2v2.1l1,1.7v.1h0l.6,1.6v.2l.1,2.3v.3l.1.2-1.6.3h-3l-1.4.9-.6,1,.1.1.6,3h.1v1.2l.7,1.4,2.1,1.4,3.1-.7,1.5-1,.2-.1h1.4l.8,1.9a4.19,4.19,0,0,1,1.1,1.6l.7-.1h.4l.1-.2,1.4-1.1,1.3,2.3,1.4.9h2l1.5-.2h.3l3.6.5h.1v.1l1.5.9h0v.1l1.3,1v.1l.9,1,1,.4,1.6-.2v-2.1l-.8-1.4h-.1v-.1l-.6-2.6,1.4-1.4.1-.1h.1l1.2-.2h1.3l.4-.5-.8-1.1-2.9-1.9-.7-1.1-.1-.1-.1-.1.1-.2.8-1.5.2.2,2,.5,5.3-.2.1.1h.1l1.5.5,1-.9-.5-3.1-1.9-1.2c-1.6-.9-2.1-3.1-1.8-6.7l-1.6-.8-.2-.1h-.2V861l-.3-2.6,2.2-10.2a28,28,0,0,1-1.4-6l-.2-3,.2-3.3v-.2l.2-.2h0l2-1.5v-1.6a3.76,3.76,0,0,0-.7-1.8l-1.3-1.4H105v-.3l-.2-2.4v-.1l-.1-.1.2-.1v-.1l2.6-3.3v-1.4l-.8-1.5v-.1l-.1-.2,1.3-1.6v-.1h.1l1.4-1.1-.2-1.3h-.7l-1.1-.2-.6,2.4-.3-.1-2.6-1-1.6-.3.6,2.5-2.2.7-3.2,1.7-1,1.3h0v.1h-.1l-1.7,1.5-.3,2.4v.2l-.9,3.4h.1l-.4,1.6v.1h0l-.1.1-1.1,1.5h-.1v.1l-.1.1h-.1l-2.4.3h0v.1l-.1-.1h0l-3.6-1.2-.1-.1Z" transform="translate(158.36 -677.05)"/><path class="cls-12" d="M130.54,804.88l.4-.5-.7-1.6-.7-.8-.8,1.3v.1h0l-1.3,1.5h0l-.1.1h-.2l-2.4.7h-.2l-2.3-.4-1.3.4-.3,1.1h0l-.1.2-1.1.7-.2.1H119l-2-.2-.1.2v2l-.1.1-1.1,1.4h0v.1h-.1l-1.9,1.9h-.1l-.1.1-2,.4-1.3,1.4.3,1.7v.4l-.3.1-1.5,1.4-.8,1,.6,1.3v2.1h0v.1l-1.1,1.6v.1l-1.5,1.7.2,2,1.3,1.2v.1h0a5.08,5.08,0,0,1,.9,2.5v2.2h-.1l-.1.1-2,1.5-.2,3,.2,3a19.94,19.94,0,0,0,1.4,5.7v.3l-2.2,10.2.2,2,1.5.7,2.4-2.4h.1l7.7-3,2-1.8.2-.2.1.1h.2l4.4.4a14.82,14.82,0,0,0,3.8-1.3v-2.1l.1-.1h.1l1.2-1.1-.3-1.3V848l.1-.1c.4-.4.4-.8.1-1.1a2.48,2.48,0,0,1,.3-2.3l.5-.7h0l-.1-1.4-1.5-1.8a1.33,1.33,0,0,1-.4-1.9,4.25,4.25,0,0,1,1-1.7l.4-1.7h0l1.1-2.4.3-1.1,1.6-3-1.1-1.9-3.1-1.9H128v-.2h0l-.6-1.6v-.3l.3-2.7h0v-.1l.7-2a2,2,0,0,1,.3-1.6,1.24,1.24,0,0,1,.8-.4l1.9-.3.5-1.1.5-3.3-.4-1.2-1.7-.4h-.1l-2-1-.1-.1v-.2l-.1-.1-.1-2.4v-.5Z" transform="translate(158.36 -677.05)"/><path class="cls-13" d="M135.84,911.38l.1-.1h-.2v-.2l-.8-1.5-.1-.1v-.2l.2-2.4c0-.3-.3-.6-.9-1h-.6l-1,1.2h-.1l-2.5,1.2-.4-1.7v-.2l.2-.8-.2-1-.3-.1-.4.8h-.1v.1l-3.1,2.7-.1.2H125l-.9-.4-.1-.1-1-.9-1.6-.6h0l-.1-.1-1-.7-3.3-.7h-.1l-2.2-1.1v.1L113,903l-2.2-.2-.8.1.7,3.7h-.3l-2.2.2h-1.3l-1.2-.8-2,.9-1.8,2.4-1.6,4.3.5,4.7.7,2.7c.1.3.1.4,0,.5l-.3.1c-.5.3-.7,1-.6,2l1,4.1-.3.2c-1.8,1-2.7,1.8-2.8,2.2l-.2,1.4,1.7-.7.1-.1h.1c1.2,0,1.9.4,2,1.4l.3,2.2-.1.3-.2.2a1.39,1.39,0,0,0-.5,1l-.3,2.3a2.49,2.49,0,0,0,.8,1.7l2.1,2.5,1.9-1.5,1.5-.2h.1l.1.2,1,.3a1.22,1.22,0,0,0,.9-.4l.9-1.3-.2-.8a2.18,2.18,0,0,1,.9-.7h2.4c.4.2.7.1.7-.1a2.46,2.46,0,0,1,.9-1.2,1.67,1.67,0,0,1,1.1.4c.7.6,1.2,1.1,1.2,1.8l-.2,1.8.4.3c.6.5,1,1,1,1.4l-.4,1.8c-.3,1-.6,1.7-1,1.9v-.1l-1.5,3.2.5.2,2.4.1.5.2-.2.4a4.9,4.9,0,0,0-.3,2.2c.8.5,1.3.8,1.6.5l1.4-.6.7-.3h1.3l1.3-1.4v-1.7a1.72,1.72,0,0,1,.2-1.3c.4-.3,1.2-.3,2.4.4l2.4,1.5a3.25,3.25,0,0,0,1.8.8V950c.2-.4,0-1.2-.5-2.2l-1.3-2v-.2h.1l.1-.2c1.3-1.8,2.7-2.4,4.3-1.8l3.7,1.7,1.5-1h.1v-.2l-.2-.2.1-.1.1-.2c1.2-2,1.6-3.5,1.2-4.3a1.43,1.43,0,0,0-1.2-1h-.3l-.2-1h.2c.7-.3,1.1-.6,1.2-1l-.3-.5-1.6-1.5h0v-.1l-.8-2.2a14.82,14.82,0,0,1-.3-4.6v-1l-1,.9-.9,1-.3-4.2h0v-.2h.1a55.57,55.57,0,0,1,4.2-5.6l-1-3a24.15,24.15,0,0,1-.5-2.8l-1.8-.8Z" transform="translate(158.36 -677.05)"/><path class="cls-14" d="M101,874.28l-.1.4.5.6,2.6,1.8h0v.1h.1l1.6,1.8-.2.2-1,1.2-.1.1-.1.2h-1.7l-1,.1-.7.7.3.9v.1l.1,1,.9,1.3v2.9l.8.3,1.4.4h.1l.1.1.1.1,1.3,1.8v.1h0l.7,1.8v.1h0v1.2a5.78,5.78,0,0,1-.5,1.7,6.46,6.46,0,0,1-2.8,1.9l-3.4,2h-.1l-6.2.4-.4,1.5,1.1,2v.2l.3,2.6,3.4,4h.1v.1l1.4,2.3.1-.3v-.1l1.1-3.1h0l.1-.1h0l2-2.6.1-.1,2.5-1.2h.2l1.6,1,2.1-.2-.7-3.5.4-.1,1.9-.2,2,.1h.2v.1l4,1.8,3.4.7h.2l1.1.8,1.6.6v.1h0l1,.9.6.2,1.1-1V906l1.7-1.3.9-1.7,1.6.9v.2l.4,1.3v.3l-.2.8.1.2,1-.5,1.4-1.4h1.3v.1h.1l.9.6c.6.6.8,1.1.6,1.6l-.1,2.2.6,1.1.2.1c2.4-2.6,4-3.9,5-3.9h2.7l.6-1.3,2.1-1h.1l2.6-.2,2.7-1.4v-.1h1.7l-.3-.8.1-.2.4-.4-3.7-7.9v-.2l-.1-.1,1.6-2.2-.5-.5-2.7-.5h-.3v-.2l-1.7-1.8.1-.4-.1.1-.1.1-1.5-1a4.27,4.27,0,0,1-2.2,1.7c-.7.3-1.8-.5-3.3-2.3l-.8-1c-.1-.2-.8,0-1.9.4-1.7.6-2.8.7-3.3.4a3.32,3.32,0,0,1-.5-2.8,3.36,3.36,0,0,0-.2-2l-13-.7a9.21,9.21,0,0,1-2.7-1.5l-2-.5c-.8-.3-2.3-1.6-4.3-4.1l-1.3,1.1-2-.6-5.4.1h0Z" transform="translate(158.36 -677.05)"/><path class="cls-15" d="M166.34,961.58a1.77,1.77,0,0,0,1.6-1v-.1l.1-.3h.4l1.8-.1v-1.3a2.4,2.4,0,0,1-1.5-.6l-3-2.7v-.1l-1.3-3.8-1.8-1.8a42.41,42.41,0,0,0-5.1,0l-.4.1.1,1.2v.5h-.3l-1.6.7-.3-.2c-1.3-1.3-2.1-1.8-2.6-1.5-3.5,1.7-5.5,2.5-6.1,2.1a4.28,4.28,0,0,0-1.6,1.2l-.3.4-.4-.4a3.69,3.69,0,0,1-1.5-2.3c0-.4.7-1.2,1.9-2.5a13,13,0,0,0,2.1-2.7l-.3-.5c-.4-.2-1.2.2-2.2,1s-1.6,1-2,.9c-.2,0-.4-.3-.5-.8l-.1-.2-.9-1.6-1.9,1.2-.2.2-.1-.2h-.1a27.61,27.61,0,0,0-4-1.8q-1.35-.45-2.7,1.2l.9,1.5c.6,1.5.9,2.5.6,3.2a.87.87,0,0,1-.8.6c-.6.2-1.5,0-2.6-.9a24.2,24.2,0,0,0-2.2-1.4l-1.2-.5v.1h0l.1.2v2.2l-1.6,1.8v1.7l.7,1.8.1.1-1.1,1.7-.7,1.6v.1l-1.5,1.5-2.5,5.7.1,3.1-.1.1-5.4,3.1-.3.6.7,1.6v.2l-.5,2.1-2.2-.3-.5,2.7h-2.8l-.6,1h0l-.8,1.7-.5,6.3.6,1.3.1.2v1.3l1.2,1.5.1.2v1.2l3.2-.2.2-.3v-.1h.1V994l.9-1.2-2-1.8-.2-.2-1.1-.9-.1-.1-.1-.1v-2h1.7l.2-.7-.7-2h3.9l6.9-3.3.9-1.5.2-.5,1.4.6h.1l.1.3.6.7.7-.1-.2-1.5h2.3l2.2.4.9-1.5.1-.1v-.1l.2-.1,2.4-.7.4-3.5,2.5,2.2,1,.2.5-.6-.3-7.6v-.6l1.7.3h.1l.2.1.1.1,2.7,4.9,3.4-.4.6-.2.5-1.2-1-.8-.3-.4,2.3-.8.2-.1.1-.1.9,1,.8-.4v-1.5l.5-.1h1.7a3.85,3.85,0,0,1,2.8,1.6l.2.4.7-2.4c.4-.6,1.2-.7,2.4-.2l.2.1v.1l.1.1a.76.76,0,0,0,.4.2,36.61,36.61,0,0,0,5.2-3.7A2.61,2.61,0,0,1,166.34,961.58Z" transform="translate(158.36 -677.05)"/><path class="cls-16" d="M166.74,903l-.1-.1-2.2-1.9-1.2.6a5.82,5.82,0,0,1-3.3,3.4,1.06,1.06,0,0,1-1.2-.2c-.4-.5-.2-1.6.5-3.3l-3.3,2.1-.1.2h-3l-2.6,1.3v.2l-2.8.1-1.5.8-.7,1.4-.2.2h-3.3c-.6,0-1.9,1-4,3.1a3.69,3.69,0,0,1,1.7,1.1l.1.6v-.1l1.5,5.6h0l.1.3v.4H141l-.2.1h-.1l-4,5.5.2,1.4c.6-.5,1.1-.6,1.5-.4s.7,1,.5,2.2a11.73,11.73,0,0,0,1,6l1.4,1.5a1.65,1.65,0,0,1,.6,1.5l-.7,1,.9,1.2c.5,1,.1,2.7-1.1,5.1l1.3,2.2.2.5.8-.5c1.3-1.2,2.4-1.5,3.3-1.2a1.52,1.52,0,0,1,1,1.2c.1.7-.7,1.9-2.5,3.7l-1.4,1.8.7,1.1c1-.9,1.8-1.2,2.3-1,.6,0,2.3-.6,5.2-2.1q1.35-.75,3.6,1.5l.6-.3-.1-1.2-.3-.2c-.2-.3,0-.6.3-.9l-.5-1.9a1.7,1.7,0,0,1,0-1,4.15,4.15,0,0,1,1.1-.7l.9-.8-.5-1.2v-.1h.1v-.1a1.62,1.62,0,0,0,.3-1.4c-.4-.7-.1-1.2.7-1.9l1.1-1-.2-.2-.3-.3,1.3-.6v-1.6c0-.6.5-1.4,1.9-2.4l.6-.5h0l-1.5-1.7c-.5-.7-.3-1.6.6-2.5v-.2l3.1-2.6.1-.7c-.6-.2-.8-1.3-.5-3,.4-2.7,1.6-4,3.7-4.3h.2l1.3.7h1.4l1.3-1.6h0l.1-.1,1.6-1-.2-1.4v-.3l.2-.2.4-.2.5-.6.1-.1-1-1.7a18.38,18.38,0,0,1-2.5-3.9,2.79,2.79,0,0,1,.3-3l-1.8-1.1Z" transform="translate(158.36 -677.05)"/><path class="cls-17" d="M174.94,916.38l-.2.1-1.7,1.2-1.5,1.7h-.1v.2h-2.2l-1.2-.7c-1.5.4-2.3,1.4-2.6,3.3l-.1,1.7,1.2-1.1-.8,3.3v.2l-3.3,2.9c-.5.6-.7,1.1-.5,1.4l.6.7c.7.6,1.1,1.1,1,1.5a1.14,1.14,0,0,1-.3.8l-2.1,1.8a8,8,0,0,1,0,2.2v.3l-.1.1-.8.3c0,.5-.2.8-.7,1.3l-1.1,1.1v.1a2.46,2.46,0,0,1-.2,2c.5,1,.5,1.7,0,2l-1,1-.2.1-.5.2v.2l.7,2.4h.2a25.22,25.22,0,0,1,5.5,0h.2v.1l2.2,2.2v.1h.1l1.3,3.7,2.7,2.5,1.1.4.1-3.1,2.5,2.5.4-.4,1.8-3.7.3-2.1.3.1h.2l1.9.1-.1-1.5v-.5h.3l2.5.1c1.3-1.3,1.9-2.4,1.9-3.3l-.4-3.6,2.2.7.6-1-1-1-.3-.4,2-2,.1.2h.2l1.2.7v-.3l-.8-1.8.3-.3.5-.3-.2-.7-1-1.9.2-.1.2-.2,2.7-1.5.1-1.1c-2.3-1.2-3.5-2.2-3.3-2.7s.3-.5.8-.5l3,.5.1-1.8v-.2l1.5-1.5.4-1.1a3.58,3.58,0,0,1-1.4-1l-.1-.2v-.2l.1-.5-.1-.2-.2-.1-.1.1a1.49,1.49,0,0,1-1.4.7,3.77,3.77,0,0,1-2.7-1.2v-.1h-.1l-.8-1.4-.2.2a2.72,2.72,0,0,1-1.2,1.7,4.42,4.42,0,0,1-3.7.3,2.64,2.64,0,0,1-1.6-1.8l-.3-2c-.3-1.9-.7-3-1.3-3.3a2.26,2.26,0,0,0-1.7-.4l.1,1.7Z" transform="translate(158.36 -677.05)"/><path class="cls-17" d="M190.74,887.78a11.54,11.54,0,0,1-2.7,1,9.94,9.94,0,0,1-3-.7l-2.3-.3c-.7.3-1.5,1.3-2.6,3l1.5,3.2-2.5,1.4H179l-2-.6c.8,1.5,1,2.4.7,2.8l-.2.8a7.31,7.31,0,0,1-1.3,2.3l-3.5,3.1.9.5-.6.5c-.8.7-1,1.5-.6,2.1l2.4,3.7h.1v.1l1.1,2v.1l.1.1-.1.2v.3l-.2.2a2.66,2.66,0,0,1,1.4.5c.8.5,1.4,1.9,1.7,4l.4,2a1.5,1.5,0,0,0,.9,1,2.68,2.68,0,0,0,2.7-.3c.5-.3.8-.6.7-.9l-.1-.1v-.2l1.7-1.2.2.2,1.3,2.2a2.61,2.61,0,0,0,1.8.6l.5-.1h0l-.4-1.2,1.9.8h.6l.1.2,1.8,1.4.5-.8-.1-3.4.1-.1h0l1.2-1.5c.1-.2,0-.6-.5-1.1l-.3-.3.2-.2.1-.2.3-.1,2.5-4.1.2.1.5.1.2.1v.2l-.2,1.6h.2l2.8-2.5-.2-1.3H200l-1,.1,1.7-4.6-1.5-.2H199v-.2l-.5-.6a1.35,1.35,0,0,1,.1-1.6l2.4-.1h1.5a6.74,6.74,0,0,0-1.2-2.9l-2.1-.7,2.2-2.1v-.5l-1.1.2h-.4v-.1l-.1-.1-.1-.2a3,3,0,0,0-1.8-2.1l-4,.1-1.7,2v.1l-.5-.1-6.3-2,6.1-1.6c.4,0,1.4-1,3.1-3l-2.1-1.5Z" transform="translate(158.36 -677.05)"/><path class="cls-18" d="M166.94,870.38h-.1v-.1c-1.1-3.8-2.1-5.9-2.8-6.2l-3.5-1.2a20.59,20.59,0,0,1-4-1.4,14.13,14.13,0,0,1-3.8-4.3h-.6l.1.1a12.68,12.68,0,0,0,2.7,4.2l.1.1.1.2-1.6,2.9c-.6,1.1-1.2,1.6-1.8,1.4a12.73,12.73,0,0,1-2.5-2.8l-1.7-.5a9.94,9.94,0,0,0,1,3.1v.4l-.3,1.1-1.8.8h0l-.6.2a1.58,1.58,0,0,0-.2,1.4c.2,1.5.1,2.4-.2,2.8a.55.55,0,0,1-.5.2h-.1l-2-.4a1.86,1.86,0,0,0,.9,1.1,13.45,13.45,0,0,1,2.6,3.7l.1.3h0l.9-.2a3.91,3.91,0,0,1,3.1.7l1.1,1.3.1.1v.1h-.1l-.1,2.6a1.3,1.3,0,0,1,.3,1.3,1.47,1.47,0,0,1-1.3.9c-.8,0-1.2.5-1.4,1.5h0v.1l-.8,1.7,1.2,1.2,2.6.5h.2l1.3,1.4-1.6,2.4,3.7,8,.1.2-.6.7.2.6h.1l6.8-4.3-1.1,2a13.17,13.17,0,0,0-1.6,3.7,4.92,4.92,0,0,0,2.8-3l.1-.2h.1l1.9-1,.1-.2,2.7,2.4,3,.1.1.1,1.4.9,3.7-3.2a6.16,6.16,0,0,0,1-1.9l.4-.8c.1-.4-.4-1.4-1.4-3.1l-.9-1.3,4.4,1.5,1.3-.7-1.3-2.8-.1-.1,2.2-2.9-.9-1.4c-.9-1-1.5-1.5-1.9-1.5l-.2.1-1.1,1.1-.2-.1h-.2l-1.8-.6-.5-1.6a3.29,3.29,0,0,1-2-1.2l-1.1-.7c-.9-.4-1.4-.9-1.4-1.4a2.57,2.57,0,0,1,.6-2.2,7.77,7.77,0,0,0,1.7-3.9v-1.3l.7.1,2.3.1a10.49,10.49,0,0,0,.9-3l-.7-.1a16.77,16.77,0,0,1-3.7,2.1c-1.1.3-2.5-.3-4.5-1.7v-.1Z" transform="translate(158.36 -677.05)"/><path class="cls-19" d="M156,803.38l-.3-.2c-.5,0-1,.5-1.5,1.6l-.3-.2-.1.1.1.1-.9.9-.4.2-1.1.6-.1.7a2.27,2.27,0,0,1-.7,2.2l-.4,1.2a6.4,6.4,0,0,0-.1,2.2l.6,3a3.08,3.08,0,0,0,1.7,1.3l2.3.6a4.51,4.51,0,0,0,2.3-.9l-.6-1.1v-.3l.2-.9v-.1l1.1-2h1.9l.5-.1a12,12,0,0,0-1.9-3.1l-.7-1a7.63,7.63,0,0,1-.9-2.9A7.71,7.71,0,0,0,156,803.38Z" transform="translate(158.36 -677.05)"/><path class="cls-20" d="M146.94,799.58l-.2.3-.3-.1-1.3-.2-.1.6v.3h-.3l-2.1.8-.1.3c-.3.7,0,1.3.7,2.1l.2.2-.2.3a9.16,9.16,0,0,1-2.5,2.7,1.06,1.06,0,0,0-.5.9l.7.9,1.1.4.9.1c1.2,0,2,.1,2.3.6l1,.7a4.92,4.92,0,0,0,1.8.5c.4,0,.9-.3,1.3-1.1l.8-.9.6-1.9-.5-2.2.8.2,1.3.1.6-.4.2-.5-1-2.9.3-1a1.56,1.56,0,0,1,1.1-.9h.1l-.2-.7-2.4.1v-.1l-2.2-1.5a3.18,3.18,0,0,0-2.6-.5l-.3.2c-.2.4,0,.8.6,1A1.23,1.23,0,0,1,146.94,799.58Z" transform="translate(158.36 -677.05)"/><path class="cls-21" d="M184.24,774.18l-1.2,1.6a2.67,2.67,0,0,0-.1,1.9v.6h-2.5l-1.7-.5-1.3,2-.2.2-1.6,1-1.4,1.5h0l-.2.3h0l-2.5,2.9v.1h-.1l-1.9,1-1.5-1v-.1h0l-1.4-1.5-.9-.5.7,4.1.6,2.2-1.5,1.4-2.1,3.1v1.3l-.1.1h-.1l-.5.8.4.7h.8l2.9.8h.2v.1h.1l.6.6.8.4h.2v.1a2.08,2.08,0,0,1,.5,1.2l.3.9,3.1.9.9-.2.9-1.2,2.4-4.6h.1v-.1l1.1-1.5.1-.1,1.9-.9,1.3-.1c.5-.8.9-1.2,1.4-1.2a4.59,4.59,0,0,1,1.6.6l.2.1v.1l1.7,2.6v.1h.1v.2l.2,1.9-.1,2.1h0l-.5,1.8h0v.2h-.1l-1.3,1.6-.6,1.3.1,2.2h.2l.7-.3.8-.7.2-.2.1-.2,1,.9v1.7h-.1l-.9.4-.3.4v.9l-.1.1h0l-.6,1.1h-.1l-.2.1-.8.1-.8.2-.6,1.1.1.2,3.3-.4.6-.5,1.1-2.9h0l7.4-7.6h.2l1.6-.8.1-.1v.1h1.3l1.3-.3,1.4-.6,1-1.1,1.6-4.4h0v-.1l6.2-6.5v-.1l-.4-3.5a1.8,1.8,0,0,1-.9-.6l-.2-.2v.1l-1,.1a2.55,2.55,0,0,1-1.2-.9l-.3-.6v-.1l-.1-.1v-5.4a5,5,0,0,1-1.9-1.3l-1.3-1.4-1.2-1.7a3.63,3.63,0,0,1-.1-1.9l.1-.5-.7-.9-.1.8-.9,1.7h-.3a4.91,4.91,0,0,1-2.1-.4,1.29,1.29,0,0,1-.9-1.3v-.4h-.5l-1.9.5-1.4-1.4-.5-.1-.5.5.6,1,.2.3-1,2.1h-.1v.1H191l-1.8,2-.1.1h-.2l-2.8.3Z" transform="translate(158.36 -677.05)"/><path class="cls-22" d="M186.44,743.58l-.4-2.1-1,.6h-.1l-2.4.9-.1-.2-.4-.1v1.1l-.1.1-1.2,1.8h-.1v.1h-.1l-1.8,1.5h-.2v.2l-.3-.2a4.11,4.11,0,0,1-2.2-1.6,1.33,1.33,0,0,0-.5-.3l-1.3.2-.8.8,2.1,1.8,1.7.7.1.1h.1l.1.2v.1l.3,2h.1v3.1l.4,1.8,1.2,2.8,1.4,1.3,1.1-.8.8-1v-.1h.1l1.4-1.7,1.2,1.1v.1h0v.1l1.2,2.3,1.5.6.8,2.4v.2l-.1,2.2v.1h-.1l-.6,2,1.1,1,1.2-.6,1.2-1.2.3.2,1,.3h0l1.2,1.1,1.3-.3c1-.3,1.5,0,1.8.7v.9l.2.1,1.4.4.6-1.3v-.5c0-.4.1-.8.4-.9l.8.1c1.1.5,1.6,1.2,1.6,2l-.1.7v1.2l1.1,1.6,1.3,1.4a3.07,3.07,0,0,0,1.4.9h.2c.3.2.5.7.5,1.8v4.5a1.55,1.55,0,0,0,.8.8h.2a1.12,1.12,0,0,1,1.5.3l.3.2a1.33,1.33,0,0,1,1,1.3l.2,2.5,2.3-4.7c.7-2.5,1.5-4,2.6-4.2.9-.3,2.3.2,4.1,1.2l6.5.5.2-1.4-3-2.9q-2.1-1.2-1.8-1.8l2.3.1c2.1.7,4.1-.5,6-3.9h.1l2.2-2.1.3-4.6v-.5h.5l1.7-.4h.3l.2.1v.1l3.5,3.7,1-.4.2-.6-1.9-1.8-.3-.2-.2-.3,2.9-1.7-.2-4.2-1.2.2h-.1l-1.6-.8a9,9,0,0,1-2.6-1.2c-.6-.3-1-.6-1-1v.1c0,.4-.1.6-.3.7a2.42,2.42,0,0,1-1.4.3h-.1l-.1-.1h-.1l-1.4-1-1.2,1c-.6.5-1,.9-1,1.3l.6,1.3a.82.82,0,0,1,.2.9,2,2,0,0,1-1.4.7l-.6.3a1.49,1.49,0,0,1-1.7-.4l-.2-.3-2.6-2.7a3.54,3.54,0,0,1-2.2-1.5.88.88,0,0,1-.2-.8,4.36,4.36,0,0,0-.5-1.8l-.5.3-.1.2a1.62,1.62,0,0,0,.4,1l.1.2.1.1-.1.2-1.4,2.3-2.3-.5-.5-.3h0v-.3a1.71,1.71,0,0,0,0-1.4l-.3-.8-1.9-1.4-.1-.1c-.2.3-.4.3-.6.4l-1.8-.2c-.6-.1-1-.2-1.2-.6a1.48,1.48,0,0,1,.1-1.1l.1-.3-.8-1.4-3.5.2a1.63,1.63,0,0,1-.2,1.2c-.1.3-.5.4-.8.4a1.52,1.52,0,0,1-1.6-.5v-.1h-.1a3.46,3.46,0,0,1-1.1-2.2l-.7-1-1,.7c-.9.5-1.5.5-1.8.1l-.4-.1-1,.1-2.7.9a2.64,2.64,0,0,1-1.5.5H192a2.65,2.65,0,0,1-2-.7l-1.6-1.3Z" transform="translate(158.36 -677.05)"/><path class="cls-6" d="M248.64,724.78l-1.5-9.8.1-.2h.1c.7-1.1,1.1-2,.9-2.7l-.4-.6c-1.1-.7-1.6-2.3-1.3-5h-.9a3.61,3.61,0,0,0-2.3.7,3.53,3.53,0,0,0-1.4,1.8c-.4,1.2-1.7,2-3.9,2.7l-.5,3.1v.1l-.1.1-1.1,2-.1.2H236l-9.9,1.8h-.4v-.2l-2.9-3.1.9-.9-1.1-1.5-1.4-1-.1-.1H221V712l-.5-2.7-2.6.2-.2-.2-2.2-1.3-7.9-1.4-6.6-.3-.2.2a.61.61,0,0,1-.6-.3l-3.8-8.6a66.66,66.66,0,0,0-5.2-6.7,76.46,76.46,0,0,0-5.2-6.1l-5.6-5.5-.9-.5-7-.1h-.1l-.2-.2a8.1,8.1,0,0,0-3.2-1.3q-1.95-.75-9,3l-.2.1.2,1.4h.1v.1H160v.2l-.8,1.6v.1h-.1l-.1,1.1a8.09,8.09,0,0,0,.5,2.7l.7.5,1.5-.1,1.3.3.5-.4a2,2,0,0,1,.7-1.8h1l3.5,1,.8.1-1.1,1.9v2.3c0,.5.9,1.7,2.7,3.4a6.36,6.36,0,0,0,2.4,1.3l.5-.1.5-.2,1.7-1.7,1.3-.8v-.1h0l2.7-.4.8-1.7,2.4-1.4,2.1,1.2v.1l.2.1,2,3.4.8,2.3v.3l-.4,2.8.8,1.9v.3l-.6,2.2v2a18.63,18.63,0,0,1,.9,3.3l-.2,1.7h0v.1l-1,1.4v.1h0l-1,1.2-.1,2.2.6,2.3h0l.1.1-.1.1h0l-.6,3.5-.5.5a1.35,1.35,0,0,1-1.5,0h-.2l-.9-1-1,.3-1.3,1.4-1.4,4.1v.1l-.1.1-1.4,1.2h-.2l-.8.1-1.6,2.3.8,1.5.2.2,2,2.5v.9l2.2.3.4,2v.1l.3,2.4.6.5,2-.6,1.9-1.1.3-.2.7,3.4.9,1.3.2.1.7,1.4,1.5,1.2c.2.3.7.3,1.2.3l.5.1.9-.4a8.07,8.07,0,0,1,2.2-.7l.6-.3,1.4-.1a1.16,1.16,0,0,1,1,.4l2-1.3h.2l.2.1.1-.1.2.2a4.17,4.17,0,0,1,1.2,2.1l.9,1.5.7.2h.2l-.2-.2a1.62,1.62,0,0,1,0-1,1.36,1.36,0,0,1,1.2-.5l3.7-.1.1-.1h.2v.2h.2l1.1,2.1-.1,1.1h-.1l1.4.3h.1a.59.59,0,0,1,.1-.7l.5-.1,3.3,2.3a2.29,2.29,0,0,1,.6,1.2l.1,1.4,1.1.2.7-1.2a2.69,2.69,0,0,1-.4-1.6,1.15,1.15,0,0,1,.6-.9l.3-.3c0-.2.1-.3.3-.4l.9.1c.5.3.9,1.3,1.1,3v.2l.2.1c.1.4.7.7,1.6,1h.1l.1.1,3.2,3.3h0l1.5-.5-.2-.5a2.14,2.14,0,0,1-.5-1.3q0-1,1.5-2.1l1.7-1.5,2,1.4h.4l.4-2.2v-.4l.4-.1,1.6.2a1.43,1.43,0,0,1,.5,1.1,2.55,2.55,0,0,1-.6,1.3l.3.2a10.27,10.27,0,0,0,2.4,1h.1l1.3.7,1-.1-1.5-7.3a10,10,0,0,1-2.8-3.2c-.7-1.2-.3-2.9,1.3-4.9a31.22,31.22,0,0,1,3.2-3h0l.1-.2h1.4l.1.2,1.2.5h2.5c1-.5,1.9-2,2.9-4.4C249,732.18,249,729.28,248.64,724.78Z" transform="translate(158.36 -677.05)"/><path class="cls-1" d="M190.94,824.28l-.2.1a.74.74,0,0,1-.8.8l-3.9-.4a21.79,21.79,0,0,1-5.4-1.4l-5.5,5.2.2,2.2v.2l-.5.1q-6.45.9-6.9-1.2l-.5-6.2-5-.3-2.1,4.4-.2-1.9c-.1-1.5-.4-2.4-.7-2.6l-2.2,1.1-1,1.3-.1.1H156l-2,.7a44.8,44.8,0,0,0-5.8,5.7l-5.3,7.2,1.1,2.5v.4h0l-.1.1c-.4.6-.2,1.5.4,2.5a8.94,8.94,0,0,1,1.2,4.3v.3l-4.3,2.5v1l2,.9a.54.54,0,0,1,.3.4v.2c-.1.5.7,1.2,2.2,1.9l3.7,1,1.1-.7,1.2-1.7,1-2.9,2.9,1.1.4.3v.2h0v.1a1.74,1.74,0,0,0,.7,2.5l3.2.1a5.68,5.68,0,0,0,2.6-1.1c.4-.5,1-.6,1.9-.5a4.32,4.32,0,0,1,2.8,1.5l.7-1.7.2-.3h.1a3.78,3.78,0,0,0,1.2-1.5,4.11,4.11,0,0,1,1.6-1.9l1.4-.8.1-.1.1.1h.1l.8.2h0l.2.1,1.1-5v-.1l1.6-.3c1.6-1.1,2.4-2,2.3-2.8l-.3-1.5a2.46,2.46,0,0,1-.2-2,1,1,0,0,1,.8-.4,5.26,5.26,0,0,1,2.3.6l.2-1.6v-.2l.1-.1,1.7-.8.2-.9h-1l-.2-.1.1-.5v-.3l.1-.2h.5a3.87,3.87,0,0,0,2.4-1.2l6.3-4.5h.2l2,.9.8-.1-.5-2.1V827l.1-.1.1-.1,1.1-1.8-.3-.2-.7.2v.1h-.1l-2,.3h-.6v-.1l-.1-.3-.4-.7Z" transform="translate(158.36 -677.05)"/><path class="cls-23" d="M199.84,883.78l.7-.8h0v-.1l-2.5-2a4.88,4.88,0,0,0-3.2-1.1l-1.1.4v2.1a4.11,4.11,0,0,1-1.2,2.1l-.4.4,1,1.2h.1l.3.8,1.2.5a2.21,2.21,0,0,1,1.7-.6l2.1.4.1-.7A3.2,3.2,0,0,1,199.84,883.78Z" transform="translate(158.36 -677.05)"/><path class="cls-24" d="M185.34,861.78c-1.1-.9-2-2.5-2.9-5-2.9,0-4.6-.5-5.4-1.5-.6-.9-1.8-1.5-3.5-2l-.5-.1.5-1.7-.3-.2-.5-.1a4.24,4.24,0,0,0-2.3,2,6.18,6.18,0,0,1-1.5,2q-.75,2.4-1.5,2.4c-.3.1-.5-.1-.7-.4l-.8-.7a4.36,4.36,0,0,0-1.7-.6l-1,.2a5.3,5.3,0,0,1-3.2,1.4l-3.8-.2a2.79,2.79,0,0,1-1.4-3.3l-1.4-.5-.7,2h0v.1l-.1.1-.3.4.9.2h.2l.1.1v.1a19.14,19.14,0,0,0,3.7,4.2,31.13,31.13,0,0,0,3.7,1.2l3.6,1.3c1.1.5,2.2,2.7,3.4,6.6,1.6,1.1,2.6,1.6,3.3,1.5a29.44,29.44,0,0,0,3.6-2.1l.1-.1.1-.1.2.1,1.8.4h.2v.3l-.1.3q-.9,3.6-1.5,4.2l-2.4.1v.1c0,1-.7,2.5-2,4.4a2.61,2.61,0,0,0-.5,1.4l2.3,1.6c.6.7,1,.9,1.5.9h.5l.5,1.7,1.1.4.6-.6a1.1,1.1,0,0,1,1-.4c1,0,1.8.6,2.8,1.9h0l.9,1.2.1-.1c.6-.4,1.7-.3,3.3.2l2.6.6,2.4-.8,1-.5.7-.5-.6-.7c-.2-.4,0-.9.5-1.4a2.2,2.2,0,0,0,1-1.6V881a1.15,1.15,0,0,1,.1-1.2c.2-.4.9-.6,1.7-.8,1.3-.2,2.9.4,4.8,2l-.7-2-1.1-1.5-.2-1.8-1.7-.3h-.1v-.1h0l-4.5-2.6-2.2-.4v-.5l-.1-2.3C187.44,865.28,186.24,862.68,185.34,861.78Z" transform="translate(158.36 -677.05)"/><path class="cls-25" d="M168,800.28l-.8-.4h-.1l-.6-.6-2.8-.8H163l-.5.2-1.1-2.1.1-.1.8-1v-1.2l.1-.2.5-.8-.4-.2-1.5-.3h0l-2.6-.4h-.2l-1.5-1.5v-.1l-.5-1-.1-.3.8-2.1v-1.5l-.1-.4-.8.8-.1.1-.2.3-.2-.3-.3-.1-1.5-1.2-.2-.2v-.2l-.3-2.2-.7-1.1-1.5.1-.9,1.6-.1.2-.1.1-2.4-.5-.4,2.2v2.2l-.1.1-1.3,2v.2l-.2.1h-.1l-1.5.1-1.5,1.2-.2.2H142l-.1-.1-2.8-.9-.4,1v.1l-1.2,2a1.34,1.34,0,0,1-.8.7l-1.2-.2-1.6-.7-.3-.2-.1-.1v-.1l-.3-2.4-.5-1.8-.3-.5-.7,1.4h0l-1.2,1.6-1,2.3v.1h0v.1h-.1l-.9,1.3a4.27,4.27,0,0,1-.9,1.9l.6,2.3,3,3.3h0l1,2.1v.2l-.1.2H132l-.8,1-.2.2-2,.4.2,1.6,1.5.8,2.2.5.6,2h0v.2l-.5,3.4h0v.1l-.8,1.5v.3H132l-2.5.4v1l-.7,2.2-.3,2.5.5,1.4,3.1,1.9.1.1,1.3,2.2v.1l.1.1-.1.1-1.6,3.5-.4,1h0l-1,2.3-.4,1.8-.1.2v.1a2.81,2.81,0,0,0-1,1.4.47.47,0,0,0,.1.6l.1.1,1,1.1h0l.5.8.2-.1h0l.1.3v.4h0v.1h0l.2.6.9.3,3.6.8a8.9,8.9,0,0,0,3.5-.8,6.08,6.08,0,0,1,3.5-.4l.2-.7-1.2-2.7-.1-.2h.1l5.7-7.9,6.1-5.9h.1l1.9-.7,1-1.1v-.1a8.93,8.93,0,0,1,2.3-1.3l-.6-.5-1.3-1.3v-.1h-.1l-1-1.2-.1-.2v-.2l.5-.6-1.3.3-2.8-.7a3.29,3.29,0,0,1-2-1.8,12.41,12.41,0,0,1-.7-4.8,1.64,1.64,0,0,1-1.4.6l-2.1-.5-1.4-1-1.7-.4H142a2.2,2.2,0,0,1-1.5-.6,2.14,2.14,0,0,1-1-1.2,1.49,1.49,0,0,1,.7-1.8,9.77,9.77,0,0,0,2.2-2.3,2.85,2.85,0,0,1-.7-2.7l.1-.1c.1-.5.9-.9,2.4-1.4a1.25,1.25,0,0,1,.5-.9l1.5.1-.2-.2c-1-.6-1.3-1.3-.8-2.1l.8-.6a3.9,3.9,0,0,1,3.1.4l2.3,1.6h2.1l.7.6.2.8a.71.71,0,0,1-.7.8c-.5,0-.7.5-.8,1.1l1,2.4a3,3,0,0,1,1.8-1.5,1.37,1.37,0,0,1,1,.6,8.7,8.7,0,0,1,.8,2.3,6.26,6.26,0,0,0,.7,2.5l.8,1.1a9.87,9.87,0,0,1,2.1,3.5l3.9-.5,1.7-.9,1.6-2,.7-1.9v-.2l.5-2v-.1l.1-.2h.1l1.5-1,.3-.2-.1-.1-2.5-.8h-.2v-.1l-.5-1.5Z" transform="translate(158.36 -677.05)"/><path class="cls-26" d="M117.74,856.68h-.1l-7.6,3.1-2.3,2.2q-.6,5.1,1.2,6l2.2,1.4h.1v.1l.6,3.7c1.9,2.5,3.2,3.8,3.9,4.1l2.2.5.3.1v.1a4.63,4.63,0,0,0,2.3,1.2l6,.3c4.4,0,6.9.3,7.4.8s.6,1.4.5,2.9a3.31,3.31,0,0,0,.1,1.7l2.2-.5c1.7-.6,2.7-.6,3.2-.1l.8,1c1.2,1.5,2,2.1,2.2,2a4.55,4.55,0,0,0,2-1.8l.2-.3,1.8,1.1,1.1-.9c.3-1.4,1-2.1,2.2-2.2l.5-.2-.2-.4-.2-.2.1-.1.1-2.5a2.73,2.73,0,0,0-2.9-1.4c-1.1.3-1.9.3-2.2-.1a1.35,1.35,0,0,1-.2-.9,14.69,14.69,0,0,0-2.3-3.1c-1.2-1-1.5-1.9-1.2-2.8l.2-.3,2.8.5-.2-1.7a2.54,2.54,0,0,1,.5-2.2,1.64,1.64,0,0,1,1.2-.7l1.2-.4v-.5c-.9-1.9-1.2-3.3-.8-3.9l.6-.5a6.64,6.64,0,0,1,2.7.6h0l.1.1v.2a23.35,23.35,0,0,0,2,2.3l1.9-3.1a26.48,26.48,0,0,1-2.9-4.2l-1.5,1-.2-.2-4-1h-.1v-.1c-1.7-.8-2.7-1.7-2.8-2.6l-2.4-1.1v-2.3l4.4-2.6a12.21,12.21,0,0,0-1-3.4l-.7-1.4-3,.3a10,10,0,0,1-4,.9l-3.1-.7v-1.1l-.5-.1-.9-.3-.2-.6h0v-.1h0l-.1-.3v-.4l-.2.1-.2,2.6-.1.9c-.2.5-.4.8-.2,1a1.8,1.8,0,0,1-.1,2.2l.4,1.7-.1.1-.2.1-1.2,1.1v2.3l-.3.1a13.55,13.55,0,0,1-4.6,1.5l-4.4-.3-1.9,1.7Z" transform="translate(158.36 -677.05)"/><path class="cls-5" d="M204.54,939.38a20.41,20.41,0,0,0-7,8.7c-1.3,3-2.3,4.5-3,4.9l.7,5.5v.1h0l-.5,3.8c-.2,1.2,0,2,.3,2.2l4.1,2.7h.1l.1.3h0a7.08,7.08,0,0,0,1.6,2.7,3.19,3.19,0,0,0,1.3,1.1l.6-6.6v-.2l2.9-7,1-8.3v-.1l.1-.1.9-2.2L207,945v-.1h-.1l-.2-2.6.1-.1.1-.1.5-.6.3-.7Z" transform="translate(158.36 -677.05)"/><path class="cls-27" d="M106,997.88l-.3.5v.1l-.1.2-4.1,1,.2.5,1.3,1.5c-.1,0-.3.1-.4.1l-1.9,1-3,2.3c-1,1.2-.8,3.4.7,6.7l3,.3h.1v.1l3,1.4,3.2-.5c1.3-.3,2.8-1.5,4.7-3.8h.1l.2-.2,1.4-.4-.4-4.2v-.2l1.8-2.6v-.1h.1l1.4-1.1a4.86,4.86,0,0,0-.4-3.2c-.4-.8-.9-1.1-1.4-1.1l.2,1.5-2.7-.5-1.2.7H106Z" transform="translate(158.36 -677.05)"/><path class="cls-28" d="M186.24,863a5.69,5.69,0,0,0-5.69,5.69c0,5.43,5.69,12.52,5.69,12.52s5.69-7.09,5.69-12.52a5.69,5.69,0,0,0-5.69-5.69Zm0,8.83a3.07,3.07,0,1,1,3.07-3.07,3.07,3.07,0,0,1-3.07,3.07Z" transform="translate(158.36 -677.05)"/><path class="cls-28" d="M144.23,952.62a5.69,5.69,0,0,0-5.69,5.69c0,5.43,5.69,12.52,5.69,12.52s5.69-7.09,5.69-12.52a5.69,5.69,0,0,0-5.69-5.69Zm0,8.83a3.07,3.07,0,1,1,3.07-3.07,3.07,3.07,0,0,1-3.07,3.07Z" transform="translate(158.36 -677.05)"/><path class="cls-28" d="M146.87,787a5.69,5.69,0,0,0-5.69,5.69c0,5.43,5.69,12.52,5.69,12.52s5.69-7.09,5.69-12.52a5.69,5.69,0,0,0-5.69-5.69Zm0,8.83a3.07,3.07,0,1,1,3.07-3.07,3.07,3.07,0,0,1-3.07,3.07Z" transform="translate(158.36 -677.05)"/><path class="cls-28" d="M135.47,946.27a5.69,5.69,0,0,0-5.69,5.69c0,5.43,5.69,12.52,5.69,12.52s5.69-7.09,5.69-12.52a5.69,5.69,0,0,0-5.69-5.69Zm0,8.83a3.07,3.07,0,1,1,3.07-3.07,3.07,3.07,0,0,1-3.07,3.07Z" transform="translate(158.36 -677.05)"/><path class="cls-28" d="M56.81,885.79a5.69,5.69,0,0,0-5.69,5.69c0,5.43,5.69,12.52,5.69,12.52s5.69-7.09,5.69-12.52a5.69,5.69,0,0,0-5.69-5.69Zm0,8.83a3.07,3.07,0,1,1,3.07-3.07,3.07,3.07,0,0,1-3.07,3.07Z" transform="translate(158.36 -677.05)"/></svg>