<svg id="图层_1" data-name="图层 1" xmlns="http://www.w3.org/2000/svg" viewBox="0 0 190 190"><defs><style>.cls-1{fill:#fff;}</style></defs><rect width="190" height="190"/><path class="cls-1" d="M471.14,1132.37h3.2v.94h7.25v2.34H464v-2.34h7.13Zm-4.3,3.65h2.79l.59,1.8h5.59l.7-1.8h2.91l-.74,1.8h2.6v10.49a2.41,2.41,0,0,1-.66,1.72,1.85,1.85,0,0,1-1.52.63H477v-1.19a1.9,1.9,0,0,1-1,.25h-8.2v-5.62h10v3.73a2.83,2.83,0,0,1-.06.63h.43q.49,0,.49-1v-7.36h-2.58v.86q0,.41.45.41h1.64v2.09H475q-1.41,0-1.41-1.23v-2.13h-1.72v2q0,1.27-1.43,1.27h-2.95v-2.13h1.64q.31,0,.31-.37v-.72H467v10.57h-2.66v-12.83h3.07Zm7.95,11.48q.49,0,.49-.7v-.53h-5v1.23Z" transform="translate(-456.92 -1123.47)"/><path class="cls-1" d="M486.69,1132.74h2.17v7.42h3v2.13H492q.23,0,.41-.31l.59-1.48h2.13l-.27.78H497l-.45-.78h2.34l.45.78h2.46v1.62h-2.13v.78h2.13v1.64h-2.13v.78h2.13v1.64h-2.13v.7H502v1.64h-7.13v.57h-2.32v-6.56h-1v-1.8H490.5v5.94q0,.37.41.37h.78v2.05h-2.13a1.07,1.07,0,0,1-1.23-1.19v-7.17h-4.55v-2.13h2.91Zm1,10-.8,6.11q-.25,1.72-1.48,1.72h-1.56v-2h.23q.53,0,.68-.82l.72-5Zm-3.61-9.22H486v3.77q0,.23.29.29v2.05a3,3,0,0,1-1.7-.66,2.56,2.56,0,0,1-.49-1.52Zm7.42,0v4A2.52,2.52,0,0,1,491,1139a3.21,3.21,0,0,1-1.74.66v-2.05q.37-.06.37-.29v-3.85Zm.55-.78H497v7.5h-2.21v-1.54l-.27.84q-.22.63-1.11.63h-1.19v-1.39h.64c.06,0,.12-.07.18-.2l.29-.84h1.46v-.37h-1a.88.88,0,0,1-.92-.59l-.64-1.78H494l.31.66a.17.17,0,0,0,.18.14h.29v-1.17h-2.73Zm5.16,10.94v-.78h-2.34v.78Zm0,2.42v-.78h-2.34v.78Zm-2.34,2.34h2.34v-.7h-2.34Zm2.42-15.7H502v7.5h-2.21v-1.58l-.27.82q-.22.6-1.11.61h-1v-1.41h.49c.06,0,.12-.05.18-.16l.29-.78h1.46v-.53h-1a.85.85,0,0,1-.88-.55l-.61-1.66h1.8l.25.53a.15.15,0,0,0,.16.12h.29v-1h-2.5Z" transform="translate(-456.92 -1123.47)"/><path class="cls-1" d="M463.69,1182.35h3.94v8.7q0,.44.26.44h.74v2.18h-2.32a.89.89,0,0,1-1-1v-7.86h-1.62Zm1.42-4.8h2.58v3.73h-2.58Zm6.94,0h6.56v4.17q0,.47.49.47h.84v2.18h-2.18a1.43,1.43,0,0,1-1.62-1.62v-3h-4.1v3a1.43,1.43,0,0,1-1.62,1.62h-2.11v-2h.93q.4,0,.4-.44v-4.36Zm-3.29,7.31h10.6v2.25l-3.52,3.23.69.56a2.4,2.4,0,0,0,1.56.58h1.71v2.18h-3a1.77,1.77,0,0,1-1.25-.49l-1.41-1.23-1.41,1.3a1.1,1.1,0,0,1-.86.35H469.1v-2.11h1.62a.63.63,0,0,0,.44-.16l1.14-1-3-2.69h3.3l1.44,1.18,2.07-1.81h-7.31Z" transform="translate(-456.92 -1123.47)"/><path class="cls-1" d="M481.69,1182.56h3.53V1191q0,.44.25.44h.79v2.18h-2.44a.94.94,0,0,1-1.05-1.07v-7.66h-1.07Zm.91-5h2.76v3.25H482.6Zm15.21,5.57v2.25h-4.29v8.23H490.9v-8.23h-4.57v-2.25h4.57v-5.64h2.62v5.64Z" transform="translate(-456.92 -1123.47)"/><path class="cls-1" d="M502.85,1177.41H505v15q0,1.14-1.25,1.14h-4v-2h2.83q.26,0,.26-.33Zm-2.58.7h2v12.67h-2Zm15.75-.56v2.18h-4.17v1.62h3.8v10a2,2,0,0,1-.56,1.46,1.75,1.75,0,0,1-1.32.49h-1.35v-1.81H513q.4,0,.4-.84v-7.12h-1.55v10.21h-2.39v-10.21H508v9.77h-2.25v-12h3.73v-1.62h-4v-2.18Z" transform="translate(-456.92 -1123.47)"/></svg>