<svg id="图层_1" data-name="图层 1" xmlns="http://www.w3.org/2000/svg" xmlns:xlink="http://www.w3.org/1999/xlink" viewBox="0 0 198.32 167.3"><defs><style>.cls-1{fill:url(#radial-gradient);}.cls-2{fill:url(#radial-gradient-2);}.cls-3{fill:url(#radial-gradient-3);}.cls-4{fill:url(#radial-gradient-4);}.cls-5{fill:url(#radial-gradient-5);}.cls-6{fill:url(#radial-gradient-6);}.cls-7{fill:url(#radial-gradient-7);}.cls-8{fill:url(#radial-gradient-8);}</style><radialGradient id="radial-gradient" cx="-2713.35" cy="2514.78" r="443.87" gradientTransform="translate(762.69 183.89) scale(0.18)" gradientUnits="userSpaceOnUse"><stop offset="0" stop-color="#f8c0a1"/><stop offset="0.06" stop-color="#f5a690"/><stop offset="0.43" stop-color="#df0024"/><stop offset="0.68" stop-color="#dd0024"/><stop offset="0.78" stop-color="#d60022"/><stop offset="0.86" stop-color="#ca001f"/><stop offset="0.92" stop-color="#b8001b"/><stop offset="0.97" stop-color="#a20017"/><stop offset="1" stop-color="#920013"/></radialGradient><radialGradient id="radial-gradient-2" cx="-2713.36" cy="2514.72" r="443.92" xlink:href="#radial-gradient"/><radialGradient id="radial-gradient-3" cx="-2713.36" cy="2514.78" r="443.87" xlink:href="#radial-gradient"/><radialGradient id="radial-gradient-4" cx="-2713.38" cy="2514.8" r="443.86" xlink:href="#radial-gradient"/><radialGradient id="radial-gradient-5" cx="-2713.26" cy="2514.8" r="444.36" xlink:href="#radial-gradient"/><radialGradient id="radial-gradient-6" cx="-2713.26" cy="2514.77" r="444.36" xlink:href="#radial-gradient"/><radialGradient id="radial-gradient-7" cx="-2713.26" cy="2514.8" r="444.33" xlink:href="#radial-gradient"/><radialGradient id="radial-gradient-8" cx="-2713.27" cy="2514.82" r="444.33" xlink:href="#radial-gradient"/></defs><path d="M208.84,729.47h9.33V722h4.19V740.4h-4.19v-7.68h-9.33v7.68h-4.19V722h4.19Z" transform="translate(-162.46 -624.59)"/><path d="M230,733c0,3.26,1,4.61,4.49,4.61s4.46-1.35,4.46-4.61V722h4.19v11.12c0,2.35-.28,4-1.17,4.94-1.64,1.79-4,2.54-7.49,2.54s-5.88-.74-7.52-2.54c-.91-1-1.14-2.61-1.14-4.94V722H230Z" transform="translate(-162.46 -624.59)"/><path d="M256.78,722l8.48,18.39h-4.65L258.77,736h-8.65l-1.78,4.38h-4.43L252.34,722Zm-5.3,10.73h5.94l-3-7.07Z" transform="translate(-162.46 -624.59)"/><path d="M267.17,722l4.61,14.14L275.65,722h4.94l4.47,14.14,4.3-14.14h4.3L287.5,740.4h-5.13l-4.25-13.72-3.71,13.72h-5.1L262.68,722Z" transform="translate(-162.46 -624.59)"/><path d="M299.29,729.49h11.59v3.2H299.26c0,3.31,1.44,4.51,4.73,4.51h6.88v3.2h-7.07c-2.41,0-4.27-.18-6.21-1.61s-3-3.92-3-7.25c0-6.5,3-9.53,9.37-9.53h7v3.21H304C301,725.22,299.46,726.6,299.29,729.49Z" transform="translate(-162.46 -624.59)"/><path d="M314.57,740.4V722h4.38V740.4Z" transform="translate(-162.46 -624.59)"/><path class="cls-1" d="M254.13,689.44a.35.35,0,0,0,.1-.41h0a252.19,252.19,0,0,0-30.7-49.79s-9.65,9.16-9,18.33a16.22,16.22,0,0,0,5.59,11.05c8.41,8.2,28.79,18.55,33.52,20.9A.4.4,0,0,0,254.13,689.44Z" transform="translate(-162.46 -624.59)"/><path class="cls-2" d="M251,696.46a.46.46,0,0,0-.44-.31h0l-33.92,1.18c3.68,6.56,9.87,11.65,16.33,10.09,4.46-1.11,14.54-8.15,17.87-10.53h0C251.07,696.65,251,696.46,251,696.46Z" transform="translate(-162.46 -624.59)"/><path class="cls-3" d="M251.49,693.41c.16-.26-.12-.51-.12-.51h0c-14.9-10-43.77-25.48-43.77-25.48a20.08,20.08,0,0,0,11.62,24.81,20.7,20.7,0,0,0,6.49,1.42c.51.09,20.17,0,25.44,0A.46.46,0,0,0,251.49,693.41Z" transform="translate(-162.46 -624.59)"/><path class="cls-4" d="M253.74,624.59c-1.48.13-5.46,1-5.46,1a15.72,15.72,0,0,0-11.1,10.47c-1.64,5.13,0,10.75,0,10.75,3,13.3,17.75,35.16,20.91,39.74.22.23.41.14.41.14a.42.42,0,0,0,.32-.43h0C263.74,637.52,253.74,624.59,253.74,624.59Z" transform="translate(-162.46 -624.59)"/><path class="cls-5" d="M265,686.72a.39.39,0,0,0,.49-.19h0c3.25-4.7,17.92-26.44,20.9-39.69,0,0,1.62-6.41.06-10.75a15.74,15.74,0,0,0-11.21-10.47s-2.59-.65-5.34-1c0,0-10,12.94-5.16,61.76h0A.41.41,0,0,0,265,686.72Z" transform="translate(-162.46 -624.59)"/><path class="cls-6" d="M273,696.17a.5.5,0,0,0-.38.26.47.47,0,0,0,.13.46h0c3.25,2.33,13.09,9.21,17.83,10.55,0,0,8.77,3,16.38-10.1l-34-1.18Z" transform="translate(-162.46 -624.59)"/><path class="cls-7" d="M316,667.35s-28.83,15.48-43.73,25.52h0a.45.45,0,0,0-.17.5s.14.26.35.26h0c5.33,0,25.54,0,26-.06a20.2,20.2,0,0,0,5.84-1.34,19.9,19.9,0,0,0,10.92-10.45A20.46,20.46,0,0,0,316,667.35Z" transform="translate(-162.46 -624.59)"/><path class="cls-8" d="M269.53,689.44a.43.43,0,0,0,.46,0h0c4.86-2.41,25.07-12.7,33.45-20.86,0,0,5.3-4.26,5.58-11.1.61-9.5-8.95-18.28-8.95-18.28a252,252,0,0,0-30.65,49.67h0A.47.47,0,0,0,269.53,689.44Z" transform="translate(-162.46 -624.59)"/><path d="M186.65,771.6q1.64.64,3.51,1.17-.68,4.59-1.91,5.55a4.83,4.83,0,0,1-3.08,1h-4.9q-4,0-4-3.76V775q-1.85.78-3.81,1.49a37,37,0,0,0-1.81-3.29v6.54h-3.7v-6.39a35.67,35.67,0,0,1-2.84,2.35,33.16,33.16,0,0,0-1.61-3.31,27.3,27.3,0,0,0,7.6-8.38l3.29,1.62a41,41,0,0,1-2.73,3.79v3.69q3-1,5.62-2.07v-6.4h3.7v4.71a50.11,50.11,0,0,0,6.63-4l2.31,2.78a61.18,61.18,0,0,1-8.94,5.21v1.17q0,1.59,1.89,1.59h2.31a1.94,1.94,0,0,0,1.82-.8A10.24,10.24,0,0,0,186.65,771.6ZM162.82,782h11.5v-2.62h4.06V782h11.3v3.51h-11.3v6.35h-4.06v-6.35h-11.5Z" transform="translate(-162.46 -624.59)"/><path d="M204.89,791.37a33.33,33.33,0,0,0-1-4.18q3.41.24,5.39.24a5.39,5.39,0,0,0,2.16-.3,1.65,1.65,0,0,0,.84-.86,20.07,20.07,0,0,0,.47-3.77q.24-3.21.5-8.33h-8a26.46,26.46,0,0,1-.92,4.68l2.51-2.34q1.95,1.7,4.68,4.2l-3,2.84Q206,780.7,204.2,779a22.79,22.79,0,0,1-9.88,12.88q-2-1.87-3.31-3,8.84-5.33,10-14.76h-9.41v-3.68h5a49.68,49.68,0,0,0-3.34-3.84L196,764.3q2.17,2,3.93,3.81l-2.63,2.37h4l.39-6.21h4.29l-.5,6.21h11.86l-.65,10.82q-.32,5.23-.54,6.26a4.61,4.61,0,0,1-1,1.95,4.25,4.25,0,0,1-1.85,1.34,14.4,14.4,0,0,1-4.07.49Q206.28,791.42,204.89,791.37Z" transform="translate(-162.46 -624.59)"/><path d="M219.56,776.3H226v-6.82h-4.93v-3.62H246v3.62h-4.48v6.82h5.65v3.62h-5.65v11.41h-4V779.92H230q-.28,5.07-1.9,7.61a13.24,13.24,0,0,1-4.95,4.36q-1.56-1.37-3.51-2.84a15.29,15.29,0,0,0,4.28-3.3,9.59,9.59,0,0,0,2-5.83h-6.31Zm10.5,0h7.38v-6.82h-7.38Z" transform="translate(-162.46 -624.59)"/><path d="M272.74,778.81a23.47,23.47,0,0,1-5.57,6.49,33.66,33.66,0,0,0,8.49,2.23q-1.22,2-2.37,4.06a30.27,30.27,0,0,1-9.66-3.81,45.1,45.1,0,0,1-9.69,4.09q-1-1.84-2.12-3.59a56.32,56.32,0,0,0,8.38-3,24.69,24.69,0,0,1-3.67-4.34,38.12,38.12,0,0,1-7.41,8.74q-.58-2.62-1.23-4.65a32.5,32.5,0,0,0,8.1-11.83h-7v-3.34q.78-2.28,1.39-4.79l3.81.42q-.42,1.73-1.14,4.29h4q.64-2.37,1.28-5.51l4,.33-1.17,5.18H269q-1.56-1.53-3.2-3.06l2.45-2.31q2.56,2,4.34,3.59l-1.75,1.78h4.7v3.42h-15.4q-.42,1.17-1,2.56h13.53Zm-9.16,4.48a18.74,18.74,0,0,0,4.51-4.34h-8.46A16.85,16.85,0,0,0,263.58,783.29Z" transform="translate(-162.46 -624.59)"/><path d="M276.7,772h9.58V769.9H279v-3.29h7.32v-2.48h3.79v2.48h6.68v3a42,42,0,0,0,3.65-4.11l2.81,2.14a44.6,44.6,0,0,1-4.13,4.32h5.14v3.29h-9.29a33.89,33.89,0,0,1-3.51,2.12h9.73v14.34h-3.79v-1.17h-13v1.17h-3.79V781.7q-1.43.45-3,.86a33.9,33.9,0,0,0-1.14-3.48A49.07,49.07,0,0,0,289,775.3H276.7Zm20.66,8.52h-13v1.95h13Zm-13,6.93h13v-1.95h-13Zm12.14-17.57h-6.43V772h4Q295.34,771,296.49,769.9Z" transform="translate(-162.46 -624.59)"/><path d="M311,764.11q1.2,1.45,2.7,3.67l-2.85,1.53H315v3.09a35.75,35.75,0,0,1-2.67,4.86v1.2l1.53-1.35q1.61,1.45,3.54,3.45l-2.76,2.25q-1.29-1.68-2.31-2.87v11.67h-3.79v-9.52q-1.18,1.27-2.5,2.45-.59-2.67-1.11-4.54a24.26,24.26,0,0,0,5.68-7h-5.29v-3.67h4.72q-1.32-2.13-2.38-3.56Zm3.51,23h7.41V775.69h-5.57v-3.62h5.57v-7.54h4v7.54h5.74v3.62h-5.74v11.39h6.74v3.62H314.48Z" transform="translate(-162.46 -624.59)"/><path d="M339.14,786.8h21.63v3.76H335.19V765.83h24.72v3.76H339.14Zm1.06-14.06,2.67-2.73,6.17,5.36a59.28,59.28,0,0,0,4.44-5.61l3.45,2.28a73.24,73.24,0,0,1-4.91,6l6.25,5.78-3.29,2.9q-2.85-2.92-5.79-5.75a70.36,70.36,0,0,1-6.63,5.72q-.7-.86-2.78-3a58.7,58.7,0,0,0,6.51-5.47Q343.29,775.43,340.2,772.74Z" transform="translate(-162.46 -624.59)"/></svg>