<svg id="图层_1" data-name="图层 1" xmlns="http://www.w3.org/2000/svg" viewBox="0 0 80 50"><defs><style>.cls-1{fill:#03a9f4;}.cls-2{fill:#fff;}</style></defs><rect class="cls-1" width="80" height="50"/><path class="cls-2" d="M22,1134.82a16.63,16.63,0,0,1-1.75,3.69h3.92v1H18v1.06a16.09,16.09,0,0,1-.23,2.57h7.44v1H18.46c.9,2.59,3.29,4.63,7.18,6.07l-.56.9c-4.07-1.66-6.57-3.92-7.54-6.82a9.11,9.11,0,0,1-1.46,3.06,12,12,0,0,1-6,3.67l-.54-.85a11.58,11.58,0,0,0,5.85-3.55,8.73,8.73,0,0,0,1.15-2.48H9.85v-1h6.93a14.64,14.64,0,0,0,.27-2.57v-1.06H10.88v-1h8.28a17.47,17.47,0,0,0,1.89-3.94Zm-5.94,3.06-.86.43a23,23,0,0,0-2.14-3.15l.88-.43A26.72,26.72,0,0,1,16.07,1137.88Z" transform="translate(0.46 -1117.75)"/><path class="cls-2" d="M66.18,1135.45v1h-6v5.28h7.26v1H60.17v6.61a1.49,1.49,0,0,1-1.69,1.66H55.72l-.22-1c.92,0,1.8.07,2.65.07a.92.92,0,0,0,1-1v-6.36H51.61v-1h7.58v-5.28H52.73v-1Z" transform="translate(0.46 -1117.75)"/></svg>