<svg id="图层_1" data-name="图层 1" xmlns="http://www.w3.org/2000/svg" viewBox="0 0 304.81 25.96"><defs><style>.cls-1{fill:#fff;}</style></defs><path class="cls-1" d="M-439.61,944.33v1h-5v8.54h6.52v.92h-6.52V967.6h-1V954.75h-9.13a22.71,22.71,0,0,1-1.57,7.45,11.88,11.88,0,0,1-5.18,5.46l-.56-.84a11.37,11.37,0,0,0,5-5.4,22.65,22.65,0,0,0,1.32-6.66h-6.94v-.92h7c0-.53,0-1,0-1.54v-7H-461v-1Zm-15,8c0,.53,0,1,0,1.54h9.07v-8.54h-9Z" transform="translate(462.59 -941.95)"/><path class="cls-1" d="M-430.31,943.16l1,.17-1.9,6h6.13a64.64,64.64,0,0,0,1.48-7.36l1,.11a70.43,70.43,0,0,1-1.48,7.25h13.55v.92h-13.8c-.45,1.46-.9,2.86-1.4,4.14H-414v.87a15.08,15.08,0,0,1-5.24,7.06,41.83,41.83,0,0,0,9.24,4.45l-.48.84A40.5,40.5,0,0,1-420,963a39.8,39.8,0,0,1-9.16,4.76l-.48-.87a39.37,39.37,0,0,0,8.85-4.45,15.51,15.51,0,0,1-5.54-6.8,29.14,29.14,0,0,1-8.29,11.59l-.48-.87q6.68-5.75,9.66-16h-7.11Zm10.3,18.68a14.17,14.17,0,0,0,5-6.47h-10.44A14.94,14.94,0,0,0-420,961.83Zm7.25-14.36-.7.7a38.53,38.53,0,0,0-5.15-5l.64-.59A35.46,35.46,0,0,1-412.75,947.47Z" transform="translate(462.59 -941.95)"/><path class="cls-1" d="M-396,945.59v-3.33h1v3.33h7.34v.92h-7.34v4.28h4a38.21,38.21,0,0,0,7.31-6.66l.73.56a39.93,39.93,0,0,1-6.44,6.1H-382v1h-8.9c-.53.36-1.06.7-1.6,1a48,48,0,0,1-5.88,2.94h12.52v12h-1v-1.54h-13.52v1.54h-1V956.88c-1.71.59-3.47,1.15-5.29,1.65l-.39-.9a47.55,47.55,0,0,0,13.38-5.26l1-.62h-14.08v-1H-396v-4.28h-7.81v-.92Zm9.24,11h-13.52v3.86h13.52Zm-13.52,8.71h13.52v-3.95h-13.52Z" transform="translate(462.59 -941.95)"/><path class="cls-1" d="M-377.61,967.77l-.73-.67a27.47,27.47,0,0,0,1.74-10.28v-13h7.31v21.78a1.79,1.79,0,0,1-2,2h-2.24l-.22-.9c.78,0,1.51.06,2.18.06.9,0,1.34-.53,1.34-1.54v-7.48h-5.54A27.12,27.12,0,0,1-377.61,967.77Zm7.39-23h-5.52v5.66h5.52Zm-5.52,12.12h5.52v-5.6h-5.52Zm10.42,10.86h-.92V943.83h10.64a24.45,24.45,0,0,1-.5,6.27c-.28,1.09-1.32,1.65-3.08,1.65h-2.1l-.25-.87c.48,0,1.12,0,1.9,0a6.66,6.66,0,0,0,1.76-.2,1.39,1.39,0,0,0,.87-.9,20.27,20.27,0,0,0,.45-5.07h-8.76v9.44h9.66V955a21,21,0,0,1-3.19,7.92,22.87,22.87,0,0,0,5.24,3.86l-.48.81a22.86,22.86,0,0,1-5.32-3.95,15.4,15.4,0,0,1-4.73,4l-.5-.78A15.48,15.48,0,0,0-360,963a17.37,17.37,0,0,1-4.12-8h-1.18Zm5.82-5.49a20,20,0,0,0,2.94-7.22h-6.72A16.35,16.35,0,0,0-359.5,962.28Z" transform="translate(462.59 -941.95)"/><path class="cls-1" d="M-341.16,942.4a18,18,0,0,1-1.34,2.52h12.6v.78a24.5,24.5,0,0,1-7.25,5.68,35,35,0,0,0,11.45,3.22l-.45.92a35,35,0,0,1-12-3.61,44.39,44.39,0,0,1-12.38,3.61l-.42-.9a43.67,43.67,0,0,0,11.82-3.25,28.53,28.53,0,0,1-5.43-4,22.29,22.29,0,0,1-4.09,3.08l-.59-.76a15.81,15.81,0,0,0,7.14-7.45Zm2.66,12.07a18.82,18.82,0,0,1-.36,3.7h10.16c-.06,4.45-.48,7.11-1.32,8s-2.27,1.34-4.31,1.34c-.78,0-1.76,0-2.91-.06l-.25-.9,2.94.08c2.07,0,3.39-.45,3.92-1.26s.84-2.94,1-6.33h-9.41a13.18,13.18,0,0,1-1,2.49c-1.54,2.55-4.84,4.62-9.88,6.22l-.64-.78c4.65-1.4,7.76-3.19,9.38-5.43a11.2,11.2,0,0,0,1.15-2.49h-9v-.87h9.27a15.57,15.57,0,0,0,.42-3.7Zm7.28-8.65h-11.93c-.28.34-.53.64-.78.92a27.74,27.74,0,0,0,5.8,4.17A24.79,24.79,0,0,0-331.22,945.82Z" transform="translate(462.59 -941.95)"/><path class="cls-1" d="M-309.66,945.06h11.56v1h-6.27a23.74,23.74,0,0,1-2.07,4.23h6.52v15.29c0,1.4-.67,2.1-2,2.1h-2.86l-.25-.92,2.77,0a1.24,1.24,0,0,0,1.4-1.4v-14.2h-19.1v16.41h-.92v-17.3h6.13A21.5,21.5,0,0,0-316.6,946h-6v-1h12a29.13,29.13,0,0,0-1.37-2.8l1-.17A25.13,25.13,0,0,1-309.66,945.06Zm-2.46,8a25.52,25.52,0,0,1-6.16,5.18l-.62-.78a24.52,24.52,0,0,0,6.08-5Zm4.68-2.77a28,28,0,0,0,2-4.23h-10.05a25.29,25.29,0,0,1,1.76,4.23Zm1.82,7.73v6.1h-9.49V958Zm-.92.92h-7.64v4.31h7.64Zm4.45-1.34-.7.7a39.92,39.92,0,0,0-5.94-5.29l.64-.62A39.38,39.38,0,0,1-302.1,957.55Z" transform="translate(462.59 -941.95)"/><path class="cls-1" d="M-291.4,950.16v-7.7h.92v7.7h3.22v1h-3.22v10.61a40.67,40.67,0,0,0,3.72-1.68v1a41.74,41.74,0,0,1-7.87,3l-.25-.9c1.18-.31,2.35-.64,3.47-1v-11h-3.44v-1Zm10.81-4h4.68a16.86,16.86,0,0,0,1.26-4l1,.14a16.25,16.25,0,0,1-1.26,3.89h4.09v8.65h-14.76v-8.65h4.14a25.78,25.78,0,0,0-1.46-3.58l1-.17A33.29,33.29,0,0,1-280.59,946.18Zm1.88.9h-6V954h6Zm6.83,20.69h-.92v-1.43h-10.75v1.43h-.92V957.24h12.6Zm-.92-6.38v-3.28h-10.75v3.28Zm0,4.09v-3.25h-10.75v3.25Zm-7.7-13.13-.73.22a26.63,26.63,0,0,0-1.51-3.67l.73-.25A25.38,25.38,0,0,1-280.51,952.34Zm8.74-5.26h-6.13V954h6.13Zm-2.1,1.62a18.11,18.11,0,0,1-1.51,3.95l-.73-.28a18.65,18.65,0,0,0,1.48-3.86Z" transform="translate(462.59 -941.95)"/><path class="cls-1" d="M-260.49,953.57V942.49h1v11.09h17.39v1h-9.63c1.23,5.15,4.56,9.1,9.94,11.84l-.53.87q-8.48-4.49-10.36-12.71h-6.8v11.59a61.83,61.83,0,0,0,7-2.24l.28,1c-2.63,1-5.46,1.79-8.46,2.55l-.34-.9c.34-.14.5-.34.5-.62V954.53h-6v-1Zm15.34-10.08c-2.27,2.58-5.66,4.84-10.19,6.86l-.59-.76a28.88,28.88,0,0,0,10.14-6.78Z" transform="translate(462.59 -941.95)"/><path class="cls-1" d="M-235,959.57a24.32,24.32,0,0,1-3.44,7.39l-.81-.53a21.07,21.07,0,0,0,3.33-7.06Zm-.17-8.12a15.79,15.79,0,0,0-1.85-3.78l.9-.31a20.7,20.7,0,0,1,1.88,4.09h3.64a27.84,27.84,0,0,0,2-4.23l.9.31a24.4,24.4,0,0,1-2,3.92H-226v.92h-5.8v4.12h5.29v.9h-5.29V966a1.69,1.69,0,0,1-1.9,1.9h-1.57l-.2-.92c.5,0,1,.06,1.46.06a1.11,1.11,0,0,0,1.26-1.23v-8.4h-5.68v-.9h5.68v-4.12h-6.08v-.92Zm2.55-6.36a17.3,17.3,0,0,0-1.51-3l1-.17a23.62,23.62,0,0,1,1.46,3.14h5.52v1h-12.38v-1Zm5.91,19.26-.81.31a40.53,40.53,0,0,0-2.41-5.29l.84-.22A37.09,37.09,0,0,1-226.72,964.35Zm12-20.75a22.93,22.93,0,0,1-8.57,2v6h9.74v.92h-3.33v15.4h-.92v-15.4h-5.49v4.12c-.14,4.65-1.18,8.34-3.11,11.12l-.7-.73c1.76-2.49,2.72-6,2.86-10.39V944.84a21.79,21.79,0,0,0,9-2.1Z" transform="translate(462.59 -941.95)"/><path class="cls-1" d="M-208.83,956.51h11.12a43.72,43.72,0,0,1-.53,8.65c-.45,1.57-2.07,2.35-4.87,2.38-.84,0-1.68-.06-2.58-.11l-.25-.9c.9.06,1.79.11,2.66.11,2.3,0,3.67-.59,4.09-1.74a34.29,34.29,0,0,0,.53-7.48h-11.2l1.43-7.45H-199v-5.32h-10.36v-.92H-198v7.17h-9.6Zm19.63-14.17v25.42h-1V942.35Z" transform="translate(462.59 -941.95)"/><path class="cls-1" d="M-179.21,945.87c-.17.56-.34,1.06-.53,1.57h9.18a39.79,39.79,0,0,1-.28,6,1.59,1.59,0,0,1-.9,1.2,5.92,5.92,0,0,1-2.49.34h-1.09l-.25-.81h1.6a4.13,4.13,0,0,0,1.79-.25,1.85,1.85,0,0,0,.56-1.06c.08-.56.14-2.1.2-4.65h-8.71a9.16,9.16,0,0,1-2.35,2.8l-.56-.67a8.41,8.41,0,0,0,3-4.65ZM-161,956.07c-2.46.39-5.29.7-8.54.92v2.63h9.07v.81h-9.07v2.44h11.31v.9h-11.31v2.3a1.66,1.66,0,0,1-1.9,1.85h-3.36l-.2-.9c1.12.06,2.21.08,3.25.08a1.13,1.13,0,0,0,1.29-1.26v-2.07h-11.93v-.9h11.93v-2.44h-9.94v-.81h9.94V957c-3,.14-6.19.22-9.66.22l-.25-.78a126,126,0,0,0,18.93-1.2Zm-16.66-13.86v1.48h3.86v-1.51h.87v1.51h3.64v.81H-173v1.68h-.87V944.5h-3.86v1.74h-.87V944.5h-3.84v-.81h3.84v-1.48Zm3.5,7.64v3.78h-6.47v-3.78Zm-.84.76h-4.79v2.27H-175Zm5.63-.62-.53-.7a16.13,16.13,0,0,0,3.44-7.2l.92.11q-.34,1.34-.76,2.6h7.78v.87h-1.76a11.38,11.38,0,0,1-2.83,5.88,21.13,21.13,0,0,0,5.35,2.52l-.45.78a20.47,20.47,0,0,1-5.54-2.69,12.51,12.51,0,0,1-5,2.52l-.39-.81a11.86,11.86,0,0,0,4.65-2.3,9.39,9.39,0,0,1-3-4.31A14.84,14.84,0,0,1-169.41,950Zm2.46-3.75a8.57,8.57,0,0,0,3.08,4.76,10.44,10.44,0,0,0,2.66-5.32h-5.46C-166.77,945.87-166.86,946.07-166.94,946.24Z" transform="translate(462.59 -941.95)"/></svg>