<svg id="图层_1" data-name="图层 1" xmlns="http://www.w3.org/2000/svg" viewBox="0 0 30 30"><defs><style>.cls-1{fill:#03a9f4;}.cls-2{fill:#fff;}</style></defs><rect class="cls-1" width="30" height="30"/><path class="cls-2" d="M-285.92,1063.15s0-5.1,0-5.22-2.65,1.55-4-1.19a5,5,0,0,0-1.3-2.1s-.63-.34-.69-.64a.18.18,0,0,1,.1-.15c.06,0,1.05-.44,2.16,1,.33.48,1.08,2.3,3.71,1.17a3.17,3.17,0,0,1,.89-1.45c-3.92-.47-5.55-1.65-6.11-5a6,6,0,0,1,1.32-5.19,4.83,4.83,0,0,1,.13-3.69c.84-.17,2.39.44,3.74,1.43,1.91-.7,5-.87,6.79,0,.61-.51,2.79-1.71,3.73-1.43a5.5,5.5,0,0,1,.12,3.69,5.8,5.8,0,0,1,1.34,4.94c-.27,3.06-2,4.94-6.13,5.3a3.41,3.41,0,0,1,1.65,2.53v6.06Z" transform="translate(297.57 -1033.15)"/></svg>