<svg id="图层_1" data-name="图层 1" xmlns="http://www.w3.org/2000/svg" viewBox="0 0 146.21 229.88"><defs><style>.cls-1{fill:#d94f21;}.cls-2{fill:#555;}</style></defs><path class="cls-1" d="M378.55,682.85a72,72,0,0,0-7.84,143.58,44.78,44.78,0,0,0,12.89-14.74s2.32-4.27,2.32-11.58a17.15,17.15,0,0,0-13.55-16.77,44.53,44.53,0,0,0-14.15-.77l-22.3,2.34a17.34,17.34,0,0,1-1.79.09,17.08,17.08,0,0,1-11.48-4.41,27.41,27.41,0,0,1-8.32-14l28.54-13a6.84,6.84,0,0,0,3.17-4.76l.84-5.3a10.25,10.25,0,0,1,3.55-6.28l12.75-10.69a27.38,27.38,0,0,1-8.48-22.32l1-11.47a44.44,44.44,0,0,0,9.95,19.47,27.33,27.33,0,0,1,7.65-16.92,17.17,17.17,0,0,0,9.36,12.57A17.19,17.19,0,0,1,392,718.61,71.7,71.7,0,0,1,433.15,736l-11.81,2.18a44.59,44.59,0,0,1,29.16,18.91h0q0-1.12,0-2.26A72,72,0,0,0,378.55,682.85Z" transform="translate(-306.55 -682.85)"/><path class="cls-2" d="M312.44,899h13.28v2.06h1.64v-3.63h-6.85l-.07-.16a14,14,0,0,0-1.07-1.86,1,1,0,0,0-.2-.36l-.15-.16-1.4.58.19.32c.14.23.32.58.56,1l.31.6H310.8v3.63h1.64Z" transform="translate(-306.55 -682.85)"/><path class="cls-2" d="M321.54,899.83v-.32H319.9v.32a21.93,21.93,0,0,1-.62,6.14h-8.84v1.57h8.06c-1.13,1.51-3.79,2.68-7.94,3.48l-.61.11.43.43a.7.7,0,0,1,.07.17l.06.1a1.65,1.65,0,0,1,.36.58l.08.31.31-.07c3.88-.88,6.58-2.09,8-3.62l2.35,1.11c2,.85,3.6,1.59,4.82,2.2l.27.13.92-1.49-.34-.15c-1.24-.55-2.94-1.28-5.19-2.2l-1.84-.83.1-.19,0-.06h7.39V906H321A26.11,26.11,0,0,0,321.54,899.83Z" transform="translate(-306.55 -682.85)"/><path class="cls-2" d="M313.06,902.26l-.85,1.33.34.16a28.78,28.78,0,0,1,3.37,1.83l.27.17.94-1.41-.31-.17c-1.28-.71-2.46-1.31-3.51-1.79Z" transform="translate(-306.55 -682.85)"/><path class="cls-2" d="M317.84,903.11l1-1.46-.41-.13a3,3,0,0,1-.52-.26L315,899.76l-.25-.14-.87,1.24.31.18q1.77,1,3.34,1.92Z" transform="translate(-306.55 -682.85)"/><path class="cls-2" d="M341.7,911.53h1.57v-1.64h3.12v1.42H348V896.66H341.7Zm1.57-9v-4.33h3.12v4.33Zm3.12,1.5v4.33h-3.12V904Z" transform="translate(-306.55 -682.85)"/><path class="cls-2" d="M356.36,895h-1.57v4h-6.4v1.5h6.4v9.15a1.06,1.06,0,0,1-.22.8,1.28,1.28,0,0,1-.95.29h-3.16l.14.43a4.91,4.91,0,0,1,.2.93l0,.28h2.85a2.88,2.88,0,0,0,2.09-.76,2.37,2.37,0,0,0,.57-1.77v-9.34h2.49v-1.5h-2.49Z" transform="translate(-306.55 -682.85)"/><path class="cls-2" d="M351.33,907.12l1.41-.82-.12-.26a30.79,30.79,0,0,0-1.65-3.09c-.18-.32-.32-.58-.42-.76l-.15-.3-1.36.74.16.28c.85,1.55,1.51,2.86,2,3.89Z" transform="translate(-306.55 -682.85)"/><path class="cls-2" d="M377.76,912.45h1.64v-1.14h7.67v1.14h1.64v-8h-11Zm9.31-6.47v3.9H379.4V906Z" transform="translate(-306.55 -682.85)"/><path class="cls-2" d="M376.42,898.15c4-.19,8.27-.52,12.65-1l.44,0-.69-1.62-.24,0a127.9,127.9,0,0,1-13.47,1h-.32V902a27,27,0,0,1-.42,5.48,11,11,0,0,1-1.66,3.8l-.15.22.19.19a4.51,4.51,0,0,0,.62.46,1.8,1.8,0,0,1,.23.17l.3.31.22-.37a15.53,15.53,0,0,0,1.88-4.5,29.21,29.21,0,0,0,.43-5.75v-.17h13.93v-1.57H376.42Z" transform="translate(-306.55 -682.85)"/><path class="cls-2" d="M410.2,898.51h-2.31l.54-.18-.1-.3a29.55,29.55,0,0,0-1.08-2.8l-.12-.27-1.48.49.15.33a27,27,0,0,1,1.05,2.74H404V900h6.19Z" transform="translate(-306.55 -682.85)"/><polygon class="cls-2" points="113.89 213.17 112.31 213.17 112.31 215.95 109.98 215.95 109.98 212.11 108.41 212.11 108.41 215.95 106.07 215.95 106.07 213.17 104.5 213.17 104.5 217.45 113.89 217.45 113.89 213.17"/><path class="cls-2" d="M408.32,908.42c.65-2.83,1.16-5.2,1.52-7l.06-.33-1.49-.25-.06.31c-.32,1.73-.76,3.86-1.31,6.35l0-.24c-.33-1.77-.76-3.79-1.28-6l-.07-.3-1.41.25.06.32c0,.24.12.64.21,1.22.41,1.86.74,3.46,1,4.75l.06.31,1.45-.24-.26,1.16q-1.57.33-2.7.52l-.32.06.26,1.41.31,0c1.85-.29,3.77-.65,5.71-1.07l.25-.06v-.26a3.87,3.87,0,0,1,.07-.5V908l-1.48.3Z" transform="translate(-306.55 -682.85)"/><path class="cls-2" d="M410.19,903.14h4.44l-.38,1.34h-3.63v8.11h1.57V906h1.34v5.61H415V906h1.41v5.19H417l.05.14a2.52,2.52,0,0,1,.19.81v.32h1.87a1.8,1.8,0,0,0,1.36-.49,2.13,2.13,0,0,0,.48-1.61v-5.87h-5l.34-1.34h5.4v-1.5H410.19Zm7.76,2.84h1.41v4.32a.75.75,0,0,1-.11.52.58.58,0,0,1-.43.13h-.13l-.74,0Z" transform="translate(-306.55 -682.85)"/><rect class="cls-2" x="130.28" y="213.39" width="14.3" height="1.64"/><path class="cls-2" d="M443.77,903.35h9v-1.64H435.12v1.64h6.5a32.49,32.49,0,0,1-3.66,4.73,5.85,5.85,0,0,1-1.48,1.28l-.26.16.83,1.56.25-.06a9.78,9.78,0,0,1,1.23-.15.86.86,0,0,1,.27-.05c3.22-.14,6.71-.24,10.36-.28.37.42.74.88,1.09,1.36l.19.26,1.47-1-.22-.27c-2.27-2.8-3.85-4.73-4.84-5.9l-.19-.22-1.38.92.2.27a4.37,4.37,0,0,0,.38.48l2.07,2.59c-2.59.12-5.56.22-8.85.31a58.93,58.93,0,0,0,4.58-5.8Z" transform="translate(-306.55 -682.85)"/><path class="cls-2" d="M334.92,875H346V869.3H334.92v-4.48h11.34v-29.2H312v29.2h11.41v4.48H312.31V875h11.13v5.9H310.63v6.28h37v-6.28H334.92ZM333.79,840h2.38v7.84h-2.38Zm-9.3,20.23h-2.38v-7.35h2.38Zm0-12.39h-2.38V840h2.38Zm9.3,5h2.38v7.35h-2.38Z" transform="translate(-306.55 -682.85)"/><polygon class="cls-2" points="130.99 198.04 130.99 168.91 104.66 168.91 104.66 198.04 118.38 198.04 120.48 193.14 115.09 193.14 115.09 173.82 120.48 173.82 120.48 198.04 130.99 198.04"/><polygon class="cls-2" points="94.12 156.07 92.37 153.97 79.42 153.97 87.54 164.47 77.53 167.62 77.53 177 89.78 173.29 89.78 180.78 77.53 184.42 77.53 194.01 89.78 190.3 89.78 198.03 82 198.03 84.6 204.31 101.27 204.31 101.27 165.24 107.01 152.78 95.66 152.78 94.12 156.07"/><polygon class="cls-2" points="68.66 171.54 73.47 157.89 73.47 152.78 41.75 152.78 41.75 158.45 63.13 158.45 58.58 171.54 55.99 171.54 53.15 162.58 43.05 162.58 45.88 171.54 41.75 171.54 41.75 177.21 49.73 177.21 49.73 192.89 49.73 199.41 45.11 199.41 47.14 204.31 61.21 204.31 61.21 192.89 61.21 177.21 63.25 177.21 63.25 188.62 73.47 188.62 73.47 171.54 68.66 171.54"/><polygon class="cls-2" points="145.87 192.89 145.87 156.49 121.24 156.49 122.98 152.78 109.89 152.78 105.39 162.37 103.26 162.37 104.66 167.55 116.04 167.55 118.29 162.76 134.38 162.76 134.38 199.41 130.88 199.41 129.76 199.41 131.79 204.31 133.19 204.31 145.87 204.31 145.87 204.31 145.87 192.89 145.87 192.89"/></svg>