<svg id="图层_1" data-name="图层 1" xmlns="http://www.w3.org/2000/svg" viewBox="0 0 190 190"><defs><style>.cls-1{fill:#fff;}</style></defs><rect width="190" height="190"/><path class="cls-1" d="M268,1216.39a20.82,20.82,0,0,1-3,.65l-.11-.83a20,20,0,0,0,3.06-.6Zm-2.75-6.78v-.79h3.89l-.56,4.93h.85c0,2.73-.13,4.32-.37,4.74a1.69,1.69,0,0,1-1.57.62c-.29,0-.58,0-.88,0l-.23-.77c.43,0,.74.07.92.07.61,0,1-.19,1.1-.55a16,16,0,0,0,.19-3.29h-3.15l.56-4.13.8,0-.48,3.29h1.4l.53-4.14Zm4.85,9.66-.64-.56a12.43,12.43,0,0,0,1-5.22v-3.74h2.27a10.57,10.57,0,0,0-.62-1.38l.89-.14a15.1,15.1,0,0,1,.59,1.52h2.21v3.91h-4.5A13.56,13.56,0,0,1,270.06,1219.27Zm1.16-8.71v2.28h3.68v-2.28Z" transform="translate(-258.61 -1123.47)"/><path class="cls-1" d="M281.52,1209.92c.07-.53.13-1.08.19-1.64h.86c-.06.58-.12,1.13-.19,1.64h6.22v.84h-6.34c-.11.65-.22,1.25-.34,1.8h5.49v.75a8.57,8.57,0,0,1-2.29,3.42,10.44,10.44,0,0,0,3.66,1.7l-.43.79a10.93,10.93,0,0,1-3.89-1.93,14,14,0,0,1-3.83,2l-.46-.82a12.73,12.73,0,0,0,3.65-1.71,7.86,7.86,0,0,1-2-3.37h-.08a14.9,14.9,0,0,1-.48,1.55,12.32,12.32,0,0,1-2.81,4.23l-.54-.7a12.1,12.1,0,0,0,2.55-3.87,20.16,20.16,0,0,0,.94-3.81h-3.18v-.84Zm3,6.28a7.28,7.28,0,0,0,2-2.84h-3.89A7.17,7.17,0,0,0,284.5,1216.21Z" transform="translate(-258.61 -1123.47)"/><path class="cls-1" d="M301.49,1213.23v.86H290.71v-.86Z" transform="translate(-258.61 -1123.47)"/><path class="cls-1" d="M306.17,1219.22h-.83v-6.14a14.35,14.35,0,0,1-1.64,3.36l-.37-.95a10.9,10.9,0,0,0,2-4.08h-1.74v-.8h1.8v-2.27h.83v2.27h1.44v.8h-1.44v1c.61.7,1.24,1.48,1.86,2.34l-.48.72c-.53-.89-1-1.61-1.38-2.15Zm2.6-6.32a8.87,8.87,0,0,1-.66,1.21l-.55-.67a13.16,13.16,0,0,0,1.57-5.21l.84.14c-.08.61-.18,1.19-.3,1.73h4.4v.83H313a9.81,9.81,0,0,1-1.57,5.25,8.88,8.88,0,0,0,3.06,2.35l-.49.73a9.53,9.53,0,0,1-3-2.45,10.18,10.18,0,0,1-3.19,2.51l-.47-.75a8.62,8.62,0,0,0,3.14-2.41A13.24,13.24,0,0,1,308.77,1212.9Zm.42-1.07a12.71,12.71,0,0,0,1.73,3.67,9,9,0,0,0,1.3-4.57h-2.75C309.37,1211.24,309.28,1211.54,309.19,1211.83Z" transform="translate(-258.61 -1123.47)"/><path class="cls-1" d="M318.72,1217.82a2.45,2.45,0,0,1-1.36,2.29l-.32-.52a2,2,0,0,0,1-1.55l-.19,0a.79.79,0,0,1-.53-.19.75.75,0,0,1,0-1,.73.73,0,0,1,.53-.19C318.43,1216.65,318.72,1217,318.72,1217.82Z" transform="translate(-258.61 -1123.47)"/><path class="cls-1" d="M329.48,1219.31l-.64-.58a8.92,8.92,0,0,0,1.49-5.24v-3.75h3.91a12.69,12.69,0,0,0-.7-1.4l.92-.14q.32.68.65,1.55h3.79v4h-7.72A9.94,9.94,0,0,1,329.48,1219.31Zm1.7-8.72v2.34H338v-2.34Z" transform="translate(-258.61 -1123.47)"/><path class="cls-1" d="M345.84,1214.31a10.78,10.78,0,0,0,1.1-3.51h-2.37a9.57,9.57,0,0,1-2.31,3.37l-.59-.73a9.72,9.72,0,0,0,2.78-5.16l.86.14a14.77,14.77,0,0,1-.43,1.55h2.91v.76a10.46,10.46,0,0,1-5.28,8.24l-.59-.73a10.1,10.1,0,0,0,3.51-3.24,9.31,9.31,0,0,0-1.9-1.27l.46-.67A9.93,9.93,0,0,1,345.84,1214.31Zm3.9-6v3.62c1,.73,2,1.56,3,2.48l-.53.79a31.43,31.43,0,0,0-2.51-2.31v6.38h-.89v-11Z" transform="translate(-258.61 -1123.47)"/><path class="cls-1" d="M359.27,1208.38c-.17.3-.34.59-.52.86h4.55v.7a11,11,0,0,1-2.55,2.54,14.84,14.84,0,0,0,4.71,1.5l-.37.78A14.38,14.38,0,0,1,360,1213a15.34,15.34,0,0,1-5.1,1.85l-.37-.78a14.42,14.42,0,0,0,4.71-1.56,9.54,9.54,0,0,1-1.76-1.63,11,11,0,0,1-1.69,1.48l-.55-.67a10.53,10.53,0,0,0,3.15-3.45Zm4.13,10.91h-.86v-.58h-5v.58h-.85v-4.53h6.74Zm-.86-1.42v-2.3h-5v2.3ZM360,1212a10.2,10.2,0,0,0,2.23-2h-4a1.39,1.39,0,0,0-.18.22A8.89,8.89,0,0,0,360,1212Z" transform="translate(-258.61 -1123.47)"/><path class="cls-1" d="M367.44,1209.17a16.37,16.37,0,0,0,3.91-.82l.3.8c-.49.16-1,.3-1.56.42v2h1.55v.83h-1.55v.6a25.49,25.49,0,0,1,1.81,1.91l-.48.72q-.77-1.15-1.33-1.87v5.58h-.84v-5.52a12.34,12.34,0,0,1-1.72,3.15l-.36-.9a9.63,9.63,0,0,0,2-3.67H367.4v-.83h1.85v-1.81c-.53.08-1.07.16-1.64.23Zm8-.85v2.11h2.39v5.43H377v-.61h-1.55v4h-.88v-4h-1.5v.61h-.83v-5.43h2.33v-2.11Zm-.88,6.13v-3.2h-1.5v3.2Zm2.42,0v-3.2h-1.55v3.2Z" transform="translate(-258.61 -1123.47)"/><path class="cls-1" d="M385.94,1219a7.67,7.67,0,0,1-1.86-.22,2.77,2.77,0,0,1-1.25-.87.62.62,0,0,0-.46-.3q-.43,0-1.44,1.65l-.65-.59a4.72,4.72,0,0,1,1.72-1.83v-3.65h-1.72v-.79h2.52v4.5a1.89,1.89,0,0,1,.28.26,2.69,2.69,0,0,0,.92.76,4.31,4.31,0,0,0,1.59.29l2.31,0,1.76,0c.58,0,1,0,1.35,0l-.22.86H388Zm-2.83-8.75-.61.61a14.38,14.38,0,0,0-2.06-1.93l.6-.56A16.31,16.31,0,0,1,383.11,1210.27Zm7.72,1.4v.83h-3.74a16.92,16.92,0,0,1-1.77,3.63,32.14,32.14,0,0,0,3.86-.62,20.88,20.88,0,0,0-1-1.94l.71-.23a22,22,0,0,1,1.73,3.78l-.77.2c-.12-.37-.25-.73-.4-1.07a39.69,39.69,0,0,1-5.18.77l-.22-.75c.5-.14,1.21-1.4,2.15-3.77h-2.52v-.83ZM390,1209v.79h-5.51V1209Z" transform="translate(-258.61 -1123.47)"/><path class="cls-1" d="M398.21,1212.35v.84h-2.77a27,27,0,0,1-1.26,3.91,19,19,0,0,0,2.83-.82c-.31-.65-.61-1.24-.92-1.79l.73-.36a32.36,32.36,0,0,1,1.62,3.36l-.74.38c-.12-.31-.24-.6-.36-.87a25.61,25.61,0,0,1-4.15,1.08l-.2-.82.19-.07a16,16,0,0,0,1.44-4h-1.67v-.84Zm-.46-3.24v.83h-4.34v-.83Zm3.12-.8v2.18h2.63c0,3.95-.06,6.38-.17,7.32a1.45,1.45,0,0,1-1.63,1.34l-1.1,0-.19-.77c.46,0,.85,0,1.19,0,.52,0,.82-.31.9-.92s.13-2.72.16-6.15h-1.78v.22q0,5.33-2.52,7.78l-.68-.6q2.29-2.23,2.33-7.18v-.22h-1.49v-.83H400v-2.18Z" transform="translate(-258.61 -1123.47)"/><path class="cls-1" d="M408.16,1217.82a2.45,2.45,0,0,1-1.36,2.29l-.32-.52a2,2,0,0,0,1-1.55l-.19,0a.79.79,0,0,1-.53-.19.75.75,0,0,1,0-1,.73.73,0,0,1,.53-.19C407.87,1216.65,408.16,1217,408.16,1217.82Z" transform="translate(-258.61 -1123.47)"/><path class="cls-1" d="M421.47,1215.09a16.57,16.57,0,0,1-2.17,3.66l-.74-.53a14.18,14.18,0,0,0,2.16-3.5Zm-1.48-6a6.34,6.34,0,0,0,.7.07,24.05,24.05,0,0,0,6.91-.85l.41.73a29.17,29.17,0,0,1-7.3.85c-.19,1.14-.4,2.15-.59,3h3.43v-2.35h.89V1213h4.38v.84h-4.38v4.26a1,1,0,0,1-1.13,1.16h-1.61l-.18-.85c.52,0,1,.06,1.49.06s.54-.2.54-.59v-4h-4.39C419.54,1212,419.82,1210.48,420,1209.12Zm8.92,9.29-.8.41a27.46,27.46,0,0,0-2.05-3.8l.77-.37A36.91,36.91,0,0,1,428.91,1218.42Z" transform="translate(-258.61 -1123.47)"/><path class="cls-1" d="M433.85,1213.5a16.77,16.77,0,0,0,.58-3.44h-3v-.84h3.77v.66a15.92,15.92,0,0,1-.79,4.47c.5.75,1,1.51,1.38,2.25l-.61.61c-.34-.65-.72-1.28-1.13-1.92a10.9,10.9,0,0,1-2.37,3.5l-.55-.64a10.46,10.46,0,0,0,2.38-3.71c-.64-.92-1.36-1.87-2.15-2.84l.59-.56C432.64,1211.87,433.27,1212.68,433.85,1213.5Zm5.19-3.07v2.34a8.67,8.67,0,0,1-1,4.25,5.87,5.87,0,0,1-3,2.3l-.47-.73a5.63,5.63,0,0,0,2.81-2.17,8.43,8.43,0,0,0,.78-3.65v-2.34Zm2.11,4.91h-.83v-5.78H437v5.78h-.83v-6.58h5Zm-1.37,3.72a.88.88,0,0,1-1-1v-2.67h.82v2.5a.37.37,0,0,0,.41.42h.78a.51.51,0,0,0,.44-.2,4,4,0,0,0,.23-1.43l.76.25a3.68,3.68,0,0,1-.42,1.86,1.17,1.17,0,0,1-.86.29Z" transform="translate(-258.61 -1123.47)"/><path class="cls-1" d="M265.31,1223.69a14.31,14.31,0,0,0,3.73-.85l.3.8a14.26,14.26,0,0,1-1.42.42V1226h1.48v.83h-1.48v.61c.58.59,1.15,1.26,1.75,2l-.48.72c-.5-.84-.92-1.5-1.27-2v5.48h-.82v-5.42a12.3,12.3,0,0,1-1.76,3.19l-.36-.9a9.63,9.63,0,0,0,2.09-3.71h-1.73V1226h1.76v-1.7c-.52.1-1.06.19-1.63.26Zm6.61,6.42a15.41,15.41,0,0,1-2,3.59l-.73-.52a14.15,14.15,0,0,0,2-3.44Zm3.37-6.72V1229h-5.17v-5.59Zm-.85.83H271v3.95h3.45Zm1.71,8.95-.73.52a28.62,28.62,0,0,0-2-3.56l.7-.43A29.49,29.49,0,0,1,276.15,1233.16Z" transform="translate(-258.61 -1123.47)"/><path class="cls-1" d="M280.63,1233.62h-.88v-6.12a13.61,13.61,0,0,1-1.57,3.31l-.37-.95a11.28,11.28,0,0,0,1.88-4H278V1225h1.75v-2.34h.88V1225h1.44v.83h-1.44v.79c.53.59,1.07,1.25,1.62,2l-.52.76c-.43-.72-.79-1.31-1.1-1.76Zm1.16-9.63v-.83h5.63v.55c-.24,1.07-.47,2-.71,2.76h1.56v.48a9.19,9.19,0,0,1-1.64,4.16,11.68,11.68,0,0,0,2.21,1.78l-.55.73a11.2,11.2,0,0,1-2.21-1.85,8.82,8.82,0,0,1-2.63,1.87l-.48-.79a8.69,8.69,0,0,0,2.52-1.8,10.62,10.62,0,0,1-1.63-3.23,10.82,10.82,0,0,1-2.12,5.76l-.66-.58c1.37-1.63,2.06-4.26,2.09-7.86V1224Zm5.61,3.24h-1.73q.36-1.1.83-3.24H284v1.16c0,.17,0,.32,0,.48a10.12,10.12,0,0,0,2,4.79A7.78,7.78,0,0,0,287.41,1227.23Z" transform="translate(-258.61 -1123.47)"/><path class="cls-1" d="M293.16,1232.22a2.45,2.45,0,0,1-1.36,2.29l-.32-.52a2,2,0,0,0,1-1.55l-.19,0a.79.79,0,0,1-.53-.19.75.75,0,0,1,0-1,.73.73,0,0,1,.53-.19C292.87,1231.05,293.16,1231.44,293.16,1232.22Z" transform="translate(-258.61 -1123.47)"/><path class="cls-1" d="M307.09,1231.08v2.57h-.82v-6.27a15.11,15.11,0,0,1-2.31,2.32l-.56-.73a13.18,13.18,0,0,0,3.5-4.11h-3.18V1224h3.57a13.34,13.34,0,0,0,.53-1.4l.88.11c-.14.44-.29.88-.46,1.29h6v.84h-6.32a14.3,14.3,0,0,1-.78,1.39h5.56v6.48c0,.59-.34.89-1,.91h-1.34l-.22-.79c.46,0,.89,0,1.28,0s.47-.14.47-.43v-1.37Zm0-2.78h4.76V1227h-4.76Zm0,.76v1.27h4.76V1229Z" transform="translate(-258.61 -1123.47)"/><path class="cls-1" d="M319.31,1226v1.82h1.12v.78h-1.12v1.63l1.46-.37v.82c-.47.13-1,.25-1.46.37v2.64h-.83v-2.46c-.71.14-1.45.26-2.22.37l-.11-.84c.82-.11,1.6-.23,2.33-.36v-1.8h-1.93l-.18-.75a17.65,17.65,0,0,0,.92-2.73h-1.1v-.84h1.31c.11-.5.22-1,.32-1.6l.8.13c-.1.52-.2,1-.31,1.46h2.11v.84h-2.31a22,22,0,0,1-.86,2.71h1.24V1226Zm6.34,2a8.16,8.16,0,0,1-1.18,3.13,8.6,8.6,0,0,0,2.77,1.81l-.44.77a8.67,8.67,0,0,1-2.85-1.88,6.48,6.48,0,0,1-3.19,1.94l-.48-.76a6.09,6.09,0,0,0,3.09-1.85,6.83,6.83,0,0,1-1.3-3.11l.76-.23a5.77,5.77,0,0,0,1.06,2.63,7.68,7.68,0,0,0,.95-2.63Zm-2.57-2.09a14,14,0,0,1-1.8,3.11l-.68-.49a12.41,12.41,0,0,0,1.75-3Zm.38-1.63a11.91,11.91,0,0,0-.62-1.42l.86-.14a13.09,13.09,0,0,1,.61,1.56H327v.84h-6.1v-.84Zm3.67,4.16-.7.49a25.93,25.93,0,0,0-1.92-3l.66-.42A26.81,26.81,0,0,1,327.15,1228.38Z" transform="translate(-258.61 -1123.47)"/><path class="cls-1" d="M330.13,1228.56h2.55a26,26,0,0,1-.19,3.93c-.14.68-.74,1-1.79,1.09-.31,0-.61,0-.92,0l-.2-.79c.31,0,.62,0,.94,0,.67,0,1.07-.23,1.18-.66a16.67,16.67,0,0,0,.16-2.82h-2.59l.37-3.48h2.12V1224h-2.39v-.8h3.2v3.47h-2.19Zm5.89-1.39v-1H333.9v-3H339v3h-2.12v1h2.53v3.24h-2.53v1.82l1.61-.23c-.14-.36-.3-.72-.46-1.08l.78-.22a21.35,21.35,0,0,1,1,2.71l-.76.29c-.1-.32-.2-.64-.31-.95-1.7.26-3.53.48-5.44.67l-.2-.83c1-.07,2-.17,2.89-.26v-1.93h-2.54v-3.24Zm0,.74h-1.76v1.75H336Zm2.19-4h-3.5v1.55h3.5Zm.41,4h-1.74v1.75h1.74Z" transform="translate(-258.61 -1123.47)"/><path class="cls-1" d="M346.07,1232.92h-.84v-.68H343v1h-.84v-8.53h1.12a11,11,0,0,0,.52-2.09l.86.12a11.49,11.49,0,0,1-.56,2h1.93Zm-.84-4.89v-2.47H343V1228Zm0,3.41v-2.63H343v2.63Zm6.86.71a1.48,1.48,0,0,1-1.68,1.38l-1.22,0-.2-.79c.5,0,.94,0,1.31,0a.93.93,0,0,0,1-.92c.07-.67.12-2.75.14-6.2h-3.3a10.14,10.14,0,0,1-1.2,2.05l-.52-.68a10.61,10.61,0,0,0,1.71-4.32l.85.11a15.68,15.68,0,0,1-.53,2h3.83C352.27,1228.74,352.21,1231.21,352.09,1232.14Zm-2-2-.68.48a23.62,23.62,0,0,0-2-2.66l.7-.43A20.24,20.24,0,0,1,350.12,1230.14Z" transform="translate(-258.61 -1123.47)"/><path class="cls-1" d="M362.81,1227.87a11.06,11.06,0,0,1-2.1,2.85,13.87,13.87,0,0,0,4.74,2.11l-.54.8a14.1,14.1,0,0,1-4.86-2.33,12.93,12.93,0,0,1-4.89,2.37l-.53-.79a12.93,12.93,0,0,0,4.73-2.16,10.64,10.64,0,0,1-2.16-2.71l.74-.42a8.92,8.92,0,0,0,2.07,2.57,9.65,9.65,0,0,0,2-2.65Zm-3.15-3.78a9.47,9.47,0,0,0-.72-1.34l1-.17a15,15,0,0,1,.7,1.51h4.73v.83H354.7v-.83Zm-1,1.75a13.86,13.86,0,0,1-3.38,3.12l-.55-.73a13.52,13.52,0,0,0,3.31-2.94Zm6.58,2.59-.64.64a21.78,21.78,0,0,0-3.3-3.23l.59-.56A23.83,23.83,0,0,1,365.24,1228.44Z" transform="translate(-258.61 -1123.47)"/><path class="cls-1" d="M371.4,1223.17v.68c-.36,1.08-.79,2.19-1.28,3.36a6,6,0,0,1,1.1,2.85,1.6,1.6,0,0,1-.35,1.14,2.5,2.5,0,0,1-1.64.44l-.28-.84a3.85,3.85,0,0,0,.46,0,1.26,1.26,0,0,0,.77-.22.71.71,0,0,0,.2-.58,4.74,4.74,0,0,0-1.12-2.72,32.32,32.32,0,0,0,1.3-3.36h-1.92v9.69h-.84v-10.51Zm2.11,5.13a15.61,15.61,0,0,1-1.68,4.35l-.72-.46a13.46,13.46,0,0,0,1.61-4.07Zm-.44,5.3-.17-.82c.36,0,.72.06,1.07.06s.48-.18.48-.54v-5.21h-3v-.84h6.78v.84h-2.94v5.42a1,1,0,0,1-1.06,1.08Zm4.56-10.22v.83H372.2v-.83Zm.65,8.93-.77.35a34.51,34.51,0,0,0-1.37-4.44l.76-.25A36,36,0,0,1,378.27,1232.32Z" transform="translate(-258.61 -1123.47)"/><path class="cls-1" d="M386.12,1226.05l-.71.5q-.2-.4-.43-.79a45.79,45.79,0,0,1-4.59.44l-.24-.72a1.07,1.07,0,0,0,.4-.23,10.42,10.42,0,0,0,1.85-2.59l.82.25a8.86,8.86,0,0,1-1.82,2.52c1-.06,2.08-.16,3.2-.3-.25-.38-.53-.79-.82-1.2l.67-.42A23.38,23.38,0,0,1,386.12,1226.05Zm-4.41,7.64h-.83v-6.78h4.43v5.64c0,.7-.34,1.05-1,1.05h-1l-.22-.82.9,0a.41.41,0,0,0,.46-.46v-1h-2.77Zm2.77-6h-2.77v1.16h2.77Zm-2.77,3h2.77v-1.12h-2.77Zm5.83-2.76c-.73,0-1.09-.4-1.09-1.18v-4h.85v1.56a32.51,32.51,0,0,0,3.21-.64l.28.76c-1,.25-2.17.48-3.49.67v1.5c0,.38.16.58.48.58h1.57a.62.62,0,0,0,.5-.19,3.39,3.39,0,0,0,.24-1.36l.8.25a3.4,3.4,0,0,1-.46,1.8,1.32,1.32,0,0,1-.92.28Zm-.24,4.43c0,.24.14.37.46.37h1.63a.68.68,0,0,0,.52-.17,3,3,0,0,0,.26-1.34l.78.24a3.11,3.11,0,0,1-.46,1.77,1.34,1.34,0,0,1-.94.28h-2c-.72,0-1.07-.32-1.07-1v-4.16h.85v1.47a16.83,16.83,0,0,0,3.21-.61l.28.77a18.22,18.22,0,0,1-3.49.62Z" transform="translate(-258.61 -1123.47)"/><path class="cls-1" d="M398.23,1222.71v1.1c0,.41,0,.79,0,1.16h4.61c0,2.1-.12,3.8-.24,5.11a7.43,7.43,0,0,1-.61,2.7,1.56,1.56,0,0,1-1.33.8H399l-.24-.84c.5,0,1,0,1.43,0,.66,0,1.09-.43,1.31-1.28a34.66,34.66,0,0,0,.42-5.7h-3.78a14.14,14.14,0,0,1-1,4.4,7.5,7.5,0,0,1-3.47,3.45l-.47-.76a7.11,7.11,0,0,0,3.27-3.37,13.55,13.55,0,0,0,.82-3.73h-3.5V1225h3.56c0-.38,0-.78,0-1.16v-1.1Z" transform="translate(-258.61 -1123.47)"/><path class="cls-1" d="M409.22,1231.2a1.49,1.49,0,0,1,0,2.15,1.56,1.56,0,0,1-1.1.43,1.58,1.58,0,0,1-1.1-.42,1.51,1.51,0,0,1,0-2.16,1.54,1.54,0,0,1,1.1-.43A1.56,1.56,0,0,1,409.22,1231.2Zm-1.74.46a.83.83,0,0,0,0,1.24.88.88,0,0,0,.64.26.92.92,0,0,0,.64-.26.83.83,0,0,0,0-1.24.87.87,0,0,0-.64-.26A.83.83,0,0,0,407.48,1231.65Z" transform="translate(-258.61 -1123.47)"/><path class="cls-1" d="M420.34,1224v-1.22h.8V1224h2.28v-1.27h.84V1224h2.31v-1.22h.82V1224h1.84v.83h-1.84v1.27h-.82v-1.27h-2.31v1.32h-.84v-1.32h-2.28v1.27h-.8v-1.27h-1.79V1224Zm8.48,5.16H428v-1.5H424.3V1229h3.11v2.83c0,.71-.32,1.07-1,1.07h-1.09l-.22-.84,1,0c.26,0,.41-.16.41-.46v-1.85H424.3v3.92h-.86v-3.92h-2.17v3.11h-.84V1229h3v-1.31h-3.65v1.54h-.84v-2.35h9.87Z" transform="translate(-258.61 -1123.47)"/><path class="cls-1" d="M437.21,1233.43a8.35,8.35,0,0,1-2-.22,2.82,2.82,0,0,1-1.33-.87.68.68,0,0,0-.49-.3c-.29,0-.78.55-1.45,1.68l-.65-.58a4.71,4.71,0,0,1,1.72-1.87v-3.63h-1.73v-.82h2.55v4.5a2,2,0,0,1,.31.28,3.33,3.33,0,0,0,1,.76,5.24,5.24,0,0,0,1.7.26l2.47,0h1.61c.54,0,1,0,1.25,0l-.22.88h-2.53Zm-3-8.7-.62.64a13.31,13.31,0,0,0-2-2l.6-.56A15.28,15.28,0,0,1,434.2,1224.73Zm3.18,7.11-.19-.83c.55,0,1.09.06,1.6.06a.45.45,0,0,0,.52-.49v-5.1h-4.53v-.85h4.53v-1.94h.88v1.94h1.77v.85h-1.77v5.3a1,1,0,0,1-1.09,1.06Zm.46-3-.7.48a19.25,19.25,0,0,0-1.74-2.39l.67-.43A18,18,0,0,1,437.83,1228.89Z" transform="translate(-258.61 -1123.47)"/><path class="cls-1" d="M265.32,1244.52l-.26-.91a11.18,11.18,0,0,0,3.32-4h-3v-.83h1.85a12.22,12.22,0,0,0-.66-1.51l.83-.23a15.61,15.61,0,0,1,.64,1.64l-.25.1h1.51v.73a9.55,9.55,0,0,1-1.49,2.59,11,11,0,0,1,1.93,1.4l-.48.74a10.41,10.41,0,0,0-1.45-1.26V1248h-.85v-5C266.44,1243.53,265.91,1244,265.32,1244.52Zm7.66-7.39v3.57h2.73v.85H273v5.25h3v.85h-7v-.85h3.09v-5.25h-2.67v-.85h2.67v-3.57Z" transform="translate(-258.61 -1123.47)"/><path class="cls-1" d="M288.19,1248.08h-.84v-.54h-8v.54h-.84V1237.6h9.71Zm-.84-1.33v-8.36h-8v8.36Zm-3.09-6.28V1239h.83v1.46h1.49v.78h-1.49v3.63c0,.71-.35,1.07-1,1.07H282.7l-.18-.8c.44,0,.86.06,1.26.06s.48-.18.48-.54v-3.3a10.32,10.32,0,0,1-3.78,3.79l-.46-.77a9.26,9.26,0,0,0,3.56-3.14h-3.36v-.78Z" transform="translate(-258.61 -1123.47)"/><path class="cls-1" d="M293.16,1246.62a2.45,2.45,0,0,1-1.36,2.29l-.32-.52a2,2,0,0,0,1-1.55l-.19,0a.79.79,0,0,1-.53-.19.75.75,0,0,1,0-1,.73.73,0,0,1,.53-.19C292.87,1245.45,293.16,1245.84,293.16,1246.62Z" transform="translate(-258.61 -1123.47)"/><path class="cls-1" d="M303.85,1244.5l-.54-.71a13.82,13.82,0,0,0,3.5-4.25h-3.08v-.85h3.49a14,14,0,0,0,.62-1.71l.9.11a16.81,16.81,0,0,1-.56,1.61h6v.85H307.8a14.77,14.77,0,0,1-1.68,2.65v5.9h-.85v-4.92A18.44,18.44,0,0,1,303.85,1244.5Zm6.09-1.85v-2.23h.88v2.23h2.87v.84h-2.87v3.31h3.41v.85h-7.52v-.85h3.24v-3.31H307.2v-.84Z" transform="translate(-258.61 -1123.47)"/><path class="cls-1" d="M322,1237.1a17.12,17.12,0,0,0,5.25,4l-.47.83a16.58,16.58,0,0,1-5.1-4,16.73,16.73,0,0,1-5.15,4l-.46-.83a17.5,17.5,0,0,0,5.29-4Zm.47,3.17v2.7h3.27v.83h-3.27v3h4.14v.84h-10v-.84h1.81V1242h.85v4.75h2.3v-6.48Z" transform="translate(-258.61 -1123.47)"/><path class="cls-1" d="M333.58,1237.19v9.54h1.7v-9.54h.88v9.54h3.6v.84H329.13v-.84h3.57v-9.54Zm-1.74,7.74-.79.2a44.87,44.87,0,0,0-1.62-5.54l.73-.24A42.56,42.56,0,0,1,331.84,1244.92Zm7.59-5.34a27.68,27.68,0,0,1-1.81,5.48l-.78-.28a25.92,25.92,0,0,0,1.82-5.42Z" transform="translate(-258.61 -1123.47)"/><path class="cls-1" d="M343.67,1238.39v-1.22h.8v1.22h2.28v-1.27h.84v1.27h2.31v-1.22h.82v1.22h1.84v.83h-1.84v1.27h-.82v-1.27h-2.31v1.32h-.84v-1.32h-2.28v1.27h-.8v-1.27h-1.79v-.83Zm8.48,5.16h-.84V1242h-3.68v1.31h3.11v2.83c0,.71-.32,1.07-1,1.07h-1.09l-.22-.84,1,0c.26,0,.41-.16.41-.46v-1.85h-2.27v3.92h-.86v-3.92h-2.17v3.11h-.84v-3.91h3V1242h-3.65v1.54h-.84v-2.35h9.87Z" transform="translate(-258.61 -1123.47)"/><path class="cls-1" d="M360.54,1247.83a8.4,8.4,0,0,1-2-.22,2.82,2.82,0,0,1-1.33-.88.68.68,0,0,0-.49-.3c-.29,0-.78.55-1.45,1.68l-.65-.58a4.71,4.71,0,0,1,1.72-1.87V1242h-1.73v-.82h2.55v4.5a2.08,2.08,0,0,1,.31.28,3.31,3.31,0,0,0,1,.75,5.26,5.26,0,0,0,1.7.26l2.47,0h1.61c.54,0,1,0,1.25,0l-.22.88h-2.53Zm-3-8.7-.62.64a13.26,13.26,0,0,0-2-2l.6-.56A15.25,15.25,0,0,1,357.53,1239.13Zm3.18,7.11-.19-.83c.55,0,1.09.06,1.6.06a.45.45,0,0,0,.52-.49v-5.1h-4.53V1239h4.53v-1.94h.88V1239h1.78v.85H363.5v5.3a1,1,0,0,1-1.09,1.06Zm.46-3-.7.48a19.18,19.18,0,0,0-1.74-2.39l.67-.43A18,18,0,0,1,361.16,1243.29Z" transform="translate(-258.61 -1123.47)"/><path class="cls-1" d="M376.81,1248.05h-.88v-.74h-6.31v.74h-.88v-9.56h2.57a5.84,5.84,0,0,0,.59-1.46l.88.12a5.58,5.58,0,0,1-.56,1.34h4.59Zm-.88-6.94v-1.79h-6.31v1.79Zm0,2.63v-1.83h-6.31v1.83Zm0,2.75v-2h-6.31v2Z" transform="translate(-258.61 -1123.47)"/><path class="cls-1" d="M390.44,1247.11a1.35,1.35,0,0,1-1.3.58h-6.58c-.88,0-1.31-.41-1.31-1.2v-4.82h7.44v-3.12H380.6v-.84h8.95v4.8h-7.44v3.67c0,.43.26.66.79.67H389a.79.79,0,0,0,.83-.52,9.14,9.14,0,0,0,.24-2l.84.28A7.23,7.23,0,0,1,390.44,1247.11Z" transform="translate(-258.61 -1123.47)"/><path class="cls-1" d="M397.18,1247.32h-.84v-.68h-2.18v1h-.84v-8.53h1.12a11,11,0,0,0,.52-2.09l.86.12a11.46,11.46,0,0,1-.56,2h1.93Zm-.84-4.89V1240h-2.18v2.47Zm0,3.41v-2.63h-2.18v2.63Zm6.86.71a1.48,1.48,0,0,1-1.68,1.38l-1.22,0-.2-.79c.5,0,.94,0,1.31,0a.93.93,0,0,0,1-.92c.07-.67.12-2.75.14-6.2h-3.3A10.08,10.08,0,0,1,398,1242l-.52-.68a10.6,10.6,0,0,0,1.71-4.32l.85.11a15.63,15.63,0,0,1-.53,2h3.83C403.38,1243.14,403.32,1245.61,403.2,1246.54Zm-2-2-.68.48a23.48,23.48,0,0,0-2-2.66l.7-.43A20.24,20.24,0,0,1,401.24,1244.54Z" transform="translate(-258.61 -1123.47)"/><path class="cls-1" d="M416,1248.08h-.84v-.54h-8v.54h-.84V1237.6H416Zm-.84-1.33v-8.36h-8v8.36Zm-3.09-6.28V1239h.83v1.46h1.49v.78h-1.49v3.63c0,.71-.35,1.07-1,1.07h-1.37l-.18-.8c.44,0,.86.06,1.26.06s.48-.18.48-.54v-3.3a10.32,10.32,0,0,1-3.78,3.79l-.46-.77a9.26,9.26,0,0,0,3.56-3.14H408v-.78Z" transform="translate(-258.61 -1123.47)"/><path class="cls-1" d="M422.56,1237.57v.68c-.37,1.08-.8,2.21-1.31,3.38a5.66,5.66,0,0,1,1.26,2.87,1.48,1.48,0,0,1-.37,1.12,2.77,2.77,0,0,1-1.75.44l-.29-.87a4.57,4.57,0,0,0,.47,0,2,2,0,0,0,.88-.19.64.64,0,0,0,.23-.54,4.47,4.47,0,0,0-1.28-2.73,27.66,27.66,0,0,0,1.32-3.38h-1.94v9.69h-.84v-10.51Zm3.45-.42c0,1.19-.06,2.28-.16,3.26a13.82,13.82,0,0,0,3.6,6.81l-.62.73a14.56,14.56,0,0,1-3.24-5.65c0,.22-.08.42-.13.62a8.65,8.65,0,0,1-3.2,5.07l-.58-.68a8.38,8.38,0,0,0,2.91-4.44,25.71,25.71,0,0,0,.56-5.73Z" transform="translate(-258.61 -1123.47)"/><path class="cls-1" d="M434.77,1245.6a1.49,1.49,0,0,1,0,2.15,1.56,1.56,0,0,1-1.1.43,1.58,1.58,0,0,1-1.1-.42,1.51,1.51,0,0,1,0-2.16,1.54,1.54,0,0,1,1.1-.43A1.56,1.56,0,0,1,434.77,1245.6Zm-1.74.46a.83.83,0,0,0,0,1.24.88.88,0,0,0,.64.26.92.92,0,0,0,.64-.26.83.83,0,0,0,0-1.24.87.87,0,0,0-.64-.26A.83.83,0,0,0,433,1246.05Z" transform="translate(-258.61 -1123.47)"/><path class="cls-1" d="M268.75,1259.88v2.57h-.82v-6.27a15.11,15.11,0,0,1-2.31,2.32l-.56-.73a13.18,13.18,0,0,0,3.5-4.11h-3.18v-.84H269a13.34,13.34,0,0,0,.53-1.4l.88.11c-.14.44-.29.88-.46,1.29h6v.84h-6.32a14.3,14.3,0,0,1-.78,1.39h5.56v6.48c0,.59-.34.89-1,.91H272l-.22-.79c.46,0,.89,0,1.28,0s.47-.14.47-.43v-1.37Zm0-2.78h4.76v-1.31h-4.76Zm0,.76v1.27h4.76v-1.27Z" transform="translate(-258.61 -1123.47)"/><path class="cls-1" d="M281,1251.8a18.27,18.27,0,0,1-2,3.56c.58,0,1.14-.13,1.71-.23q.38-.67.79-1.44l.78.3a28.39,28.39,0,0,1-2.85,4.4,18.72,18.72,0,0,0,2.66-.79v.79a19,19,0,0,1-3.75,1l-.23-.8a1.56,1.56,0,0,0,.4-.25,12.93,12.93,0,0,0,1.74-2.37l-2.11.3-.22-.8a.84.84,0,0,0,.37-.32,18.28,18.28,0,0,0,1.85-3.62Zm1.07,8.79a18,18,0,0,1-3.89,1.27l-.11-.85a18.46,18.46,0,0,0,4-1.24Zm5.71.61h1v.84h-6.93v-.84h1V1252h4.87Zm-.85-6.18v-2.17h-3.17V1255Zm0,3.08v-2.27h-3.17v2.27Zm0,3.09v-2.28h-3.17v2.28Z" transform="translate(-258.61 -1123.47)"/><path class="cls-1" d="M293.71,1251.79a19.41,19.41,0,0,1-2,3.79c.58-.07,1.15-.16,1.75-.26.26-.48.55-1,.84-1.52l.77.3a27.73,27.73,0,0,1-2.84,4.4,19.46,19.46,0,0,0,2.63-.74v.74a17.69,17.69,0,0,1-3.75,1l-.24-.8a1.45,1.45,0,0,0,.41-.25,12.18,12.18,0,0,0,1.73-2.33l-2.12.35-.23-.79a1,1,0,0,0,.37-.33,19.62,19.62,0,0,0,1.86-3.86Zm1.12,9.09a24.17,24.17,0,0,1-4.05,1.08l-.11-.86a22.82,22.82,0,0,0,4.16-1.07Zm2.53-2.05a15.52,15.52,0,0,1-2.09,3.63l-.73-.53a13.9,13.9,0,0,0,2.06-3.47Zm3.54-6.67v5.64h-5.37v-5.64Zm-.86.83h-3.66v4H300Zm1.66,9-.73.52a27.78,27.78,0,0,0-2-3.57l.7-.43A32.14,32.14,0,0,1,301.69,1262Z" transform="translate(-258.61 -1123.47)"/><path class="cls-1" d="M305.84,1254.77V1253q-.9.14-1.83.22l-.28-.77a16.44,16.44,0,0,0,4.47-.9l.41.72a14.36,14.36,0,0,1-1.93.56v1.89h2.05v.8h-2.05v.6a24.93,24.93,0,0,1,2.1,2.1l-.5.74c-.62-.85-1.15-1.54-1.6-2v5.41h-.84v-5.33a11.58,11.58,0,0,1-2.05,3.09l-.36-.94a9.4,9.4,0,0,0,2.41-3.56v-.08h-2.1v-.8Zm8,7.22H313V1261h-2.91v1.07h-.83v-9.82h4.58Zm-.84-1.76v-7.14h-2.91v7.14Z" transform="translate(-258.61 -1123.47)"/><path class="cls-1" d="M317.55,1254.3v-2.76h.83v2.76h1.34v.8h-1.34v7.36h-.83v-7.36h-1.39v-.8Zm3.59,1.88a8,8,0,0,1-1.5,3.26l-.58-.54a7.35,7.35,0,0,0,1.38-2.9Zm2-4.62v2.06h2.43q0,5.83-.18,7.2a1.55,1.55,0,0,1-1.72,1.52l-.9,0-.22-.79c.38,0,.71,0,1,0,.58,0,.91-.36,1-1.07s.12-2.65.14-6H323.1v.2q-.07,5.34-2.89,7.81l-.65-.58q2.64-2.25,2.7-7.23v-.2h-2v-.84h2v-2.06Zm4.13,7.3-.66.3a24.85,24.85,0,0,0-1-2.89l.67-.22A22.56,22.56,0,0,1,327.23,1258.87Z" transform="translate(-258.61 -1123.47)"/><path class="cls-1" d="M331.46,1255.14v5c.29-.26.59-.54.9-.85l.22.85a14.13,14.13,0,0,1-1.88,1.62l-.34-.77a.64.64,0,0,0,.26-.49V1256H329v-.83Zm.86-1.73-.59.6a12.9,12.9,0,0,0-1.92-1.81l.6-.59A13.84,13.84,0,0,1,332.32,1253.41Zm7.17,7.93a1,1,0,0,1-1.08,1.07h-1.15l-.2-.79c.4,0,.77,0,1.1,0s.52-.2.52-.6v-8.32h-4.86v5.79a7,7,0,0,1-1.07,3.95l-.64-.59a6.11,6.11,0,0,0,.89-3.31v-6.62h6.49Zm-3.67-7.2v-.95h.82v.95H338v.71h-1.39V1256h1.6v.72h-4V1256h1.57v-1.13h-1.38v-.71Zm2,3.41v3.06h-3.19v-3.06Zm-.74.72h-1.7v1.63h1.7Z" transform="translate(-258.61 -1123.47)"/><path class="cls-1" d="M347.79,1254.85l-.71.5q-.2-.4-.43-.79a45.79,45.79,0,0,1-4.59.44l-.24-.72a1.07,1.07,0,0,0,.4-.23,10.42,10.42,0,0,0,1.85-2.59l.82.25a8.86,8.86,0,0,1-1.82,2.52c1-.06,2.08-.16,3.2-.3-.25-.38-.53-.79-.82-1.2l.67-.42A23.38,23.38,0,0,1,347.79,1254.85Zm-4.41,7.64h-.83v-6.78H347v5.64c0,.7-.34,1.05-1,1.05h-1l-.22-.82.9,0a.41.41,0,0,0,.46-.46v-1h-2.77Zm2.77-6h-2.77v1.16h2.77Zm-2.77,3h2.77v-1.12h-2.77Zm5.83-2.76c-.73,0-1.09-.4-1.09-1.18v-4H349v1.56a32.51,32.51,0,0,0,3.21-.64l.28.76c-1,.25-2.17.48-3.49.67v1.5c0,.38.16.58.48.58H351a.62.62,0,0,0,.5-.19,3.39,3.39,0,0,0,.24-1.36l.8.25a3.4,3.4,0,0,1-.46,1.8,1.32,1.32,0,0,1-.92.28Zm-.24,4.43c0,.24.14.37.46.37H351a.68.68,0,0,0,.52-.17,3,3,0,0,0,.26-1.34l.78.24a3.11,3.11,0,0,1-.46,1.77,1.34,1.34,0,0,1-.94.28h-2c-.72,0-1.07-.32-1.07-1v-4.16H349v1.47a16.83,16.83,0,0,0,3.21-.61l.28.77a18.22,18.22,0,0,1-3.49.62Z" transform="translate(-258.61 -1123.47)"/><path class="cls-1" d="M359.89,1251.5v1.1c0,.41,0,.79,0,1.16h4.61c0,2.1-.12,3.8-.24,5.11a7.44,7.44,0,0,1-.61,2.7,1.56,1.56,0,0,1-1.33.8h-1.62l-.24-.84c.5,0,1,0,1.43,0,.66,0,1.09-.43,1.31-1.28a34.66,34.66,0,0,0,.42-5.7h-3.78a14.14,14.14,0,0,1-1,4.4,7.5,7.5,0,0,1-3.47,3.45l-.47-.76a7.11,7.11,0,0,0,3.27-3.37,13.54,13.54,0,0,0,.82-3.73h-3.5v-.83H359c0-.38,0-.78,0-1.16v-1.1Z" transform="translate(-258.61 -1123.47)"/><path class="cls-1" d="M369.83,1261a2.45,2.45,0,0,1-1.36,2.29l-.32-.52a2,2,0,0,0,1-1.55l-.19,0a.79.79,0,0,1-.53-.19.75.75,0,0,1,0-1,.73.73,0,0,1,.53-.19C369.54,1259.85,369.83,1260.24,369.83,1261Z" transform="translate(-258.61 -1123.47)"/><path class="cls-1" d="M383.76,1259.88v2.57h-.82v-6.27a15.11,15.11,0,0,1-2.31,2.32l-.56-.73a13.17,13.17,0,0,0,3.5-4.11h-3.18v-.84H384a13.34,13.34,0,0,0,.53-1.4l.88.11c-.14.44-.29.88-.46,1.29h6v.84h-6.32a14.3,14.3,0,0,1-.78,1.39h5.56v6.48c0,.59-.34.89-1,.91H387l-.22-.79c.46,0,.89,0,1.28,0s.47-.14.47-.43v-1.37Zm0-2.78h4.76v-1.31h-4.76Zm0,.76v1.27h4.76v-1.27Z" transform="translate(-258.61 -1123.47)"/><path class="cls-1" d="M396.59,1251.58c1,1.1,2.05,2.27,3,3.49l-.56.6a40.25,40.25,0,0,0-2.7-3.27,21.15,21.15,0,0,1-3.08,3.63l-.5-.7a20.1,20.1,0,0,0,3.2-3.75Zm-1.67,4.51v5c0,.28.14.42.46.42h2.29c.41,0,.67-.11.77-.3a4.3,4.3,0,0,0,.24-1.33l.82.26A3.76,3.76,0,0,1,399,1262a1.65,1.65,0,0,1-1.14.29H395c-.67,0-1-.31-1-.92v-6h4.27v3.19a.92.92,0,0,1-1,1c-.46,0-.9,0-1.32,0l-.22-.82a11.84,11.84,0,0,0,1.22.07.43.43,0,0,0,.48-.49v-2.16Zm5.53,6.27-.19-.83c.61,0,1.2.06,1.75.06.3,0,.46-.18.46-.54v-9.55h.86v9.76c0,.72-.35,1.09-1,1.09Zm.7-9.83V1260h-.84v-7.47Z" transform="translate(-258.61 -1123.47)"/><path class="cls-1" d="M407.55,1259a11.51,11.51,0,0,1-1.31,3.17l-.72-.46a9.36,9.36,0,0,0,1.24-2.88Zm-.44-3.73a9.33,9.33,0,0,0-.64-1.35l.77-.28a9.48,9.48,0,0,1,.64,1.63h1.32a14.22,14.22,0,0,0,.62-1.66l.78.26a10.07,10.07,0,0,1-.62,1.39h1.35v.78H409v1.34h2.11v.79H409v3.39q0,1-1,1h-.65l-.18-.8a3,3,0,0,0,.54.06q.47,0,.47-.43v-3.19h-2.23v-.79h2.23V1256h-2.42v-.78Zm1-2.72a7.11,7.11,0,0,0-.55-1l.89-.14c.18.36.35.75.52,1.19h2.27v.79h-5.41v-.79Zm2.9,8.34-.72.28a16.63,16.63,0,0,0-.84-2.22l.72-.19A16.2,16.2,0,0,1,411,1260.85Zm5.23-8.49a11.45,11.45,0,0,1-3.51.73v2.18h3.87v.83h-1.25v6.4h-.85v-6.4h-1.78v1.43a8.86,8.86,0,0,1-1.38,4.93l-.61-.65a8,8,0,0,0,1.15-4.28v-5.13a10.22,10.22,0,0,0,3.92-.8Z" transform="translate(-258.61 -1123.47)"/><path class="cls-1" d="M420.41,1259.64a8.21,8.21,0,0,1-1.18,2.48l-.74-.47a6.77,6.77,0,0,0,1.08-2.18Zm-1.16-6.69v-.74h4.11a5.42,5.42,0,0,0-.35-.7l.92-.14c.12.25.25.53.37.84h4.22v.74h-2l-.47.95h3v.76H418.68v-.76h2.88l-.38-.95Zm8.48,2.41v3.55h-7.68v-3.55Zm-.84,1.45V1256h-6v.77Zm0,.64h-6v.79h6Zm-4.28,4.83c-.82,0-1.21-.37-1.21-1.12v-1.58h.89v1.4c0,.34.19.52.58.52h2.52a.77.77,0,0,0,.54-.14,1.85,1.85,0,0,0,.29-1.09l.82.26a2.39,2.39,0,0,1-.49,1.52,1.8,1.8,0,0,1-1,.23Zm2.6-8.38.47-.95h-3.6l.38.95Zm0,6.6-.72.5a9.31,9.31,0,0,0-1.18-1.4l.73-.46A9.45,9.45,0,0,1,425.18,1260.49Zm4.16,1-.72.5a16.89,16.89,0,0,0-1.54-2.17l.7-.43A17.54,17.54,0,0,1,429.35,1261.46Z" transform="translate(-258.61 -1123.47)"/><path class="cls-1" d="M433.76,1255.14v5.29c.38-.34.79-.73,1.24-1.17l.23.91A15.92,15.92,0,0,1,433,1262l-.34-.77a.65.65,0,0,0,.25-.5V1256H431.2v-.83Zm.88-1.73-.59.6a13,13,0,0,0-2-1.83l.6-.59A14.32,14.32,0,0,1,434.64,1253.41Zm3.31,5.47a15.92,15.92,0,0,1-2.12,3.65l-.76-.55a13.28,13.28,0,0,0,2.11-3.47Zm3.47-6.69v5.6H435.9v-5.6Zm-.86.83h-3.79V1257h3.79Zm1.69,8.95-.74.52a27.57,27.57,0,0,0-2.13-3.56l.7-.44A28.29,28.29,0,0,1,442.24,1262Z" transform="translate(-258.61 -1123.47)"/><path class="cls-1" d="M267.6,1275.42a2.45,2.45,0,0,1-1.36,2.29l-.32-.52a2,2,0,0,0,1-1.55l-.19,0a.79.79,0,0,1-.53-.19.75.75,0,0,1,0-1,.73.73,0,0,1,.53-.19C267.32,1274.25,267.6,1274.64,267.6,1275.42Z" transform="translate(-258.61 -1123.47)"/><path class="cls-1" d="M283.9,1269.25l-.71.5q-.2-.4-.43-.79a45.51,45.51,0,0,1-4.59.44l-.24-.72a1.09,1.09,0,0,0,.4-.23,10.4,10.4,0,0,0,1.85-2.59l.82.25a8.86,8.86,0,0,1-1.82,2.52c1-.06,2.08-.16,3.2-.3-.25-.38-.53-.79-.82-1.2l.67-.42A23.38,23.38,0,0,1,283.9,1269.25Zm-4.41,7.64h-.83v-6.78h4.43v5.64c0,.7-.34,1.06-1,1.06h-1l-.22-.82.9,0a.41.41,0,0,0,.46-.46v-1h-2.77Zm2.77-6h-2.77V1272h2.77Zm-2.77,3h2.77v-1.12h-2.77Zm5.83-2.76c-.73,0-1.09-.4-1.09-1.17v-4h.85v1.56c1.32-.2,2.39-.42,3.21-.64l.28.76a35.49,35.49,0,0,1-3.49.67v1.5c0,.38.16.58.48.58h1.57a.62.62,0,0,0,.5-.19,3.4,3.4,0,0,0,.24-1.36l.8.25a3.4,3.4,0,0,1-.46,1.8,1.33,1.33,0,0,1-.92.28Zm-.24,4.43c0,.24.14.37.46.37h1.63a.68.68,0,0,0,.52-.17,3,3,0,0,0,.26-1.34l.78.24a3.11,3.11,0,0,1-.46,1.78,1.34,1.34,0,0,1-.94.28h-2c-.72,0-1.07-.32-1.07-1v-4.16h.85V1273a16.83,16.83,0,0,0,3.21-.61l.28.77a18.22,18.22,0,0,1-3.49.62Z" transform="translate(-258.61 -1123.47)"/><path class="cls-1" d="M295.76,1272.39c-.49.07-1.08.16-1.76.23v.8q0,.86-1,.86h-1l-.2-.74a8.06,8.06,0,0,0,.94.07c.31,0,.48-.13.48-.4v-.53c-.72.06-1.54.12-2.42.17l-.11-.67c.92,0,1.76-.08,2.53-.14v-.49l1.06-.55h-3.08v-.66h4.21v.55l-1.36.73v.35c.65-.07,1.24-.16,1.76-.24Zm-2-5.78h2.41v.7h-5.52v-.7h2.24q-.16-.34-.32-.61l.88-.16A6.79,6.79,0,0,1,293.76,1266.61Zm-.78,8.24a8.21,8.21,0,0,1-1.62,2l-.71-.5a8.09,8.09,0,0,0,1.61-1.82Zm2.49-7v2h-4.05v-2Zm-.79.56H292.2v.83h2.48Zm.72,8.34-.86.2a16.9,16.9,0,0,0-.48-2.22l.83-.17C295.08,1275.25,295.25,1276,295.4,1276.76Zm4.62-3.25a2.41,2.41,0,0,1-.44-1.08,11.7,11.7,0,0,1-.14-2c0-.59,0-1.26.06-2h-1a11,11,0,0,1-.43,2.66,14,14,0,0,1,1.19,1.56l-.62.61a14,14,0,0,0-.89-1.28,6.16,6.16,0,0,1-1.68,2.29l-.65-.56a5.65,5.65,0,0,0,1.7-2.46,15.47,15.47,0,0,0-1.14-1.07l.5-.58a6.62,6.62,0,0,1,.9.77,10.72,10.72,0,0,0,.28-1.94h-1.34v-.83h1.37v-1.74h.84v1.74h1.87c-.1,1-.13,2-.13,2.85a13.74,13.74,0,0,0,.08,1.78c.08.44.18.67.3.68s.2-.16.26-.41a10.18,10.18,0,0,0,.14-1l.67.31a5,5,0,0,1-.44,1.73.76.76,0,0,1-.56.34A.88.88,0,0,1,300,1273.51Zm-1.87,3.24-.86.19a12.53,12.53,0,0,0-.68-2.3l.83-.17A23.06,23.06,0,0,1,298.15,1276.75Zm3.18-.32-.72.5a17.12,17.12,0,0,0-1.62-2.3l.72-.46A20,20,0,0,1,301.33,1276.42Z" transform="translate(-258.61 -1123.47)"/><path class="cls-1" d="M307.22,1275.28a20.08,20.08,0,0,1-3.72,1.1l-.11-.86a18.17,18.17,0,0,0,3.83-1.09Zm-1-9.07a21.09,21.09,0,0,1-1.72,3.68q.72-.11,1.44-.25c.22-.43.43-.87.65-1.34l.79.3a29.54,29.54,0,0,1-2.5,4.28,16.66,16.66,0,0,0,2.41-.71v.78a16.8,16.8,0,0,1-3.44.92l-.23-.8a1.79,1.79,0,0,0,.38-.25,13.34,13.34,0,0,0,1.54-2.4l-1.85.35-.22-.79a1,1,0,0,0,.37-.34,19.75,19.75,0,0,0,1.54-3.75Zm3.07,10.54-.22-.79,1.15,0a.41.41,0,0,0,.46-.47v-3.12h-2.54l-.19-.74a17.46,17.46,0,0,0,.78-1.57H307.5v-.78h1.56c.14-.42.29-.85.43-1.31h-2.42v-.8h2.66c.12-.43.23-.89.35-1.36l.84.16c-.11.42-.22.82-.32,1.2h3.49v.8h-3.73c-.14.46-.29.9-.43,1.31h1.61v2.33h2.55v.77h-2.55v3.38c0,.64-.35,1-1,1Zm.12-3.33a13.72,13.72,0,0,1-1.52,3l-.74-.42a12.14,12.14,0,0,0,1.51-2.89Zm-.5-1.78h1.77v-1.55h-1.08C309.39,1270.65,309.16,1271.17,308.92,1271.65Zm5.53,4.44-.73.32a20.36,20.36,0,0,0-1.32-3.06l.77-.25A20.92,20.92,0,0,1,314.45,1276.09Z" transform="translate(-258.61 -1123.47)"/><path class="cls-1" d="M319.71,1269.53c.13-.49.25-1,.37-1.49h-3v-.8h3.17c.11-.49.2-1,.3-1.45l.89.07c-.1.48-.18.95-.28,1.38h5.17v.8H321c-.12.53-.24,1-.36,1.49h6.42v.84h-6.64c-.17.56-.35,1.09-.52,1.58h5.71v.74a10.44,10.44,0,0,1-2.71,2.67c.72.26,1.42.56,2.07.88l-.48.75a30.66,30.66,0,0,0-5.56-2.1l.46-.67c.9.24,1.76.52,2.59.8a11.12,11.12,0,0,0,2.61-2.28h-5.92c.29-.77.56-1.56.82-2.39h-3.19v-.84Z" transform="translate(-258.61 -1123.47)"/><path class="cls-1" d="M333.58,1266v9.54h1.7V1266h.88v9.54h3.6v.84H329.13v-.84h3.57V1266Zm-1.74,7.74-.79.2a44.87,44.87,0,0,0-1.62-5.54l.73-.24A42.56,42.56,0,0,1,331.84,1273.72Zm7.59-5.34a27.68,27.68,0,0,1-1.81,5.48l-.78-.28a25.92,25.92,0,0,0,1.82-5.42Z" transform="translate(-258.61 -1123.47)"/><path class="cls-1" d="M342.58,1270.1l-.76-.48a11.94,11.94,0,0,0,1.72-3.79l.85.18c-.14.52-.3,1-.47,1.46h3.47v.83h-1.75a23.7,23.7,0,0,1-.14,2.39h2v.83h-2.12c-.06.31-.12.62-.19.91.77.78,1.56,1.67,2.35,2.65l-.52.79a29.69,29.69,0,0,0-2.06-2.65,7.13,7.13,0,0,1-2.64,3.38l-.56-.7a6.48,6.48,0,0,0,2.52-3.49c.07-.29.14-.59.2-.9H342v-.83h2.63a20.34,20.34,0,0,0,.16-2.39h-1.16A13,13,0,0,1,342.58,1270.1Zm9.56,6.21h-.84v-.77h-2.35v.79h-.83v-9.2h4Zm-.84-1.57v-6.8h-2.35v6.8Z" transform="translate(-258.61 -1123.47)"/><path class="cls-1" d="M357.1,1269.54v5.29c.38-.34.79-.73,1.24-1.18l.23.91a15.93,15.93,0,0,1-2.21,1.85l-.34-.77a.65.65,0,0,0,.25-.5v-4.77h-1.74v-.83Zm.88-1.73-.59.6a13,13,0,0,0-2-1.83l.6-.59A14.38,14.38,0,0,1,358,1267.81Zm3.31,5.47a15.93,15.93,0,0,1-2.12,3.65l-.76-.55a13.31,13.31,0,0,0,2.11-3.47Zm3.47-6.69v5.6h-5.52v-5.6Zm-.86.83H360.1v3.93h3.79Zm1.69,8.95-.74.52a27.58,27.58,0,0,0-2.13-3.56l.7-.44A28.22,28.22,0,0,1,365.58,1276.36Z" transform="translate(-258.61 -1123.47)"/><path class="cls-1" d="M371,1274.28v2.57h-.82v-6.27a15.1,15.1,0,0,1-2.31,2.31l-.56-.73a13.17,13.17,0,0,0,3.5-4.11h-3.18v-.84h3.57a13.34,13.34,0,0,0,.53-1.4l.88.11c-.14.44-.29.88-.46,1.3h6v.84h-6.32a14.07,14.07,0,0,1-.78,1.39h5.56v6.48c0,.59-.34.89-1,.91H374.2L374,1276c.46,0,.89,0,1.28,0s.47-.14.47-.43v-1.37Zm0-2.78h4.76v-1.31H371Zm0,.76v1.27h4.76v-1.27Z" transform="translate(-258.61 -1123.47)"/><path class="cls-1" d="M383.2,1269.17V1271h1.12v.78H383.2v1.63l1.46-.37v.82c-.47.13-1,.25-1.46.37v2.64h-.83v-2.46c-.71.14-1.45.26-2.22.37l-.11-.84c.82-.11,1.6-.23,2.33-.36v-1.8h-1.93l-.18-.76a17.61,17.61,0,0,0,.92-2.73h-1.1v-.84h1.31c.11-.5.22-1,.32-1.59l.8.13c-.1.52-.2,1-.31,1.46h2.11v.84H382a22.1,22.1,0,0,1-.86,2.71h1.24v-1.82Zm6.34,2a8.16,8.16,0,0,1-1.18,3.13,8.62,8.62,0,0,0,2.77,1.81l-.44.77a8.7,8.7,0,0,1-2.85-1.88,6.48,6.48,0,0,1-3.19,1.94l-.48-.75a6.09,6.09,0,0,0,3.09-1.85,6.82,6.82,0,0,1-1.3-3.11l.76-.23a5.77,5.77,0,0,0,1.06,2.63,7.68,7.68,0,0,0,.95-2.63ZM387,1269a14,14,0,0,1-1.8,3.11l-.68-.49a12.38,12.38,0,0,0,1.75-3Zm.38-1.63a11.91,11.91,0,0,0-.62-1.42l.86-.14a13.18,13.18,0,0,1,.61,1.56h2.66v.84h-6.1v-.84Zm3.67,4.16-.7.49a25.85,25.85,0,0,0-1.92-3l.66-.42A26.81,26.81,0,0,1,391,1271.58Z" transform="translate(-258.61 -1123.47)"/><path class="cls-1" d="M394,1271.76h2.55a26,26,0,0,1-.19,3.93c-.14.68-.74,1-1.79,1.09-.31,0-.61,0-.92,0l-.2-.79c.31,0,.62,0,.94,0,.67,0,1.07-.23,1.18-.66a16.66,16.66,0,0,0,.16-2.82h-2.59l.37-3.48h2.12v-1.88h-2.39v-.8h3.2v3.47h-2.19Zm5.89-1.39v-1h-2.11v-3h5.1v3h-2.12v1h2.53v3.24h-2.53v1.82l1.61-.23c-.14-.36-.3-.72-.46-1.08l.78-.22a21.34,21.34,0,0,1,1,2.71l-.76.29c-.1-.32-.2-.64-.31-.95-1.7.26-3.53.48-5.44.67l-.2-.83c1-.07,2-.17,2.89-.26v-1.93h-2.54v-3.24Zm0,.74h-1.76v1.75h1.76Zm2.19-4h-3.5v1.55h3.5Zm.41,4h-1.74v1.75h1.74Z" transform="translate(-258.61 -1123.47)"/><path class="cls-1" d="M410,1276.12h-.84v-.68h-2.18v1h-.84v-8.53h1.12a11,11,0,0,0,.52-2.09l.86.12a11.46,11.46,0,0,1-.56,2H410Zm-.84-4.89v-2.47h-2.18v2.47Zm0,3.41V1272h-2.18v2.63Zm6.86.71a1.48,1.48,0,0,1-1.68,1.38l-1.22,0-.2-.79c.5,0,.94,0,1.31,0a.93.93,0,0,0,1-.92c.07-.67.12-2.75.14-6.2H412a10.08,10.08,0,0,1-1.2,2.05l-.52-.68a10.6,10.6,0,0,0,1.71-4.32l.85.11a15.63,15.63,0,0,1-.53,2h3.83C416.16,1271.94,416.1,1274.41,416,1275.34Zm-2-2-.68.48a23.48,23.48,0,0,0-2-2.66l.7-.43A20.24,20.24,0,0,1,414,1273.34Z" transform="translate(-258.61 -1123.47)"/><path class="cls-1" d="M423.77,1269.95v.84H421a27,27,0,0,1-1.26,3.91,18.76,18.76,0,0,0,2.83-.82c-.31-.65-.61-1.24-.92-1.79l.73-.36a32.28,32.28,0,0,1,1.62,3.36l-.74.38c-.12-.31-.24-.6-.36-.88a25.61,25.61,0,0,1-4.15,1.08l-.2-.82.19-.07a16,16,0,0,0,1.44-4H418.5v-.84Zm-.46-3.24v.83H419v-.83Zm3.12-.8v2.18h2.63q0,5.92-.17,7.32a1.45,1.45,0,0,1-1.63,1.34l-1.1,0-.19-.77c.46,0,.85,0,1.19,0,.52,0,.82-.31.9-.92s.13-2.72.16-6.15h-1.77v.22q0,5.32-2.52,7.78l-.68-.6q2.29-2.23,2.33-7.18v-.22h-1.49v-.83h1.49v-2.18Z" transform="translate(-258.61 -1123.47)"/><path class="cls-1" d="M441.12,1266.71a24.47,24.47,0,0,1-3.79.66v2h3.83v.84h-3.83v2h4.73v.83h-4.73v2.65a1,1,0,0,1-1.13,1.09h-1.86l-.19-.84c.61,0,1.2,0,1.75,0,.36,0,.55-.18.55-.52V1273h-5.16v-.83h5.16v-2h-4.16v-.84h4.16v-2c-1.27.1-2.65.16-4.14.16l-.26-.78a37.66,37.66,0,0,0,8.65-.84Z" transform="translate(-258.61 -1123.47)"/><path class="cls-1" d="M271.12,1283.65l-.71.5q-.2-.4-.43-.79a45.79,45.79,0,0,1-4.59.44l-.24-.72a1.07,1.07,0,0,0,.4-.23,10.42,10.42,0,0,0,1.85-2.59l.82.25a8.87,8.87,0,0,1-1.82,2.52c1-.06,2.07-.16,3.2-.3-.25-.38-.53-.79-.82-1.2l.67-.42A23.38,23.38,0,0,1,271.12,1283.65Zm-4.41,7.64h-.83v-6.78h4.43v5.64c0,.7-.34,1.05-1,1.05h-1l-.22-.82.9,0a.41.41,0,0,0,.46-.46v-1H266.7Zm2.77-6H266.7v1.16h2.77Zm-2.77,3h2.77v-1.12H266.7Zm5.83-2.76c-.73,0-1.09-.4-1.09-1.18v-4h.85v1.56a32.51,32.51,0,0,0,3.21-.64l.28.76c-1,.25-2.17.48-3.49.67v1.5c0,.38.16.58.48.58h1.57a.62.62,0,0,0,.5-.19,3.39,3.39,0,0,0,.24-1.36l.8.25a3.4,3.4,0,0,1-.46,1.8,1.32,1.32,0,0,1-.92.28Zm-.24,4.43c0,.24.14.37.46.37h1.63a.68.68,0,0,0,.52-.17,3,3,0,0,0,.26-1.34l.78.24a3.11,3.11,0,0,1-.46,1.77,1.34,1.34,0,0,1-.94.28h-2c-.72,0-1.07-.32-1.07-1V1286h.85v1.47a16.83,16.83,0,0,0,3.21-.61l.28.77a18.21,18.21,0,0,1-3.49.62Z" transform="translate(-258.61 -1123.47)"/><path class="cls-1" d="M283.22,1280.3v1.1c0,.41,0,.79,0,1.16h4.61c0,2.1-.12,3.8-.24,5.11a7.44,7.44,0,0,1-.61,2.7,1.56,1.56,0,0,1-1.33.8H284l-.24-.84c.5,0,1,0,1.43,0,.66,0,1.09-.43,1.31-1.28a34.66,34.66,0,0,0,.42-5.7h-3.78a14.14,14.14,0,0,1-1,4.4,7.5,7.5,0,0,1-3.47,3.45l-.47-.76a7.11,7.11,0,0,0,3.27-3.37,13.54,13.54,0,0,0,.82-3.73h-3.5v-.83h3.56c0-.38,0-.78,0-1.16v-1.1Z" transform="translate(-258.61 -1123.47)"/><path class="cls-1" d="M293.16,1289.82a2.45,2.45,0,0,1-1.36,2.29l-.32-.52a2,2,0,0,0,1-1.55l-.19,0a.79.79,0,0,1-.53-.19.75.75,0,0,1,0-1,.73.73,0,0,1,.53-.19C292.87,1288.65,293.16,1289,293.16,1289.82Z" transform="translate(-258.61 -1123.47)"/><path class="cls-1" d="M303.59,1286.52v-.79H314.2v.79h-4.74v1.35h3.45v.77h-3.45v1.6c.58,0,1.27.08,2.06.08,1,0,1.91,0,2.61,0l-.24.82-2.31,0a11.89,11.89,0,0,1-4-.46,3.84,3.84,0,0,1-1.64-1.6,7.06,7.06,0,0,1-1.79,2.21l-.56-.71a6.63,6.63,0,0,0,2.25-3.59l.82.14a11.89,11.89,0,0,1-.41,1.26,3.5,3.5,0,0,0,1.7,1.6,6.1,6.1,0,0,0,.66.17v-3.59Zm9-5.84v4.16h-7.29v-4.16Zm-.85,1.74v-1h-5.59v1Zm0,.71h-5.59v1h5.59Z" transform="translate(-258.61 -1123.47)"/><path class="cls-1" d="M327.05,1285.23v.86H316.27v-.86Z" transform="translate(-258.61 -1123.47)"/><path class="cls-1" d="M334.83,1280.28a12.57,12.57,0,0,0,5.18,4.37l-.52.78a12.82,12.82,0,0,1-5-4.34,13.57,13.57,0,0,1-5,4.39l-.52-.78a13.39,13.39,0,0,0,5.18-4.41Zm.06,3.54v7.44H334v-7.44Z" transform="translate(-258.61 -1123.47)"/><path class="cls-1" d="M344.52,1291.22h-.88v-6.12a13.61,13.61,0,0,1-1.57,3.31l-.37-.95a11.28,11.28,0,0,0,1.88-4H341.9v-.83h1.75v-2.34h.88v2.34H346v.83h-1.44v.79c.53.59,1.07,1.25,1.62,2l-.52.76c-.43-.72-.79-1.31-1.1-1.76Zm1.16-9.63v-.83h5.63v.55c-.24,1.07-.47,2-.71,2.76h1.56v.48a9.19,9.19,0,0,1-1.64,4.16,11.68,11.68,0,0,0,2.21,1.78l-.55.73a11.2,11.2,0,0,1-2.21-1.85,8.82,8.82,0,0,1-2.63,1.87l-.48-.79a8.69,8.69,0,0,0,2.52-1.8,10.62,10.62,0,0,1-1.63-3.23,10.82,10.82,0,0,1-2.12,5.76l-.66-.58c1.37-1.63,2.06-4.26,2.09-7.86v-1.16Zm5.61,3.24h-1.73q.36-1.1.83-3.24H347.9v1.16c0,.17,0,.32,0,.48a10.12,10.12,0,0,0,2,4.79A7.78,7.78,0,0,0,351.3,1284.83Z" transform="translate(-258.61 -1123.47)"/><path class="cls-1" d="M363.6,1288.08h1.73v.8H361.7a18,18,0,0,1,3.37,1.64l-.48.73a16.82,16.82,0,0,0-3.45-1.78l.41-.6h-3.36l.62.54a13.52,13.52,0,0,1-3.37,1.86l-.53-.68a14,14,0,0,0,3.25-1.71h-3.49v-.8h1.73v-7.34h7.2Zm-.88-5.43v-1.09h-5.44v1.09Zm0,1.8v-1.12h-5.44v1.12Zm0,1.81v-1.1h-5.44v1.1Zm0,1.82v-1.13h-5.44v1.13Z" transform="translate(-258.61 -1123.47)"/><path class="cls-1" d="M369.12,1280.62l.85.14-.68,2.36h2.1a26.62,26.62,0,0,0,.58-2.94l.88.11c-.16,1-.35,1.94-.56,2.83h5.61v.83H372c-.14.48-.29.94-.46,1.37h4.91v.74a6.11,6.11,0,0,1-2,2.81,19.46,19.46,0,0,0,3.55,1.58l-.44.8a19,19,0,0,1-3.81-1.83,17,17,0,0,1-3.66,1.88l-.46-.8a16.57,16.57,0,0,0,3.36-1.62,6.5,6.5,0,0,1-2-2.34,12.41,12.41,0,0,1-3.37,4.51l-.44-.79a13.53,13.53,0,0,0,3.87-6.31h-3Zm4.67,7.76a5.69,5.69,0,0,0,1.84-2.27h-3.89A6.43,6.43,0,0,0,373.78,1288.38Zm3.21-6.12-.61.61a13.32,13.32,0,0,0-2.11-2l.58-.56A14.57,14.57,0,0,1,377,1282.26Z" transform="translate(-258.61 -1123.47)"/><path class="cls-1" d="M380.67,1291.27l-.7-.62a12.41,12.41,0,0,0,1.25-5.85v-4.05h8.9v2.88h-1.67v1.21h1.88v.77h-1.88v1.25h2.28v.79h-3.85a5.6,5.6,0,0,0,1.16,1.43,5,5,0,0,0,1.55-1.36l.6.59a5.25,5.25,0,0,1-1.48,1.27,7.12,7.12,0,0,0,2.4.95l-.42.82a6.69,6.69,0,0,1-4.68-3.69h-1.63v2.63a12.58,12.58,0,0,0,2-.67l.17.79a22.17,22.17,0,0,1-3.24.88l-.24-.76a.6.6,0,0,0,.43-.6v-2.27h-1.68A12.93,12.93,0,0,1,380.67,1291.27Zm3.69-6.44v-1.21H382.1v1.18a18.54,18.54,0,0,1-.12,2.05h2.39v-1.25h-1.75v-.77Zm-2.27-3.3v1.31h7.16v-1.31Zm3.09,2.09v1.21h2.42v-1.21Zm2.42,3.23v-1.25H385.2v1.25Z" transform="translate(-258.61 -1123.47)"/><path class="cls-1" d="M395.42,1285.07l-.61.62a11.69,11.69,0,0,0-1.86-1.79l.61-.6A13.32,13.32,0,0,1,395.42,1285.07Zm0,1.86q-.68,2.21-1.51,4.17l-.79-.35a35.54,35.54,0,0,0,1.55-4.13Zm.13-4.91-.61.62a11.72,11.72,0,0,0-1.74-1.63l.61-.59A12,12,0,0,1,395.6,1282Zm1.71-.87v-.9h.78v.9h1.18v.75h-1.18v.13c0,.29,0,.56,0,.82h1.39v.77h-1.51l-.07.31a15.67,15.67,0,0,1,1.43,1.09l-.44.66c-.48-.48-.88-.86-1.2-1.13a2.72,2.72,0,0,1-.12.28,3.51,3.51,0,0,1-1.71,1.51l-.43-.68a3.07,3.07,0,0,0,1.51-1.36,5.63,5.63,0,0,0,.24-.68h-1.37v-.77h1.51c0-.26,0-.54,0-.82v-.13H396v-.75Zm5.42,10.12h-.86v-.5h-4.15v.5h-.86v-5h5.88Zm-.86-3.11V1287h-4.15v1.16Zm0,1.85v-1.12h-4.15V1290Zm-.42-5.37a3.52,3.52,0,0,1-1.68,1.44l-.44-.68a3,3,0,0,0,1.49-1.26,3.84,3.84,0,0,0,.19-.52h-1.18v-.77h1.34c0-.28,0-.56.06-.86v-.08H400v-.75h1.26v-.89H402v.89h1.32v.75H402v.08c0,.31,0,.6-.06.86h1.58v.77h-1.42a5.55,5.55,0,0,0,1.82,1.94l-.52.64a6.93,6.93,0,0,1-1.79-2A4.79,4.79,0,0,1,401.45,1284.63Z" transform="translate(-258.61 -1123.47)"/><path class="cls-1" d="M411,1280.3v1.1c0,.41,0,.79,0,1.16h4.61c0,2.1-.12,3.8-.24,5.11a7.43,7.43,0,0,1-.61,2.7,1.56,1.56,0,0,1-1.33.8h-1.62l-.24-.84c.5,0,1,0,1.43,0,.66,0,1.09-.43,1.31-1.28a34.66,34.66,0,0,0,.42-5.7H410.9a14.14,14.14,0,0,1-1,4.4,7.5,7.5,0,0,1-3.47,3.45l-.47-.76a7.11,7.11,0,0,0,3.27-3.37,13.55,13.55,0,0,0,.82-3.73h-3.5v-.83h3.56c0-.38,0-.78,0-1.16v-1.1Z" transform="translate(-258.61 -1123.47)"/><path class="cls-1" d="M422.74,1290.52h-.84v-.68h-2.18v1h-.84v-8.53H420a11,11,0,0,0,.52-2.09l.86.12a11.49,11.49,0,0,1-.56,2h1.93Zm-.84-4.89v-2.47h-2.18v2.47Zm0,3.41v-2.63h-2.18V1289Zm6.86.71a1.48,1.48,0,0,1-1.68,1.38l-1.22,0-.2-.79c.5,0,.94,0,1.31,0a.93.93,0,0,0,1-.92c.07-.67.12-2.75.14-6.2h-3.3a10.14,10.14,0,0,1-1.2,2.05l-.52-.68a10.61,10.61,0,0,0,1.71-4.32l.85.11a15.68,15.68,0,0,1-.53,2h3.83C428.94,1286.34,428.88,1288.81,428.76,1289.74Zm-2-2-.68.48a23.62,23.62,0,0,0-2-2.66l.7-.43A20.24,20.24,0,0,1,426.79,1287.74Z" transform="translate(-258.61 -1123.47)"/><path class="cls-1" d="M433.43,1282.74h7.05v3.79h-4.75a7.85,7.85,0,0,1-.6.82h5.37v.62a7,7,0,0,1-2.37,1.89,15.73,15.73,0,0,0,3.86.58l-.2.79a15,15,0,0,1-4.69-.91,17.81,17.81,0,0,1-5.13,1l-.35-.76a18.86,18.86,0,0,0,4.46-.65,9.9,9.9,0,0,1-2.19-1.44,11.74,11.74,0,0,1-1.68.95l-.44-.73a6.86,6.86,0,0,0,3-2.12h-1.54v-3.59a9,9,0,0,1-1.39,1.29l-.52-.67a7,7,0,0,0,2.52-3.41l.85.14c-.1.29-.2.58-.32.85h7v.76H434Q433.73,1282.34,433.43,1282.74Zm6.21,1.56v-.87h-5.53v.88Zm0,.65h-5.53v.89h5.53Zm-.2,3.11h-4.93a10.39,10.39,0,0,0,2.6,1.47A7.05,7.05,0,0,0,439.44,1288.05Z" transform="translate(-258.61 -1123.47)"/><path class="cls-1" d="M270.87,1294.66a17.21,17.21,0,0,0,5.28,4.16l-.47.83a17,17,0,0,1-5.12-4.21,17.47,17.47,0,0,1-5.17,4.23l-.46-.83a17.7,17.7,0,0,0,5.31-4.19Zm3.48,11h-.84v-.72h-5.9v.72h-.84v-4.83h7.58Zm-.67-7.18v.83h-6.24v-.83Zm-.17,5.64v-2.47h-5.9v2.47Z" transform="translate(-258.61 -1123.47)"/><path class="cls-1" d="M282.17,1302.38v-1H283v1h4.13v.79H283v1.4h4.79v.79H277.29v-.79h4.88v-1.4H278v-.79Zm1.14-7.17v.77H282.1v1.8h1.48v.79H282.1v2.64h-.84v-2.64h-1.57a3.88,3.88,0,0,1-1.38,2.78l-.65-.56a3.09,3.09,0,0,0,1.19-2.22h-1.49v-.79h1.54V1296h-1.22v-.77Zm-3.59,2.57h1.54V1296h-1.54Zm5.39-2.29v4.13h-.83v-4.13Zm-.4,5.83-.18-.82c.53,0,1,.06,1.5.06.28,0,.42-.19.42-.55v-5.18h.83v5.38c0,.73-.32,1.1-1,1.1Z" transform="translate(-258.61 -1123.47)"/><path class="cls-1" d="M294.9,1297.36a11,11,0,0,0,5.21,7.47l-.56.76a11.8,11.8,0,0,1-5-6.48,11.24,11.24,0,0,1-5.09,6.49l-.53-.77q4.95-3,5.11-8.23c0-.82,0-1.45,0-1.91H295C295,1295.72,294.95,1296.61,294.9,1297.36Z" transform="translate(-258.61 -1123.47)"/><path class="cls-1" d="M305.71,1305.57l-.19-.84c.62,0,1.21,0,1.77,0,.34,0,.52-.2.52-.6v-6.48h-.4a13.65,13.65,0,0,1-5.94,6.17l-.46-.73a12.94,12.94,0,0,0,5.53-5.43h-5.32v-.83h6.58v-2.2h.88v2.2h3v.83h-3v6.69c0,.78-.37,1.18-1.09,1.18Z" transform="translate(-258.61 -1123.47)"/><path class="cls-1" d="M316.66,1303.2a1.49,1.49,0,0,1,0,2.15,1.56,1.56,0,0,1-1.1.43,1.58,1.58,0,0,1-1.1-.42,1.51,1.51,0,0,1,0-2.16,1.54,1.54,0,0,1,1.1-.43A1.56,1.56,0,0,1,316.66,1303.2Zm-1.74.46a.83.83,0,0,0,0,1.24.88.88,0,0,0,.64.26.92.92,0,0,0,.64-.26.83.83,0,0,0,0-1.24.87.87,0,0,0-.64-.26A.83.83,0,0,0,314.92,1303.65Z" transform="translate(-258.61 -1123.47)"/><path class="cls-1" d="M283,1133.15v2.5h-6.86v4.51h6.56v2.5h-6.56V1148h7.34v2.5H265.63V1148h7.21v-5.33h-6.43v-2.5h6.43v-4.51h-6.72v-2.5Z" transform="translate(-258.61 -1123.47)"/><path class="cls-1" d="M285.26,1133.6h2v14h.7v-14.92h2v14.92h.25q.37,0,.37-.45V1133.6h2.05v14q0,2.5-2.05,2.5h-5.29Zm10.45-1h2.91l-.47.57h5.55v2.25l-3.11,2.34.74.35a4.42,4.42,0,0,0,1.8.35h.7v2.13h-2.34a2.78,2.78,0,0,1-1.45-.37l-1.52-.88-1.33,1a1.26,1.26,0,0,1-.86.27h-3.5v-2.13h2.42a.69.69,0,0,0,.39-.12l.53-.35-3.5-2h4.06l1.45.68,2.07-1.39h-3.95a3,3,0,0,1-1.46.33h-1.8v-1.9h.7a1.37,1.37,0,0,0,.94-.25Zm7.83,9v2.09h-3.93v1h3.93v2.09h-3.93v.94h4.22v2.21h-4.22v1.07h-2.79v-1.07h-4.06v-2.21h4.06v-.94H293v-2.09h3.85v-1H293v-2.09h3.85v-.94h2.79v.94Z" transform="translate(-258.61 -1123.47)"/><path class="cls-1" d="M276.42,1161.32l-4.11,5.47h-.47l-4-5.49v9.16h-2.38v-12.6h2.74l3.94,5.42,3.94-5.42h2.72v12.6h-2.38Z" transform="translate(-258.61 -1123.47)"/><path class="cls-1" d="M288.09,1161.57h2.11v8.88h-2.07l-.11-1.3a3.37,3.37,0,0,1-2.88,1.57c-2.63,0-4.57-1.6-4.57-4.72a4.32,4.32,0,0,1,4.63-4.65,3.26,3.26,0,0,1,2.83,1.44Zm-5.33,4.43a2.54,2.54,0,0,0,2.63,2.7c3.46,0,3.46-5.38,0-5.38A2.53,2.53,0,0,0,282.76,1166Z" transform="translate(-258.61 -1123.47)"/><path class="cls-1" d="M294.08,1161.57l.16,1a2.62,2.62,0,0,1,2.5-1.26,3.37,3.37,0,0,1,2.29.85l-1,1.91a2.19,2.19,0,0,0-1.58-.58,2,2,0,0,0-2.21,2.25v4.68H292v-8.88Z" transform="translate(-258.61 -1123.47)"/><path class="cls-1" d="M302,1157.87v7.27l3-3.57h2.63v.13l-3.62,4.05,4.12,4.54v.16h-2.65l-3.48-4v4h-2.2v-12.59Z" transform="translate(-258.61 -1123.47)"/><path class="cls-1" d="M326.54,1170.45h-2l-1.57-4-1.33-4-1.31,4-1.53,3.92h-2l-4.63-12.6h2.67l3,9.09,3.06-9.09h1.55l3.15,9.09,2.88-9.09h2.67Z" transform="translate(-258.61 -1123.47)"/><path class="cls-1" d="M337.91,1161.57H340v8.88h-2.07l-.11-1.3a3.37,3.37,0,0,1-2.88,1.57c-2.63,0-4.57-1.6-4.57-4.72a4.32,4.32,0,0,1,4.63-4.65,3.26,3.26,0,0,1,2.83,1.44Zm-5.33,4.43a2.54,2.54,0,0,0,2.63,2.7c3.46,0,3.46-5.38,0-5.38A2.53,2.53,0,0,0,332.58,1166Z" transform="translate(-258.61 -1123.47)"/><path class="cls-1" d="M348.4,1170.45v-4.65a2.12,2.12,0,0,0-2.14-2.38,2.34,2.34,0,0,0-2.27,2.49v4.54h-2.18v-8.89h2l.14,1.21a4,4,0,0,1,2.92-1.33c2.09,0,3.76,1.57,3.76,4.36v4.66Z" transform="translate(-258.61 -1123.47)"/><path class="cls-1" d="M359.46,1160.67l1.62,1.22-1,1.26a3.78,3.78,0,0,1,.94,2.63,3.52,3.52,0,0,1-1.87,3.31A3,3,0,0,1,361,1172c0,2.45-1.87,4-4.45,4s-4.5-1.57-4.5-4h2.18a2.1,2.1,0,0,0,2.32,1.91c1.26,0,2.25-.68,2.25-1.91s-1.15-1.78-2.25-1.78a4.15,4.15,0,0,1-4.5-4.46,4.33,4.33,0,0,1,4.5-4.5,3.54,3.54,0,0,1,2,.5Zm-5.24,5.11a2.32,2.32,0,1,0,4.63,0,2.32,2.32,0,1,0-4.63,0Z" transform="translate(-258.61 -1123.47)"/><path class="cls-1" d="M271.24,1177.48h3L275,1179h6.66V1181h-6.75v1.74h6.17v9.07q0,1.27-1.48,1.27H276.3V1191h1.88q.37,0,.37-.33v-5.84h-3.66v9h-2.62v-9h-3.66V1193h-2.53v-10.28h6.19V1181h-6.61V1179H272Z" transform="translate(-258.61 -1123.47)"/><path class="cls-1" d="M289.24,1179.39v2.25h-1.48V1191h1.55v2.25h-5.85V1191h1.85v-9.33h-1.78v-2.25h1.78v-1.85h2.46v1.85Zm1.88,6.61h2.34l-.93,5.52q-.35,1.92-1.74,1.92H289.5v-2H290q.28,0,.47-.91Zm-1.25-8.31h9.47V1180l-4.2,2.87h4.5v9.16q0,1.62-2.18,1.62H296v-2.11h.77q.4,0,.4-.28V1185h-5.89v-2.11l4.2-3h-5.61Zm4.69,8.31h2.32l-.93,5.57q-.37,2-1.81,2h-1.48v-2h.7q.32,0,.51-.93Z" transform="translate(-258.61 -1123.47)"/><path class="cls-1" d="M303,1187h2.39l-.86,4.89q-.33,1.72-1.67,1.72h-1.48v-2.11h.7q.23,0,.39-.76Zm1.34-9.58H307l.33,1.76h4.41l.3-1.76h2.62l-.32,1.76h2.34v5.36q0,1.62-1.69,1.62H302.37v-7h2.34Zm9.51,6.56q.54,0,.54-.51v-2.11h-9.77V1184Zm-8,2.65h2.32v4.66q0,.33.44.33h5.61v2.13h-7q-1.35,0-1.35-1.28Zm3.6.44h2.11v1.6q0,.37.33.37h1.28v2h-2.48q-1.25,0-1.25-1.11Zm4.2-.07H316l.56,3.83q.11.74.35.74h.84v2H316q-1.09,0-1.41-1.6Z" transform="translate(-258.61 -1123.47)"/><path class="cls-1" d="M334.64,1186.14v5.34h.93v2h-16v-2h1v-5.34Zm-14.34-8h2.32v6.63H320.3Zm2.69,13.31h1.41v-3.23H323Zm.7-14h2.37v7.82h-2.37Zm4.76,0h2.62l-.47,1.07h5v2h-5.84l-.09.19a1.57,1.57,0,0,1-1.53,1.09h-1.41v-1.92h.4a.68.68,0,0,0,.65-.54Zm-1.67,14h1.48v-3.23h-1.48Zm2.18-9.65h2.74l.26.76a.8.8,0,0,0,.79.53h2.18v2h-3.23a2.14,2.14,0,0,1-2.09-1.55Zm1.67,9.65h1.55v-3.23h-1.55Z" transform="translate(-258.61 -1123.47)"/></svg>