<svg id="图层_1" data-name="图层 1" xmlns="http://www.w3.org/2000/svg" viewBox="0 0 174.38 54.84"><defs><style>.cls-1{fill:#fff;}</style></defs><path class="cls-1" d="M3497,3024.28l.47-6.09a22.77,22.77,0,0,1,9.84,5.16q.47-1.87,1.17-4h8.2a43.55,43.55,0,0,1-4.45,11,20,20,0,0,1,.94,6.33v26.48q.23,8.9-8.2,8.44h-6.56v-6.09h2.81q2.81.24,2.58-3.28v-8.44a28.9,28.9,0,0,1-6.8,2.11v-5.62a32.43,32.43,0,0,0,6.8-4.69v-7.5a39.89,39.89,0,0,1-6.8,3v-5.39a26.34,26.34,0,0,0,5.86-4.92A12.6,12.6,0,0,0,3497,3024.28Zm53.67,41.48v5.63q-11.25-3-15.94-7.73v3.75q-5.62,3.28-15.47,5.39v-10.08a25.2,25.2,0,0,1-3,1.17l-2.11.7v-5.86q6.56-2.81,9.38-6.56h-6.33v-14.77h30.94v7.27q.23,7.73-7.5,7.5h-7a7.81,7.81,0,0,1-.94,1.17h4.92a15.92,15.92,0,0,0,2.11,4.69,8.59,8.59,0,0,0,2.81-4.69h7.73q-1.64,6.56-6.09,8.91A59.53,59.53,0,0,0,3550.66,3065.77Zm-34-38.91V3021h11v-2.58h9.38V3021h11v5.86h-11v2.81h13.83v6.09h-36.56v-6.09h13.36v-2.81Zm9.14,16.17v3.52h11q2.81.24,2.58-2.81v-.7Zm2.11,21.09a48.21,48.21,0,0,0,5.63-1.64,39.5,39.5,0,0,1-3.75-6.09,6.45,6.45,0,0,1-1.87,1.64Z" transform="translate(-3496.99 -3017.95)"/><path class="cls-1" d="M3557,3040.69v-5.86q7.5-4.45,8.67-15.47h10.55q-.7,3-1.41,5.63h5.63v-6.8h11.25v6.8h17.11v6.8h-17.11v11.72h15.23v7h-15.23v13.36h19.45v6.56h-52.5v-6.56h21.8v-13.36h-17.58v-7h17.58v-11.72h-8.91Q3567.07,3038.35,3557,3040.69Z" transform="translate(-3496.99 -3017.95)"/><path class="cls-1" d="M3620,3051h8a82.39,82.39,0,0,1-3.52,17.34h-8.67A70.27,70.27,0,0,0,3620,3051Zm-1.64-20.16V3024h19.92V3018h11.25V3024h20.16v6.8H3651q3,7.73,19.92,12.66v6.09q-18.75-2.34-26.48-11.72a4,4,0,0,0-1.17,1.17,13.61,13.61,0,0,0-1.41,1.17h2.58a35.92,35.92,0,0,1,3,8.67h-9.14a7.06,7.06,0,0,1-.47-1.64,21.88,21.88,0,0,0-.94-3.52q-7.27,4.22-19.92,5.86v-6.09q16.64-4.69,19.92-12.66Zm11.25,20.16h9.61v10.55q-.24,3.75,3.28,3.52h7q2.58.24,2.34-2.11v-1.17h8v2.58q.23,7-7.5,6.8h-14.77q-7.73,0-8-7.73Zm22.73,0a50.28,50.28,0,0,1,3,9.38h-8.91v-.47a48.67,48.67,0,0,0-2.58-8.91Zm14.3,0a80.21,80.21,0,0,1,4.69,17.34h-9.14a87.52,87.52,0,0,0-3.75-17.34Z" transform="translate(-3496.99 -3017.95)"/></svg>