<svg id="图层_1" data-name="图层 1" xmlns="http://www.w3.org/2000/svg" viewBox="0 0 72 72"><defs><style>.cls-1{fill:#ffecb3;}.cls-2{fill:#ffc107;}.cls-3{fill:#e0e0e0;}.cls-4{fill:#969696;}.cls-5{fill:#bbdefb;}.cls-6{fill:#d1d1d1;}.cls-7{fill:#64b5f6;}.cls-8{fill:#f4d0a1;}.cls-9{fill:#03a9f4;}.cls-10{fill:#212121;}</style></defs><path class="cls-1" d="M-46.25,1064a4.32,4.32,0,0,1,4.32-4.32h31.68l18,15.12v52.56a4.32,4.32,0,0,1-4.32,4.32H-41.93a4.32,4.32,0,0,1-4.32-4.32Z" transform="translate(46.25 -1059.71)"/><path class="cls-2" d="M-10.25,1059.71v10.8a4.32,4.32,0,0,0,4.32,4.32H7.75Z" transform="translate(46.25 -1059.71)"/><rect class="cls-3" x="31.5" y="45" width="13.5" height="7.88" rx="1.13" ry="1.13"/><path class="cls-4" d="M-2.37,1114.84H-13.62a3.38,3.38,0,0,1-3.38-3.38v-5.63a3.38,3.38,0,0,1,3.38-3.38H-2.37A3.38,3.38,0,0,1,1,1105.84v5.63A3.38,3.38,0,0,1-2.37,1114.84Zm-11.25-10.13a1.13,1.13,0,0,0-1.13,1.13v5.63a1.13,1.13,0,0,0,1.13,1.13H-2.37a1.13,1.13,0,0,0,1.13-1.13v-5.63a1.13,1.13,0,0,0-1.13-1.13Z" transform="translate(46.25 -1059.71)"/><rect class="cls-3" x="6.75" y="45" width="13.5" height="7.88" rx="1.13" ry="1.13"/><path class="cls-4" d="M-27.12,1114.84H-38.37a3.38,3.38,0,0,1-3.38-3.38v-5.63a3.38,3.38,0,0,1,3.38-3.38h11.25a3.38,3.38,0,0,1,3.38,3.38v5.63A3.38,3.38,0,0,1-27.12,1114.84Zm-11.25-10.13a1.13,1.13,0,0,0-1.13,1.13v5.63a1.13,1.13,0,0,0,1.13,1.13h11.25a1.13,1.13,0,0,0,1.13-1.13v-5.63a1.13,1.13,0,0,0-1.13-1.13Z" transform="translate(46.25 -1059.71)"/><rect class="cls-5" x="19.13" y="22.5" width="13.5" height="7.88" rx="1.13" ry="1.13"/><polygon class="cls-6" points="30.68 32.63 28.14 32.63 33.44 42.75 35.98 42.75 30.68 32.63"/><polygon class="cls-6" points="21.07 32.63 15.77 42.75 18.31 42.75 23.61 32.63 21.07 32.63"/><path class="cls-7" d="M-14.75,1092.34H-26a3.38,3.38,0,0,1-3.38-3.38v-5.63A3.38,3.38,0,0,1-26,1080h11.25a3.38,3.38,0,0,1,3.38,3.38V1089A3.38,3.38,0,0,1-14.75,1092.34ZM-26,1082.21a1.13,1.13,0,0,0-1.13,1.13V1089a1.13,1.13,0,0,0,1.13,1.13h11.25a1.13,1.13,0,0,0,1.13-1.13v-5.63a1.13,1.13,0,0,0-1.13-1.13Z" transform="translate(46.25 -1059.71)"/><path class="cls-8" d="M22.54,1098.52l-23.85,27-6.61,1.36a4.5,4.5,0,0,0-1.43-2.46,4.5,4.5,0,0,0-2.62-1.11l.54-6.73,23.85-27Z" transform="translate(46.25 -1059.71)"/><path class="cls-9" d="M22.51,1098.5a0,0,0,0,1,0,.06L-.8,1124.91a0,0,0,0,1-.07-.05,3.37,3.37,0,0,0-.74-4.13,3.37,3.37,0,0,0-4.39-.07,0,0,0,0,1-.06-.05,3.37,3.37,0,0,0-.6-4.35,3.37,3.37,0,0,0-4.23-.2s-.09,0-.05-.05l23.35-26.39a0,0,0,0,1,.06,0Z" transform="translate(46.25 -1059.71)"/><rect class="cls-2" x="17.11" y="1086.46" width="2.25" height="13.5" transform="translate(-766.42 -677.17) rotate(-48.5)"/><path class="cls-2" d="M23.5,1087.36l-.1-.09a6.68,6.68,0,0,0-9.43.58l0,.05L24,1096.84l0-.05A6.68,6.68,0,0,0,23.5,1087.36Z" transform="translate(46.25 -1059.71)"/><path class="cls-10" d="M-7.92,1126.85l-4.41.91.36-4.49a4.5,4.5,0,0,1,2.62,1.11A4.5,4.5,0,0,1-7.92,1126.85Z" transform="translate(46.25 -1059.71)"/></svg>