<svg id="图层_1" data-name="图层 1" xmlns="http://www.w3.org/2000/svg" viewBox="0 0 248.33 25.76"><defs><style>.cls-1{fill:#fff;}</style></defs><path class="cls-1" d="M3440.07,3100.14a14.92,14.92,0,0,1,.87,4.68,8.63,8.63,0,0,1-.84,4.48q-.84,1.34-4.2,1.34h-1l-.31-.81h1.2c1.79-.06,2.94-.34,3.42-.9s.81-2,.81-4.12a15.59,15.59,0,0,0-.25-2.38,35.92,35.92,0,0,1-13,6.52l-.48-.84q8.65-2.56,13.24-6.66a12.06,12.06,0,0,0-1.18-2.83c-2.69,2.24-6.44,4-11.26,5.43l-.48-.84c4.9-1.37,8.65-3.14,11.28-5.32a13.48,13.48,0,0,0-1.65-2.07q-.63.34-1.18.59a47.2,47.2,0,0,1-7.48,2.58l-.53-.78a41.92,41.92,0,0,0,7.34-2.38,30.61,30.61,0,0,0,4.17-2.27h-9v-.92h17v.92h-6.64c-1,.7-2,1.32-2.94,1.88a12.29,12.29,0,0,1,2.8,3.95,25.7,25.7,0,0,0,8-3.67l.67.64a26.92,26.92,0,0,1-5,2.69,18.57,18.57,0,0,0,6.72,9.3l-.64.76a20,20,0,0,1-6.86-9.74C3441.81,3099.66,3440.94,3099.92,3440.07,3100.14Zm-1.09-12h10.56v4.34h-.92V3089h-21.17v3.42h-1v-4.34H3438a25,25,0,0,0-1.09-2.83l1-.2A26.8,26.8,0,0,1,3439,3088.1Z" transform="translate(-3426.27 -3084.94)"/><path class="cls-1" d="M3456.25,3089.92v20.78h-1v-20.78Zm5.66.34-.84.45a32.64,32.64,0,0,0-3.64-5.24l.9-.39A31,31,0,0,1,3461.91,3090.25ZM3472,3110.5l-.25-.92,2.58,0c1,0,1.43-.59,1.43-1.74V3088h-11.12v-1h12.07v21.08c0,1.57-.73,2.38-2.18,2.38Z" transform="translate(-3426.27 -3084.94)"/><path class="cls-1" d="M3503.74,3110.22h-1v-2.1h-17.44v2.1h-1v-21.28h19.4Zm-1-3v-17.33h-17.44v17.33Z" transform="translate(-3426.27 -3084.94)"/><path class="cls-1" d="M3518.89,3109h-1v-1.85h-6.22v2.63h-1v-19.29h2.46a25.55,25.55,0,0,0,1.34-5.18l1,.14a24.54,24.54,0,0,1-1.37,5h4.73Zm-1-10.78v-6.78h-6.22v6.78Zm0,8v-7.14h-6.22v7.14Zm15.09.5c-.25,2.35-1.51,3.56-3.81,3.56-.5,0-1.4,0-2.63,0l-.25-.9c1.09,0,2,0,2.83,0,1.71,0,2.69-1,2.94-2.8s.34-6.89.39-15.12h-8.85a24,24,0,0,1-2.86,5.07l-.56-.76a25.17,25.17,0,0,0,4.28-10.53l.92.11a30.75,30.75,0,0,1-1.4,5.15h9.38Q3533.42,3103.61,3533,3106.72Zm-4.37-3.89-.76.56a44.94,44.94,0,0,0-5.15-6.3l.76-.5A48.5,48.5,0,0,1,3528.66,3102.83Z" transform="translate(-3426.27 -3084.94)"/><path class="cls-1" d="M3560.78,3087.26v1h-5v8.54h6.52v.92h-6.52v12.85h-1v-12.85h-9.13a22.73,22.73,0,0,1-1.57,7.45,11.88,11.88,0,0,1-5.18,5.46l-.56-.84a11.36,11.36,0,0,0,5-5.4,22.63,22.63,0,0,0,1.32-6.66h-6.94v-.92h7c0-.53,0-1,0-1.54v-7h-5.46v-1Zm-15,8c0,.53,0,1,0,1.54h9.07v-8.54h-9Z" transform="translate(-3426.27 -3084.94)"/><path class="cls-1" d="M3570.07,3086.08l1,.17-1.9,6h6.13a64.63,64.63,0,0,0,1.48-7.36l1,.11a70.56,70.56,0,0,1-1.48,7.25h13.55v.92H3576c-.45,1.46-.9,2.86-1.4,4.14h11.82v.87a15.08,15.08,0,0,1-5.24,7.06,41.82,41.82,0,0,0,9.24,4.45l-.48.84a40.49,40.49,0,0,1-9.49-4.7,39.82,39.82,0,0,1-9.16,4.76l-.48-.87a39.37,39.37,0,0,0,8.85-4.45,15.51,15.51,0,0,1-5.54-6.8,29.13,29.13,0,0,1-8.29,11.59l-.48-.87q6.68-5.75,9.66-16h-7.11Zm10.3,18.68a14.17,14.17,0,0,0,5-6.47h-10.44A14.94,14.94,0,0,0,3580.38,3104.76Zm7.25-14.36-.7.7a38.53,38.53,0,0,0-5.15-5l.64-.59A35.41,35.41,0,0,1,3587.63,3090.4Z" transform="translate(-3426.27 -3084.94)"/><path class="cls-1" d="M3604.35,3088.52v-3.33h1v3.33h7.34v.92h-7.34v4.28h4a38.22,38.22,0,0,0,7.31-6.66l.73.56a40,40,0,0,1-6.44,6.1h7.56v1h-8.9c-.53.36-1.06.7-1.6,1a48,48,0,0,1-5.88,2.94h12.52v12h-1v-1.54h-13.52v1.54h-1V3099.8c-1.71.59-3.47,1.15-5.29,1.65l-.39-.9a47.55,47.55,0,0,0,13.38-5.26l1-.62h-14.08v-1h10.61v-4.28h-7.81v-.92Zm9.24,11h-13.52v3.86h13.52Zm-13.52,8.71h13.52v-3.95h-13.52Z" transform="translate(-3426.27 -3084.94)"/><path class="cls-1" d="M3621.62,3102l-.31-1c4.28-3.58,7.06-7,8.29-10.39H3622v-.92h8.54v.84a21,21,0,0,1-3.56,6.13v.22a24.47,24.47,0,0,1,4.56,3.53l-.53.81a21.12,21.12,0,0,0-4-3.33v12.71h-.92v-12.85A46.35,46.35,0,0,1,3621.62,3102Zm5.94-13.27-.87.31a27.12,27.12,0,0,0-1.6-3.56l.92-.28A35,35,0,0,1,3627.56,3088.69Zm11.59-3.36v8.9h6.78v1h-6.78v13.55h7.48v1h-16.07v-1h7.64v-13.55h-6.72v-1h6.72v-8.9Z" transform="translate(-3426.27 -3084.94)"/><path class="cls-1" d="M3654,3097.42a20.51,20.51,0,0,1-4.17,8.74l-.53-.81a18.54,18.54,0,0,0,3.81-7.92h-2.63v-.9h2.86c.25-1.26.45-2.58.62-4h-4.14v-.9H3654c.08-1.34.14-2.72.17-4.17h-3.56v-.87h9.1v5h1.82v.9h-1.82v4.87Zm6.5,13h-.9v-1.85h-5.49v1.9h-.92v-9.44h7.31Zm-.9-2.74V3102h-5.49v5.74Zm-5.38-11.2h4.62v-4h-4C3654.66,3094,3654.47,3095.27,3654.21,3096.53Zm.7-4.87h3.92v-4.17h-3.72C3655.08,3088.94,3655,3090.31,3654.91,3091.65Zm7.7.25V3091h6.61a36.67,36.67,0,0,0,2.32-5.74l.9.31a33.09,33.09,0,0,1-2.24,5.43H3674v.92h-5v5.1h4.45v.92h-4.45v5h5.66v.92h-5.66v6.78H3668v-6.78h-5.6V3103h5.6v-5h-4.73V3097H3668v-5.1Zm4.56-1.79-.84.39a39,39,0,0,0-2.63-4.73l.84-.39A36.34,36.34,0,0,1,3667.18,3090.11Z" transform="translate(-3426.27 -3084.94)"/></svg>