<svg id="图层_1" data-name="图层 1" xmlns="http://www.w3.org/2000/svg" viewBox="0 0 190 190"><defs><style>.cls-1{fill:#fff;}</style></defs><rect width="190" height="190"/><path class="cls-1" d="M469.31,1028h-1a1.63,1.63,0,0,0-1.77-1.46,1.75,1.75,0,0,0-1.58,1,4.53,4.53,0,0,0-.56,2.4s0,.16,0,.31h0a2.34,2.34,0,0,1,.92-1,2.37,2.37,0,0,1,1.33-.37,2.61,2.61,0,0,1,2,.79,2.86,2.86,0,0,1,.74,2,2.89,2.89,0,0,1-.82,2.1,2.81,2.81,0,0,1-2.07.84,2.67,2.67,0,0,1-2.35-1.16,5.34,5.34,0,0,1-.74-3.06,6.16,6.16,0,0,1,.8-3.33,2.59,2.59,0,0,1,2.3-1.34A2.46,2.46,0,0,1,469.31,1028Zm-4.17,2.23a2,2,0,0,0-.55,1.46,2.06,2.06,0,0,0,.53,1.48,1.8,1.8,0,0,0,1.43.61,1.84,1.84,0,0,0,1.4-.59,2.21,2.21,0,0,0,.54-1.52,2,2,0,0,0-.53-1.45,1.84,1.84,0,0,0-1.42-.56A1.87,1.87,0,0,0,465.14,1030.21Z" transform="translate(-456.92 -923.1)"/><path class="cls-1" d="M471.5,1028.94l-.58-.72a6.65,6.65,0,0,0,2.45-3.71l.9.17a12.31,12.31,0,0,1-.46,1.28h7.45v.84h-3.77v1.92h3.35v.83h-3.35v2.59h4.15v.84h-4.15v2.67h-.88V1033h-5.54v-.84h2v-3.42h3.56v-1.92h-3.23A7.21,7.21,0,0,1,471.5,1028.94Zm5.12,3.2v-2.59h-2.7v2.59Z" transform="translate(-456.92 -923.1)"/><path class="cls-1" d="M484.59,1025.86v8.56h-1v-8.56Z" transform="translate(-456.92 -923.1)"/><path class="cls-1" d="M493.05,1025.86v.85h-3v7.71h-1v-7.71h-3v-.85Z" transform="translate(-456.92 -923.1)"/><path class="cls-1" d="M497.52,1024.7a35.74,35.74,0,0,1-.29,4.86,22.11,22.11,0,0,1,2.36,3l-.65.66a18.85,18.85,0,0,0-1.88-2.64,9.14,9.14,0,0,1-2.49,5l-.6-.73a8.65,8.65,0,0,0,2.24-4.39,30.82,30.82,0,0,0,.43-5.69Zm4.68,0c0,1.2,0,2.31-.13,3.32a14.13,14.13,0,0,0,3.07,6.74l-.62.74a15.24,15.24,0,0,1-2.7-5.36c0,.12,0,.24-.06.36a9.27,9.27,0,0,1-2.64,5.09l-.6-.73a8.65,8.65,0,0,0,2.36-4.43,32.13,32.13,0,0,0,.46-5.73Z" transform="translate(-456.92 -923.1)"/><path class="cls-1" d="M511,1024.74v9.53h1.7v-9.53h.88v9.53h3.6v.84H506.56v-.84h3.57v-9.53Zm-1.74,7.74-.79.2a44.82,44.82,0,0,0-1.62-5.54l.73-.24A42.58,42.58,0,0,1,509.27,1032.48Zm7.59-5.34a27.67,27.67,0,0,1-1.81,5.48l-.78-.28a25.92,25.92,0,0,0,1.82-5.42Z" transform="translate(-456.92 -923.1)"/><path class="cls-1" d="M522.7,1033.77a18.36,18.36,0,0,1-3.83,1.4l-.12-.83a17.27,17.27,0,0,0,3.95-1.39Zm-1.08-8.84a19.17,19.17,0,0,1-1.81,3.66c.55,0,1.1-.12,1.67-.22.23-.42.47-.86.71-1.33l.79.3a27.4,27.4,0,0,1-2.76,4.33,19.6,19.6,0,0,0,2.51-.72v.79a18.37,18.37,0,0,1-3.56.88l-.23-.79a1.37,1.37,0,0,0,.38-.24,12.67,12.67,0,0,0,1.73-2.45l-2.05.3-.22-.79a.9.9,0,0,0,.36-.32,19.71,19.71,0,0,0,1.66-3.72Zm1.62,5.34-.54-.71a8.48,8.48,0,0,0,4.67-3.57h-4.1v-.83h5.13v.68a6.77,6.77,0,0,1-1.3,2,18.25,18.25,0,0,1,2.57,1.91l-.64.64a15.7,15.7,0,0,0-2.49-2A11.09,11.09,0,0,1,523.24,1030.27Zm.12,1.45v-.84H529v.84H526.6v2.65h2.91v.84h-6.69v-.84h2.89v-2.65Z" transform="translate(-456.92 -923.1)"/><path class="cls-1" d="M541.65,1026h-8.74v3.55a13.22,13.22,0,0,1-1.28,6l-.67-.6a12.18,12.18,0,0,0,1.08-5.41v-4.39h9.62Zm-1,8.48a1.64,1.64,0,0,1-1.58.95l-1.42,0-.23-.82,1.44.06a1.07,1.07,0,0,0,1.12-.85,23.58,23.58,0,0,0,.29-4.28H537.5a9.48,9.48,0,0,1-.9,3.31,6.27,6.27,0,0,1-3,2.73l-.48-.76a5.91,5.91,0,0,0,2.84-2.61,9.16,9.16,0,0,0,.68-2.67h-2.82v-.78h2.89l0-.95v-1.16h.88v1.16l0,.95h3.57C541.13,1032,541,1033.89,540.67,1034.53Z" transform="translate(-456.92 -923.1)"/><path class="cls-1" d="M546.26,1033.94a10.37,10.37,0,0,1,1,1.23l-.6.5a11.44,11.44,0,0,0-1-1.22,10.11,10.11,0,0,0-1.33-1.21l.54-.5A9.43,9.43,0,0,1,546.26,1033.94Z" transform="translate(-456.92 -923.1)"/><path class="cls-1" d="M556.92,1029l-.83-.52a10.82,10.82,0,0,0,1.89-3.72l.88.18a15.41,15.41,0,0,1-.53,1.49h2.45v-1.82h.88v1.82h4v.83h-4v2.27h4.79v.83h-3.27v3.51c0,.48.19.72.59.72h1.15a.61.61,0,0,0,.47-.2,4.84,4.84,0,0,0,.3-2l.83.26a5.69,5.69,0,0,1-.48,2.4,1.25,1.25,0,0,1-.89.35H563.5c-.82,0-1.22-.47-1.22-1.39v-3.67H560a6.58,6.58,0,0,1-.9,3.15,6.48,6.48,0,0,1-2.83,2.09l-.6-.77a5.93,5.93,0,0,0,2.6-1.74,5.3,5.3,0,0,0,.84-2.73h-3.31v-.83h4.93v-2.27H558A11.69,11.69,0,0,1,556.92,1029Z" transform="translate(-456.92 -923.1)"/><path class="cls-1" d="M570.16,1029.17a12.54,12.54,0,0,1-1.63,6.42l-.64-.66a11.42,11.42,0,0,0,1.42-5.76v-3.6a43.4,43.4,0,0,0,8.34-.83l.43.78a45.41,45.41,0,0,1-7.92.82V1028h8.64v.84h-8.64Zm7.69,6.45H577v-.56h-4.86v.56h-.86v-5.08h6.58Zm-.86-1.4v-2.85h-4.86v2.85Z" transform="translate(-456.92 -923.1)"/><path class="cls-1" d="M581.93,1031.47a13.55,13.55,0,0,1-1,2.84l-.71-.26a13.06,13.06,0,0,0,1-2.77Zm.89-5.62a6.26,6.26,0,0,0-.59-1.09l.92-.14a12.25,12.25,0,0,1,.53,1.24h2.21v.79h-5.46v-.79Zm2.45,1.77v3h-1.71v3.93a.84.84,0,0,1-.92,1h-.91l-.17-.78a6.58,6.58,0,0,0,.8.06c.25,0,.38-.16.38-.44v-3.73h-1.79v-3Zm-.8.74h-2.72v1.51h2.72Zm1.19,5.11-.7.26a17.29,17.29,0,0,0-.8-2.29l.7-.19A18.2,18.2,0,0,1,585.65,1033.47Zm3.71,2c-.59,0-.88-.32-.88-.95v-6.24h-.66q-.11,4.89-2.18,7.22l-.61-.54q1.89-2.12,2-6.68h-1.16v-.8H587v-2.81h.8v2.81h3v.8h-1.6v6.06c0,.23.11.35.32.35H590c.14,0,.25-.1.31-.28a9.09,9.09,0,0,0,.17-2l.74.24a7.15,7.15,0,0,1-.35,2.43.82.82,0,0,1-.73.38Zm1.21-8.87-.65.43a12.53,12.53,0,0,0-1.32-1.8l.65-.4A14.51,14.51,0,0,1,590.57,1026.55Z" transform="translate(-456.92 -923.1)"/><path class="cls-1" d="M597.36,1025.12v.79h-.65v6.57l.79-.25v.84l-.79.24v2.31h-.83v-2.1c-1,.26-2.06.5-3.17.71l-.22-.82.84-.13v-7.38h-.74v-.79Zm-1.48,2.55v-1.76h-1.71v1.76Zm0,2.52v-1.73h-1.71v1.73Zm0,2.53V1031h-1.71v2.15C594.75,1033,595.32,1032.87,595.88,1032.73Zm3.91-.7a16,16,0,0,1-1.91,3.61l-.72-.52a14.34,14.34,0,0,0,1.88-3.47Zm3.19-6.74V1031h-5.06v-5.66Zm-.84.83h-3.38v4h3.38Zm1.54,9-.72.5a27.16,27.16,0,0,0-1.9-3.59l.67-.42A31.82,31.82,0,0,1,603.68,1035.14Z" transform="translate(-456.92 -923.1)"/><path class="cls-1" d="M614.81,1025.09v.84h-3.92v3.26h4.76v.86h-4.76v4.26a1.06,1.06,0,0,1-1.21,1.18h-1.87l-.18-.83c.61,0,1.2,0,1.75,0a.55.55,0,0,0,.64-.61v-4h-5v-.86h5v-3.26h-4.21v-.84Z" transform="translate(-456.92 -923.1)"/><path class="cls-1" d="M619.57,1024.81c-.11.41-.22.79-.34,1.16h2.33v.83h-2.61a13.26,13.26,0,0,1-1.1,2.27l-.7-.44a12.92,12.92,0,0,0,1.58-4Zm1.73,3.49v.79H620v1.57h1.66v.8H620v2.82a8.6,8.6,0,0,0,1.34-.59l.14.74a10.87,10.87,0,0,1-2.36.88l-.34-.71q.4-.11.4-.36v-2.78h-1.76v-.8h1.76v-1.57h-.8v-.79Zm6.73,3.06a5.7,5.7,0,0,1-1.82,1.48,6.64,6.64,0,0,0,2,2l-.46.73a7.88,7.88,0,0,1-3.32-5.34h-1.33v4.22a15.28,15.28,0,0,0,2.07-.73l.19.76a22.25,22.25,0,0,1-3.17,1l-.18-.72c.17-.06.26-.14.26-.26v-9.34h5v5.08h-2.12a7,7,0,0,0,.66,2,6.12,6.12,0,0,0,1.66-1.37Zm-1.54-5.48h-3.43v1.39h3.43Zm-3.43,3.53h3.43V1028h-3.43Z" transform="translate(-456.92 -923.1)"/><path class="cls-1" d="M634.48,1025.46c.07-.34.13-.66.18-1l.86.11c0,.3-.11.6-.17.89h4.23v.76h-4.43c-.1.34-.2.67-.32,1h4.07v.74h-4.38c-.17.34-.34.67-.52,1h6.14v.77h-2.47a6.19,6.19,0,0,0,2.88,1.82l-.36.76a6.83,6.83,0,0,1-3.37-2.58H633.5a9.86,9.86,0,0,1-3.48,2.88l-.47-.72a8.81,8.81,0,0,0,2.93-2.16h-2.66v-.77h3.24a8.12,8.12,0,0,0,.58-1H631v-.74H634c.12-.34.24-.66.34-1h-3.92v-.76Zm-1.18,10.15-.17-.78c.38,0,.76.06,1.12.06a.39.39,0,0,0,.44-.43V1033a15.06,15.06,0,0,1-3.85,2.07l-.42-.72a14.78,14.78,0,0,0,4.27-2.18v-2h.84v2l.78.31a7.84,7.84,0,0,0,1.13-1.49l.71.34a8.56,8.56,0,0,1-1.16,1.45,22.46,22.46,0,0,1,2.71,1.48l-.47.71a20.36,20.36,0,0,0-3.69-2v1.61c0,.62-.34.95-1,.95Zm.3-3.14-.61.41a10.14,10.14,0,0,0-1.07-1.18l.59-.43A12.38,12.38,0,0,1,633.6,1032.46Z" transform="translate(-456.92 -923.1)"/><path class="cls-1" d="M471.36,1049.95l-.23-.84,1.15,0a.44.44,0,0,0,.5-.49v-8.31h-7.87V1050h-.85v-10.48h9.57v9.33a1,1,0,0,1-1.07,1.1Zm-4-4.38a12.35,12.35,0,0,1-1.57,3l-.55-.67a12.27,12.27,0,0,0,1.55-3.15c-.58-.77-1.14-1.46-1.69-2.1l.54-.52a19.27,19.27,0,0,1,1.43,1.7,24,24,0,0,0,.56-2.71l.79.14a24.41,24.41,0,0,1-.76,3.38c.46.62.94,1.31,1.42,2.05l-.58.58C468.13,1046.68,467.74,1046.11,467.37,1045.57Zm3.44.29a12.93,12.93,0,0,1-1.69,3l-.55-.66a12.62,12.62,0,0,0,1.68-3.2c-.55-.82-1.09-1.56-1.64-2.23l.54-.52a20.91,20.91,0,0,1,1.42,1.81,24.09,24.09,0,0,0,.64-2.9l.82.14a23.11,23.11,0,0,1-.86,3.61c.46.7.95,1.48,1.46,2.34l-.59.58C471.62,1047.14,471.21,1046.48,470.81,1045.86Z" transform="translate(-456.92 -923.1)"/><path class="cls-1" d="M479.13,1048.34a10.37,10.37,0,0,1,1,1.23l-.6.5a11.44,11.44,0,0,0-1-1.22,10.11,10.11,0,0,0-1.33-1.21l.54-.5A9.43,9.43,0,0,1,479.13,1048.34Z" transform="translate(-456.92 -923.1)"/><path class="cls-1" d="M490.84,1043.69v-4.22h7.35v4.22h-4.71a7.16,7.16,0,0,1-.77,1h6.36a30.45,30.45,0,0,1-.22,3.12,3.6,3.6,0,0,1-.55,1.64,1.66,1.66,0,0,1-1.24.48h-1.55l-.23-.8q.72,0,1.37,0a1.13,1.13,0,0,0,1.16-.68,11.19,11.19,0,0,0,.37-3H497a8,8,0,0,1-4.94,4.56l-.49-.72a7.28,7.28,0,0,0,4.56-3.84h-1.58a8.1,8.1,0,0,1-4.08,3.13l-.54-.66a7.92,7.92,0,0,0,3.72-2.47h-1.83a10.88,10.88,0,0,1-2.06,1.21l-.47-.77a7.21,7.21,0,0,0,3.19-2.18Zm6.5-2.46v-1h-5.65v1Zm0,.7h-5.65v1h5.65Z" transform="translate(-456.92 -923.1)"/><path class="cls-1" d="M508.07,1048.87c-1.85.38-3.84.72-6,1l-.19-.83c1-.11,1.9-.23,2.81-.37v-2.27h-2.34v-.84h2.34v-1.39h.86v1.39h2.16v.84h-2.16v2.12c.85-.14,1.68-.31,2.49-.49Zm0-9.32v.82h-3.08a13.68,13.68,0,0,1-1.62,2.71c1.19-.12,2.31-.26,3.39-.46-.26-.43-.56-.86-.89-1.31l.66-.43a23.54,23.54,0,0,1,1.85,2.83l-.72.5c-.16-.31-.32-.62-.52-.95-1.51.26-3.18.49-5,.67l-.2-.78a1.66,1.66,0,0,0,.35-.08,9.45,9.45,0,0,0,1.76-2.71h-2v-.82Zm1.82.59v7.42H509v-7.42Zm-.42,9.77-.19-.84c.58,0,1.13,0,1.66,0a.47.47,0,0,0,.52-.53v-9.53h.88v9.75a1,1,0,0,1-1.09,1.1Z" transform="translate(-456.92 -923.1)"/><path class="cls-1" d="M515.27,1049.91l-.66-.59a7,7,0,0,0,1.19-4.07v-5.76h8.94v9a1.11,1.11,0,0,1-1.26,1.26H522.1l-.23-.85c.48,0,.92,0,1.33,0s.66-.25.66-.76v-2.09H520.6v3.51h-.89v-3.51h-3.09A7.16,7.16,0,0,1,515.27,1049.91Zm1.39-9.57v2.06h3v-2.06Zm0,5h3v-2.1h-3Zm7.2-5H520.6v2.06h3.26Zm0,2.87H520.6v2.1h3.26Z" transform="translate(-456.92 -923.1)"/><path class="cls-1" d="M530.8,1040.57c.23-.5.46-1,.67-1.61l.86.19c-.19.49-.4,1-.6,1.42h6.12v.84h-6.54a16.31,16.31,0,0,1-1.77,2.71h3.09v-1.76h.88v1.76h3.69v.79h-3.69v1.76h4.55v.84h-4.55v2.58h-.88v-2.58H527.8v-.84h4.83v-1.76h-4l-.19-.79a12.47,12.47,0,0,0,1.93-2.71H528v-.84Z" transform="translate(-456.92 -923.1)"/><path class="cls-1" d="M543.84,1047.55a1.49,1.49,0,0,1,0,2.15,1.56,1.56,0,0,1-1.1.43,1.58,1.58,0,0,1-1.1-.42,1.51,1.51,0,0,1,0-2.16,1.54,1.54,0,0,1,1.1-.43A1.56,1.56,0,0,1,543.84,1047.55Zm-1.74.46a.83.83,0,0,0,0,1.24.88.88,0,0,0,.64.26.92.92,0,0,0,.64-.26.83.83,0,0,0,0-1.24.87.87,0,0,0-.64-.26A.83.83,0,0,0,542.1,1048Z" transform="translate(-456.92 -923.1)"/><path class="cls-1" d="M558.2,1045.54c-.49.07-1.08.16-1.76.23v.8q0,.86-1,.86h-1l-.2-.74a8.17,8.17,0,0,0,.94.07c.31,0,.48-.13.48-.4v-.53c-.72.06-1.54.12-2.42.17l-.11-.67c.92,0,1.76-.08,2.53-.14v-.49l1.06-.55h-3.08v-.66h4.21v.55l-1.36.73v.35c.65-.07,1.24-.16,1.76-.24Zm-2-5.78h2.41v.7h-5.52v-.7h2.24q-.16-.34-.32-.61l.88-.16A6.77,6.77,0,0,1,556.19,1039.76Zm-.78,8.24a8.22,8.22,0,0,1-1.62,2l-.71-.5a8.08,8.08,0,0,0,1.61-1.82Zm2.49-7v2h-4.05v-2Zm-.79.56h-2.48v.83h2.48Zm.72,8.34-.86.2a16.88,16.88,0,0,0-.48-2.22l.83-.17C557.51,1048.4,557.68,1049.13,557.84,1049.91Zm4.62-3.25a2.41,2.41,0,0,1-.44-1.08,11.71,11.71,0,0,1-.14-2c0-.59,0-1.26.06-2h-1a11,11,0,0,1-.43,2.66,14,14,0,0,1,1.19,1.56l-.62.61a14,14,0,0,0-.89-1.28,6.15,6.15,0,0,1-1.68,2.29l-.65-.56a5.65,5.65,0,0,0,1.7-2.46,15.58,15.58,0,0,0-1.14-1.07l.5-.58a6.63,6.63,0,0,1,.9.77,10.73,10.73,0,0,0,.28-1.94H558.7v-.83h1.37V1039h.84v1.74h1.87c-.1,1-.13,2-.13,2.85a13.74,13.74,0,0,0,.08,1.77c.08.44.18.67.3.68s.2-.16.26-.41a10,10,0,0,0,.14-1l.67.31a5,5,0,0,1-.44,1.73.76.76,0,0,1-.56.34A.88.88,0,0,1,562.46,1046.66Zm-1.87,3.24-.86.19a12.51,12.51,0,0,0-.68-2.3l.83-.17A23.22,23.22,0,0,1,560.58,1049.9Zm3.18-.32-.72.5a17.18,17.18,0,0,0-1.62-2.3l.72-.46A20,20,0,0,1,563.76,1049.57Z" transform="translate(-456.92 -923.1)"/><path class="cls-1" d="M569.69,1048.44a20.12,20.12,0,0,1-3.72,1.1l-.11-.86a18.2,18.2,0,0,0,3.83-1.09Zm-1-9.07a21.07,21.07,0,0,1-1.72,3.68q.72-.11,1.44-.25c.22-.43.43-.88.65-1.34l.79.3a29.55,29.55,0,0,1-2.5,4.28,16.66,16.66,0,0,0,2.41-.71v.78a16.77,16.77,0,0,1-3.44.92l-.23-.8a1.77,1.77,0,0,0,.38-.25,13.33,13.33,0,0,0,1.54-2.4l-1.85.35-.22-.79a1,1,0,0,0,.37-.34,19.75,19.75,0,0,0,1.54-3.75Zm3.07,10.54-.22-.79,1.15,0a.41.41,0,0,0,.46-.47v-3.12h-2.54l-.19-.74a17.4,17.4,0,0,0,.78-1.57H570v-.78h1.56c.14-.42.29-.85.43-1.31h-2.42v-.8h2.66c.12-.43.23-.89.35-1.35l.84.16c-.11.42-.22.82-.32,1.2h3.49v.8h-3.73c-.14.46-.29.9-.43,1.31H574v2.33h2.55v.77H574V1049c0,.64-.35,1-1,1Zm.12-3.33a13.7,13.7,0,0,1-1.52,3l-.74-.42a12.15,12.15,0,0,0,1.51-2.89Zm-.5-1.77h1.77v-1.55h-1.08C571.86,1043.81,571.63,1044.32,571.39,1044.8Zm5.53,4.44-.73.32a20.36,20.36,0,0,0-1.32-3.06l.77-.25A20.92,20.92,0,0,1,576.92,1049.24Z" transform="translate(-456.92 -923.1)"/><path class="cls-1" d="M581.26,1039.92V1039h.84v.91h4.14V1039h.84v.91h2.12v.73h-2.12v4h2.3v.77h-2.49a5.66,5.66,0,0,0,2.67,1.69l-.35.74a6.58,6.58,0,0,1-3.17-2.43h-3.77a6.83,6.83,0,0,1-3,2.47l-.44-.73a6.15,6.15,0,0,0,2.64-1.74H579v-.77h2.3v-4h-2.12v-.73Zm3.33,5.89v1H587v.77h-2.43v1.27h4.11v.8h-9.15v-.8h4.2v-1.27h-2.46v-.77h2.46v-1Zm1.64-4.27v-.89h-4.14v.89Zm0,1.54v-.85h-4.14v.85Zm0,1.55v-.86h-4.14v.86Z" transform="translate(-456.92 -923.1)"/><path class="cls-1" d="M601.44,1039.49v.84h-3.92v3.26h4.76v.86h-4.76v4.26a1.06,1.06,0,0,1-1.21,1.18h-1.87l-.18-.83c.61,0,1.2,0,1.75,0a.55.55,0,0,0,.64-.61v-4h-5v-.86h5v-3.26h-4.21v-.84Z" transform="translate(-456.92 -923.1)"/><path class="cls-1" d="M605.88,1040.26l3.19,7.3h0l3.18-7.3h1.22v8.56h-1V1042h0l-3,6.81h-.89l-3-6.81h0v6.81h-1v-8.56Z" transform="translate(-456.92 -923.1)"/><path class="cls-1" d="M622.13,1040.26v.85H617V1044h4.8v.85H617V1048h5.29v.85h-6.27v-8.56Z" transform="translate(-456.92 -923.1)"/><path class="cls-1" d="M628.16,1040.26l3.37,8.56h-1.07l-.91-2.4h-3.93l-.91,2.4h-1.06l3.37-8.56Zm1.08,5.34-1.62-4.28h0l-1.64,4.28Z" transform="translate(-456.92 -923.1)"/><path class="cls-1" d="M634.24,1040.26l4.85,7h0v-7h1v8.56h-1l-4.87-7h0v7h-1v-8.56Z" transform="translate(-456.92 -923.1)"/><path class="cls-1" d="M466.34,1053.46v1.08h2.34a10.53,10.53,0,0,1-.37,3.69,1.37,1.37,0,0,1-1.27.61c-.19,0-.41,0-.67,0l-.22-.78.68.06a.82.82,0,0,0,.83-.47,11.21,11.21,0,0,0,.18-2.33h-1.56a5.05,5.05,0,0,1-2.23,3.78l-.64-.56a4.3,4.3,0,0,0,2-3.21H463.7v-.74h1.8v-1.08Zm2.09,6.44v-1h.86v1h4.79v.82h-4a10.59,10.59,0,0,0,4.14,2.6l-.6.74a10.68,10.68,0,0,1-4.26-3.35h-.07v3.68h-.86v-3.68h-.06a9.6,9.6,0,0,1-4.38,3.37l-.49-.79a9.62,9.62,0,0,0,4.14-2.58h-4v-.82Zm5.16-5.6v4.14h-3.86v-4.14Zm-.83.78h-2.22v2.58h2.22Z" transform="translate(-456.92 -923.1)"/><path class="cls-1" d="M478.8,1064.37h-.85v-6.1a13.52,13.52,0,0,1-1.61,3.32l-.37-.94a11.2,11.2,0,0,0,1.92-4.05h-1.68v-.83h1.74v-2.34h.85v2.34h1.48v.83H478.8v.76c.55.58,1.12,1.21,1.69,1.92l-.48.73c-.47-.7-.88-1.27-1.21-1.7Zm3.87-10.85a16.67,16.67,0,0,1-.36,1.66h4.21c0,4.15-.07,6.72-.19,7.68a1.54,1.54,0,0,1-1.7,1.46l-1.3,0-.19-.78c.53,0,1,0,1.36,0a1,1,0,0,0,1-.95q.16-1,.18-6.62h-3.65a11.56,11.56,0,0,1-1.22,2.47l-.55-.72a11.41,11.41,0,0,0,1.54-4.32Zm-2,7.6c.34-.18.92-1.46,1.77-3.86l.76.28a28.15,28.15,0,0,1-1.4,3.35c.72-.14,1.38-.29,2-.43-.17-.5-.35-1-.52-1.37l.72-.25a25.34,25.34,0,0,1,1.08,3l-.76.34-.31-1.08c-.91.25-2,.49-3.14.73Z" transform="translate(-456.92 -923.1)"/><path class="cls-1" d="M493,1063.67h-.84V1063H490v1h-.84v-8.53h1.12a11,11,0,0,0,.52-2.09l.86.12a11.47,11.47,0,0,1-.56,2H493Zm-.84-4.89v-2.47H490v2.47Zm0,3.41v-2.63H490v2.63Zm6.86.71a1.48,1.48,0,0,1-1.68,1.38l-1.22,0-.2-.79c.5,0,.94,0,1.31,0a.93.93,0,0,0,1-.92c.07-.67.12-2.75.14-6.2h-3.3a10.11,10.11,0,0,1-1.2,2.05l-.52-.68a10.6,10.6,0,0,0,1.71-4.32l.85.11a15.66,15.66,0,0,1-.53,2h3.83C499.23,1059.49,499.17,1062,499.05,1062.9Zm-2-2-.68.48a23.52,23.52,0,0,0-2-2.66l.7-.43A20.24,20.24,0,0,1,497.08,1060.89Z" transform="translate(-456.92 -923.1)"/><path class="cls-1" d="M502,1054.66l1.88,7.18h0l2-7.18H507l1.94,7.18h0l1.88-7.18h1.1l-2.46,8.56h-1.09l-1.94-7.14h0l-2,7.14h-1.09l-2.46-8.56Z" transform="translate(-456.92 -923.1)"/><path class="cls-1" d="M518.22,1057.86a4.28,4.28,0,0,1,.72,2.53H514a2.67,2.67,0,0,0,.56,1.62,1.76,1.76,0,0,0,1.39.58,1.92,1.92,0,0,0,1.24-.38,2.17,2.17,0,0,0,.62-1h1a2.8,2.8,0,0,1-.84,1.46,2.88,2.88,0,0,1-2,.7,2.77,2.77,0,0,1-2.13-.88,3.85,3.85,0,0,1,0-4.69,2.6,2.6,0,0,1,2.13-1A2.64,2.64,0,0,1,518.22,1057.86Zm-3.56.34a2.39,2.39,0,0,0-.59,1.45h3.87c-.12-1.33-.78-2-2-2A1.74,1.74,0,0,0,514.66,1058.19Z" transform="translate(-456.92 -923.1)"/><path class="cls-1" d="M521.69,1054.49v3.67a2.24,2.24,0,0,1,2.05-1.31,2.45,2.45,0,0,1,2.07,1,3.61,3.61,0,0,1,.7,2.25,3.7,3.7,0,0,1-.7,2.3,2.58,2.58,0,0,1-2.12,1,2.16,2.16,0,0,1-2.06-1.19v1h-.9v-8.73Zm.49,3.83a2.7,2.7,0,0,0-.53,1.75v.12a2.82,2.82,0,0,0,.47,1.69,1.67,1.67,0,0,0,1.45.72,1.73,1.73,0,0,0,1.51-.73,3.14,3.14,0,0,0,.44-1.76,2.85,2.85,0,0,0-.47-1.74,1.76,1.76,0,0,0-1.52-.72A1.59,1.59,0,0,0,522.18,1058.31Z" transform="translate(-456.92 -923.1)"/><path class="cls-1" d="M534.63,1054.57H539v.84h-8.89v2.67a15.09,15.09,0,0,1-1.24,6.33l-.71-.64a13.43,13.43,0,0,0,1.06-5.7v-3.51h4.45a8,8,0,0,0-.65-1.08l.95-.17A9.29,9.29,0,0,1,534.63,1054.57Zm.73,8.49a34.31,34.31,0,0,0,1.94-6.32l.85.23a35.94,35.94,0,0,1-1.86,6.09h2.53v.84h-8.47v-.84Zm-2.4-1.33-.82.2a33.33,33.33,0,0,0-1.24-4.37l.76-.24A35,35,0,0,1,533,1061.73Zm2.14-.71-.83.19a37.39,37.39,0,0,0-1-4.5l.76-.24A45.18,45.18,0,0,1,535.1,1061Z" transform="translate(-456.92 -923.1)"/><path class="cls-1" d="M541.51,1064.31l-.66-.59a7,7,0,0,0,1.19-4.07v-5.76H551v9a1.11,1.11,0,0,1-1.26,1.26h-1.38l-.23-.85c.48,0,.92,0,1.33,0s.66-.25.66-.76v-2.09h-3.26V1064h-.89v-3.51h-3.09A7.16,7.16,0,0,1,541.51,1064.31Zm1.39-9.57v2.06h3v-2.06Zm0,5h3v-2.1h-3Zm7.2-5h-3.26v2.06h3.26Zm0,2.87h-3.26v2.1h3.26Z" transform="translate(-456.92 -923.1)"/><path class="cls-1" d="M563.69,1054.14v.84h-2v3.18h2.63v.83h-2.63v5.31h-.88V1059h-3.47a9.75,9.75,0,0,1-.7,3.07,4.87,4.87,0,0,1-2.27,2.34l-.47-.74a4.55,4.55,0,0,0,2-2.19,10.28,10.28,0,0,0,.52-2.47H553.7v-.83h2.82c0-.16,0-.3,0-.42V1055h-2.18v-.84Zm-6.27,3.6c0,.14,0,.29,0,.42h3.41V1055h-3.39Z" transform="translate(-456.92 -923.1)"/><path class="cls-1" d="M568,1053.77l.85.14-.68,2.36h2.1a26.61,26.61,0,0,0,.58-2.94l.88.11c-.16,1-.35,1.94-.56,2.83h5.61v.83h-5.84c-.14.48-.29.94-.46,1.37h4.91v.74a6.1,6.1,0,0,1-2,2.81,19.45,19.45,0,0,0,3.55,1.58l-.44.8a18.9,18.9,0,0,1-3.81-1.83,17,17,0,0,1-3.66,1.88l-.46-.8A16.55,16.55,0,0,0,572,1062a6.5,6.5,0,0,1-2-2.34,12.42,12.42,0,0,1-3.37,4.51l-.44-.79a13.53,13.53,0,0,0,3.87-6.31h-3Zm4.67,7.76a5.7,5.7,0,0,0,1.83-2.27h-3.89A6.42,6.42,0,0,0,572.67,1061.53Zm3.21-6.12-.61.61a13.32,13.32,0,0,0-2.11-2l.58-.56A14.57,14.57,0,0,1,575.89,1055.41Z" transform="translate(-456.92 -923.1)"/><path class="cls-1" d="M581.78,1062.74a10.42,10.42,0,0,1,1,1.24l-.6.5a11.44,11.44,0,0,0-1-1.22,10.11,10.11,0,0,0-1.33-1.21l.54-.5A9.45,9.45,0,0,1,581.78,1062.74Z" transform="translate(-456.92 -923.1)"/><path class="cls-1" d="M596.69,1053.92v.82h-2.27a15.11,15.11,0,0,1-1.54,2.67c.88-.07,1.74-.16,2.58-.28-.22-.49-.44-.94-.66-1.34l.73-.23a18.51,18.51,0,0,1,1.22,2.65l-.73.32c-.1-.25-.18-.49-.28-.72-1.2.16-2.48.28-3.87.37l-.19-.76.17-.07a8.13,8.13,0,0,0,1.7-2.63h-2v-.82Zm-.11,9.22a46.19,46.19,0,0,1-4.81.95l-.2-.82c.74-.1,1.46-.2,2.17-.32v-2.16h-1.8V1060h1.8v-1.51h.83V1060h1.75v.84h-1.75v2c.68-.14,1.35-.31,2-.48Zm1.48-5.11a10.5,10.5,0,0,1-.78,1.64l-.55-.67a15.17,15.17,0,0,0,1.55-5.6l.8.14c-.07.6-.17,1.16-.26,1.7h3.41v.83h-.82a11.88,11.88,0,0,1-1.21,5.15,7.54,7.54,0,0,0,2.33,2.46l-.49.71a8,8,0,0,1-2.28-2.41,8.71,8.71,0,0,1-2.57,2.52l-.46-.72a7.5,7.5,0,0,0,2.57-2.57A16.41,16.41,0,0,1,598.05,1058Zm.41-1.31a15.73,15.73,0,0,0,1.25,3.66,11.32,11.32,0,0,0,.89-4.31h-2C598.57,1056.3,598.51,1056.52,598.46,1056.73Z" transform="translate(-456.92 -923.1)"/><path class="cls-1" d="M609.54,1053.46v1.1c0,.41,0,.79,0,1.16h4.61c0,2.1-.12,3.8-.24,5.11a7.44,7.44,0,0,1-.61,2.7,1.56,1.56,0,0,1-1.33.8H610.3l-.24-.84c.5,0,1,0,1.43,0,.66,0,1.09-.43,1.31-1.28a34.65,34.65,0,0,0,.42-5.7h-3.78a14.13,14.13,0,0,1-1,4.4,7.5,7.5,0,0,1-3.47,3.45l-.47-.76a7.11,7.11,0,0,0,3.27-3.37,13.55,13.55,0,0,0,.82-3.73H605v-.83h3.56c0-.38,0-.78,0-1.16v-1.1Z" transform="translate(-456.92 -923.1)"/><path class="cls-1" d="M626.77,1053.89v.84h-3.92V1058h4.76v.86h-4.76v4.26a1.06,1.06,0,0,1-1.21,1.18h-1.87l-.18-.83c.61,0,1.2,0,1.75,0a.55.55,0,0,0,.64-.61v-4h-5V1058h5v-3.26h-4.21v-.84Z" transform="translate(-456.92 -923.1)"/><path class="cls-1" d="M639.37,1054.7l-.55.55h1.46v.83h-3.69a19.67,19.67,0,0,0,.46,3.53c.07.3.16.58.24.84a13.36,13.36,0,0,0,1.45-3.37l.78.34a13.79,13.79,0,0,1-1.87,4,5.89,5.89,0,0,0,.54,1c.4.58.72.86,1,.86s.42-.64.6-1.87l.78.43c-.29,1.6-.7,2.4-1.24,2.4a2.3,2.3,0,0,1-1.62-1.08,6.06,6.06,0,0,1-.6-1,8.27,8.27,0,0,1-3,2.22l-.48-.72a8.07,8.07,0,0,0,3-2.37,13.5,13.5,0,0,1-.46-1.44,20.42,20.42,0,0,1-.53-3.77h-4.11v2h2.94a20.59,20.59,0,0,1-.28,3.92,1.09,1.09,0,0,1-1.13.8c-.29,0-.64,0-1,0l-.26-.78q.7,0,1.19,0c.26,0,.43-.19.5-.53a22.2,22.2,0,0,0,.13-2.59h-2.07v.36a9.39,9.39,0,0,1-1.42,5.17l-.66-.59a8.19,8.19,0,0,0,1.2-4.58v-4h5c0-.6,0-1.21,0-1.86h.89c0,.67,0,1.28,0,1.86h2.24a9,9,0,0,0-1.45-1.34l.55-.53A10.76,10.76,0,0,1,639.37,1054.7Z" transform="translate(-456.92 -923.1)"/><path class="cls-1" d="M468.64,1067.82v1.43c0,.53,0,1-.07,1.54h4.94a28.09,28.09,0,0,1-.46,6.55,1.73,1.73,0,0,1-1.68,1.4c-.59,0-1.08,0-1.49,0l-.23-.84c.61,0,1.16.07,1.67.07.67,0,1.07-.73,1.16-2s.14-2.73.14-4.27h-4.15a12.49,12.49,0,0,1-1,3.8,7.38,7.38,0,0,1-3.5,3.35l-.49-.77a7,7,0,0,0,3.36-3.25,12.16,12.16,0,0,0,.79-3.13h-3.73v-.84h3.83c0-.5.06-1,.07-1.54v-1.43Zm-2,2.21-.67.47a16.23,16.23,0,0,0-1.61-1.91l.66-.47A16.06,16.06,0,0,1,466.69,1070Zm4.59,5.63-.76.53a20.43,20.43,0,0,0-1.93-2.57l.7-.43A22.12,22.12,0,0,1,471.28,1075.65Z" transform="translate(-456.92 -923.1)"/><path class="cls-1" d="M486.9,1072.79v.86H476.12v-.86Z" transform="translate(-456.92 -923.1)"/><path class="cls-1" d="M492.44,1078.78h-.86v-4.23c-.74.24-1.52.46-2.36.66l-.46-.83a21.19,21.19,0,0,0,5.18-1.68,14.56,14.56,0,0,0-2.16-1.44l.74-.47a17.49,17.49,0,0,1,2.15,1.51,7.27,7.27,0,0,0,2.67-2.57h-4.44a12.2,12.2,0,0,1-3.12,2l-.58-.74a8.26,8.26,0,0,0,4.15-3.23l.95.11a8.15,8.15,0,0,1-.65,1h4.68v.77a9.49,9.49,0,0,1-4.67,4h5v5.06h-.88v-.71h-5.36Zm5.36-4.26h-5.36v2.71h5.36Z" transform="translate(-456.92 -923.1)"/><path class="cls-1" d="M501.53,1073.65l-.25-.86a13.3,13.3,0,0,0,2.82-4.93l.78.36a14.71,14.71,0,0,1-1.09,2.47v8.13h-.86V1072A15,15,0,0,1,501.53,1073.65Zm5.59-2.9c0-.24,0-.48,0-.72v-2.17H508V1070c0,.24,0,.48,0,.72h4v.84h-2.49v5.89c0,.24.11.36.35.36h1a.41.41,0,0,0,.34-.2,6.28,6.28,0,0,0,.22-1.92l.78.25a6.74,6.74,0,0,1-.38,2.31.93.93,0,0,1-.73.35H509.6c-.64,0-.95-.34-.95-1v-6h-.76c-.26,3.2-1.27,5.6-3,7.2l-.64-.55c1.61-1.46,2.54-3.67,2.81-6.64h-2.42v-.84Zm4.31-1.1-.59.59a10.93,10.93,0,0,0-1.86-1.62l.56-.54A12.29,12.29,0,0,1,511.42,1069.64Z" transform="translate(-456.92 -923.1)"/><path class="cls-1" d="M520,1071v2.1h-.89V1071h-.29a8.66,8.66,0,0,1-4.14,2.75l-.49-.79a9.17,9.17,0,0,0,3.75-2h-3.54v-.8h4.7v-1c-1.1.06-2.28.1-3.55.1l-.25-.73a40.33,40.33,0,0,0,7.74-.65l.42.73a29.76,29.76,0,0,1-3.47.49v1.09h4.51v.8h-3.36a8.42,8.42,0,0,0,3.68,1.89l-.38.79a8.62,8.62,0,0,1-4.17-2.69Zm-4,3.44v-.8h6.13v.41l-.41,1.2h2.16v.4a4.82,4.82,0,0,1-.62,2.61,1.16,1.16,0,0,1-.79.41q-.67.05-1.94.07l-.24-.8,1.68,0a.85.85,0,0,0,.54-.16c.24-.18.41-.77.53-1.75H520.7l.52-1.61h-2.67c-.17,2-1.42,3.44-3.72,4.35l-.47-.76q3.13-1.08,3.38-3.6Z" transform="translate(-456.92 -923.1)"/><path class="cls-1" d="M531,1078.07h-.84v-.68H528v1h-.84v-8.53h1.12a11,11,0,0,0,.52-2.09l.86.12a11.48,11.48,0,0,1-.56,2H531Zm-.84-4.89v-2.47H528v2.47Zm0,3.41V1074H528v2.63Zm6.86.71a1.48,1.48,0,0,1-1.68,1.38l-1.22,0-.2-.79c.5,0,.94,0,1.31,0a.93.93,0,0,0,1-.92c.07-.67.12-2.75.14-6.2h-3.3a10.11,10.11,0,0,1-1.2,2.05l-.52-.68a10.6,10.6,0,0,0,1.71-4.32l.85.11a15.66,15.66,0,0,1-.53,2h3.83C537.21,1073.89,537.15,1076.36,537,1077.3Zm-2-2-.68.48a23.57,23.57,0,0,0-2-2.66l.7-.43A20.24,20.24,0,0,1,535.07,1075.29Z" transform="translate(-456.92 -923.1)"/><path class="cls-1" d="M540,1069.06l1.88,7.18h0l2-7.18h1.07l1.94,7.18h0l1.88-7.18h1.1l-2.46,8.56h-1.09l-1.94-7.14h0l-2,7.14h-1.09l-2.46-8.56Z" transform="translate(-456.92 -923.1)"/><path class="cls-1" d="M556.21,1072.26a4.28,4.28,0,0,1,.72,2.53H552a2.67,2.67,0,0,0,.56,1.62,1.76,1.76,0,0,0,1.39.58,1.92,1.92,0,0,0,1.24-.38,2.17,2.17,0,0,0,.62-1h1a2.8,2.8,0,0,1-.84,1.46,2.88,2.88,0,0,1-2,.7,2.77,2.77,0,0,1-2.13-.88,3.85,3.85,0,0,1,0-4.69,2.6,2.6,0,0,1,2.13-1A2.64,2.64,0,0,1,556.21,1072.26Zm-3.56.34a2.39,2.39,0,0,0-.59,1.45h3.87c-.12-1.33-.78-2-2-2A1.74,1.74,0,0,0,552.64,1072.59Z" transform="translate(-456.92 -923.1)"/><path class="cls-1" d="M559.68,1068.89v3.67a2.24,2.24,0,0,1,2.05-1.31,2.45,2.45,0,0,1,2.07,1,3.61,3.61,0,0,1,.7,2.25,3.7,3.7,0,0,1-.7,2.3,2.58,2.58,0,0,1-2.12,1,2.16,2.16,0,0,1-2.06-1.19v1h-.9v-8.73Zm.49,3.83a2.7,2.7,0,0,0-.53,1.75v.12a2.82,2.82,0,0,0,.47,1.69,1.67,1.67,0,0,0,1.45.72,1.73,1.73,0,0,0,1.51-.73,3.14,3.14,0,0,0,.44-1.76,2.85,2.85,0,0,0-.47-1.74,1.76,1.76,0,0,0-1.52-.72A1.59,1.59,0,0,0,560.17,1072.71Z" transform="translate(-456.92 -923.1)"/><path class="cls-1" d="M572,1067.86a17,17,0,0,0,5.22,3.73l-.43.77a16.85,16.85,0,0,1-5.1-3.72,17.25,17.25,0,0,1-5.15,3.78l-.42-.76a17.22,17.22,0,0,0,5.25-3.8Zm3,3.79v.83h-2.9v2.09h3.47v.83h-3.47v2.22h4.56v.85h-10v-.85h4.55v-2.22h-3.48v-.83h3.48v-2.09h-2.9v-.83Z" transform="translate(-456.92 -923.1)"/><path class="cls-1" d="M580.72,1070.09v-2.23h.83v2.23h1.34v.8h-1.34v.59c.53.67,1.06,1.44,1.6,2.28l-.5.77c-.42-.91-.78-1.64-1.09-2.22v6.49h-.83v-6.27a13.26,13.26,0,0,1-1.61,3.19l-.37-.94a10.41,10.41,0,0,0,1.94-3.89h-1.62v-.8Zm8.29.74-3,.48c0,.55,0,1.08.11,1.57l3.24-.58.13.79-3.27.58a5.2,5.2,0,0,0,.11.65,10.11,10.11,0,0,0,.4,1.43,11.23,11.23,0,0,0,1.62-1.82l.66.44a12.18,12.18,0,0,1-1.94,2.16,2.91,2.91,0,0,0,.24.42c.42.58.79.88,1.13.88s.52-.62.71-1.86l.74.49c-.31,1.49-.77,2.23-1.36,2.23a2.33,2.33,0,0,1-1.73-1.08c-.14-.19-.26-.38-.38-.58a9.57,9.57,0,0,1-3.06,1.51l-.5-.7a10.47,10.47,0,0,0,3.2-1.56,9,9,0,0,1-.5-1.55c-.07-.31-.13-.61-.18-.91l-2,.35-.12-.79,2-.35c-.06-.52-.1-1-.12-1.6l-1.81.29-.12-.8,1.91-.3v-2.79H586v2.65l2.9-.46Zm-.28-1.5-.67.47a13.67,13.67,0,0,0-1.33-1.5l.67-.42A12.22,12.22,0,0,1,588.73,1069.33Z" transform="translate(-456.92 -923.1)"/><path class="cls-1" d="M592.42,1069.48v-.84h9.25v.84h-4.19v7.94h4.7v.84h-10.4v-.84h4.81v-7.94Z" transform="translate(-456.92 -923.1)"/><path class="cls-1" d="M606.1,1071.11v-1.74c-.5.07-1,.14-1.57.2l-.17-.82a19.73,19.73,0,0,0,4-.76l.3.82c-.54.16-1.12.29-1.71.41v1.88h1.55v.83h-1.55v.64c.56.55,1.14,1.18,1.71,1.86l-.48.72c-.48-.74-.9-1.34-1.24-1.79v5.41h-.83v-5.41a12.68,12.68,0,0,1-1.66,3.18l-.37-1a9.49,9.49,0,0,0,1.94-3.65h-1.67v-.83Zm8.7,1.74v.79h-2.61v1.54h2.24v.78h-2.24v1.62h2.9v.82h-6.73v-.82h2.94V1076h-2.18v-.78h2.18v-1.54h-2.46v-.79Zm-.52-4.58v3.47h-5v-3.47Zm-.84.77h-3.29V1071h3.29Z" transform="translate(-456.92 -923.1)"/><path class="cls-1" d="M620.19,1067.83v5.78a6.16,6.16,0,0,1-2.29,5.21l-.64-.56a5.35,5.35,0,0,0,2.09-4.64v-5.78Zm-2.09,1.62v6.31h-.83v-6.31Zm9.56-1.13v.82h-2.94v1.58h2.59v5.83q0,1-.9,1h-.86l-.23-.84.82,0c.23,0,.35-.14.35-.41v-4.82h-1.76v7.28h-.84v-7.28h-1.76v6.06h-.83v-6.87h2.59v-1.58h-3v-.82Z" transform="translate(-456.92 -923.1)"/><path class="cls-1" d="M633.08,1076.35a1.49,1.49,0,0,1,0,2.15,1.56,1.56,0,0,1-1.1.43,1.58,1.58,0,0,1-1.1-.42,1.51,1.51,0,0,1,0-2.16,1.54,1.54,0,0,1,1.1-.43A1.56,1.56,0,0,1,633.08,1076.35Zm-1.74.46a.83.83,0,0,0,0,1.24.88.88,0,0,0,.64.26.92.92,0,0,0,.64-.26.83.83,0,0,0,0-1.24.87.87,0,0,0-.64-.26A.83.83,0,0,0,631.34,1076.8Z" transform="translate(-456.92 -923.1)"/><path class="cls-1" d="M469.21,1084.91a11,11,0,0,0,5.21,7.47l-.56.76a11.8,11.8,0,0,1-5-6.48,11.24,11.24,0,0,1-5.09,6.49l-.53-.77q4.95-3,5.11-8.23c0-.82,0-1.45,0-1.91h.88C469.29,1083.28,469.25,1084.16,469.21,1084.91Z" transform="translate(-456.92 -923.1)"/><path class="cls-1" d="M475.92,1088l-.55-.71a9.35,9.35,0,0,0,2.29-4.77l.88.16a15.76,15.76,0,0,1-.47,1.74h2.57v-2.13h.88v2.13h3.95v.84h-3.95v2.77h3.71v.84h-3.71v3h4.71v.86H475.65v-.86h5v-3H477.1v-.84h3.53v-2.77h-2.88A8.89,8.89,0,0,1,475.92,1088Z" transform="translate(-456.92 -923.1)"/><path class="cls-1" d="M490,1093.17h-.85v-6a13.55,13.55,0,0,1-1.46,3.12l-.37-.94a11.28,11.28,0,0,0,1.82-3.93h-1.58v-.83h1.59v-2.34H490v2.34h1.31v.83H490v.65c.5.58,1,1.21,1.54,1.92h0a12.88,12.88,0,0,0,2.75-1.49A8.25,8.25,0,0,1,493,1085a11.5,11.5,0,0,1-1,1.14l-.55-.66a9.24,9.24,0,0,0,2.13-3.24l.83.18q-.18.47-.4.9h3.38v.67a7.93,7.93,0,0,1-1.88,2.57,12.87,12.87,0,0,0,2.9,1.48l-.38.8a13.56,13.56,0,0,1-3.12-1.77,13.08,13.08,0,0,1-3.33,1.81l-.32-.43-.18.28c-.42-.7-.78-1.25-1.07-1.67Zm7.36,0h-.84v-.53h-3.39v.53h-.84v-4.47h5.07Zm-.84-1.33v-2.34h-3.39v2.34Zm-.08-7.75h-2.89c0,.07-.08.16-.13.23a7,7,0,0,0,1.44,1.68A7.36,7.36,0,0,0,496.42,1084.12Z" transform="translate(-456.92 -923.1)"/><path class="cls-1" d="M504.63,1083.74a10.3,10.3,0,0,0-.66-1.37l.9-.25a11.14,11.14,0,0,1,.61,1.44l-.48.18h5.24v.82H499.48v-.82Zm4.26,9.5H508v-.58h-6.38v.58h-.84v-3.87h8.06Zm-.19-7.64v.78H501v-.78Zm0,1.83v.78H501v-.78Zm-.65,4.41v-1.67h-6.38v1.67Z" transform="translate(-456.92 -923.1)"/><path class="cls-1" d="M514.39,1084.94a.69.69,0,0,1,.2.5.69.69,0,0,1-.2.52.76.76,0,0,1-.53.2.74.74,0,0,1-.52-.2.69.69,0,0,1-.2-.52.64.64,0,0,1,.2-.5.69.69,0,0,1,.52-.2A.71.71,0,0,1,514.39,1084.94Zm0,4.39a.69.69,0,0,1,.2.5.69.69,0,0,1-.2.52.76.76,0,0,1-.53.2.74.74,0,0,1-.52-.2.69.69,0,0,1-.2-.52.64.64,0,0,1,.2-.5.69.69,0,0,1,.52-.2A.71.71,0,0,1,514.39,1089.33Z" transform="translate(-456.92 -923.1)"/><path class="cls-1" d="M524.7,1083.46v7.71h5v.85h-5.92v-8.56Z" transform="translate(-456.92 -923.1)"/><path class="cls-1" d="M535.47,1086.66a4.28,4.28,0,0,1,.72,2.53H531.3a2.67,2.67,0,0,0,.56,1.62,1.76,1.76,0,0,0,1.39.58,1.92,1.92,0,0,0,1.24-.38,2.17,2.17,0,0,0,.62-1h1a2.8,2.8,0,0,1-.84,1.46,2.88,2.88,0,0,1-2,.7,2.77,2.77,0,0,1-2.13-.88,3.85,3.85,0,0,1,0-4.69,2.6,2.6,0,0,1,2.13-1A2.64,2.64,0,0,1,535.47,1086.66Zm-3.56.34a2.39,2.39,0,0,0-.59,1.45h3.87c-.12-1.33-.78-2-2-2A1.74,1.74,0,0,0,531.91,1087Z" transform="translate(-456.92 -923.1)"/><path class="cls-1" d="M542,1086.35a2.47,2.47,0,0,1,.55,1.69v4h-.9v-1a2.88,2.88,0,0,1-.95.83,3.15,3.15,0,0,1-1.55.38,2.23,2.23,0,0,1-1.49-.47,1.56,1.56,0,0,1-.58-1.25,1.75,1.75,0,0,1,.85-1.59,4,4,0,0,1,2.16-.53l1.49,0V1088c0-1-.54-1.56-1.62-1.56a2,2,0,0,0-1.12.28,1.35,1.35,0,0,0-.62.89l-.95-.07a2.13,2.13,0,0,1,1-1.45,3.28,3.28,0,0,1,1.79-.43A2.54,2.54,0,0,1,542,1086.35Zm-1.83,2.72c-1.39,0-2.09.48-2.09,1.38a.85.85,0,0,0,.35.71,1.52,1.52,0,0,0,.94.28,2.34,2.34,0,0,0,1.56-.58,1.66,1.66,0,0,0,.67-1.28V1089Z" transform="translate(-456.92 -923.1)"/><path class="cls-1" d="M547.6,1085.79v1a3.13,3.13,0,0,0-.92-.13,1.46,1.46,0,0,0-1.21.64,2.24,2.24,0,0,0-.49,1.48V1092H544v-6.2H545v1.08a2.26,2.26,0,0,1,.65-.85,1.72,1.72,0,0,1,1.13-.4A2.22,2.22,0,0,1,547.6,1085.79Z" transform="translate(-456.92 -923.1)"/><path class="cls-1" d="M553.63,1088.21V1092h-1v-3.74c0-1.21-.55-1.81-1.63-1.81a1.52,1.52,0,0,0-1.12.47,2,2,0,0,0-.55,1.34V1092h-1v-6.2h1v.91a2.18,2.18,0,0,1,.83-.79,2.21,2.21,0,0,1,1.12-.29C552.85,1085.65,553.63,1086.5,553.63,1088.21Z" transform="translate(-456.92 -923.1)"/><path class="cls-1" d="M556.42,1083.68a.62.62,0,0,1,.22.5.7.7,0,0,1-.22.52.75.75,0,0,1-1,0,.69.69,0,0,1-.2-.52.61.61,0,0,1,.2-.5.75.75,0,0,1,1,0Zm0,2.13v6.2h-1v-6.2Z" transform="translate(-456.92 -923.1)"/><path class="cls-1" d="M563.41,1088.21V1092h-1v-3.74c0-1.21-.55-1.81-1.63-1.81a1.52,1.52,0,0,0-1.12.47,2,2,0,0,0-.55,1.34V1092h-1v-6.2h1v.91a2.18,2.18,0,0,1,.83-.79,2.21,2.21,0,0,1,1.12-.29C562.63,1085.65,563.41,1086.5,563.41,1088.21Z" transform="translate(-456.92 -923.1)"/><path class="cls-1" d="M569.54,1086.89v-1.07h1v5.77c0,2-.95,3-2.83,3a3.11,3.11,0,0,1-1.92-.5,2.25,2.25,0,0,1-.83-1.51h1a1.35,1.35,0,0,0,.53.92,2.11,2.11,0,0,0,1.26.31c1.25,0,1.87-.7,1.87-2.06v-1.09a2.24,2.24,0,0,1-2.09,1.25,2.57,2.57,0,0,1-2.05-.89,3.66,3.66,0,0,1,0-4.43,2.51,2.51,0,0,1,2.05-.91A2.23,2.23,0,0,1,569.54,1086.89Zm-3.39.23a2.56,2.56,0,0,0-.5,1.67,2.64,2.64,0,0,0,.44,1.6,1.74,1.74,0,0,0,1.5.7,1.79,1.79,0,0,0,1.46-.65,3,3,0,0,0,0-3.31,1.74,1.74,0,0,0-1.45-.67A1.71,1.71,0,0,0,566.14,1087.11Z" transform="translate(-456.92 -923.1)"/><path class="cls-1" d="M576.94,1083.29V1087a2.24,2.24,0,0,1,2.05-1.31,2.45,2.45,0,0,1,2.07,1,3.61,3.61,0,0,1,.7,2.25,3.7,3.7,0,0,1-.7,2.3,2.58,2.58,0,0,1-2.12,1,2.16,2.16,0,0,1-2.06-1.19v1H576v-8.73Zm.49,3.83a2.7,2.7,0,0,0-.53,1.75v.12a2.82,2.82,0,0,0,.47,1.69,1.67,1.67,0,0,0,1.45.72,1.73,1.73,0,0,0,1.51-.73,3.14,3.14,0,0,0,.44-1.76,2.85,2.85,0,0,0-.47-1.74,1.76,1.76,0,0,0-1.52-.72A1.59,1.59,0,0,0,577.44,1087.11Z" transform="translate(-456.92 -923.1)"/><path class="cls-1" d="M583.38,1085.82l1.9,4.89,1.83-4.89h1.06l-3.39,8.58h-1l1.07-2.52-2.46-6.06Z" transform="translate(-456.92 -923.1)"/><path class="cls-1" d="M598.5,1083.29V1092h-.9v-1a2.19,2.19,0,0,1-2.06,1.19,2.54,2.54,0,0,1-2.12-1,3.63,3.63,0,0,1-.7-2.3,3.54,3.54,0,0,1,.7-2.25,2.43,2.43,0,0,1,2.08-1,2.24,2.24,0,0,1,2.05,1.31v-3.67Zm-4.34,3.87a2.86,2.86,0,0,0-.46,1.74,3,3,0,0,0,.44,1.76,1.73,1.73,0,0,0,1.51.73,1.69,1.69,0,0,0,1.45-.72,2.9,2.9,0,0,0,.46-1.69v-.12a2.84,2.84,0,0,0-.52-1.75,1.62,1.62,0,0,0-1.36-.67A1.75,1.75,0,0,0,594.16,1087.16Z" transform="translate(-456.92 -923.1)"/><path class="cls-1" d="M605,1086.61a3.77,3.77,0,0,1,0,4.61,2.81,2.81,0,0,1-2.23,1,2.75,2.75,0,0,1-2.22-1,3.35,3.35,0,0,1-.79-2.29,3.41,3.41,0,0,1,.79-2.31,3,3,0,0,1,4.44,0Zm-3.75.6a3.22,3.22,0,0,0,0,3.42,1.78,1.78,0,0,0,1.54.76,1.85,1.85,0,0,0,1.55-.76,3.22,3.22,0,0,0,0-3.42,1.85,1.85,0,0,0-1.55-.76A1.78,1.78,0,0,0,601.23,1087.21Z" transform="translate(-456.92 -923.1)"/><path class="cls-1" d="M608.33,1083.68a.62.62,0,0,1,.22.5.7.7,0,0,1-.22.52.75.75,0,0,1-1,0,.69.69,0,0,1-.2-.52.61.61,0,0,1,.2-.5.75.75,0,0,1,1,0Zm0,2.13v6.2h-1v-6.2Z" transform="translate(-456.92 -923.1)"/><path class="cls-1" d="M615.32,1088.21V1092h-1v-3.74c0-1.21-.55-1.81-1.63-1.81a1.52,1.52,0,0,0-1.12.47,2,2,0,0,0-.55,1.34V1092h-1v-6.2h1v.91a2.18,2.18,0,0,1,.83-.79,2.21,2.21,0,0,1,1.12-.29C614.54,1085.65,615.32,1086.5,615.32,1088.21Z" transform="translate(-456.92 -923.1)"/><path class="cls-1" d="M621.45,1086.89v-1.07h1v5.77c0,2-.95,3-2.83,3a3.11,3.11,0,0,1-1.92-.5,2.25,2.25,0,0,1-.83-1.51h1a1.35,1.35,0,0,0,.53.92,2.11,2.11,0,0,0,1.26.31c1.25,0,1.87-.7,1.87-2.06v-1.09a2.24,2.24,0,0,1-2.09,1.25,2.57,2.57,0,0,1-2.05-.89,3.66,3.66,0,0,1,0-4.43,2.51,2.51,0,0,1,2.05-.91A2.23,2.23,0,0,1,621.45,1086.89Zm-3.39.23a2.56,2.56,0,0,0-.5,1.67,2.64,2.64,0,0,0,.44,1.6,1.74,1.74,0,0,0,1.5.7,1.79,1.79,0,0,0,1.46-.65,3,3,0,0,0,0-3.31,1.74,1.74,0,0,0-1.45-.67A1.71,1.71,0,0,0,618.05,1087.11Z" transform="translate(-456.92 -923.1)"/><path class="cls-1" d="M625.67,1090.8a.69.69,0,0,1,.2.5.7.7,0,0,1-.2.52.76.76,0,0,1-.53.2.69.69,0,0,1-.5-.2.7.7,0,0,1-.22-.52.65.65,0,0,1,.22-.5.64.64,0,0,1,.5-.2A.7.7,0,0,1,625.67,1090.8Zm0-7.34-.18,6.26h-.74l-.19-6.26Z" transform="translate(-456.92 -923.1)"/><path class="cls-1" d="M472,934.57v2.34h-2.58v2.66h2.17v8.65q0,1.64-1.87,1.64h-5.37V939.57h2.34v-2.66h-2.75v-2.34h2.75v-2.21h2.73v2.21Zm-3.59,13q.6,0,.61-.55v-5.31h-2.09v5.86Zm6.88-15.1h6.15v15.55q0,2.05-2.34,2.05h-2.5v-2.27h1.64q.55,0,.55-.49v-2.25h-3.5v2.5a2.35,2.35,0,0,1-2.66,2.66h-.78v-2.34h.45q.33,0,.33-.41v-15Zm0,5.1h3.5v-2.75h-3.5Zm0,5.16h3.5v-2.83h-3.5Z" transform="translate(-456.92 -923.1)"/><path class="cls-1" d="M484,932.85h6.56v15q0,2.09-1.87,2.09H484Zm2.58,6.78H488v-4.28h-1.41Zm1,7.81q.45,0,.45-.78v-4.45h-1.41v5.23Zm14.3-5.31v2.36h-2.05v3.36q0,.37.49.37H502v2.13h-3.3q-1.56,0-1.56-1.27v-4.59h-5.86v-2.36Zm-.16-9.06v2.36l-4.71.25.43,1.82,1.07-1.07h3.28l-2.91,2.73h2.83v2.19H497a1.52,1.52,0,0,1-1.56-1h-3.93V938.3h3.36l-.62-2.48-2.81.16v-2.34l2.21-.12-.31-1.23h2.81l.25,1.05Zm-8,12h2.44l-1,3.83a1.73,1.73,0,0,1-1.84,1.35h-1.89v-2h1.11q.29,0,.47-.53Z" transform="translate(-456.92 -923.1)"/><path class="cls-1" d="M521.77,933.56v2.5H509.33l-1.64,3.89h4.24v-2.81h2.95v2.81h6.33v2.5h-6.33v6.48q0,1.35-1.72,1.35h-2.95V948h1.31q.41,0,.41-.37v-5.18h-7.36v-2.5l1.64-3.89h-2.27v-2.5h3.32l.53-1.27h3.13l-.53,1.27Zm-14.39,9.51h3L507.9,949q-.35,1-1.21,1h-2.42V947.7h.94q.39,0,.61-.62Zm8.91,0h2.81l1,4q.12.63.61.63h.86v2.25h-2.17a1.54,1.54,0,0,1-1.64-1.23Z" transform="translate(-456.92 -923.1)"/><path class="cls-1" d="M467.63,977.11h8.3l1.35,1.51q.37.54.76.54h1.92v2.3h-3a1.63,1.63,0,0,1-1.18-.46l-1.58-1.58h-4.9L467.71,981a1.49,1.49,0,0,1-1.12.46h-2.83v-2.3h1.78q.39,0,.76-.54Zm12,5.08v2.3h-6.52v2.2h6.26v2.18h-6.26v2.25h6.89v2.32H463.76v-2.32h6.68v-2.25h-6v-2.18h6v-2.2h-6.38v-2.3Z" transform="translate(-456.92 -923.1)"/><path class="cls-1" d="M484.45,981.91l-.6,8.23q-.19,2.32-1.09,2.32h-1.27v-1.85h.12q.33,0,.46-1.21l.46-7.49Zm4.36-3V981H486.7v12.39h-2.18V981H481.9v-2.09h2.62v-1.78h2.18v1.78Zm-2,3h1.88l.63,8.23q.09.47.44.47H490v1.85h-1.34q-1.09,0-1.25-1.55Zm8.79-4.43h2.53l-.54,2.07q-.19,1.13-1.65,1.28l-2.34.14.19,1.92,4.13-.37v2.25l-3.9.35.3,2.74a.92.92,0,0,0,.14-.23l1-1.86h2.69l-2,3.81a.88.88,0,0,1-.84.54h-.74l0,.4q.11.65.51.65h2.81v2.11h-4.1q-1.34,0-1.55-1.78l-.14-1.39h-2.44V988h2.25l-.28-2.69-2.53.21v-2.25l2.32-.19-.19-2-2.13.14v-2.11L491,979l-.19-1.93h2.32l.19,1.79,1.44-.11a.63.63,0,0,0,.53-.47Z" transform="translate(-456.92 -923.1)"/><path class="cls-1" d="M515.24,977.55v2.25h-6v11h6.54V993H499.9v-2.25h6.68v-11h-6.24v-2.25Z" transform="translate(-456.92 -923.1)"/><path class="cls-1" d="M518.46,983.66h1.76l-.44,7.68a1.55,1.55,0,0,1-.44,1.13,1.43,1.43,0,0,1-1,.39h-.77v-2h.12q.37,0,.39-.58Zm3.94-6.42h2a3.15,3.15,0,0,1-.56,1.85,1.58,1.58,0,0,1-1.25.47h-.37v1.34h2.32v2h-2.32V993.3h-2V982.89h-2.39v-2h2.39v-1.34h-2.16v-1.83h3.73A.63.63,0,0,0,522.4,977.25Zm-.14,6.42h1.69l.49,6q.07.49.37.49h.33v1.18h3.09v-1.74h-3v-2h3V986h-3.29v-2h9v2H530.7v1.55h2.88v2H530.7v1.74h3.39v2.06h-9.21V992h-1q-1,0-1.11-1.55Zm6.75-6.42h4.64v4.43q0,1.62-2,1.62h-6.49v-6Zm0,4.1h1.76q.56,0,.56-.14v-2h-3.94v2.13Z" transform="translate(-456.92 -923.1)"/><path class="cls-1" d="M538.85,977H541v15q0,1.14-1.25,1.14h-4v-2h2.83q.26,0,.26-.33Zm-2.58.7h2v12.67h-2Zm15.75-.56v2.18h-4.17V981h3.8v10a2,2,0,0,1-.56,1.46,1.75,1.75,0,0,1-1.32.49h-1.35v-1.81H549q.4,0,.4-.84v-7.12h-1.55v10.21h-2.39V983.15H544v9.77h-2.25V981h3.73v-1.62h-4v-2.18Z" transform="translate(-456.92 -923.1)"/></svg>