<svg id="图层_1" data-name="图层 1" xmlns="http://www.w3.org/2000/svg" viewBox="0 0 190 190"><defs><style>.cls-1{fill:#fff;}</style></defs><rect width="190" height="190"/><path class="cls-1" d="M668.8,937.29h3l-3.09,6.41,1.76,3.26q.43.82.92.82h1.35v2.34h-3q-.74,0-1.25-1l-1.25-2.36-1,2.13q-.66,1.33-1.56,1.33h-2.5v-2.34H663q.72,0,1.54-1.74l1.13-2.38-3.3-6.45h2.83l1.89,3.5Zm-2.95-4.84h2.87v1.27h3.52v2.19h-10v-2.19h3.61Zm7.09,1h2.58v13.26h-2.58Zm4.22-1h2.66v16.43q0,1.41-1.54,1.41h-4v-2.34h2.5q.37,0,.37-.41Z" transform="translate(-655.22 -923.1)"/><path class="cls-1" d="M699.37,932.52v2.42h-4.79v5.33h5.49v2.5h-5.49v5.08q0,2.27-2.71,2.27h-7V947.7h6.27q.55,0,.55-.49v-4.43h-9.55v-2.5h9.55v-5.33h-8.91v-2.42Z" transform="translate(-655.22 -923.1)"/><path class="cls-1" d="M708.18,932.7v2.42h-1.72v4.67h1.41v2.42h-1.41v5.23H708v2.42h-5.86v-2.42h1.64v-5.23H702.4v-2.42h1.41v-4.67h-1.72V932.7Zm2.13-.62h7.5l1.11,1.8q.25.39,1.23.39v2H719q-1.84,0-2.19-.64l-.84-1.48h-3.77l-.72,1.43q-.29.63-1.86.63h-1.23v-2h.08q.76,0,1-.37Zm4.14,7.19v9.67q0,1-1.27,1h-1.72v-1.8h.49a.26.26,0,0,0,.29-.29v-1.09h-1.56V950h-2.17V939.26Zm4.28-2.91v2.05h-9.28v-2.05Zm-8,5.72h1.56v-.94h-1.56Zm0,2.79h1.56v-.94h-1.56Zm4.32-4.92h2v7.19h-2Zm2.58-1h2.17v9.92q0,1.17-1.23,1.17h-2.83v-2h1.56q.33,0,.33-.37Z" transform="translate(-655.22 -923.1)"/><path class="cls-1" d="M673,961l-4.11,5.47h-.47l-4-5.49v9.16h-2.38v-12.6h2.74l3.94,5.42,3.94-5.42h2.72v12.6H673Z" transform="translate(-655.22 -923.1)"/><path class="cls-1" d="M679.87,958.7a1.3,1.3,0,0,1-2.59,0A1.3,1.3,0,0,1,679.87,958.7Zm-2.39,2.47v8.91h2.2v-8.91Z" transform="translate(-655.22 -923.1)"/><path class="cls-1" d="M690.6,961.2l-5.42,12.59h-2.41l1.66-3.85-3.55-8.73h2.56l1.35,3.84.85,2.5.92-2.45,1.62-3.89Z" transform="translate(-655.22 -923.1)"/><path class="cls-1" d="M698.79,961.2h2.11v8.88h-2.07l-.11-1.3a3.37,3.37,0,0,1-2.88,1.57c-2.63,0-4.57-1.6-4.57-4.72a4.32,4.32,0,0,1,4.63-4.65,3.26,3.26,0,0,1,2.83,1.44Zm-5.33,4.43a2.54,2.54,0,0,0,2.63,2.7c3.46,0,3.46-5.38,0-5.38A2.53,2.53,0,0,0,693.46,965.63Z" transform="translate(-655.22 -923.1)"/><path class="cls-1" d="M708.92,957.48v10.41h6.48v2.2h-8.86v-12.6Z" transform="translate(-655.22 -923.1)"/><path class="cls-1" d="M719.31,958.7a1.3,1.3,0,0,1-2.59,0A1.3,1.3,0,0,1,719.31,958.7Zm-2.39,2.47v8.91h2.2v-8.91Z" transform="translate(-655.22 -923.1)"/><path class="cls-1" d="M723.34,961.2v4.65a2.12,2.12,0,0,0,2.14,2.38,2.34,2.34,0,0,0,2.27-2.48V961.2h2.18v8.89h-2l-.14-1.21a4,4,0,0,1-3,1.33c-2.12,0-3.67-1.6-3.67-4.36V961.2Z" transform="translate(-655.22 -923.1)"/><path class="cls-1" d="M669.88,977.62v2.18h-.77V989.9h.77V992h-.77v1.35h-2.34V992h-4.71V989.9h.63V979.8h-.63v-2.18ZM665,981.75h1.76v-2H665Zm0,4.1h1.76v-2H665Zm0,4.06h1.76v-2H665Zm5.41-12.36h2.41l.44,2.39h1.55l.4-2.46h2.39l-.42,2.46H678v2H675.3v2.87h3v2.11h-2.79l1.58,3.69a.92.92,0,0,0,.77.47h.3v2.18h-1.48a1.55,1.55,0,0,1-1.49-1.11L674,989.2l-1.11,2.94q-.37,1.09-1.14,1.09h-1.6V991h.42a.73.73,0,0,0,.65-.47l1.41-3.69h-2.92v-2.11h3.11v-2.87h-2.67v-2h.72Z" transform="translate(-655.22 -923.1)"/><path class="cls-1" d="M683.31,977.32h9.91l1.39,2.25q.37.79.79.79h.7v2.09h-1.85a1.42,1.42,0,0,1-1.21-.69l-1.67-2.34h-6.24l-1.76,2.34a1.53,1.53,0,0,1-1.27.69h-2v-2.09H681q.44,0,.84-.79Zm12.36,5.77v2.13H680.5v-2.13Zm-14.91,3.09h14.57v5.27q0,1.55-1.92,1.55H680.77Zm11.32,4.73q.63,0,.63-.49v-2.13h-9.33v2.62Z" transform="translate(-655.22 -923.1)"/><path class="cls-1" d="M699.75,977.25h5.5l1,1.78q.28.63.6.63h.33v2H706a1.11,1.11,0,0,1-.93-.51l-1.25-1.81h-2.55l-1,1.81a.84.84,0,0,1-.74.51h-1.41v-2h.51q.21,0,.4-.63Zm1.07,7.19v6.31q0,.37.4.37h6v2.11H700q-1.55,0-1.55-1.62v-9.37h7.86v5.64a1.31,1.31,0,0,1-1.48,1.48H702v-2.11h1.63q.4,0,.4-.37v-2.44Zm7-6h2.39v11.25h-2.39Zm3.59-1.21h2.46V992q0,1.28-1.48,1.28h-3.73v-2.11h2.41q.33,0,.33-.37Z" transform="translate(-655.22 -923.1)"/><path class="cls-1" d="M716.57,977.32h2.18v1.48h1.62v-1.55h2.18v1.55h.77v2.11h-.77v6.89a1.22,1.22,0,0,1-.14.54l-1.28,1.81.7.86a.81.81,0,0,0,.51.23H723v2h-1.62a1.14,1.14,0,0,1-.93-.4l-.63-.76-.53.76a.91.91,0,0,1-.79.4h-2.39v-2h1.35a.91.91,0,0,0,.4-.25l.46-.69-1.56-1.92a1.22,1.22,0,0,1-.14-.54V980.9h-.51v-2.11h.51Zm3.8,3.59h-1.62v6a1.17,1.17,0,0,0,.21.49l.65.81.56-.81a1.31,1.31,0,0,0,.19-.49Zm5.4-3.8h2.83l-2.46,4.57h3.43a.19.19,0,0,0,.21-.21l-.4-2.25h2.44l.44,2a2.18,2.18,0,0,1,.07.44v1.2q0,1.13-1.41,1.13h-7.59v-2.18Zm-2.25,7.75h8.37v6.75q0,1.46-1.74,1.46h-6.63Zm5.41,6.19q.56,0,.56-.51v-3.66h-3.59V991Z" transform="translate(-655.22 -923.1)"/><path class="cls-1" d="M741,977h3l-1.32,4.31h2.16l2.67,8.86q.12.62.58.62h2.25v2.32h-3.59a1.49,1.49,0,0,1-1.55-1.32l-2.83-9.56-2.83,9.12q-.47,1.76-1.74,1.76h-3.66v-2.39h2.18q.37,0,.58-.58Z" transform="translate(-655.22 -923.1)"/><path class="cls-1" d="M753.61,977.11h2.81l.81,1.62h5.59l.7-1.62h2.81l-.72,1.62h2.57v1.92h-5.06v1h4.13v2.62h1V986h-1v1.14q0,1.55-2.16,1.55h-2v.7h2.3l.49,1.23q.09.25.28.25H768v1.76H765.3a1.31,1.31,0,0,1-1.37-.79l-.81-2.07v3.5h-2.39v-4.57h-2.25v4.5h-2.39v-3.57l-.69,2.16a1.33,1.33,0,0,1-1.42.84h-1.85v-1.76h1q.14,0,.23-.26l.32-1.21h2.41v-.7h-3.66V987h3.66V986H752.2V984.3h3.88v-.84h-3.66v-1.78h3.66v-1H752.2v-1.92h2.21Zm7.12,4.57v-1h-2.25v1Zm-2.25,1.78v.84h2.25v-.84Zm0,2.58V987h2.25V986Zm4.64-2.58v.84h1.67v-.84Zm0,2.58V987h1.11q.56,0,.56-.33V986Z" transform="translate(-655.22 -923.1)"/><path class="cls-1" d="M770.06,983h3.87v7.17q0,.91,2.41.91h10.25v2.32H776a4.72,4.72,0,0,1-2.72-.7,1.66,1.66,0,0,1-1.48.7h-1.78v-2.25h.63a.51.51,0,0,0,.58-.58V985.4h-1.21Zm1-5.64h2.72v3.25h-2.72ZM786.25,982v2.39h-6.12l-2,3.09h4.69q.51,0,.51-.44v-1.39h2.51V988a1.8,1.8,0,0,1-.53,1.18,2.07,2.07,0,0,1-1.58.7H775v-1.74a1.35,1.35,0,0,1,.32-.7l1.85-3.09h-2.74V982Zm-.58-4.36v2.32H775v-2.32Z" transform="translate(-655.22 -923.1)"/><path class="cls-1" d="M790.12,977h2.74v.58h6.75V977h2.72v.58h1.85v2h-1.85v.62h-2.72v-.62h-6.75v.62h-2.74v-.62h-1.85v-2h1.85Zm14.06,3.67v2.51H801.7v-.62h-11v.62h-2.48v-2.51Zm-15.68,7.95H804v3.5q0,1.28-1.88,1.28H788.5Zm.47-5h14.36v3q0,1.27-1.92,1.27H789Zm11.81,8q.63,0,.63-.44v-.83H791.09v1.27Zm-.7-5.43q.63,0,.63-.4v-.51H791.6v.91Z" transform="translate(-655.22 -923.1)"/><path class="cls-1" d="M807.61,986.62H810l-.86,4.89q-.33,1.72-1.67,1.72H806v-2.11h.7q.23,0,.39-.76Zm1.34-9.58h2.62l.33,1.76h4.41l.3-1.76h2.62l-.32,1.76h2.34v5.36q0,1.62-1.69,1.62H807v-7h2.34Zm9.51,6.56q.54,0,.54-.51V981h-9.77v2.62Zm-8,2.65h2.32v4.66q0,.33.44.33h5.61v2.13h-7q-1.35,0-1.35-1.28Zm3.6.44h2.11v1.6q0,.37.33.37h1.28v2h-2.48q-1.25,0-1.25-1.11Zm4.2-.07h2.41l.56,3.83q.11.74.35.74h.84v2h-1.76q-1.09,0-1.41-1.6Z" transform="translate(-655.22 -923.1)"/><path class="cls-1" d="M839.25,985.77v5.34h.93v2h-16v-2h1v-5.34Zm-14.34-8h2.32v6.63h-2.32Zm2.69,13.31H829v-3.23H827.6Zm.7-14h2.37v7.82H828.3Zm4.76,0h2.62l-.47,1.07h5v2h-5.84l-.09.19a1.57,1.57,0,0,1-1.53,1.09h-1.41V979.5h.4a.68.68,0,0,0,.65-.54Zm-1.67,14h1.48v-3.23h-1.48Zm2.18-9.65h2.74l.26.76a.8.8,0,0,0,.79.53h2.18v2h-3.23a2.14,2.14,0,0,1-2.09-1.55Zm1.67,9.65h1.55v-3.23h-1.55Z" transform="translate(-655.22 -923.1)"/><path class="cls-1" d="M665.25,1028.22a4.33,4.33,0,0,0,.54-1l-3.31.12-.13-.76a7.35,7.35,0,0,0,3-2.05l.84.29a12,12,0,0,1-2.07,1.74c1.61,0,3.12-.13,4.56-.23-.35-.31-.72-.62-1.12-.95l.66-.42a22.44,22.44,0,0,1,2.72,2.41l-.72.5a10.85,10.85,0,0,0-.82-.85l-2.69.16a6.54,6.54,0,0,1-.49,1h5.47v.79h-3a7.5,7.5,0,0,0,3.31,1.71l-.37.79a8,8,0,0,1-3.85-2.51h-2.17a10.13,10.13,0,0,1-4.21,2.57l-.4-.77a9.19,9.19,0,0,0,3.55-1.8h-3.31v-.79Zm5.11,3.41q-1.66,3-7.18,4.13l-.49-.67c3.62-.77,5.92-2,6.91-3.79Zm-1.67-.74a9,9,0,0,1-5.34,3l-.49-.66a8.1,8.1,0,0,0,5.16-2.76Zm-1.52-1a8,8,0,0,1-3.74,2.39l-.37-.67a7.44,7.44,0,0,0,3.44-2.12Z" transform="translate(-655.22 -923.1)"/><path class="cls-1" d="M680.78,1031.76v.84h-7v-.84Zm-4.14-7.12-.17,1.58h6.58v.83h-6.67l-.22,2H683c0,3.29-.22,5.19-.64,5.72a3.6,3.6,0,0,1-2.7.74c-.43,0-.89,0-1.36,0l-.23-.79c.67,0,1.13.07,1.39.07,1.27,0,2-.24,2.27-.7a12.48,12.48,0,0,0,.4-4.21h-7l.59-5.24Z" transform="translate(-655.22 -923.1)"/><path class="cls-1" d="M691.52,1033.59a7.45,7.45,0,0,0,3.14-2.46h-3.55a14.43,14.43,0,0,1-3.75,1.14l-.52-.77a8.94,8.94,0,0,0,5.79-2.39l.74.41a8.57,8.57,0,0,1-.92.82h3.29v.68c-1.7,2.83-4.87,4.29-9.52,4.4l-.35-.83a15.59,15.59,0,0,0,4.85-.7,12.79,12.79,0,0,0-1.27-1.46l.77-.36A16,16,0,0,1,691.52,1033.59Zm-.08-8.6a9.12,9.12,0,0,1-.68.68h3.44v.68c-1.29,2.3-3.71,3.6-7.21,3.87l-.37-.78a13.58,13.58,0,0,0,2.9-.48,11.77,11.77,0,0,0-1.18-1.25l.76-.36a12.68,12.68,0,0,1,1.22,1.32,6.23,6.23,0,0,0,2.89-2.24h-3.5a11.39,11.39,0,0,1-3.32,1.26l-.5-.79a8.43,8.43,0,0,0,4.79-2.33Z" transform="translate(-655.22 -923.1)"/><path class="cls-1" d="M703.23,1024.63a12.57,12.57,0,0,0,5.18,4.37l-.52.78a12.82,12.82,0,0,1-5-4.34,13.57,13.57,0,0,1-5,4.39l-.52-.78a13.38,13.38,0,0,0,5.18-4.41Zm.06,3.54v7.44h-.89v-7.44Z" transform="translate(-655.22 -923.1)"/><path class="cls-1" d="M711.1,1027.48v-2.71H712v2.71h2.45v-2.82h.85v2.82h2.44v-2.82h.85v2.82h1.81v.83h-1.81v3.78h-4.14v-3.78H712v6h8v.88H711.1v-6.85h-1.54v-.83Zm4.17,3.77h2.44v-2.94h-2.44Z" transform="translate(-655.22 -923.1)"/><path class="cls-1" d="M731.26,1025.09v4.76H729a8,8,0,0,0,3.69,2.19l-.37.76a10.51,10.51,0,0,1-2.87-1.54v4.38h-.86v-4.51h.71a6,6,0,0,1-1.2-1.28h-1.93a9.07,9.07,0,0,1-4.14,2.85l-.46-.76a8.72,8.72,0,0,0,3.69-2.1H723v-4.76Zm-5.42,6a6.24,6.24,0,0,1-.42,2.41,4.33,4.33,0,0,1-2.46,2.12l-.58-.7a4.1,4.1,0,0,0,2.17-1.67,5.39,5.39,0,0,0,.42-2.17Zm.84-4v-1.24h-2.87v1.24Zm0,.72h-2.87v1.27h2.87Zm.84-.72h2.91v-1.24h-2.91Zm2.91.72h-2.91v1.27h2.91Z" transform="translate(-655.22 -923.1)"/><path class="cls-1" d="M739.47,1025.86v.88h-4.17l-.29,2.87h0a2.22,2.22,0,0,1,.92-.65,2.71,2.71,0,0,1,1.09-.2,2.64,2.64,0,0,1,2,.77,3,3,0,0,1,.77,2.17,2.74,2.74,0,0,1-.92,2.12,3.33,3.33,0,0,1-4.07.17,2.47,2.47,0,0,1-1-1.86h1a1.66,1.66,0,0,0,.65,1.25,2.14,2.14,0,0,0,1.31.38,2,2,0,0,0,1.49-.58,2,2,0,0,0,.59-1.48,2.19,2.19,0,0,0-.55-1.58,1.87,1.87,0,0,0-1.46-.56,2.2,2.2,0,0,0-1.09.26,1.7,1.7,0,0,0-.77.77H734l.46-4.73Z" transform="translate(-655.22 -923.1)"/><path class="cls-1" d="M746.47,1027a7.34,7.34,0,0,1,0,6.19,2.65,2.65,0,0,1-4.63,0,7.34,7.34,0,0,1,0-6.19,2.65,2.65,0,0,1,4.63,0Zm-4,.72a6.33,6.33,0,0,0-.36,2.38,6.42,6.42,0,0,0,.36,2.37,1.73,1.73,0,0,0,3.31,0,6.38,6.38,0,0,0,.37-2.37,6.3,6.3,0,0,0-.37-2.37,1.73,1.73,0,0,0-3.31,0Z" transform="translate(-655.22 -923.1)"/><path class="cls-1" d="M753.8,1027a7.34,7.34,0,0,1,0,6.19,2.65,2.65,0,0,1-4.63,0,7.34,7.34,0,0,1,0-6.19,2.65,2.65,0,0,1,4.63,0Zm-4,.72a6.33,6.33,0,0,0-.36,2.38,6.42,6.42,0,0,0,.36,2.37,1.73,1.73,0,0,0,3.31,0,6.38,6.38,0,0,0,.37-2.37,6.3,6.3,0,0,0-.37-2.37,1.73,1.73,0,0,0-3.31,0Z" transform="translate(-655.22 -923.1)"/><path class="cls-1" d="M756.89,1030.51h2.55a26,26,0,0,1-.19,3.93c-.14.68-.74,1-1.79,1.09-.31,0-.61,0-.92,0l-.2-.79c.31,0,.62,0,.94,0,.67,0,1.07-.23,1.18-.66a16.66,16.66,0,0,0,.16-2.82H756l.37-3.48h2.12v-1.88h-2.39v-.8h3.2v3.47h-2.19Zm5.89-1.39v-1h-2.11v-3h5.1v3h-2.12v1h2.53v3.24h-2.53v1.82l1.61-.23c-.14-.36-.3-.72-.46-1.08l.78-.22a21.34,21.34,0,0,1,1,2.71l-.76.29c-.1-.32-.2-.64-.31-.95-1.7.26-3.53.48-5.44.67l-.2-.83c1-.07,2-.17,2.89-.26v-1.93h-2.54v-3.24Zm0,.74H761v1.75h1.76Zm2.19-4h-3.5v1.55H765Zm.41,4h-1.74v1.75h1.74Z" transform="translate(-655.22 -923.1)"/><path class="cls-1" d="M773.65,1024.66a17.15,17.15,0,0,0,5.25,4l-.47.83a16.57,16.57,0,0,1-5.1-4,16.73,16.73,0,0,1-5.15,4l-.46-.83a17.52,17.52,0,0,0,5.29-4Zm.47,3.17v2.7h3.27v.83h-3.27v3h4.14v.84h-10v-.84h1.81v-4.75h.85v4.75h2.3v-6.48Z" transform="translate(-655.22 -923.1)"/><path class="cls-1" d="M784.6,1024.74v9.54h1.7v-9.54h.88v9.54h3.6v.84H780.15v-.84h3.57v-9.54Zm-1.74,7.74-.79.2a44.85,44.85,0,0,0-1.62-5.54l.73-.24A42.59,42.59,0,0,1,782.86,1032.48Zm7.59-5.34a27.67,27.67,0,0,1-1.81,5.48l-.78-.28a25.89,25.89,0,0,0,1.82-5.42Z" transform="translate(-655.22 -923.1)"/><path class="cls-1" d="M792.55,1032.06l-.54-.71a13.81,13.81,0,0,0,3.5-4.25h-3.08v-.85h3.49a13.86,13.86,0,0,0,.62-1.71l.9.11a16.79,16.79,0,0,1-.56,1.61h6v.85H796.5a14.78,14.78,0,0,1-1.68,2.65v5.9H794v-4.92A18.63,18.63,0,0,1,792.55,1032.06Zm6.09-1.85V1028h.88v2.23h2.87v.84h-2.87v3.31h3.41v.85h-7.52v-.85h3.24V1031H795.9v-.84Z" transform="translate(-655.22 -923.1)"/><path class="cls-1" d="M804.64,1028.85l-.28-.89a9.63,9.63,0,0,0,3.29-3.37l.73.34a9.07,9.07,0,0,1-1.36,1.93v4h-.84v-3.15A14.49,14.49,0,0,1,804.64,1028.85Zm4.62,2.91v-1.18h.89v1.18h4.77v.84h-4.77v3h-.89v-3h-4.73v-.84Zm1.87-1.36a.94.94,0,0,1-1.08-1v-.94c-.58.24-1.16.46-1.76.67l-.48-.72c.82-.26,1.56-.55,2.24-.85v-2.75h.83v2.36a13,13,0,0,0,3-2l.59.6a16.66,16.66,0,0,1-3.61,2.3v1.14c0,.28.17.42.5.42h1.8a1,1,0,0,0,.67-.18,2.69,2.69,0,0,0,.35-1.43l.82.26a3,3,0,0,1-.55,1.85,1.81,1.81,0,0,1-1.13.29Z" transform="translate(-655.22 -923.1)"/><path class="cls-1" d="M816.76,1035.49l-.18-.84c.31,0,.62,0,.91,0a.44.44,0,0,0,.49-.5v-2.93c-.48.2-1,.4-1.49.56l-.22-.86a14.34,14.34,0,0,0,1.7-.58v-2.74h-1.46v-.83H818v-2.2h.86v2.2h1.37v.83h-1.37V1030c.44-.22.88-.46,1.31-.72v.89c-.43.24-.86.48-1.31.7v3.54a1,1,0,0,1-1.06,1.08Zm9.58-5.73v.8a6.81,6.81,0,0,1-1.85,2.9,12.52,12.52,0,0,0,3,1.44l-.47.74a12.92,12.92,0,0,1-3.09-1.66,11.38,11.38,0,0,1-3.44,1.68l-.47-.73a11.25,11.25,0,0,0,3.21-1.52,6.21,6.21,0,0,1-1.86-2.82h-.72v-.84Zm-.78-4.65v2.58c0,.29.17.44.5.44h1v.8h-1.22c-.77,0-1.14-.36-1.14-1.06v-2h-2.33v.7a2.89,2.89,0,0,1-1.66,2.63l-.58-.66a2.07,2.07,0,0,0,1.38-1.88v-1.6Zm-1.76,7.83a6.43,6.43,0,0,0,1.69-2.34h-3.37A5.53,5.53,0,0,0,823.8,1032.93Z" transform="translate(-655.22 -923.1)"/><path class="cls-1" d="M831.56,1027.72a11.52,11.52,0,0,1-2.23,1.76l-.58-.67a11.44,11.44,0,0,0,2.3-1.68Zm2.91,3.57a5,5,0,0,1-1.09,3.07c-.62.65-2,1.07-4.17,1.24l-.34-.77c1.91-.11,3.17-.43,3.78-1a4,4,0,0,0,1-2.63Zm-3.09-5.58-.46.7a9.75,9.75,0,0,0-2-.89l.42-.65A10.64,10.64,0,0,1,831.38,1025.71Zm6.43,7.81h-.86v-2.76h-6v2.85h-.86V1030h7.71Zm-3.71-8.83a7.39,7.39,0,0,1-.31.77h4.83v.52a11.9,11.9,0,0,1-.58,1.75l-.83-.25a6.76,6.76,0,0,0,.52-1.26h-2a3.79,3.79,0,0,1-.22.79q.94,1.39,3.71,1.91l-.31.77a6.09,6.09,0,0,1-3.74-2,4.64,4.64,0,0,1-.48.61,6.31,6.31,0,0,1-2.89,1.31l-.32-.77a5.81,5.81,0,0,0,2.55-1.06,2.93,2.93,0,0,0,.88-1.59h-1.54a6.93,6.93,0,0,1-1.19,1.19l-.5-.67a4.33,4.33,0,0,0,1.61-2.15ZM839,1035l-.47.72a23.43,23.43,0,0,0-4.23-1.54l.44-.66A27.21,27.21,0,0,1,839,1035Z" transform="translate(-655.22 -923.1)"/><path class="cls-1" d="M661.13,1041v-.84h3.71v.84h-1.39v5.42c.52-.18,1-.36,1.48-.55v.86a28.65,28.65,0,0,1-3.67,1.22l-.25-.85c.54-.13,1.06-.26,1.56-.41V1041Zm7.84,2.18v2.06a5,5,0,0,1-1,3.11,6.47,6.47,0,0,1-3.11,1.68l-.47-.74a5.94,5.94,0,0,0,2.93-1.5,4.29,4.29,0,0,0,.82-2.54v-2.06Zm3-3.68v.84h-2.87c-.07.46-.16.88-.25,1.28h2.54v5.64h-.84v-4.84h-3.85v4.84h-.83v-5.64H668a8.6,8.6,0,0,0,.26-1.28h-2.93v-.84Zm.13,9.94-.62.62a16.52,16.52,0,0,0-2.45-2.23l.58-.55A17.85,17.85,0,0,1,672.07,1049.48Z" transform="translate(-655.22 -923.1)"/><path class="cls-1" d="M683,1050h-.88v-.78h-6.62v.78h-.88v-10.33H683Zm-.88-7.42v-2.06h-6.62v2.06Zm0,2.91v-2.1h-6.62v2.1Zm0,2.89v-2.08h-6.62v2.08Z" transform="translate(-655.22 -923.1)"/><path class="cls-1" d="M688.13,1048.57a2.45,2.45,0,0,1-1.36,2.29l-.32-.52a2,2,0,0,0,1-1.55l-.19,0a.79.79,0,0,1-.53-.19.75.75,0,0,1,0-1,.73.73,0,0,1,.53-.19C687.84,1047.4,688.13,1047.79,688.13,1048.57Z" transform="translate(-655.22 -923.1)"/><path class="cls-1" d="M702.92,1040.26v5.82h1.39v.8h-1.39v1.94H702v-1.94h-4.31v-.93l4.32-5.69Zm-4.41,5.82H702v-4.53h0Z" transform="translate(-655.22 -923.1)"/><path class="cls-1" d="M706,1043.34l-.58-.72a6.65,6.65,0,0,0,2.45-3.71l.9.17a12.43,12.43,0,0,1-.46,1.28h7.45v.84H712v1.92h3.35v.83H712v2.59h4.15v.84H712v2.67h-.88v-2.67h-5.54v-.84h2v-3.42h3.56v-1.92h-3.23A7.21,7.21,0,0,1,706,1043.34Zm5.12,3.2v-2.59h-2.7v2.59Z" transform="translate(-655.22 -923.1)"/><path class="cls-1" d="M728.62,1048.89l-.14.83h-3.55a8.67,8.67,0,0,1-4.64-.94,4.09,4.09,0,0,1-.41-.35,6.36,6.36,0,0,1-1.42,1.48l-.56-.73a6,6,0,0,0,1.42-1.44,8.41,8.41,0,0,1-1.14-2.55l.72-.26a8.83,8.83,0,0,0,.84,2.07,8,8,0,0,0,.72-3h-2.22v-.67a22.17,22.17,0,0,0,1.92-2.88h-2v-.82h2.94v.71a28.8,28.8,0,0,1-1.77,2.87h1.88v.52a9.24,9.24,0,0,1-.95,4,2.66,2.66,0,0,0,.59.48,8.06,8.06,0,0,0,3.68.71C725.88,1049,727.23,1048.93,728.62,1048.89Zm-3.5-5v1h2.81v.71h-2.81v1h3.15v.73h-3.15v1.19h-.84v-1.19h-2.72v-.73h2.72v-1h-2.35v-.71h2.35v-1h-2.1v-.72h2.1v-1H721.6v-.72h2.69v-.95h-2.1v-.72h2.1V1039h.84v.88h2.57v1.67h.8v.72h-.8v1.68Zm0-2.4h1.73v-.95h-1.73Zm0,1.68h1.73v-1h-1.73Z" transform="translate(-655.22 -923.1)"/><path class="cls-1" d="M730.89,1042.61l-.74-.47a9.43,9.43,0,0,0,1.68-3.18l.83.18c-.11.34-.22.66-.34,1h3.13v.79h-1.69a10.06,10.06,0,0,1,.68,1.32l-.78.29a13.26,13.26,0,0,0-.79-1.61H732A10.52,10.52,0,0,1,730.89,1042.61Zm-.53,1.32v-.84h3.8v.84h-1.48v3.84q.9-.25,1.73-.54v.79a33,33,0,0,1-4.08,1.1l-.19-.82c.59-.1,1.16-.22,1.71-.34v-4Zm8.84,5.87c-.5,0-.74-.28-.74-.83v-5.21H736v.83a14.63,14.63,0,0,1-.25,3.12,6.28,6.28,0,0,1-1.19,2.27l-.65-.55a5.4,5.4,0,0,0,1-1.87,11.43,11.43,0,0,0,.28-3V1043h4v5.72c0,.22.07.34.24.34h.3c.1,0,.18-.08.25-.23a11.26,11.26,0,0,0,.14-1.57l.72.24a7.94,7.94,0,0,1-.31,1.94.72.72,0,0,1-.68.37Zm-3.06-7.59-.71-.46a8.26,8.26,0,0,0,1.34-2.77l.83.18c-.1.34-.2.65-.32,1h3.49v.79h-1.83a9.28,9.28,0,0,1,.77,1.32l-.78.29a11.15,11.15,0,0,0-.9-1.61h-1.1A9.82,9.82,0,0,1,736.15,1042.2Zm2.25,5.14-.64.44a18.05,18.05,0,0,0-1.58-2.47l.62-.4A19.16,19.16,0,0,1,738.4,1047.34Z" transform="translate(-655.22 -923.1)"/><path class="cls-1" d="M745.8,1039.49a9.55,9.55,0,0,1-3.24,3.53l-.25-.86a8.32,8.32,0,0,0,2.71-3Zm.56,2.73a9.51,9.51,0,0,1-1.31,1.92V1050h-.85v-5a15.29,15.29,0,0,1-1.57,1.25l-.25-.86a9.76,9.76,0,0,0,3.2-3.54Zm6.82.61v.85h-1.94v5.24c0,.7-.4,1-1.16,1h-1.76l-.18-.85c.58,0,1.12.06,1.64.06s.59-.16.59-.47v-5H746.6v-.85Zm-.53-3v.85h-5.74v-.85Z" transform="translate(-655.22 -923.1)"/><path class="cls-1" d="M759.26,1039.14v9.54H761v-9.54h.88v9.54h3.6v.84H754.81v-.84h3.57v-9.54Zm-1.74,7.74-.79.2a44.94,44.94,0,0,0-1.62-5.54l.73-.24A42.59,42.59,0,0,1,757.52,1046.88Zm7.59-5.34a27.67,27.67,0,0,1-1.81,5.48l-.78-.28a25.89,25.89,0,0,0,1.82-5.42Z" transform="translate(-655.22 -923.1)"/><path class="cls-1" d="M770.38,1039.1a35.74,35.74,0,0,1-.29,4.86,22.08,22.08,0,0,1,2.36,3l-.65.66a18.89,18.89,0,0,0-1.88-2.64,9.14,9.14,0,0,1-2.49,5l-.6-.73a8.64,8.64,0,0,0,2.24-4.39,30.81,30.81,0,0,0,.43-5.68Zm4.68,0c0,1.2,0,2.31-.13,3.32a14.14,14.14,0,0,0,3.07,6.74l-.62.74a15.24,15.24,0,0,1-2.7-5.36c0,.12,0,.24-.06.36A9.26,9.26,0,0,1,772,1050l-.6-.73a8.64,8.64,0,0,0,2.36-4.43,32.12,32.12,0,0,0,.46-5.73Z" transform="translate(-655.22 -923.1)"/><path class="cls-1" d="M783.88,1039.14v9.54h1.7v-9.54h.88v9.54h3.6v.84H779.43v-.84H783v-9.54Zm-1.74,7.74-.79.2a44.94,44.94,0,0,0-1.62-5.54l.73-.24A42.59,42.59,0,0,1,782.14,1046.88Zm7.59-5.34a27.67,27.67,0,0,1-1.81,5.48l-.78-.28a25.89,25.89,0,0,0,1.82-5.42Z" transform="translate(-655.22 -923.1)"/><path class="cls-1" d="M795.56,1048.17a18.43,18.43,0,0,1-3.83,1.4l-.12-.83a17.26,17.26,0,0,0,3.95-1.39Zm-1.08-8.84a19.14,19.14,0,0,1-1.81,3.66c.55,0,1.1-.12,1.67-.22.23-.42.47-.86.71-1.33l.79.3a27.43,27.43,0,0,1-2.76,4.33,19.84,19.84,0,0,0,2.51-.72v.79a18.37,18.37,0,0,1-3.56.88l-.23-.79a1.38,1.38,0,0,0,.38-.24,12.71,12.71,0,0,0,1.73-2.45l-2.05.3-.22-.79a.91.91,0,0,0,.36-.32,19.7,19.7,0,0,0,1.66-3.72Zm1.62,5.34-.54-.71a8.48,8.48,0,0,0,4.67-3.57h-4.1v-.83h5.13v.68a6.77,6.77,0,0,1-1.3,2,18.36,18.36,0,0,1,2.57,1.91l-.64.64a15.77,15.77,0,0,0-2.5-2A11.08,11.08,0,0,1,796.1,1044.67Zm.12,1.45v-.84h5.6v.84h-2.36v2.65h2.91v.84h-6.69v-.84h2.89v-2.65Z" transform="translate(-655.22 -923.1)"/><path class="cls-1" d="M814.51,1040.45h-8.74V1044a13.22,13.22,0,0,1-1.28,6l-.67-.6a12.18,12.18,0,0,0,1.08-5.41v-4.39h9.62Zm-1,8.48a1.64,1.64,0,0,1-1.58.95l-1.42,0-.23-.82,1.44.06a1.07,1.07,0,0,0,1.12-.85,23.52,23.52,0,0,0,.29-4.28h-2.78a9.49,9.49,0,0,1-.9,3.31,6.27,6.27,0,0,1-3,2.74l-.48-.76a5.92,5.92,0,0,0,2.84-2.61,9.17,9.17,0,0,0,.68-2.67h-2.82v-.78h2.89l0-.95v-1.16h.88v1.16l0,.95H814C814,1046.37,813.83,1048.29,813.53,1048.93Z" transform="translate(-655.22 -923.1)"/><path class="cls-1" d="M819.53,1047.1a2.45,2.45,0,0,1-1.35,2.29l-.32-.52a2,2,0,0,0,1-1.55l-.2,0a.74.74,0,0,1-.52-.19.75.75,0,0,1,0-1,.69.69,0,0,1,.52-.19C819.24,1045.94,819.53,1046.32,819.53,1047.1Zm-.34-5.36a.69.69,0,0,1,.2.5.69.69,0,0,1-.2.52.76.76,0,0,1-.53.2.74.74,0,0,1-.52-.2.69.69,0,0,1-.2-.52.64.64,0,0,1,.2-.5.69.69,0,0,1,.52-.2A.71.71,0,0,1,819.19,1041.74Z" transform="translate(-655.22 -923.1)"/><path class="cls-1" d="M831,1045.32a6.18,6.18,0,0,1-1.73,2.64l-.65-.56a5.44,5.44,0,0,0,1.61-2.37Zm.47-5v-1.22h.88v1.22h3.14v-1.22h.88v1.22h2.83v.83h-2.83v1.09h-.88v-1.09h-3.14v1.08h-.88v-1.08h-2.71v-.83Zm2.41,1.79v1.14h3.32c0,1.61-.11,2.91-.2,3.92a5.51,5.51,0,0,1-.54,2.06,1.5,1.5,0,0,1-1.21.61h-1.7l-.23-.82,1.51,0a1.11,1.11,0,0,0,1.12-.92,20.66,20.66,0,0,0,.36-4h-2.47a8.33,8.33,0,0,1-1,3.59,6.28,6.28,0,0,1-3.14,2.41l-.48-.77a5.78,5.78,0,0,0,3-2.25,7.62,7.62,0,0,0,.78-3h-3.25v-.84H833v-1.14Zm5.65,5.59-.66.48a23.28,23.28,0,0,0-1.61-2.83l.67-.42A22.77,22.77,0,0,1,839.52,1047.67Z" transform="translate(-655.22 -923.1)"/><path class="cls-1" d="M662.89,1056.52A15.2,15.2,0,0,1,662,1060l-.78-.26a14.16,14.16,0,0,0,.91-3.47Zm1.63-2.94v3.66c0,3.29-.79,5.68-2.28,7.2l-.64-.56q2.05-2.07,2.09-6.63v-3.66Zm2.11,6-.71.36a19.41,19.41,0,0,0-1.31-3l.7-.3A21.24,21.24,0,0,1,666.63,1059.56Zm1.27-5.7V1064h-.84v-10.16Zm2,5.58-.7.35a19.06,19.06,0,0,0-1.3-3l.7-.3A19.15,19.15,0,0,1,669.94,1059.44Zm1.26-6v10.95h-.83v-10.95Z" transform="translate(-655.22 -923.1)"/><path class="cls-1" d="M678.91,1055.63v-2.17h.89v2.17h4.68v.83h-3.91a12.33,12.33,0,0,0,4.31,5.11l-.59.74a13.92,13.92,0,0,1-4.39-5.85h-.1v4.68h2.57v.83h-2.57v2.46h-.89V1062h-2.47v-.83h2.47v-4.68h-.08a12.75,12.75,0,0,1-4.53,6l-.49-.8a11.47,11.47,0,0,0,4.34-5.21h-3.92v-.83Z" transform="translate(-655.22 -923.1)"/><path class="cls-1" d="M690.45,1061.68a21.16,21.16,0,0,1-3.56,1.28l-.22-.86c.5-.11,1-.24,1.51-.38v-4.27h-1.37v-.84h1.37v-3.09H689v3.09h1.25v.84H689v4c.48-.18,1-.38,1.42-.6Zm6.68-1.52c-.12.5-.64.77-1.54.77h-.07l-.24-.85.49,0a.54.54,0,0,0,.6-.4,23,23,0,0,0,.11-2.83l-1.75.53v4.53h-.84v-4.28l-1.75.53v4.65c0,.36.2.55.62.55h3.37a.58.58,0,0,0,.53-.24,4.64,4.64,0,0,0,.28-1.75l.8.25a4.46,4.46,0,0,1-.48,2.21,1.25,1.25,0,0,1-1,.35H692.5a1.06,1.06,0,0,1-1.2-1.2v-4.57l-1,.31v-.84l1-.31v-3h.84v2.69l1.75-.54v-3.37h.84v3.11l2.58-.79A29.93,29.93,0,0,1,697.13,1060.16Z" transform="translate(-655.22 -923.1)"/><path class="cls-1" d="M710.42,1058.1v.7H705v3.79l.7-.11v.68l-.7.12v1.16h-.84v-1.06c-1.14.13-2.54.25-4.21.35l-.11-.74,1.12,0v-4.15h-1.15v-.7Zm-1.48-4.25v3.45h-7.58v-3.45Zm-4.75,5.84v-.9h-2.42v.9Zm0,1.55v-.9h-2.42v.9Zm0,1.45v-.82h-2.42v1C702.66,1062.85,703.48,1062.78,704.2,1062.69Zm3.92-7.42v-.77h-5.92v.77Zm0,.61h-5.92v.8h5.92Zm-2.46,4.43v-.71h4.09v.67a5.71,5.71,0,0,1-1.21,2.39,8.84,8.84,0,0,0,1.89,1.06l-.44.72a9.51,9.51,0,0,1-2-1.22,7.62,7.62,0,0,1-2,1.22l-.44-.67a7.57,7.57,0,0,0,1.86-1.1,5.38,5.38,0,0,1-1.35-2.35Zm3.31,0h-2.18a4.38,4.38,0,0,0,1.14,1.83A5.21,5.21,0,0,0,709,1060.31Z" transform="translate(-655.22 -923.1)"/><path class="cls-1" d="M721.6,1061.23h1.73v.8h-3.62a18,18,0,0,1,3.37,1.64l-.48.73a16.82,16.82,0,0,0-3.45-1.78l.41-.6H716.2l.62.54a13.52,13.52,0,0,1-3.37,1.86l-.53-.68a13.92,13.92,0,0,0,3.25-1.71h-3.49v-.8h1.73v-7.34h7.2Zm-.88-5.43v-1.09h-5.44v1.09Zm0,1.8v-1.12h-5.44v1.12Zm0,1.81v-1.1h-5.44v1.1Zm0,1.82v-1.13h-5.44v1.13Z" transform="translate(-655.22 -923.1)"/><path class="cls-1" d="M727.16,1062.21a9.16,9.16,0,0,1-1.18,2l-.61-.44a8.11,8.11,0,0,0,1.14-1.91Zm4.11-8.38v3.24h-2.34l.17.74h2.76v.68h-6.4v-.68h2.84l-.18-.74h-2v-3.24Zm-.08,5.35v2.31h-2.07v2a.77.77,0,0,1-.88.85h-.86l-.17-.76c.26,0,.53,0,.77,0a.28.28,0,0,0,.31-.32v-1.79h-2.06v-2.31Zm-.71-4v-.77H726.9v.77Zm0,.55H726.9v.73h3.59Zm-.08,4H727v1.09h3.38Zm1.09,3.78-.61.43a13.35,13.35,0,0,0-1-1.71l.6-.37A13,13,0,0,1,731.49,1063.57Zm4.94-3.33a8.79,8.79,0,0,1-4.45,4.16l-.35-.78a8.18,8.18,0,0,0,4.13-3.89Zm-.61-6.09a11.73,11.73,0,0,1-3.55,2.35l-.36-.74a9.75,9.75,0,0,0,3.38-2.21Zm.3,3.15a11.54,11.54,0,0,1-3.6,2.73l-.36-.74a9.73,9.73,0,0,0,3.43-2.59Z" transform="translate(-655.22 -923.1)"/><path class="cls-1" d="M741.73,1063.24h-.84v-.73h-1.32v1h-.84v-9.08h3Zm-.84-1.54v-6.44h-1.32v6.44Zm5.12-8.23a10.71,10.71,0,0,1-.37,1.51h3.25v8c0,.91-.38,1.38-1.13,1.38h-1.42l-.23-.84,1.35,0c.37,0,.56-.25.56-.74v-7h-4.69v8.56h-.84V1055h2.23a10.5,10.5,0,0,0,.35-1.64Zm1,3.66v4.7H744.3v-4.7Zm-.74.72H745v3.26h1.26Z" transform="translate(-655.22 -923.1)"/><path class="cls-1" d="M756.55,1053.46v1.1c0,.41,0,.79,0,1.16h4.61c0,2.1-.12,3.8-.24,5.11a7.43,7.43,0,0,1-.61,2.7,1.56,1.56,0,0,1-1.33.8h-1.62l-.24-.84c.5,0,1,0,1.43,0,.66,0,1.09-.43,1.31-1.28a34.66,34.66,0,0,0,.42-5.7h-3.78a14.13,14.13,0,0,1-1,4.4,7.5,7.5,0,0,1-3.47,3.45l-.47-.76a7.11,7.11,0,0,0,3.27-3.37,13.54,13.54,0,0,0,.82-3.73h-3.5v-.83h3.56c0-.38,0-.78,0-1.16v-1.1Z" transform="translate(-655.22 -923.1)"/><path class="cls-1" d="M769.32,1053.37v2.1h3.51v.42l-.24,2.81h1.7c0,2.3-.2,3.65-.56,4a1.37,1.37,0,0,1-.72.37,4.23,4.23,0,0,1-.78.08h-.79l-.23-.82h1.16a1,1,0,0,0,.77-.3,6.86,6.86,0,0,0,.3-2.57h-4.13v4.91h-.86v-4.91H764.2v-.83h4.26v-2.4h-3.57v-.83h3.57v-2.1Zm2.43,5.33.23-2.4h-2.66v2.4Zm3-3.66-.46.72a10.58,10.58,0,0,0-2.42-1.69l.44-.65A12.69,12.69,0,0,1,774.78,1055Z" transform="translate(-655.22 -923.1)"/><path class="cls-1" d="M780.62,1055.08c.07-.53.13-1.08.19-1.64h.86c-.06.58-.12,1.13-.19,1.64h6.22v.84h-6.34c-.11.65-.22,1.25-.34,1.8h5.49v.76a8.57,8.57,0,0,1-2.29,3.42,10.42,10.42,0,0,0,3.66,1.7l-.43.79a10.92,10.92,0,0,1-3.89-1.93,14,14,0,0,1-3.83,2l-.46-.82a12.71,12.71,0,0,0,3.65-1.71,7.86,7.86,0,0,1-2-3.37h-.08a14.89,14.89,0,0,1-.48,1.55,12.32,12.32,0,0,1-2.81,4.23l-.54-.7a12.09,12.09,0,0,0,2.55-3.87,20.17,20.17,0,0,0,.94-3.81h-3.18v-.84Zm3,6.28a7.28,7.28,0,0,0,2-2.84h-3.89A7.17,7.17,0,0,0,783.59,1061.36Z" transform="translate(-655.22 -923.1)"/><path class="cls-1" d="M795.63,1053.42a17.38,17.38,0,0,0,5.25,4l-.47.83a16.78,16.78,0,0,1-5.1-4.09,16.9,16.9,0,0,1-5.15,4.1l-.46-.83a17.5,17.5,0,0,0,5.29-4Zm4.52,6.09v.84H794.5a12.4,12.4,0,0,1-2.09,3c2-.12,3.81-.29,5.59-.53-.41-.53-.85-1.08-1.34-1.63l.67-.43a28.1,28.1,0,0,1,2.52,3.18l-.72.5c-.2-.32-.42-.65-.66-1-1.87.3-4.23.54-7.1.71l-.24-.75a1,1,0,0,0,.46-.23,14.74,14.74,0,0,0,1.93-2.79h-3v-.84Zm-1.87-2.41v.82h-5.89v-.82Z" transform="translate(-655.22 -923.1)"/><path class="cls-1" d="M807,1063.68h-.84V1063H804v1h-.84v-8.53h1.12a11,11,0,0,0,.52-2.09l.86.12a11.49,11.49,0,0,1-.56,2H807Zm-.84-4.89v-2.47H804v2.47Zm0,3.41v-2.63H804v2.63Zm6.86.71a1.48,1.48,0,0,1-1.68,1.38l-1.22,0-.2-.79c.5,0,.94,0,1.31,0a.93.93,0,0,0,1-.92c.07-.67.12-2.75.14-6.2h-3.3a10.08,10.08,0,0,1-1.2,2.05l-.52-.68a10.6,10.6,0,0,0,1.71-4.32l.85.11a15.63,15.63,0,0,1-.53,2h3.83C813.25,1059.49,813.19,1062,813.07,1062.9Zm-2-2-.68.48a23.48,23.48,0,0,0-2-2.66l.7-.43A20.24,20.24,0,0,1,811.1,1060.89Z" transform="translate(-655.22 -923.1)"/><path class="cls-1" d="M817.43,1053.77l.85.14-.68,2.36h2.1a26.62,26.62,0,0,0,.58-2.94l.88.11c-.16,1-.35,1.94-.56,2.83h5.61v.83h-5.84c-.14.48-.29.94-.46,1.37h4.91v.74a6.11,6.11,0,0,1-2,2.81,19.45,19.45,0,0,0,3.55,1.58l-.44.8a18.9,18.9,0,0,1-3.81-1.83,17,17,0,0,1-3.66,1.88l-.46-.8a16.52,16.52,0,0,0,3.36-1.62,6.5,6.5,0,0,1-2-2.34,12.41,12.41,0,0,1-3.37,4.51l-.44-.79a13.54,13.54,0,0,0,3.87-6.31h-3Zm4.67,7.76a5.7,5.7,0,0,0,1.83-2.27H820A6.42,6.42,0,0,0,822.09,1061.53Zm3.21-6.12-.61.61a13.32,13.32,0,0,0-2.11-2l.58-.56A14.51,14.51,0,0,1,825.31,1055.41Z" transform="translate(-655.22 -923.1)"/><path class="cls-1" d="M830.21,1059.23a16.69,16.69,0,0,1-.18,2,4.22,4.22,0,0,0,1.25,1.51v-4.33h-2.46v-.79H831v-1.76h-2V1055h2v-1.62h.86V1055h1.92v.79h-1.92v1.76h2.07v.79H832.1v1.69h1.7v.79h-1.7v2.25a20.13,20.13,0,0,0,4.41.31c1.33,0,2.33,0,3-.06l-.14.84h-2.64c-2.81,0-4.57-.17-5.26-.49a4,4,0,0,1-1.61-1.52,12.61,12.61,0,0,1-.74,2.24l-.66-.59a12.92,12.92,0,0,0,1-4.7Zm8.64,2.57a1.23,1.23,0,0,1-1.12.44h-2.13a.91.91,0,0,1-1-1v-3.9h3.26V1055h-3.47v-.8h4.31v3.95h-3.24v2.76a.45.45,0,0,0,.5.5h1.63a.66.66,0,0,0,.67-.38,6.23,6.23,0,0,0,.19-1.39l.82.28A4.56,4.56,0,0,1,838.84,1061.79Z" transform="translate(-655.22 -923.1)"/><path class="cls-1" d="M666.81,1070.51A11,11,0,0,0,672,1078l-.56.76a11.8,11.8,0,0,1-5-6.48,11.24,11.24,0,0,1-5.09,6.49l-.53-.77q4.95-3,5.11-8.23c0-.82,0-1.45,0-1.91h.88C666.9,1068.88,666.86,1069.76,666.81,1070.51Z" transform="translate(-655.22 -923.1)"/><path class="cls-1" d="M676.64,1075.9a2.45,2.45,0,0,1-1.35,2.29l-.32-.52a2,2,0,0,0,1-1.55l-.2,0a.74.74,0,0,1-.52-.19.75.75,0,0,1,0-1,.69.69,0,0,1,.52-.19C676.35,1074.74,676.64,1075.12,676.64,1075.9Zm-.34-5.36a.69.69,0,0,1,.2.5.69.69,0,0,1-.2.52.76.76,0,0,1-.53.2.74.74,0,0,1-.52-.2.69.69,0,0,1-.2-.52.64.64,0,0,1,.2-.5.69.69,0,0,1,.52-.2A.71.71,0,0,1,676.3,1070.54Z" transform="translate(-655.22 -923.1)"/><path class="cls-1" d="M690.76,1069.57a2.35,2.35,0,0,1,.77,1.81,2.92,2.92,0,0,1-.84,2,12.11,12.11,0,0,1-1.78,1.38,4.23,4.23,0,0,0-1.87,2h4.5v.88h-5.71a3.08,3.08,0,0,1,.85-2.12,10.41,10.41,0,0,1,1.86-1.52,10.58,10.58,0,0,0,1.34-1.07,2.24,2.24,0,0,0,.66-1.54,1.55,1.55,0,0,0-.47-1.21,1.87,1.87,0,0,0-1.31-.43,1.6,1.6,0,0,0-1.36.6,2.61,2.61,0,0,0-.53,1.71h-1a3.23,3.23,0,0,1,.8-2.29,2.72,2.72,0,0,1,2.1-.86A2.84,2.84,0,0,1,690.76,1069.57Z" transform="translate(-655.22 -923.1)"/><path class="cls-1" d="M693.72,1072.14l-.58-.72a6.65,6.65,0,0,0,2.45-3.71l.9.17a12.43,12.43,0,0,1-.46,1.28h7.45v.84h-3.77v1.92h3.35v.83h-3.35v2.59h4.15v.84h-4.15v2.67h-.88v-2.67H693.3v-.84h2v-3.42h3.56V1070h-3.23A7.21,7.21,0,0,1,693.72,1072.14Zm5.12,3.2v-2.59h-2.7v2.59Z" transform="translate(-655.22 -923.1)"/><path class="cls-1" d="M715.62,1069.86v8.73h-.86v-.8H707v.79h-.86v-8.75H707V1077h3.43v-9.07h.89V1077h3.42v-7.1Z" transform="translate(-655.22 -923.1)"/><path class="cls-1" d="M728.15,1068.31v.83h-8.7v8.35h9v.83h-9.87v-10Zm-3.91,4.45a14.21,14.21,0,0,0,1.77-3l.78.42a14.7,14.7,0,0,1-1.88,3.2q1.4,1.29,2.55,2.55l-.67.67a28.29,28.29,0,0,0-2.46-2.55,10.91,10.91,0,0,1-3.65,2.59l-.5-.78a9.84,9.84,0,0,0,3.49-2.42c-.95-.84-2-1.7-3.14-2.58l.62-.6C722.26,1071.08,723.29,1071.92,724.24,1072.76Z" transform="translate(-655.22 -923.1)"/><path class="cls-1" d="M735.93,1067.82v1.57h4.71v.84h-4.71v1.83h3.23v.77a9.78,9.78,0,0,1-2.91,3.45,16.92,16.92,0,0,0,2,.95,23.62,23.62,0,0,0,2.73.84l-.5.75a23.42,23.42,0,0,1-2.94-1,13.61,13.61,0,0,1-2-1,17.87,17.87,0,0,1-4.91,2.06l-.49-.77a16.68,16.68,0,0,0,4.68-1.8,8.71,8.71,0,0,1-1.64-1.61,5.43,5.43,0,0,1-.94-1.81h-.92v-.8H735v-1.83h-4.67v-.84H735v-1.57Zm2.25,5h-5.12a4.66,4.66,0,0,0,1,1.69,7.5,7.5,0,0,0,1.43,1.26A8.61,8.61,0,0,0,738.19,1072.87Z" transform="translate(-655.22 -923.1)"/><path class="cls-1" d="M744.63,1069v-1.07h.83V1069h1.28v.77h-1.28V1071h.7a15.19,15.19,0,0,0,1.64-2.6l.67.35a21.3,21.3,0,0,1-1.37,2.25H748v.8h-1.5c-.32.38-.65.74-1,1.08h2v.62a13.46,13.46,0,0,1-1.44,1.44v.59a19.75,19.75,0,0,0,2.13-.44v.8a18.67,18.67,0,0,1-2.13.42v1.39a.92.92,0,0,1-1,1h-1.18l-.22-.78c.44,0,.8.06,1.07.06a.48.48,0,0,0,.53-.55v-1c-.79.1-1.68.19-2.64.28l-.12-.83c1,0,1.92-.13,2.76-.23v-.88a9.82,9.82,0,0,0,1.26-1.13h-1.86a12.63,12.63,0,0,1-1.86,1.28l-.54-.61c.38-.22.74-.44,1.08-.67h-.28v-.77h1.27a13.74,13.74,0,0,0,1.13-1.08h-3v-.8h2.13v-1.22h-1.57V1069Zm3.75,4.34-.52-.64a11.82,11.82,0,0,0,1.55-4.86l.85.14c-.1.61-.22,1.18-.34,1.7H753v.83h-.74a11.46,11.46,0,0,1-1.19,4.94,8.54,8.54,0,0,0,2.24,2.6l-.43.75a8.68,8.68,0,0,1-2.28-2.58,8.85,8.85,0,0,1-2.71,2.58l-.48-.78a7.74,7.74,0,0,0,2.75-2.64,13,13,0,0,1-1-3.42A9.15,9.15,0,0,1,748.38,1073.3Zm1.33-2.82a.17.17,0,0,0,0,.07,12.79,12.79,0,0,0,1,3.95,10.69,10.69,0,0,0,.85-4Z" transform="translate(-655.22 -923.1)"/><path class="cls-1" d="M758.64,1077a18.44,18.44,0,0,1-3.83,1.4l-.12-.83a17.27,17.27,0,0,0,3.95-1.39Zm-1.08-8.84a19.14,19.14,0,0,1-1.81,3.66c.55,0,1.1-.12,1.67-.22.23-.42.47-.86.71-1.33l.79.3a27.43,27.43,0,0,1-2.76,4.33,19.84,19.84,0,0,0,2.51-.72v.79a18.37,18.37,0,0,1-3.56.88l-.23-.79a1.38,1.38,0,0,0,.38-.24,12.71,12.71,0,0,0,1.73-2.45l-2.05.3-.22-.79a.91.91,0,0,0,.36-.32,19.7,19.7,0,0,0,1.66-3.72Zm1.62,5.34-.54-.71a8.48,8.48,0,0,0,4.67-3.57h-4.1v-.83h5.13v.68a6.77,6.77,0,0,1-1.3,2,18.36,18.36,0,0,1,2.57,1.91l-.64.64a15.76,15.76,0,0,0-2.49-2A11.09,11.09,0,0,1,759.18,1073.47Zm.12,1.45v-.84h5.6v.84h-2.36v2.65h2.91v.84h-6.69v-.84h2.89v-2.65Z" transform="translate(-655.22 -923.1)"/><path class="cls-1" d="M777.59,1069.25h-8.74v3.55a13.22,13.22,0,0,1-1.28,6l-.67-.6a12.18,12.18,0,0,0,1.08-5.41v-4.39h9.62Zm-1,8.48a1.64,1.64,0,0,1-1.58.95l-1.42,0-.23-.82,1.44.06a1.07,1.07,0,0,0,1.12-.85,23.58,23.58,0,0,0,.29-4.28h-2.78a9.47,9.47,0,0,1-.9,3.31,6.27,6.27,0,0,1-3,2.74L769,1078a5.92,5.92,0,0,0,2.84-2.61,9.17,9.17,0,0,0,.68-2.67h-2.82V1072h2.89l0-.95v-1.16h.88V1071l0,.95h3.57C777.06,1075.17,776.91,1077.09,776.61,1077.73Z" transform="translate(-655.22 -923.1)"/><path class="cls-1" d="M782.61,1075.9a2.45,2.45,0,0,1-1.35,2.29l-.32-.52a2,2,0,0,0,1-1.55l-.2,0a.74.74,0,0,1-.52-.19.75.75,0,0,1,0-1,.69.69,0,0,1,.52-.19C782.32,1074.74,782.61,1075.12,782.61,1075.9Zm-.34-5.36a.69.69,0,0,1,.2.5.69.69,0,0,1-.2.52.76.76,0,0,1-.53.2.74.74,0,0,1-.52-.2.69.69,0,0,1-.2-.52.64.64,0,0,1,.2-.5.69.69,0,0,1,.52-.2A.71.71,0,0,1,782.27,1070.54Z" transform="translate(-655.22 -923.1)"/><path class="cls-1" d="M797.49,1070.51v1.16h3.36v2.92h1.52v.8h-4.29q1,1.76,4.39,2.75l-.47.77c-2.55-.86-4.14-2-4.76-3.51H797a5.37,5.37,0,0,1-.82,1.38,8,8,0,0,1-4,2.13l-.47-.76a7.77,7.77,0,0,0,3.8-2,4.57,4.57,0,0,0,.49-.79h-4.31v-.8h1.5v-2.92h3.38v-1.16Zm-2.91-1.63v-1.07h.89v1.07h3.17v-1.07h.89v1.07h2.79v.79h-2.79v1.17h-.89v-1.17h-3.17v1.17h-.89v-1.17h-2.79v-.79Zm1.76,5.71a7.34,7.34,0,0,0,.26-1.75v-.36h-2.54v2.11Zm3.67,0v-2.11h-2.52v.36a8.47,8.47,0,0,1-.24,1.75Z" transform="translate(-655.22 -923.1)"/><path class="cls-1" d="M806.45,1071.49v5.31c.38-.34.79-.73,1.24-1.18l.23.91a15.42,15.42,0,0,1-2.22,1.85l-.34-.77a.7.7,0,0,0,.26-.52v-4.79h-1.76v-.83Zm.85-1.75-.6.59a12.83,12.83,0,0,0-2-1.75l.6-.59A13.61,13.61,0,0,1,807.31,1069.74Zm7.21-1.43v.79h-3.35l-.29,1.33h2.88v2.36h1.13v.8h-7.24v-.8h1.87l.34-1.58h-1.61v-.78H810l.29-1.33H808v-.79Zm-.42,10.53h-.85v-.58H809.4v.58h-.85v-4.15h5.54Zm-.85-1.39v-2H809.4v2Zm-.35-4.65v-1.58h-2.18l-.34,1.58Z" transform="translate(-655.22 -923.1)"/><path class="cls-1" d="M819.71,1071.48c.13-.49.25-1,.37-1.49h-3v-.8h3.17c.11-.49.2-1,.3-1.45l.89.07c-.1.48-.18.95-.28,1.38h5.17v.8H821c-.12.53-.24,1-.36,1.49H827v.84H820.4c-.17.56-.35,1.09-.52,1.58h5.71v.74a10.43,10.43,0,0,1-2.71,2.67c.72.26,1.42.56,2.07.88l-.48.75a30.59,30.59,0,0,0-5.56-2.1l.46-.67c.9.24,1.76.52,2.59.8a11.12,11.12,0,0,0,2.61-2.28h-5.92c.29-.77.56-1.56.82-2.39h-3.19v-.84Z" transform="translate(-655.22 -923.1)"/><path class="cls-1" d="M833.11,1067.94v9.54h1.7v-9.54h.88v9.54h3.6v.84H828.66v-.84h3.57v-9.54Zm-1.74,7.74-.79.2a44.85,44.85,0,0,0-1.62-5.54l.73-.24A42.59,42.59,0,0,1,831.37,1075.68Zm7.59-5.34a27.67,27.67,0,0,1-1.81,5.48l-.78-.28a25.89,25.89,0,0,0,1.82-5.42Z" transform="translate(-655.22 -923.1)"/><path class="cls-1" d="M665.31,1083.25c-.67,4.2-1.91,7.44-3.69,9.74l-.56-.71a20.44,20.44,0,0,0,3.41-9.17Zm6.58,9-.46.79c-2.37-2.13-3.74-5.5-4.1-10.13l.8-.25C668.42,1086.95,669.67,1090.14,671.9,1092.25Z" transform="translate(-655.22 -923.1)"/><path class="cls-1" d="M676.64,1091.5a18.41,18.41,0,0,1-3.59,1l-.11-.84a19.27,19.27,0,0,0,3.69-1Zm-.65-9a17.55,17.55,0,0,1-1.91,3.6c.58-.06,1.15-.13,1.73-.23l.72-1.27.76.28a26.9,26.9,0,0,1-2.79,4.16,22.92,22.92,0,0,0,2.6-.64v.78a22,22,0,0,1-3.66.78l-.23-.78a1.29,1.29,0,0,0,.4-.24,12.08,12.08,0,0,0,1.73-2.29q-1,.16-2.09.29l-.22-.79a.79.79,0,0,0,.36-.31,18.89,18.89,0,0,0,1.79-3.66Zm1.27,1v-.82h5.27v.54q-.29,1.62-.58,2.77h1.52v.48a9.08,9.08,0,0,1-1.67,4.2,10.79,10.79,0,0,0,2.19,1.79l-.54.72a10.35,10.35,0,0,1-2.17-1.87,8.93,8.93,0,0,1-2.64,1.89l-.48-.79a8.8,8.8,0,0,0,2.54-1.82,10.76,10.76,0,0,1-1.64-3.3,11,11,0,0,1-2.36,5.85l-.64-.56q2.34-2.63,2.38-8.43v-.65Zm5.35,3.25h-1.67c.22-.74.44-1.82.7-3.25h-2.35v.65c0,.44,0,.88,0,1.28a10,10,0,0,0,2,4.56A7.74,7.74,0,0,0,682.62,1086.78Z" transform="translate(-655.22 -923.1)"/><path class="cls-1" d="M688.57,1090.75a1.49,1.49,0,0,1,0,2.15,1.56,1.56,0,0,1-1.1.43,1.58,1.58,0,0,1-1.1-.42,1.51,1.51,0,0,1,0-2.16,1.54,1.54,0,0,1,1.1-.43A1.56,1.56,0,0,1,688.57,1090.75Zm-1.74.46a.83.83,0,0,0,0,1.24.88.88,0,0,0,.64.26.92.92,0,0,0,.64-.26.83.83,0,0,0,0-1.24.87.87,0,0,0-.64-.26A.83.83,0,0,0,686.83,1091.2Z" transform="translate(-655.22 -923.1)"/></svg>