<svg id="图层_1" data-name="图层 1" xmlns="http://www.w3.org/2000/svg" viewBox="0 0 72 69.8"><defs><style>.cls-1{fill:#03a9f4;}.cls-2{fill:#ffc107;}</style></defs><path class="cls-1" d="M-101.73,1090.38l-13.22-7.59A51,51,0,0,1-105,1069a4.16,4.16,0,0,1,2.28-1.21h1l.7,0c2.31.39,4.56,3.44,5.72,5.17q1.37,2.35,2.63,4.75Z" transform="translate(130.23 -1066.34)"/><path class="cls-2" d="M-94.21,1072.27a105.67,105.67,0,0,1,5.84,11.43l-7,4,20.32,1.95,8.55-18.57-7.07,4.07c-1.92-3.91-4.38-7.16-8.1-8.83l-20,.1C-99,1066.34-96.59,1068.73-94.21,1072.27Z" transform="translate(130.23 -1066.34)"/><path class="cls-1" d="M-78.68,1098.76l.08-.11v.28l5.22,11.11c2.11.08,4.22.09,6.33.06,2.19-.18,6.26-.68,7.52-2.77,0-.07.08-.14.12-.21l.51-.93a4.15,4.15,0,0,0-.18-1.23,51,51,0,0,0-7.17-15.4l-13.09,7.81Z" transform="translate(130.23 -1066.34)"/><path class="cls-2" d="M-67,1111.42a104.92,104.92,0,0,1-12.82-.51l-.09-8.08-11.65,16.75,12,16.56-.08-8.16c4.35.24,8.38-.31,11.67-2.72l9.73-17.5C-59.44,1110.11-62.74,1111.08-67,1111.42Z" transform="translate(130.23 -1066.34)"/><path class="cls-1" d="M-109.5,1112.58c-.91,1.76-1.77,3.54-2.6,5.35-.79,2.06-2.09,5.94-.75,8l.14.2.63.88a3.84,3.84,0,0,0,1.72.68,50.75,50.75,0,0,0,17,.17q-.7-7.59-1.41-15.18Z" transform="translate(130.23 -1066.34)"/><path class="cls-2" d="M-113.33,1117.41a107.71,107.71,0,0,1,6-11.35l7.33,3.41-10.1-17.74-20.1,3.69,7.4,3.44c-2.09,3.83-3.33,7.71-2.57,11.7q5.8,8.17,11.6,16.33C-115.4,1124.79-114.85,1121.4-113.33,1117.41Z" transform="translate(130.23 -1066.34)"/></svg>