<svg id="图层_1" data-name="图层 1" xmlns="http://www.w3.org/2000/svg" viewBox="0 0 70.55 16.51"><path d="M-94.55,1134.73a25.87,25.87,0,0,0,7.94,6.05l-.52.94a25.45,25.45,0,0,1-7.78-6.1,26.22,26.22,0,0,1-7.85,6.12l-.5-.94a26.35,26.35,0,0,0,8-6.07Zm.63,4.7v4.2h5.06v1h-5.06v4.79h6.36v1h-14.91v-1h2.83V1142h1v7.35h3.82v-9.94Z" transform="translate(103.27 -1134.6)"/><path d="M-78.39,1134.88v14.42h2.92v-14.42h1v14.42H-69v1H-84.84v-1h5.49v-14.42Zm-2.56,11.65-.9.22a64,64,0,0,0-2.5-8.41l.85-.29A65.64,65.64,0,0,1-80.95,1146.53Zm11.4-8.19a39.67,39.67,0,0,1-2.77,8.3l-.88-.32a39.82,39.82,0,0,0,2.79-8.21Z" transform="translate(103.27 -1134.6)"/><path d="M-66,1151.12l-.76-.67a16.71,16.71,0,0,0,1.12-6.41v-8.52h5v14c0,1-.47,1.48-1.4,1.48h-1.44l-.23-.86c.5,0,1,0,1.39,0s.77-.32.77-1v-4.41H-64.8A17.21,17.21,0,0,1-66,1151.12Zm4.45-14.67h-3.21v3.31h3.21Zm-3.21,7.47h3.21v-3.28h-3.21Zm6.75,7.18H-59v-15.58h7.09a17.65,17.65,0,0,1-.32,4.25c-.2.72-.86,1.08-2,1.08h-1.39l-.27-.85h1.21a3.79,3.79,0,0,0,1-.11.91.91,0,0,0,.52-.54,12.7,12.7,0,0,0,.25-2.93H-58v5.74h6.18v.83a13.17,13.17,0,0,1-1.91,4.92,14.14,14.14,0,0,0,3.1,2.3l-.47.81a14.42,14.42,0,0,1-3.17-2.38,9.64,9.64,0,0,1-2.92,2.39l-.5-.77A9.59,9.59,0,0,0-55,1148a11.58,11.58,0,0,1-2.48-4.92H-58Zm3.62-3.87a12.4,12.4,0,0,0,1.67-4.18h-3.85A10.36,10.36,0,0,0-54.41,1147.23Z" transform="translate(103.27 -1134.6)"/><path d="M-42.55,1134.75a10.7,10.7,0,0,1-.77,1.5h8v.79a15.65,15.65,0,0,1-4.43,3.53,23.5,23.5,0,0,0,7.06,1.84l-.43.92a23,23,0,0,1-7.69-2.21,29.62,29.62,0,0,1-7.81,2.23l-.45-.9a28.25,28.25,0,0,0,7.24-1.89,20.51,20.51,0,0,1-3.13-2.29,14.23,14.23,0,0,1-2.43,1.8l-.59-.77a9.88,9.88,0,0,0,4.48-4.68Zm1.71,7.8a12,12,0,0,1-.2,2.2h6.41c0,3-.31,4.74-.83,5.31a3.59,3.59,0,0,1-2.74.88c-.54,0-1.21,0-2-.05l-.25-.9c.81,0,1.48.07,2,.07,1.19,0,1.94-.25,2.25-.72a9.57,9.57,0,0,0,.56-3.71h-5.65a8.5,8.5,0,0,1-.63,1.48c-1,1.62-3.06,3-6.34,4l-.65-.77c3-.88,4.93-2,5.94-3.38a8.07,8.07,0,0,0,.63-1.31h-5.56v-.88H-42a10.66,10.66,0,0,0,.23-2.2Zm4.1-5.38H-44c-.13.14-.25.29-.36.43a16.76,16.76,0,0,0,3.53,2.47A16.47,16.47,0,0,0-36.74,1137.16Z" transform="translate(103.27 -1134.6)"/></svg>