<svg id="图层_1" data-name="图层 1" xmlns="http://www.w3.org/2000/svg" viewBox="0 0 58.32 16.48"><path d="M-206,1145.62l-.31-1a16.94,16.94,0,0,0,5.15-6.34h-4.7v-.94h5.67v.83a13.64,13.64,0,0,1-2.25,3.91v.07a15.79,15.79,0,0,1,2.92,2.18l-.54.85a13.82,13.82,0,0,0-2.38-2v7.89h-1v-7.87A28.71,28.71,0,0,1-206,1145.62Zm3.91-8.66-.85.31a17.72,17.72,0,0,0-1-2.41l.92-.25A18.24,18.24,0,0,1-202.08,1137Zm7.47-2.23v5.55h4.23v1h-4.23v8.28h4.68v1h-10.44v-1h4.79v-8.28h-4.18v-1h4.18v-5.55Z" transform="translate(206.29 -1134.6)"/><path d="M-161.15,1142.69a19.3,19.3,0,0,1-.63,2H-157V1151h-.88v-1.12H-161V1151h-.9v-6a11.05,11.05,0,0,1-1.94,3.22l-.52-.81a11.31,11.31,0,0,0,2.32-4.75h-1.53v-.86h1.73c.14-.72.25-1.48.34-2.27H-164v-.9h2.59c.05-.76.09-1.53.11-2.36h-2.16v-.85h6v3.21h1.06v.9h-1.06v3.13Zm3.3,6.28v-3.35H-161V1149Zm-3.1-7.15h2.61v-2.27h-2.25C-160.68,1140.35-160.8,1141.1-160.95,1141.83Zm.45-3.17h2.16v-2.36h-2.05C-160.41,1137.13-160.44,1137.9-160.5,1138.66Zm4.74.49v-.92h4.18a23.31,23.31,0,0,0,1.44-3.62l.92.32a22.2,22.2,0,0,1-1.35,3.29h2.21v.92h-3.12v2.93h2.72v.92h-2.72v2.9H-148v1h-3.51v4.23h-1v-4.23h-3.48v-1h3.48V1143h-2.9v-.92h2.9v-2.93Zm3.08-1.48-.85.41a20.53,20.53,0,0,0-1.6-3l.83-.4A26.5,26.5,0,0,1-152.68,1137.67Z" transform="translate(206.29 -1134.6)"/></svg>