<svg id="图层_1" data-name="图层 1" xmlns="http://www.w3.org/2000/svg" viewBox="0 0 190 190"><defs><style>.cls-1{fill:#fff;}</style></defs><rect width="190" height="190"/><path class="cls-1" d="M136.95,1390.42l5.71-8.87h4.88v.18L139,1394.16V1403h-4.05v-8.87l-8.26-12.43v-.18h4.82Z" transform="translate(-60.22 -1337.59)"/><path class="cls-1" d="M160.56,1395.48a7.87,7.87,0,1,1-7.92-7.89A7.65,7.65,0,0,1,160.56,1395.48Zm-12,0c0,2.3,1.38,4.45,4.11,4.45s4.11-2.15,4.11-4.45a4.27,4.27,0,0,0-4.11-4.48C150,1391,148.55,1393.21,148.55,1395.48Z" transform="translate(-60.22 -1337.59)"/><path class="cls-1" d="M167,1387.9v7.92c0,2.3,1.26,4.05,3.65,4.05a4,4,0,0,0,3.87-4.24v-7.74h3.71v15.17h-3.35l-.25-2.06a6.75,6.75,0,0,1-5.13,2.27c-3.62,0-6.26-2.73-6.26-7.43v-8Z" transform="translate(-60.22 -1337.59)"/><path class="cls-1" d="M143,1435.82H131.76l-1.84,4.05h-4.39l9.64-21.49h4.42l9.64,21.49h-4.42Zm-5.62-12.92-4,9.15h8Z" transform="translate(-60.22 -1337.59)"/><path class="cls-1" d="M153.92,1424.73l.28,1.75a4.46,4.46,0,0,1,4.27-2.15,5.74,5.74,0,0,1,3.9,1.44l-1.69,3.25a3.74,3.74,0,0,0-2.7-1,3.49,3.49,0,0,0-3.78,3.84v8h-3.75v-15.14Z" transform="translate(-60.22 -1337.59)"/><path class="cls-1" d="M167,1433.64c.25,1.87,1.87,3.22,4.51,3.22a6.24,6.24,0,0,0,4.05-1.41l2.39,2.36a9.3,9.3,0,0,1-6.51,2.46c-5.22,0-8.32-3.22-8.32-8.07,0-4.61,3.13-7.92,8-7.92,5.07,0,8.23,3.13,7.64,9.36Zm8.23-3.1c-.25-2-1.78-2.95-3.93-2.95a4.08,4.08,0,0,0-4.24,2.95Z" transform="translate(-60.22 -1337.59)"/><path class="cls-1" d="M98.73,1457.3v4.3h4.17v3.22H98.7v6.54a1.88,1.88,0,0,0,2,2.15,4.28,4.28,0,0,0,1.81-.46l1,3.19a8.36,8.36,0,0,1-3.1.65c-3.29.12-5.43-1.75-5.43-5.53v-6.54H92.16v-3.22H95v-3.9Z" transform="translate(-60.22 -1337.59)"/><path class="cls-1" d="M109.45,1455.21v8.41a5.59,5.59,0,0,1,4.73-2.27c4.3,0,6.2,2.92,6.2,7.37v8h-3.75v-8c0-2.76-1.44-3.93-3.44-3.93a3.88,3.88,0,0,0-3.75,4.14v7.74H105.7v-21.49Z" transform="translate(-60.22 -1337.59)"/><path class="cls-1" d="M126.73,1470.47c.25,1.87,1.87,3.22,4.51,3.22a6.24,6.24,0,0,0,4.05-1.41l2.39,2.36a9.3,9.3,0,0,1-6.51,2.46c-5.22,0-8.32-3.22-8.32-8.07,0-4.61,3.13-7.92,8-7.92,5.07,0,8.23,3.13,7.64,9.36Zm8.23-3.1c-.25-2-1.78-2.95-3.93-2.95a4.08,4.08,0,0,0-4.24,2.95Z" transform="translate(-60.22 -1337.59)"/><path class="cls-1" d="M162,1455.18h4.05v21.52h-2.52v0l-11.3-14.52v14.49h-4.05v-21.49h3.28L162,1468.54Z" transform="translate(-60.22 -1337.59)"/><path class="cls-1" d="M172.71,1470.47c.25,1.87,1.87,3.22,4.51,3.22a6.24,6.24,0,0,0,4.05-1.41l2.39,2.36a9.3,9.3,0,0,1-6.51,2.46c-5.22,0-8.32-3.22-8.32-8.07,0-4.61,3.13-7.92,8-7.92,5.07,0,8.23,3.13,7.64,9.36Zm8.23-3.1c-.25-2-1.78-2.95-3.93-2.95a4.08,4.08,0,0,0-4.24,2.95Z" transform="translate(-60.22 -1337.59)"/><path class="cls-1" d="M196.74,1461.57h4.48v.12l-5,7.34,5.28,7.58v.09h-4.48l-3.28-5.07-3.29,5.07H186v-.09l5.28-7.58-5-7.34v-.12h4.48l3,5.13Z" transform="translate(-60.22 -1337.59)"/><path class="cls-1" d="M208.72,1457.3v4.3h4.17v3.22h-4.21v6.54a1.88,1.88,0,0,0,2,2.15,4.28,4.28,0,0,0,1.81-.46l1,3.19a8.36,8.36,0,0,1-3.1.65c-3.29.12-5.43-1.75-5.43-5.53v-6.54h-2.82v-3.22H205v-3.9Z" transform="translate(-60.22 -1337.59)"/></svg>